<svg version="1.1" id="angle_x5F_right_00000021818490119989693460000007044842537275676606_" xmlns="http://www.w3.org/2000/svg" x="0" y="0" viewBox="0 0 9 10" xml:space="preserve"><path d="M8.907 4.768L4.569.108a.286.286 0 00-.214-.1.286.286 0 00-.214.1l-.466.5a.327.327 0 00-.092.23c0 .087.03.164.092.23l3.659 3.93-3.659 3.93a.33.33 0 000 .46l.466.5a.282.282 0 00.214.101c.08 0 .152-.033.214-.1l4.338-4.66a.33.33 0 000-.46zm-3.482.23a.328.328 0 00-.093-.23L.995.108a.288.288 0 00-.214-.1.287.287 0 00-.214.1L.1.608a.328.328 0 000 .46l3.658 3.93L.1 8.928a.33.33 0 000 .461l.466.5c.062.067.133.1.214.1.08 0 .152-.033.214-.1l4.337-4.66a.323.323 0 00.093-.23z" fill="#727272" id="angle_x5F_right"/></svg>