<svg version="1.1" id="Shape_1_00000004520635172038942550000016706746843026012549_" xmlns="http://www.w3.org/2000/svg" x="0" y="0" viewBox="0 0 16 16" xml:space="preserve"><path d="M14.1 1.2h-.7V0h-1.3v1.3H3.9V0H2.6v1.3h-.7C.8 1.2 0 2.1 0 3.1v11c0 1 .8 1.9 1.9 1.9h12.2c1 0 1.9-.8 1.9-1.9v-11c0-1-.8-1.9-1.9-1.9zm.7 12.9c0 .3-.3.6-.6.6H1.9c-.3 0-.6-.3-.6-.6V5.9h13.5v8.2zm0-9.5H1.2V3.1c0-.3.3-.6.6-.6h.8v1.2h1.3V2.5h8.2v1.2h1.3V2.5h.7c.3 0 .6.3.6.6v1.5zM3.6 7.2H2.4v1.3h1.2V7.2zm2.5 0H4.9v1.3h1.2V7.2zm2.5 0H7.4v1.3h1.3V7.2zm2.5 0H9.9v1.3h1.2V7.2zm2.5 0h-1.2v1.3h1.2V7.2zm-10 2.5H2.4v1.2h1.2V9.7zm2.5 0H4.9v1.2h1.2V9.7zm2.5 0H7.4v1.2h1.3V9.7zm2.5 0H9.9v1.2h1.2V9.7zm-7.5 2.5H2.4v1.2h1.2v-1.2zm2.5 0H4.9v1.2h1.2v-1.2zm2.5 0H7.4v1.2h1.3v-1.2zm2.5 0H9.9v1.2h1.2v-1.2zm2.5-2.5h-1.2v1.2h1.2V9.7z" fill="#fe3e57" id="Shape_1"/></svg>