<svg version="1.1" id="checkmark_00000077296394414773623690000012857321622321179816_" xmlns="http://www.w3.org/2000/svg" x="0" y="0" viewBox="0 0 20 20" xml:space="preserve"><path d="M17.1 2.9C15.2 1 12.7 0 10 0 7.3 0 4.8 1 2.9 2.9 1 4.8 0 7.3 0 10c0 2.7 1 5.2 2.9 7.1C4.8 19 7.3 20 10 20c2.7 0 5.2-1 7.1-2.9C19 15.2 20 12.7 20 10c0-2.7-1-5.2-2.9-7.1zM10 18.8c-4.9 0-8.8-4-8.8-8.8 0-4.9 4-8.8 8.8-8.8 4.9 0 8.8 4 8.8 8.8 0 4.9-3.9 8.8-8.8 8.8zm3.9-12L8.8 12 6.1 9.2c-.3-.2-.6-.2-.9 0-.2.3-.2.6 0 .9l3.1 3.1c.1.1.3.2.4.2s.3-.1.4-.2l5.6-5.6c.3-.2.3-.6.1-.8-.3-.2-.6-.2-.9 0z" fill="#fe3e57" id="checkmark"/></svg>