<svg version="1.1" id="Shape_16_00000128449876856404468730000007544039856158086023_" xmlns="http://www.w3.org/2000/svg" x="0" y="0" viewBox="0 0 20 20" xml:space="preserve"><path d="M19.008 5.648a.833.833 0 10-1.5.727c.548 1.13.825 2.35.825 3.624 0 4.595-3.738 8.333-8.333 8.333-4.595 0-8.333-3.738-8.333-8.333 0-4.595 3.738-8.333 8.333-8.333 1.904 0 3.693.622 5.173 1.797A.832.832 0 1016.21 2.16 10.017 10.017 0 0010 0C4.486 0 0 4.486 0 10s4.486 10 10 10 10-4.486 10-10a9.9 9.9 0 00-.992-4.35zM10 3.332a.834.834 0 00-.833.834v5.833c0 .46.373.833.833.833h4.167a.834.834 0 000-1.666h-3.334v-5A.834.834 0 0010 3.332z" fill="#8d8d8d" id="Shape_16"/></svg>