<svg version="1.1" id="Comment_00000132779674912221571130000012267627514837122958_" xmlns="http://www.w3.org/2000/svg" x="0" y="0" viewBox="0 0 16 16" xml:space="preserve"><path d="M8 7.6c.4 0 .8-.3.8-.8 0-.4-.4-.8-.8-.8s-.8.4-.8.8.4.8.8.8zm3.1 0c.4 0 .8-.3.8-.8 0-.4-.3-.8-.8-.8s-.8.3-.8.8c0 .4.4.8.8.8zM15.4 0H.6C.3 0 0 .3 0 .6V13c0 .3.3.6.6.6h5.5l1.3 2.1c.2.2.4.3.6.3.2 0 .4-.1.5-.3l1.3-2.1h5.5c.3 0 .6-.3.6-.6V.6c.1-.3-.2-.6-.5-.6zm-.7 12.4H9.5c-.2 0-.4.1-.5.3l-1 1.5-1-1.5c-.1-.2-.3-.3-.5-.3H1.2V1.2h13.5v11.2zM4.9 7.6c.4 0 .8-.3.8-.8 0-.4-.4-.8-.8-.8-.5 0-.8.4-.8.8s.3.8.8.8z" fill="#fe3e57" id="Comment"/></svg>