<svg xmlns="http://www.w3.org/2000/svg" viewBox="0 0 60 60"><style>.st0{enable-background:new}</style><g id="Icon_x5F_bg_00000139253804022838389690000014309896871799393469_" class="st0"><path fill="#34c3ff" d="M0 0h60v60H0z" id="Icon_x5F_bg"/></g><g id="Icon_00000177448691129111025670000010396791224970300084_" class="st0"><path d="M42 20.438l-1.45-.107-.122 1.685a12.275 12.275 0 00-9.07-4.018c-6.814 0-12.358 5.608-12.358 12.5 0 6.894 5.544 12.5 12.358 12.5 4.12 0 7.958-2.072 10.265-5.545l-1.207-.82c-2.037 3.065-5.422 4.895-9.058 4.895-6.012 0-10.904-4.948-10.904-11.03 0-6.08 4.892-11.028 10.904-11.028 3.092 0 6.003 1.325 8.057 3.607l-1.85-.137-.107 1.467 4.234.312.308-4.281zM24.014 31.02c-.394 0-.8-.172-.947-.244l-.214.77c.24.155.696.288 1.243.288.954 0 1.611-.41 1.611-1.114 0-.465-.372-.787-.816-.842v-.011c.482-.155.695-.454.695-.842 0-.537-.509-.925-1.33-.925-.56 0-1.058.144-1.31.298l.22.744c.142-.078.514-.233.86-.233.333 0 .509.116.509.288 0 .232-.313.31-.554.31h-.443v.737h.46c.323 0 .624.144.624.41 0 .26-.252.366-.608.366zm2.175-1.053c0 .986.427 1.867 1.495 1.867h.006c1.074 0 1.5-.88 1.5-1.867 0-.981-.426-1.867-1.5-1.867s-1.501.886-1.501 1.867zm1.972 0c0 .764-.186 1.113-.466 1.113h-.005c-.285 0-.471-.349-.471-1.113 0-.765.186-1.108.47-1.108s.472.343.472 1.108zM32.176 28c-.476 0-.942.028-1.298.083v3.663c.203.033.548.066 1.096.066.777 0 1.462-.15 1.917-.498.361-.278.68-.749.68-1.524 0-.682-.302-1.137-.735-1.413-.405-.26-.882-.377-1.66-.377zm-.022 3.009c-.076 0-.18 0-.24-.012V28.82c.054-.011.17-.028.36-.028.67 0 1.19.31 1.19 1.053 0 .815-.554 1.175-1.31 1.164zm2.788-.033c0 .443.351.858.943.858.306 0 .591-.077.789-.299h.021l.055.233h.932a3.895 3.895 0 01-.044-.676v-.915c0-.73-.395-1.202-1.32-1.202-.603 0-1.003.16-1.178.255l.18.653c.176-.099.515-.215.817-.215.405 0 .47.122.47.221v.017c-1.018 0-1.665.338-1.665 1.07zm1.699-.438v.149c0 .05 0 .105-.011.15a.4.4 0 01-.367.283c-.192 0-.296-.09-.296-.245 0-.221.219-.337.674-.337zm1.983 1.507a1.327 1.327 0 01-.335.078l.192.875c.29-.022.641-.11.97-.382.296-.244.591-.638 1.09-2.018l.57-1.557h-1.129l-.268 1.18c-.033.145-.077.366-.115.51h-.022c-.039-.133-.093-.354-.137-.51l-.356-1.18h-1.156l1.057 2.472a.366.366 0 01.044.16c0 .04-.022.09-.055.128a.914.914 0 01-.35.244z" fill="#fff" id="Icon"/></g></svg>