<svg xmlns="http://www.w3.org/2000/svg" viewBox="0 0 60 60"><style>.st0{enable-background:new}</style><g id="Icon_x5F_bg_00000070115564300377013510000007287453487803833745_" class="st0"><path fill="#ffb534" d="M0 0h60v60H0z" id="Icon_x5F_bg"/></g><g id="icon_00000152986854280194055550000016295033776891174038_" class="st0"><path d="M47.199 28.597l-1.036-4.093a.622.622 0 00.496-.606v-.66c0-1.433-1.18-2.6-2.631-2.6H39.31v-1.36c0-.706-.581-1.28-1.295-1.28H13.964c-.714 0-1.295.574-1.295 1.28v11.221c0 .343.28.62.627.62a.623.623 0 00.626-.62V19.277c0-.022.019-.041.042-.041h24.051c.023 0 .042.019.042.041V30.5c0 .342.28.62.626.62a.623.623 0 00.627-.62v-.702h7.392a2.05 2.05 0 011.946 1.403H46.7a.623.623 0 00-.626.619v1.32c0 1.07.88 1.94 1.962 1.94h.71v2.723H47.11c-.538-1.535-2.015-2.64-3.75-2.64s-3.21 1.105-3.748 2.64h-.301V33.14a.623.623 0 00-.627-.62.623.623 0 00-.626.62v4.662H25.06a3.97 3.97 0 00-3.748-2.641 3.97 3.97 0 00-3.75 2.64h-3.6a.041.041 0 01-.041-.04V36.4h2.714a.622.622 0 00.626-.62.623.623 0 00-.626-.618h-6.013a.623.623 0 00-.626.619c0 .342.28.619.626.619h2.046v1.361c0 .706.58 1.28 1.295 1.28h3.383l-.001.041c0 2.161 1.78 3.92 3.967 3.92 2.187 0 3.966-1.759 3.966-3.92v-.041h14.115l-.001.041c0 2.161 1.78 3.92 3.967 3.92 2.187 0 3.967-1.759 3.967-3.92l-.002-.041h2.048a.623.623 0 00.626-.619V31.82c0-1.63-1.217-2.984-2.8-3.223zm-7.89-6.72h4.719c.76 0 1.378.61 1.378 1.362v.04H39.31v-1.402zm0 6.684v-4.044h5.566l1.023 4.044H39.31zM21.314 41.763c-1.497 0-2.714-1.202-2.714-2.68 0-1.48 1.217-2.683 2.714-2.683 1.496 0 2.714 1.203 2.714 2.682 0 1.48-1.218 2.681-2.714 2.681zm22.047 0c-1.497 0-2.714-1.202-2.714-2.68 0-1.48 1.217-2.683 2.714-2.683 1.496 0 2.714 1.203 2.714 2.682 0 1.48-1.218 2.681-2.714 2.681zm5.386-7.92h-.71a.707.707 0 01-.71-.702v-.702h1.42v1.403zm-27.433 3.96c-.714 0-1.295.573-1.295 1.28 0 .704.58 1.278 1.295 1.278.713 0 1.294-.574 1.294-1.279 0-.706-.58-1.28-1.294-1.28zm22.047 0c-.714 0-1.295.573-1.295 1.28 0 .704.581 1.278 1.295 1.278s1.294-.574 1.294-1.279c0-.706-.58-1.28-1.294-1.28zM26.03 35.78c0 .342.28.619.626.619h9.354a.622.622 0 00.626-.62.623.623 0 00-.626-.618h-9.354a.623.623 0 00-.626.619zm-14.07-2.02h8.018a.623.623 0 00.626-.62.622.622 0 00-.626-.618H11.96a.622.622 0 00-.626.619c0 .341.28.619.626.619zm18.932-9.64l-5.57 5.505-2.897-2.864a.631.631 0 00-.886 0 .614.614 0 000 .876l3.34 3.3a.627.627 0 00.886 0l6.013-5.94a.614.614 0 000-.876.632.632 0 00-.886 0z" fill="#fff" id="icon"/></g></svg>