<svg xmlns="http://www.w3.org/2000/svg" width="16" height="16"><path d="M8.004 3.898A4.096 4.096 0 003.902 8a4.097 4.097 0 004.102 4.105A4.097 4.097 0 0012.105 8a4.096 4.096 0 00-4.101-4.102zm0 6.77A2.672 2.672 0 015.336 8a2.668 2.668 0 015.336 0c0 1.473-1.2 2.668-2.668 2.668zM13.23 3.73a.956.956 0 11-1.912.002.956.956 0 011.912-.002zm2.72.973c-.063-1.281-.356-2.418-1.294-3.351-.937-.938-2.07-1.23-3.351-1.293C9.98-.02 6.023-.02 4.699.059 3.422.117 2.285.41 1.348 1.348.41 2.28.12 3.418.055 4.699c-.075 1.32-.075 5.281 0 6.602.062 1.281.355 2.418 1.293 3.351.937.938 2.07 1.23 3.351 1.293 1.324.075 5.281.075 6.606 0 1.28-.058 2.414-.351 3.351-1.293.934-.933 1.227-2.07 1.293-3.351.074-1.32.074-5.278 0-6.598zm-1.708 8.016a2.7 2.7 0 01-1.523 1.52c-1.051.417-3.551.323-4.715.323-1.164 0-3.668.09-4.719-.324a2.692 2.692 0 01-1.52-1.52c-.417-1.054-.32-3.554-.32-4.718 0-1.164-.093-3.664.32-4.715.278-.7.817-1.238 1.52-1.52 1.055-.417 3.555-.324 4.719-.324 1.164 0 3.668-.09 4.715.325a2.687 2.687 0 011.523 1.52c.418 1.054.32 3.55.32 4.714 0 1.164.098 3.668-.32 4.719zm0 0"/></svg>