<svg version="1.1" id="Shape_1_00000090280453316163927260000010232689133194414473_" xmlns="http://www.w3.org/2000/svg" x="0" y="0" viewBox="0 0 18 20" xml:space="preserve"><path d="M0 7.9v10.3c0 .3.1.5.2.8l5.6-5.4C3.6 11.5 2.2 10.1 0 7.9zm12.2 5.7l5.6 5.4c.1-.2.2-.5.2-.8V7.9c-2.1 2.1-3.6 3.5-5.8 5.7zM9 5.9c-.3 0-.6.3-.6.6s.3.6.6.6c.4 0 .5-.3.6-.6 0-.3-.3-.6-.6-.6zm-2.2 8.2L1 19.8c.3.1.5.2.8.2h14.4c.3 0 .5-.1.8-.2l-5.8-5.7H6.8zm-4.4-9L.6 6.9l1.8 1.8V5.1zm13.2 0v3.5l1.8-1.8-1.8-1.7zM11.2 13l3.2-3.2v-9c0-.4-.3-.8-.8-.8H4.3c-.4 0-.7.3-.7.6v9.2L6.8 13h4.4zM4.8 6.5c0-2.3 1.9-4.1 4.2-4.1 2.3 0 4.2 1.8 4.2 4.1 0 1.5-1.8 2.3-3 1.3-.3.3-.7.5-1.2.5-1 0-1.8-.8-1.8-1.8S8 4.8 9 4.8s1.8.8 1.8 1.8c0 .8 1.2.8 1.2 0 0-1.6-1.3-2.9-3-2.9S6 5 6 6.6c0 1 .5 1.9 1.4 2.5.9.6 2 .6 3 .1.7-.3 1.2.7.5 1.1-1.4.5-2.9.5-4.2-.3-1.2-.8-1.9-2.1-1.9-3.5z" fill="#fe3e57" id="Shape_1"/></svg>