<svg version="1.1" id="Capa_1" xmlns="http://www.w3.org/2000/svg" x="0" y="0" viewBox="174.952 382.571 48.095 28.857" xml:space="preserve" width="33" height="20"><path d="M223.048 397c0 7.94-6.413 14.429-14.429 14.429-7.94 0-14.429-6.49-14.429-14.429 0-7.94 6.413-14.429 14.353-14.429 8.092 0 14.505 6.49 14.505 14.429z" fill="#ffb600"/><path d="M208.619 382.571c7.94 0 14.429 6.49 14.429 14.429 0 7.94-6.413 14.429-14.429 14.429-7.94 0-14.429-6.49-14.429-14.429" fill="#f7981d"/><path d="M208.619 382.571c7.94 0 14.429 6.49 14.429 14.429 0 7.94-6.413 14.429-14.429 14.429" fill="#ff8500"/><path d="M189.228 382.571c-7.863.077-14.276 6.49-14.276 14.429 0 7.94 6.413 14.429 14.429 14.429 3.74 0 7.1-1.45 9.695-3.741.535-.458.993-.993 1.45-1.527h-2.976a17.614 17.614 0 01-1.07-1.45h5.116c.305-.459.61-.993.84-1.527h-6.795a9.1 9.1 0 01-.61-1.527h7.939c.458-1.45.763-2.977.763-4.58 0-1.07-.153-2.062-.305-3.054h-8.856c.077-.535.23-.993.382-1.527h7.94a9.098 9.098 0 00-.611-1.527h-6.718c.229-.534.534-.992.84-1.527h5.114a7.26 7.26 0 00-1.145-1.527h-2.825a13.01 13.01 0 011.451-1.45c-2.52-2.367-5.955-3.74-9.695-3.74 0-.154 0-.154-.077-.154z" fill="#ff5050"/><path d="M174.952 397c0 7.94 6.413 14.429 14.429 14.429 3.74 0 7.1-1.45 9.695-3.741.535-.458.993-.993 1.45-1.527h-2.976a17.614 17.614 0 01-1.07-1.45h5.116c.305-.459.61-.993.84-1.527h-6.795a9.1 9.1 0 01-.61-1.527h7.939c.458-1.45.763-2.977.763-4.58 0-1.07-.153-2.062-.305-3.054h-8.856c.077-.535.23-.993.382-1.527h7.94a9.098 9.098 0 00-.611-1.527h-6.718c.229-.534.534-.992.84-1.527h5.114a7.26 7.26 0 00-1.145-1.527h-2.825a13.01 13.01 0 011.451-1.45c-2.52-2.367-5.955-3.74-9.695-3.74h-.077" fill="#e52836"/><path d="M189.381 411.429c3.74 0 7.1-1.45 9.695-3.741.535-.458.993-.993 1.45-1.527h-2.976a17.614 17.614 0 01-1.07-1.45h5.116c.305-.459.61-.993.84-1.527h-6.795a9.1 9.1 0 01-.61-1.527h7.939c.458-1.45.763-2.977.763-4.58 0-1.07-.153-2.062-.305-3.054h-8.856c.077-.535.23-.993.382-1.527h7.94a9.098 9.098 0 00-.611-1.527h-6.718c.229-.534.534-.992.84-1.527h5.114a7.26 7.26 0 00-1.145-1.527h-2.825a13.01 13.01 0 011.451-1.45c-2.52-2.367-5.955-3.74-9.695-3.74h-.077" fill="#cb2026"/><path d="M194.496 400.664l.229-1.297c-.076 0-.23.076-.382.076-.534 0-.61-.305-.534-.458l.458-2.672h.84l.229-1.45h-.764l.153-.917h-1.527s-.916 5.039-.916 5.65c0 .916.534 1.297 1.221 1.297.458 0 .84-.152.993-.229zm.534-2.443c0 2.138 1.45 2.672 2.672 2.672 1.145 0 1.603-.229 1.603-.229l.306-1.45s-.84.382-1.603.382c-1.68 0-1.375-1.222-1.375-1.222h3.13s.23-.992.23-1.374c0-.992-.535-2.214-2.214-2.214-1.604-.153-2.749 1.527-2.749 3.435zm2.672-2.213c.84 0 .687.992.687 1.068h-1.68c0-.076.153-1.068.993-1.068zm9.696 4.656l.305-1.68s-.763.383-1.298.383c-1.069 0-1.527-.84-1.527-1.756 0-1.832.916-2.825 1.985-2.825.764 0 1.374.458 1.374.458l.23-1.603s-.917-.382-1.757-.382c-1.755 0-3.511 1.527-3.511 4.428 0 1.909.916 3.206 2.748 3.206.61 0 1.45-.229 1.45-.229zm-21.3-6.031c-1.069 0-1.832.306-1.832.306l-.229 1.298s.687-.306 1.68-.306c.534 0 .992.077.992.535 0 .305-.076.381-.076.381h-.687c-1.298 0-2.749.535-2.749 2.29 0 1.375.916 1.68 1.45 1.68 1.07 0 1.528-.687 1.604-.687l-.076.61h1.374l.61-4.198c0-1.832-1.526-1.909-2.06-1.909zm.306 3.436c0 .229-.153 1.45-1.07 1.45-.457 0-.61-.381-.61-.61 0-.382.23-.917 1.374-.917.23.077.306.077.306.077zm3.206 2.748c.382 0 2.29.076 2.29-1.985 0-1.908-1.832-1.527-1.832-2.29 0-.382.305-.534.84-.534.229 0 1.069.076 1.069.076l.229-1.374s-.535-.153-1.45-.153c-1.146 0-2.291.458-2.291 1.985 0 1.756 1.908 1.603 1.908 2.29 0 .458-.534.535-.916.535-.687 0-1.374-.23-1.374-.23l-.229 1.375c.076.152.458.305 1.756.305zm30.46-7.405l-.305 2.061s-.61-.763-1.45-.763c-1.375 0-2.596 1.68-2.596 3.664 0 1.222.61 2.52 1.908 2.52.916 0 1.45-.611 1.45-.611l-.076.534h1.527l1.145-7.329-1.603-.076zm-.687 4.046c0 .84-.382 1.909-1.221 1.909-.535 0-.84-.458-.84-1.222 0-1.221.534-1.985 1.221-1.985.535 0 .84.382.84 1.298zm-41.606 3.282l.916-5.496.153 5.497h1.069l1.984-5.497-.84 5.497h1.604l1.221-7.329h-2.519l-1.527 4.504-.076-4.504h-2.214l-1.221 7.329h1.45zm23.666 0c.458-2.519.534-4.58 1.603-4.198.153-.992.382-1.374.534-1.756h-.305c-.687 0-1.221.916-1.221.916l.152-.84h-1.45l-.993 5.955h1.68v-.076zm9.467-6.107c-1.07 0-1.833.306-1.833.306l-.229 1.298s.687-.306 1.68-.306c.534 0 .992.077.992.535 0 .305-.076.381-.076.381h-.687c-1.298 0-2.749.535-2.749 2.29 0 1.375.916 1.68 1.45 1.68 1.07 0 1.528-.687 1.604-.687l-.076.61h1.374l.61-4.198c.077-1.832-1.526-1.909-2.06-1.909zm.381 3.436c0 .229-.153 1.45-1.069 1.45-.458 0-.61-.381-.61-.61 0-.382.228-.917 1.374-.917.229.077.229.077.305.077zm2.977 2.671c.458-2.519.535-4.58 1.603-4.198.153-.992.382-1.374.535-1.756h-.305c-.688 0-1.222.916-1.222.916l.153-.84h-1.45l-.993 5.955h1.68v-.076z" fill="#fff"/><path d="M192.13 399.596c0 .916.534 1.297 1.22 1.297.535 0 .993-.152 1.146-.229l.229-1.297c-.076 0-.23.076-.382.076-.534 0-.61-.305-.534-.458l.458-2.672h.84l.229-1.45h-.764l.153-.917m1.069 4.275c0 2.138.687 2.672 1.908 2.672 1.145 0 1.603-.229 1.603-.229l.306-1.45s-.84.382-1.603.382c-1.68 0-1.375-1.222-1.375-1.222h3.13s.23-.992.23-1.374c0-.992-.535-2.214-2.214-2.214-1.604-.153-1.985 1.527-1.985 3.435zm1.908-2.213c.84 0 .993.992.993 1.068h-1.985c0-.076.152-1.068.992-1.068zm9.696 4.656l.305-1.68s-.763.383-1.298.383c-1.069 0-1.527-.84-1.527-1.756 0-1.832.916-2.825 1.985-2.825.764 0 1.374.458 1.374.458l.23-1.603s-.917-.382-1.757-.382c-1.755 0-2.748 1.527-2.748 4.428 0 1.909.153 3.206 1.985 3.206.61 0 1.45-.229 1.45-.229zm-23.361-4.351s.687-.305 1.68-.305c.534 0 .992.076.992.534 0 .305-.076.382-.076.382h-.687c-1.298 0-2.749.534-2.749 2.29 0 1.374.916 1.68 1.45 1.68 1.07 0 1.528-.688 1.604-.688l-.076.611h1.374l.61-4.199c0-1.756-1.526-1.832-2.137-1.832m1.145 3.283c0 .229-.916 1.45-1.832 1.45-.458 0-.61-.381-.61-.61 0-.382.228-.917 1.373-.917.23.077 1.07.077 1.07.077zm.763 2.595s.459.153 1.756.153c.382 0 2.29.076 2.29-1.985 0-1.908-1.832-1.527-1.832-2.29 0-.382.306-.534.84-.534.23 0 1.069.076 1.069.076l.229-1.374s-.534-.153-1.45-.153c-1.146 0-1.527.458-1.527 1.985 0 1.756 1.145 1.603 1.145 2.29 0 .458-.535.535-.916.535m30.231-3.894s-.61-.763-1.45-.763c-1.375 0-1.833 1.68-1.833 3.664 0 1.222-.152 2.52 1.145 2.52.916 0 1.45-.611 1.45-.611l-.076.534h1.527l1.145-7.329m-1.984 3.97c0 .84-.688 1.909-1.527 1.909-.535 0-.84-.458-.84-1.222 0-1.221.534-1.985 1.221-1.985.535 0 1.146.382 1.146 1.298zm-41.912 3.282l.916-5.496.153 5.497h1.069l1.984-5.497-.84 5.497h1.604l1.221-7.329h-1.908l-2.138 4.504-.076-4.504h-.84l-2.595 7.329h1.45zm22.063 0h1.603c.458-2.519.534-4.58 1.603-4.198.153-.992.382-1.374.534-1.756h-.305c-.687 0-1.221.916-1.221.916l.152-.84m6.642 1.451s.687-.305 1.68-.305c.534 0 .992.076.992.534 0 .305-.076.382-.076.382h-.687c-1.298 0-2.749.534-2.749 2.29 0 1.374.916 1.68 1.45 1.68 1.07 0 1.528-.688 1.604-.688l-.076.611h1.374l.61-4.199c0-1.756-1.526-1.832-2.137-1.832m1.145 3.283c0 .229-.916 1.45-1.832 1.45-.458 0-.61-.381-.61-.61 0-.382.228-.917 1.373-.917.306.077 1.07.077 1.07.077zm.687 2.671h1.603c.458-2.519.535-4.58 1.603-4.198.153-.992.382-1.374.535-1.756h-.305c-.688 0-1.222.916-1.222.916l.153-.84" fill="#dce5e5"/></svg>