<svg version="1.1" id="Capa_1" xmlns="http://www.w3.org/2000/svg" x="0" y="0" viewBox="170.826 389.8 56.348 14.4" xml:space="preserve" width="75" height="20"><style>.st0{fill:#139ad6}.st1{fill:#263b80}</style><path class="st0" d="M214.384 393.557h-3.041c-.18 0-.358.178-.447.357l-1.253 7.871c0 .179.09.268.269.268h1.61c.179 0 .268-.089.268-.268l.358-2.236c0-.179.179-.358.447-.358h.984c2.057 0 3.22-.984 3.488-2.951.179-.805 0-1.52-.358-1.968-.536-.447-1.341-.715-2.325-.715m.358 2.951c-.18 1.073-.984 1.073-1.79 1.073h-.536l.358-2.057c0-.09.09-.179.268-.179h.18c.536 0 1.072 0 1.34.358.18.09.18.358.18.805"/><path class="st1" d="M192.47 393.557h-3.04c-.179 0-.358.178-.447.357l-1.253 7.871c0 .179.09.268.269.268h1.43c.18 0 .359-.178.448-.357l.358-2.147c0-.179.179-.358.447-.358h.984c2.057 0 3.22-.984 3.488-2.951.179-.805 0-1.52-.358-1.968-.536-.447-1.252-.715-2.325-.715m.358 2.951c-.18 1.073-.984 1.073-1.79 1.073h-.446l.357-2.057c0-.09.09-.179.269-.179h.179c.536 0 1.073 0 1.341.358.09.09.179.358.09.805m8.854-.089h-1.43c-.09 0-.27.09-.27.179l-.089.447-.089-.18c-.358-.446-.984-.625-1.7-.625-1.61 0-3.04 1.252-3.309 2.951-.179.895.09 1.7.537 2.236.447.537 1.073.716 1.878.716 1.342 0 2.057-.805 2.057-.805l-.09.447c0 .179.09.268.27.268h1.34c.18 0 .359-.178.448-.357l.805-5.009c-.09-.09-.268-.268-.358-.268m-2.057 2.862c-.179.805-.805 1.43-1.7 1.43-.446 0-.804-.178-.983-.357-.179-.268-.268-.626-.268-1.073.089-.805.805-1.431 1.61-1.431.447 0 .715.179.983.357.269.269.358.716.358 1.074"/><path class="st0" d="M223.507 396.419h-1.431c-.09 0-.269.09-.269.179l-.089.447-.09-.18c-.357-.446-.983-.625-1.699-.625-1.61 0-3.04 1.252-3.31 2.951-.178.895.09 1.7.537 2.236.448.537 1.074.716 1.879.716 1.341 0 2.057-.805 2.057-.805l-.09.447c0 .179.09.268.269.268h1.341c.18 0 .358-.178.448-.357l.805-5.009c-.09-.09-.18-.268-.358-.268m-2.057 2.862c-.18.805-.805 1.43-1.7 1.43-.447 0-.805-.178-.984-.357-.178-.268-.268-.626-.268-1.073.09-.805.805-1.431 1.61-1.431.447 0 .716.179.984.357.358.269.447.716.358 1.074"/><path class="st1" d="M209.465 396.419h-1.52c-.18 0-.27.09-.359.179l-1.967 3.04-.895-2.862c-.09-.178-.179-.268-.447-.268h-1.431c-.179 0-.268.179-.268.358l1.61 4.74-1.52 2.147c-.09.179 0 .447.178.447h1.431c.179 0 .268-.09.358-.179l4.919-7.066c.268-.268.09-.536-.09-.536"/><path class="st0" d="M225.206 393.825l-1.252 8.05c0 .178.09.268.268.268h1.252c.18 0 .358-.179.448-.358l1.252-7.87c0-.18-.09-.269-.268-.269h-1.432c-.089-.09-.178 0-.268.179"/><path class="st1" d="M181.112 390.873c-.626-.715-1.789-1.073-3.399-1.073h-4.472c-.268 0-.537.268-.626.537l-1.789 11.716c0 .269.18.448.358.448h2.773l.715-4.383v.179c.09-.268.358-.537.626-.537h1.342c2.594 0 4.561-1.073 5.187-4.025v-.268c-.09 0-.09 0 0 0 .09-1.163-.09-1.878-.715-2.594"/><path class="st0" d="M181.738 393.467v.268c-.626 3.041-2.594 4.025-5.188 4.025h-1.341c-.269 0-.537.269-.626.537l-.895 5.456c0 .179.09.358.358.358h2.325c.269 0 .537-.18.537-.448v-.09l.447-2.772v-.179c0-.268.269-.447.537-.447h.358c2.236 0 4.025-.894 4.472-3.577.179-1.074.09-2.058-.447-2.684a.916.916 0 00-.537-.447"/><path d="M181.112 393.199c-.09 0-.179-.09-.268-.09s-.18 0-.269-.09c-.358-.089-.715-.089-1.163-.089h-3.488c-.09 0-.179 0-.268.09a.492.492 0 00-.268.447l-.716 4.651v.179c.09-.268.358-.537.626-.537h1.342c2.594 0 4.561-1.073 5.187-4.025 0-.089 0-.178.09-.268-.18-.09-.269-.179-.447-.179-.269-.09-.269-.09-.358-.09" fill="#232c65"/></svg>