<svg version="1.1" id="Capa_1" xmlns="http://www.w3.org/2000/svg" x="0" y="0" viewBox="183 380.449 48 33.103" xml:space="preserve" width="28" height="20"><style>.st1{fill:#f79f1a}</style><path d="M231 410.714a2.837 2.837 0 01-2.837 2.837h-42.326a2.837 2.837 0 01-2.837-2.837v-27.428a2.837 2.837 0 012.837-2.837h42.326a2.837 2.837 0 012.837 2.837v27.428z" fill="#fff"/><path class="st1" d="M193.654 397.19l-1.127-5.406c-.193-.745-.754-.967-1.454-.997h-5.167l-.046.247c4.024.976 6.687 3.33 7.794 6.157z"/><path d="M205.627 390.896h-3.339l-2.085 12.237h3.333zm-9.938 12.224l5.25-12.216h-3.533l-3.267 8.347-.348-1.26c-.64-1.516-2.47-3.698-4.619-5.072l2.986 10.206 3.53-.004zm19.461-3.987c.012-1.39-.88-2.45-2.802-3.324-1.168-.566-1.88-.943-1.872-1.516 0-.507.603-1.052 1.91-1.052a6.157 6.157 0 012.496.47l.301.138.453-2.651a8.657 8.657 0 00-2.99-.511c-3.296 0-5.616 1.658-5.637 4.037-.021 1.76 1.658 2.739 2.923 3.325 1.298.598 1.734.98 1.725 1.516-.008.82-1.034 1.194-1.993 1.194-1.336 0-2.044-.184-3.142-.642l-.426-.196-.469 2.742c.779.34 2.219.638 3.714.65 3.505 0 5.784-1.637 5.809-4.18zm3.966 2.166l4.271.004c.1.426.407 1.834.407 1.834h3.094l-2.7-12.228h-2.576c-.8 0-1.395.218-1.747 1.013l-4.954 11.215h3.506s.569-1.507.699-1.838zm2.286-5.926c-.016.033.277-.708.444-1.168l.226 1.055.77 3.535h-2.767c.276-.704 1.327-3.422 1.327-3.422zm6.761-14.924h-42.326a2.837 2.837 0 00-2.837 2.837v2.945h48v-2.945a2.837 2.837 0 00-2.837-2.837z" fill="#059bbf"/><path class="st1" d="M228.163 413.551h-42.326a2.837 2.837 0 01-2.837-2.837v-2.945h48v2.945a2.837 2.837 0 01-2.837 2.837z"/><path d="M185.017 410.714v-27.428a2.837 2.837 0 012.838-2.837h-2.018a2.837 2.837 0 00-2.837 2.837v27.428a2.837 2.837 0 002.837 2.837h2.018a2.838 2.838 0 01-2.838-2.837z" opacity=".15" fill="#202121"/></svg>