<svg version="1.1" id="Object" xmlns="http://www.w3.org/2000/svg" x="0" y="0" viewBox="0 0 500 396.721" xml:space="preserve"><style>.st0{fill:#868686}</style><path class="st0" d="M38.027 331.535c1.963 2.426 2.948 5.272 2.948 8.54 0 4.544-1.519 8.13-4.557 10.76-3.038 2.63-7.444 3.945-13.213 3.945H0v-54.074h22.746c5.462 0 9.664 1.2 12.599 3.6 2.935 2.4 4.405 5.77 4.405 10.11 0 3.37-.882 6.128-2.644 8.272-1.761 2.145-4.072 3.55-6.93 4.212 3.265.664 5.883 2.21 7.851 4.635zM10.8 323.377h9.726c2.705 0 4.761-.6 6.167-1.799 1.403-1.2 2.104-2.923 2.104-5.17 0-2.246-.688-3.983-2.068-5.208-1.377-1.226-3.498-1.838-6.355-1.838H10.8v14.015zm16.85 20.718c1.532-1.25 2.298-3.075 2.298-5.476 0-2.4-.78-4.251-2.337-5.553-1.558-1.302-3.766-1.953-6.626-1.953H10.799v14.859h10.262c2.858 0 5.056-.624 6.588-1.877zM84.4 354.78l-12.637-21.063h-4.749v21.063H56.215v-54.074h20.603c6.28 0 11.067 1.532 14.36 4.596 3.294 3.063 4.94 7.098 4.94 12.102 0 4.085-1.138 7.505-3.408 10.262-2.272 2.757-5.552 4.596-9.842 5.514l13.48 21.6H84.4zm-17.386-28.492h8.883c6.18 0 9.27-2.732 9.27-8.196 0-2.603-.756-4.633-2.26-6.088-1.509-1.456-3.843-2.183-7.01-2.183h-8.883v16.467zm76.976 17.615h-21.676l-3.83 10.877H107.07l19.914-53.461h12.33l19.84 53.46h-11.413l-3.753-10.876zm-2.913-8.195l-7.964-22.823-7.964 22.823h15.928zm77.357 19.072h-10.799l-24.203-36.764v36.764h-10.798v-54.074h10.798l24.203 37.07v-37.07h10.8v54.074zm61.655-12.944c-2.247 4.085-5.501 7.264-9.765 9.535-4.263 2.273-9.331 3.409-15.204 3.409h-19.222v-54.074h19.222c5.873 0 10.941 1.11 15.204 3.332 4.264 2.221 7.518 5.361 9.765 9.42 2.246 4.06 3.37 8.797 3.37 14.208 0 5.362-1.124 10.085-3.37 14.17zm-12.37-1.302c3.19-3.064 4.787-7.354 4.787-12.868 0-5.564-1.596-9.88-4.787-12.943-3.19-3.064-7.696-4.596-13.517-4.596h-7.505v35.003h7.505c5.821 0 10.327-1.532 13.517-4.596zM150.75 0s139.434 52.64 136.474 128.813h.047v128.812s-139.434-52.64-136.475-128.812h-.046V0zm260.685 227.485c25.853-17.778 56.157-29.306 88.565-32.643v-40.335c-18.749 7.203-36.361 17.562-52.136 30.934a181.108 181.108 0 00-36.43 42.044z"/><path class="st0" d="M395.593 239.62c11.273-22.8 27.162-43.283 47.149-60.224 17.26-14.628 36.624-25.811 57.258-33.355V29.857s-198.557 74.96-194.343 183.432h-.066v183.432s8.86-3.35 22.77-9.634c-.052-5.885.138-11.8.627-17.738 4.317-52.35 29.47-98.076 66.605-129.728z"/><path class="st0" d="M376.723 307.771a190.471 190.471 0 016.937-37.553c-23.163 27.339-38.349 61.861-41.513 100.217-.288 3.497-.443 6.983-.529 10.463 11.28-5.432 24.402-12.182 38.189-20.13a189.377 189.377 0 01-3.084-52.997zm7.897.652a181.536 181.536 0 002.445 48.083c54.255-32.453 115.224-82.598 112.869-143.217H500v-5.164c-39.484 4.366-75.517 21.808-103.218 48.203-6.533 16.45-10.665 33.956-12.161 52.095z"/></svg>