<svg version="1.1" id="Object" xmlns="http://www.w3.org/2000/svg" x="0" y="0" viewBox="0 0 502.96 497.128" xml:space="preserve"><path d="M27.988 474.82c1.304-.473 2.419-1.031 3.344-1.672.93-.64 1.688-1.356 2.28-2.146a8.218 8.218 0 001.3-2.53 9.386 9.386 0 00.416-2.794c0-1.775-.3-3.384-.902-4.822-.6-1.441-1.563-2.663-2.886-3.67s-3.03-1.785-5.115-2.336c-2.096-.553-4.63-.828-7.604-.828H2.96v43.106h17.22c2.58 0 4.88-.33 6.891-.99 2.012-.662 3.705-1.579 5.074-2.752 1.37-1.173 2.415-2.55 3.122-4.127.713-1.58 1.064-3.286 1.064-5.12 0-2.425-.68-4.411-2.04-5.96-1.364-1.55-3.464-2.67-6.304-3.358zM12.96 461.508h5.86c1.124 0 2.091.088 2.91.265.819.178 1.498.474 2.03.888.532.414.925.962 1.184 1.642.255.681.384 1.533.384 2.56 0 1.044-.161 1.912-.49 2.604-.324.69-.8 1.232-1.42 1.626s-1.374.672-2.262.829a17.26 17.26 0 01-2.988.237H12.96v-10.65zm13.224 24.466a4.365 4.365 0 01-.976 1.806c-.472.533-1.128.965-1.966 1.302-.837.335-1.92.502-3.237.502H12.96v-10.74h6.984c1.259 0 2.309.118 3.132.355.832.237 1.498.574 2.003 1.006.5.435.855.967 1.059 1.598.213.633.314 1.343.314 2.13a7.83 7.83 0 01-.268 2.041zm51.998-5.652a9.597 9.597 0 00-1.878-1.243c1.397-.533 2.637-1.212 3.715-2.04a12.982 12.982 0 002.72-2.826 11.985 11.985 0 001.669-3.447c.38-1.24.564-2.564.564-3.963 0-1.835-.314-3.53-.948-5.09-.629-1.557-1.642-2.908-3.03-4.053-1.392-1.142-3.186-2.035-5.383-2.678-2.202-.641-4.862-.96-7.975-.96H53.612v43.106h10v-15.946h2.544c.768 0 1.365.118 1.79.355.421.236.791.63 1.11 1.183l7.156 12.514c.73 1.263 1.933 1.894 3.612 1.894h9.052l-9.172-15a7.41 7.41 0 00-1.522-1.806zm-3.39-10.133a5.447 5.447 0 01-1.328 2.146c-.615.613-1.396 1.088-2.354 1.436-.957.344-2.114.517-3.474.517h-4.024v-12.78h4.024c2.581 0 4.492.532 5.727 1.597 1.23 1.062 1.845 2.543 1.845 4.436 0 .947-.134 1.83-.416 2.648zm43.196-16.167l-16.684 43.106h7.813c.827 0 1.526-.221 2.1-.667.568-.442.952-.941 1.151-1.492l2.544-7.516h16.392l2.544 7.516c.218.63.606 1.147 1.17 1.552.56.404 1.277.607 2.147.607h7.747l-16.688-43.106h-10.236zm-.768 26.627l3.964-11.747c.296-.749.61-1.636.948-2.663a63.19 63.19 0 00.976-3.342 63.528 63.528 0 001.022 3.299c.343 1.015.643 1.898.898 2.647l3.968 11.806H117.22zm71.836-3.816a51.31 51.31 0 00.236 4.614l-20.471-25.887a8.407 8.407 0 00-.74-.8 2.742 2.742 0 00-.685-.458 2.752 2.752 0 00-.796-.221 8.202 8.202 0 00-1.091-.06h-5.268v43.107h8.815V474.02c0-.631-.018-1.305-.06-2.026a76.856 76.856 0 00-.148-2.205l20.324 25.68c.495.634 1.008 1.066 1.54 1.303.532.236 1.184.355 1.957.355h5.203v-43.106h-8.816v22.81zm60.708-16.687c-1.952-1.915-4.301-3.412-7.054-4.498-2.752-1.083-5.804-1.626-9.158-1.626h-16.748v43.106h16.748c3.354 0 6.406-.538 9.158-1.614 2.753-1.073 5.102-2.573 7.054-4.495 1.952-1.925 3.47-4.202 4.542-6.835 1.078-2.635 1.614-5.509 1.614-8.625 0-3.095-.536-5.962-1.614-8.594-1.073-2.633-2.59-4.907-4.542-6.82zm-4.912 21.213c-.55 1.716-1.346 3.17-2.377 4.364a10.365 10.365 0 01-3.802 2.751c-1.5.64-3.206.962-5.12.962h-6.684v-27.723h6.683c1.915 0 3.622.322 5.12.962a10.339 10.339 0 013.803 2.751c1.031 1.194 1.827 2.648 2.377 4.364.555 1.716.828 3.639.828 5.77 0 2.15-.273 4.083-.828 5.8zm79.764-4.526a51.288 51.288 0 00.236 4.614L304.38 455.56a7.84 7.84 0 00-.74-.8 2.72 2.72 0 00-.68-.458 2.783 2.783 0 00-.8-.221 8.202 8.202 0 00-1.092-.06H295.8v43.107h8.816V474.02c0-.631-.018-1.305-.06-2.026a76.966 76.966 0 00-.148-2.205l20.328 25.68c.49.634 1.004 1.066 1.54 1.303.533.236 1.185.355 1.952.355h5.204v-43.106h-8.816v22.81zm40.948-22.811l-16.688 43.106h7.812c.828 0 1.531-.221 2.1-.667.574-.442.958-.941 1.152-1.492l2.548-7.516h16.388l2.549 7.516c.212.63.606 1.147 1.165 1.552.56.404 1.277.607 2.146.607h7.752L375.8 454.022h-10.236zm-.768 26.627l3.964-11.747c.296-.749.61-1.636.949-2.663.333-1.024.656-2.138.976-3.342a68.57 68.57 0 001.017 3.299c.347 1.015.648 1.898.902 2.647l3.964 11.806h-11.772zm82.706-26.599c-.328 0-.615.049-.874.15a2.011 2.011 0 00-.694.457c-.208.209-.411.5-.606.875l-11.068 21.797c-.393.77-.777 1.565-1.152 2.384-.374.82-.73 1.664-1.064 2.534a58.855 58.855 0 00-1.05-2.489c-.365-.81-.744-1.59-1.142-2.338l-11.092-21.888a3.8 3.8 0 00-.606-.875 2.055 2.055 0 00-.693-.458c-.26-.1-.55-.149-.875-.149h-8.774v43.078h8.816v-24.793c0-.571-.018-1.199-.055-1.878a39.218 39.218 0 00-.18-2.056l11.48 22.188c.355.69.832 1.213 1.433 1.567.602.356 1.29.533 2.058.533h1.36c.768 0 1.453-.177 2.059-.533.596-.354 1.077-.877 1.429-1.567l11.424-22.16a45.78 45.78 0 00-.175 3.906v24.793h8.816V454.05h-8.775zm55.458 7.663v-7.691h-27.752v43.106h27.752v-7.692h-17.692V479.17h13.553v-7.397h-13.553v-10.06zm-58.529-128.462l-65.509-113.464 55.615-96.333c4.4-7.614-1.096-17.13-9.889-17.13H313.414L252.026 0l-61.383 106.323H79.403c-8.788 0-14.283 9.517-9.889 17.131l55.62 96.333-65.509 113.464h131.018l51.494 89.193c2.197 3.807 6.045 5.71 9.889 5.71 3.848 0 7.692-1.903 9.894-5.71l51.494-89.193H444.43zm-27.95-210.79l-46.879 81.188-46.873-81.188h93.751zm-108.9 188.612H205.204l-34.03-58.939 52.674-91.236L309.07 308.5l-1.49 2.573zM216.087 147.45l-52.678 91.237-10.879-18.849 52.674-91.236 10.883 18.848zm-128.51-24.988h93.746L134.45 203.65l-46.874-81.188zM252.026 407.3l-42.752-74.048h85.504L252.026 407.3z" fill="#868686"/></svg>