<svg version="1.1" id="OBJECTS" xmlns="http://www.w3.org/2000/svg" x="0" y="0" viewBox="0 0 500 374.614" xml:space="preserve"><style>.st0{fill:#868686}</style><path class="st0" d="M173.508 54.555c.991-6.394 8.191-11.369 14.856-9.437 6.5 1.869 10.944 9.72 8.085 16.372-2.698 6.479-10.403 10.05-17.158 8.234-6.758-1.804-11.679-7.755-13.22-14.357-1.441-6.71.525-13.71 4.351-19.123 3.842-5.497 9.737-9.325 16.024-11.146 6.303-1.89 12.992-2.047 19.36-.961 6.374 1.152 12.477 3.341 18.225 6.151-11.768-4.643-25.014-7.45-37.007-3.372-5.866 2.009-11.307 5.508-14.75 10.619-3.469 5.02-5.12 11.417-3.784 17.3 1.258 5.783 5.633 11.146 11.384 12.712 5.639 1.658 12.358-1.46 14.83-6.807 2.648-5.38-.928-12.57-6.704-14.47-5.794-2.114-12.958 2.038-14.492 8.285zm152.984 0c-1.534-6.247-8.698-10.4-14.492-8.284-5.776 1.9-9.352 9.09-6.704 14.469 2.472 5.347 9.192 8.465 14.83 6.807 5.75-1.566 10.126-6.929 11.384-12.711 1.336-5.884-.315-12.28-3.784-17.301-3.443-5.111-8.884-8.61-14.75-10.619-11.993-4.078-25.24-1.271-37.006 3.372 5.747-2.81 11.85-4.999 18.223-6.151 6.369-1.086 13.058-.929 19.361.96 6.288 1.822 12.182 5.65 16.024 11.147 3.827 5.413 5.792 12.413 4.352 19.123-1.542 6.602-6.463 12.553-13.22 14.357-6.756 1.815-14.461-1.755-17.159-8.234-2.86-6.652 1.585-14.503 8.085-16.372 6.665-1.932 13.865 3.043 14.856 9.437zm166.079 40.307c-2.908-5.738-10.825-8.16-15.99-4.789-5.197 3.159-7.052 10.971-3.255 15.611 3.618 4.65 10.87 6.166 15.986 3.273 5.247-2.827 8.295-9.04 8.21-14.958-.03-6.033-3.086-11.89-7.602-15.995-4.51-4.199-10.601-6.375-16.77-7.004-12.605-1.257-24.873 4.475-35.283 11.662 4.963-4.038 10.41-7.551 16.358-10.117 5.957-2.499 12.509-3.86 19.076-3.447 6.536.35 13.145 2.745 18.131 7.23 4.952 4.405 8.451 10.778 8.568 17.641-.008 6.78-3.453 13.69-9.628 16.977-6.168 3.297-14.482 1.564-18.575-4.135-4.292-5.833-1.74-14.487 4.168-17.778 6.054-3.39 14.194-.175 16.606 5.83zm-485.142 0c2.412-6.004 10.552-9.22 16.606-5.83 5.908 3.292 8.46 11.946 4.169 17.779-4.094 5.7-12.408 7.432-18.576 4.135C3.453 107.659.008 100.749 0 93.969c.116-6.863 3.616-13.236 8.568-17.642 4.987-4.484 11.595-6.879 18.132-7.229 6.566-.413 13.118.948 19.075 3.447 5.948 2.566 11.395 6.08 16.358 10.117C51.723 75.475 39.455 69.742 26.851 71c-6.17.629-12.26 2.805-16.77 7.004-4.516 4.105-7.573 9.962-7.603 15.995-.085 5.917 2.963 12.13 8.21 14.958 5.117 2.893 12.368 1.376 15.986-3.273 3.797-4.64 1.942-12.452-3.254-15.61-5.165-3.372-13.083-.95-15.991 4.788z"/><path class="st0" d="M166.32 71.092c-.01-2.15-.887-4.415-2.78-5.456-1.828-1.116-4.162-.897-6.067-.122-1.943.78-3.589 2.279-4.432 4.15-.846 1.846-.965 4.045-.414 5.968 1.142 3.974 5.28 6.223 9.265 7.175 4.093 1.046 8.362.833 12.468-.167 8.242-1.984 15.606-6.718 22.047-12.296 6.36-5.619 12.276-12.367 20.115-16.754 3.886-2.183 8.3-3.678 12.86-3.874 4.586-.212 9.178 1.055 13.033 3.504 3.845 2.435 6.983 6.256 8.096 10.804 1.158 4.6-.169 9.443-2.735 13.163-2.557 3.739-6.449 6.68-10.978 7.576-4.493.847-9.278-.3-12.811-3.153-1.72-1.471-3.144-3.32-3.857-5.488-.772-2.18-.471-4.614.579-6.587.997-2.013 2.788-3.55 4.807-4.41a8.294 8.294 0 016.385.162 8.14 8.14 0 00-6.267.118c-1.907.922-3.539 2.47-4.38 4.398-2.044 3.922.2 8.456 3.488 10.856 3.3 2.505 7.736 3.445 11.738 2.57 4.012-.897 7.49-3.658 9.707-7.1 2.22-3.438 3.237-7.714 2.244-11.583-.99-3.91-3.754-7.263-7.223-9.417-3.474-2.17-7.642-3.276-11.713-3.045-4.118.213-8.127 1.599-11.767 3.671-7.445 4.073-13.232 10.524-19.854 16.3-6.659 5.62-14.312 10.633-23.1 12.439-4.326.94-8.961 1.054-13.274-.177-4.175-1.118-8.817-3.661-10.037-8.37-.527-2.253-.275-4.642.769-6.687 1.045-2.045 2.914-3.571 5.023-4.31 2.072-.731 4.554-.842 6.443.429 1.953 1.207 2.709 3.575 2.621 5.713z"/><path class="st0" d="M333.681 71.092c-.088-2.138.668-4.506 2.621-5.713 1.889-1.271 4.371-1.16 6.443-.428 2.109.738 3.978 2.264 5.023 4.309 1.045 2.045 1.296 4.434.77 6.687-1.221 4.709-5.863 7.252-10.038 8.37-4.313 1.23-8.948 1.118-13.273.177-8.789-1.806-16.442-6.82-23.1-12.44-6.623-5.775-12.41-12.226-19.855-16.299-3.64-2.072-7.649-3.458-11.767-3.67-4.071-.232-8.24.875-11.713 3.044-3.469 2.154-6.232 5.508-7.223 9.417-.993 3.87.023 8.145 2.244 11.583 2.217 3.442 5.695 6.203 9.707 7.1 4.002.875 8.439-.065 11.738-2.57 3.288-2.4 5.532-6.934 3.488-10.856-.841-1.928-2.473-3.476-4.38-4.398a8.138 8.138 0 00-6.267-.118 8.293 8.293 0 016.386-.161c2.018.86 3.809 2.396 4.807 4.409 1.05 1.973 1.35 4.407.578 6.587-.713 2.169-2.137 4.017-3.857 5.488-3.533 2.853-8.318 4-12.811 3.153-4.529-.896-8.42-3.837-10.978-7.576-2.566-3.72-3.893-8.562-2.735-13.163 1.113-4.548 4.251-8.37 8.096-10.804 3.855-2.449 8.447-3.716 13.032-3.504 4.56.196 8.975 1.69 12.861 3.874 7.839 4.387 13.755 11.135 20.115 16.754 6.441 5.578 13.805 10.312 22.047 12.296 4.106 1 8.375 1.213 12.468.167 3.985-.952 8.123-3.2 9.265-7.175.55-1.923.432-4.122-.414-5.968-.843-1.871-2.49-3.37-4.432-4.15-1.905-.775-4.239-.994-6.067.122-1.893 1.041-2.77 3.306-2.779 5.456zm30.563 0c-.01-2.15-.887-4.415-2.78-5.456-1.827-1.116-4.161-.897-6.066-.122-1.943.78-3.589 2.279-4.432 4.15-.846 1.846-.965 4.045-.414 5.968 1.142 3.974 5.28 6.223 9.265 7.175 4.093 1.046 8.361.833 12.468-.167 8.241-1.984 15.606-6.718 22.047-12.296 6.36-5.619 12.276-12.367 20.115-16.754 3.886-2.183 8.3-3.678 12.86-3.874 4.586-.212 9.178 1.055 13.033 3.504 3.845 2.435 6.983 6.256 8.096 10.804 1.158 4.6-.169 9.443-2.735 13.163-2.557 3.739-6.45 6.68-10.978 7.576-4.493.847-9.278-.3-12.812-3.153-1.72-1.471-3.143-3.32-3.856-5.488-.772-2.18-.471-4.614.578-6.587.998-2.013 2.79-3.55 4.807-4.41a8.293 8.293 0 016.386.162 8.138 8.138 0 00-6.267.118c-1.907.922-3.539 2.47-4.38 4.398-2.044 3.922.2 8.456 3.488 10.856 3.3 2.505 7.736 3.445 11.738 2.57 4.012-.897 7.49-3.658 9.707-7.1 2.22-3.438 3.237-7.714 2.244-11.583-.991-3.91-3.754-7.263-7.223-9.417-3.474-2.17-7.642-3.276-11.713-3.045-4.118.213-8.127 1.599-11.767 3.671-7.445 4.073-13.232 10.524-19.854 16.3-6.659 5.62-14.312 10.633-23.1 12.439-4.326.94-8.961 1.054-13.274-.177-4.175-1.118-8.817-3.661-10.038-8.37-.526-2.253-.275-4.642.77-6.687s2.914-3.571 5.023-4.31c2.072-.731 4.554-.842 6.443.429 1.953 1.207 2.709 3.575 2.62 5.713zm-228.488 0c-.088-2.138.668-4.506 2.621-5.713 1.89-1.271 4.371-1.16 6.443-.428 2.109.738 3.978 2.264 5.023 4.309 1.045 2.045 1.296 4.434.77 6.687-1.221 4.709-5.863 7.252-10.037 8.37-4.313 1.23-8.949 1.118-13.274.177-8.789-1.806-16.442-6.82-23.1-12.44-6.622-5.775-12.41-12.226-19.855-16.299-3.64-2.072-7.649-3.458-11.767-3.67-4.071-.232-8.24.875-11.713 3.044-3.469 2.154-6.232 5.508-7.223 9.417-.993 3.87.024 8.145 2.244 11.583 2.217 3.442 5.695 6.203 9.707 7.1 4.002.875 8.439-.065 11.738-2.57 3.288-2.4 5.532-6.934 3.489-10.856-.842-1.928-2.474-3.476-4.38-4.398a8.138 8.138 0 00-6.268-.118 8.293 8.293 0 016.386-.161c2.018.86 3.81 2.396 4.807 4.409 1.05 1.973 1.35 4.407.579 6.587-.714 2.169-2.138 4.017-3.857 5.488-3.533 2.853-8.32 4-12.812 3.153-4.529-.896-8.42-3.837-10.978-7.576-2.566-3.72-3.892-8.562-2.735-13.163 1.114-4.548 4.251-8.37 8.096-10.804 3.855-2.449 8.447-3.716 13.032-3.504 4.56.196 8.975 1.69 12.861 3.874 7.839 4.387 13.755 11.135 20.116 16.754 6.44 5.578 13.804 10.312 22.046 12.296 4.107 1 8.375 1.213 12.468.167 3.986-.952 8.123-3.2 9.265-7.175.55-1.923.432-4.122-.414-5.968-.843-1.871-2.49-3.37-4.431-4.15-1.906-.775-4.24-.994-6.068.122-1.893 1.041-2.77 3.306-2.779 5.456zm305.271 40.256H58.976c0 21.237-17.216 38.453-38.453 38.453v126.524c21.237 0 38.453 17.216 38.453 38.453h382.05c0-21.237 17.217-38.453 38.454-38.453V149.8c-21.237 0-38.453-17.216-38.453-38.453zM129.675 270.019H73.701V169.418h12.986v89.704h42.988v10.897zm135.373-41.941c0 30.897-16.268 43.584-38.062 43.584-20.597 0-36.117-11.792-36.117-42.988v-59.256h13.133v59.555c0 22.538 10.002 32.09 23.433 32.09 14.928 0 24.48-9.85 24.48-32.09v-59.555h13.133v58.66zM394.9 270.019l-12.834-22.24c-5.224-8.506-8.506-14.028-11.641-19.849h-.299c-2.836 5.821-5.673 11.192-10.897 20l-12.09 22.09h-14.924l30.746-50.898-29.553-49.704h15.075l13.284 23.585c3.732 6.569 6.569 11.641 9.254 17.016h.45c2.833-5.972 5.37-10.599 9.103-17.016l13.73-23.585h14.927l-30.599 48.96 31.347 51.641H394.9zM72.286 374.614l-11.922-30.771h4.406l8 22.352a72.898 72.898 0 011.613 5.038 64.046 64.046 0 011.66-5.038l8.312-22.352h4.156l-12.048 30.771h-4.177zm31.317 0v-30.771h4.073v30.771h-4.073zm22.002 0v-30.771h11.606c2.046 0 3.607.095 4.684.294 1.509.25 2.776.73 3.8 1.435 1.021.71 1.843 1.7 2.466 2.971.622 1.276.934 2.673.934 4.199 0 2.616-.835 4.83-2.5 6.642-1.665 1.812-4.674 2.72-9.025 2.72h-7.892v12.51h-4.073zm4.073-16.142h7.953c2.633 0 4.501-.489 5.608-1.47 1.103-.978 1.657-2.357 1.657-4.135 0-1.288-.325-2.39-.978-3.308-.648-.912-1.504-1.522-2.568-1.812-.688-.181-1.955-.276-3.801-.276h-7.87v11zm55.879 6.258l3.84-.338c.182 1.54.606 2.802 1.272 3.788.661.986 1.695 1.786 3.096 2.396 1.397.605 2.97.912 4.722.912 1.552 0 2.923-.234 4.112-.692 1.19-.463 2.076-1.098 2.656-1.903.583-.804.873-1.682.873-2.633 0-.964-.281-1.808-.839-2.53-.562-.722-1.483-1.327-2.772-1.816-.826-.32-2.65-.822-5.479-1.5s-4.808-1.32-5.941-1.92c-1.47-.77-2.565-1.726-3.287-2.868-.718-1.137-1.08-2.417-1.08-3.831 0-1.552.44-3.005 1.322-4.355.883-1.349 2.171-2.374 3.862-3.074 1.695-.7 3.576-1.051 5.648-1.051 2.283 0 4.294.368 6.036 1.103 1.743.735 3.084 1.816 4.018 3.243.938 1.427 1.444 3.044 1.513 4.848l-3.905.294c-.212-1.942-.92-3.412-2.132-4.407s-2.996-1.492-5.362-1.492c-2.465 0-4.26.454-5.384 1.354-1.128.903-1.69 1.993-1.69 3.265 0 1.107.398 2.015 1.198 2.728.782.714 2.828 1.449 6.14 2.197 3.308.748 5.578 1.401 6.81 1.963 1.791.822 3.114 1.868 3.966 3.135.857 1.267 1.285 2.729 1.285 4.377 0 1.638-.472 3.182-1.41 4.63-.938 1.45-2.283 2.574-4.039 3.378s-3.732 1.207-5.929 1.207c-2.789 0-5.12-.407-7-1.215-1.886-.813-3.36-2.033-4.433-3.663-1.068-1.63-1.635-3.477-1.687-5.53zm40.887 9.884v-30.771h22.253v3.628h-18.18v9.427h17.025v3.61h-17.025v10.474h18.893v3.632h-22.966zm39.407 0v-30.771h13.644c2.741 0 4.826.276 6.253.826 1.427.553 2.568 1.53 3.424 2.931.852 1.397 1.28 2.945 1.28 4.636 0 2.184-.709 4.026-2.123 5.522-1.41 1.496-3.593 2.448-6.547 2.854 1.077.52 1.894 1.03 2.456 1.535 1.19 1.09 2.314 2.457 3.378 4.091l5.353 8.376h-5.12l-4.073-6.404c-1.19-1.846-2.171-3.26-2.94-4.238-.77-.981-1.458-1.665-2.068-2.058a6.196 6.196 0 00-1.855-.817c-.463-.1-1.22-.147-2.27-.147h-4.722v13.664h-4.07zm4.07-17.193h8.752c1.864 0 3.317-.19 4.368-.575s1.846-1 2.395-1.847a5.012 5.012 0 00.818-2.763c0-1.453-.528-2.65-1.587-3.59-1.056-.933-2.725-1.405-5.004-1.405h-9.742v10.18zm45.677 17.193l-11.922-30.771h4.407l8 22.352a72.89 72.89 0 011.613 5.038 64.037 64.037 0 011.66-5.038l8.312-22.352h4.155l-12.047 30.771h-4.178zm31.317 0v-30.771h4.074v30.771h-4.074zm43.961-10.789l4.07 1.03c-.852 3.342-2.388 5.894-4.606 7.65s-4.93 2.633-8.134 2.633c-3.317 0-6.015-.675-8.095-2.024-2.076-1.35-3.658-3.308-4.744-5.868-1.081-2.56-1.626-5.31-1.626-8.251 0-3.204.614-5.998 1.838-8.385s2.967-4.199 5.228-5.436c2.257-1.24 4.744-1.859 7.46-1.859 3.078 0 5.669.787 7.766 2.352 2.102 1.566 3.563 3.771 4.39 6.612l-4.01.947c-.713-2.24-1.75-3.87-3.109-4.895-1.358-1.02-3.061-1.53-5.12-1.53-2.365 0-4.341.566-5.928 1.699-1.592 1.133-2.707 2.655-3.352 4.566a18.367 18.367 0 00-.964 5.912c0 2.616.38 4.9 1.146 6.85.761 1.954 1.946 3.411 3.555 4.38a9.99 9.99 0 005.228 1.449c2.283 0 4.212-.662 5.794-1.977 1.579-1.314 2.651-3.264 3.213-5.855zm19.914 10.789v-30.771h22.253v3.628h-18.18v9.427h17.025v3.61h-17.025v10.474h18.893v3.632H410.79zM243.162 11.064c-.042-.26-.215-.519-.516-.56l-2.236-.215c0-.257-.042-.431-.042-.645l8.642-.043c0 .087.044.6.044.644l-2.968.259v28.339h11.87l.859-6.88.818.215-.646 7.525h-9.977l-8.642.043c0-.215.042-.388.042-.603l2.236-.3c.344-.044.474-.344.516-.56v-27.22z"/><path class="st0" d="M248.553 327.474l-200.742.65-.639.003-.012-.654c-.1-5.598.195-11.363-.229-16.824-.68-5.447-3.037-10.705-6.798-14.723-3.677-4.097-8.7-6.9-14.053-8.08-2.704-.551-5.415-.623-8.265-.584l-8.457.01-.732.001v-.733l-.182-148.85v-.913l.914-.001 8.146-.01c2.75-.01 5.363.034 7.942-.489 5.162-.978 9.959-3.574 13.69-7.263 3.68-3.74 6.26-8.54 7.224-13.697.516-2.577.465-5.184.469-7.934l-.01-8.147-.001-.991.993-.002L250 97.998l202.189.242.997.001v.995l-.01 8.147c.002 2.75-.048 5.357.467 7.933.964 5.156 3.544 9.955 7.224 13.695 3.73 3.69 8.526 6.285 13.687 7.263 2.58.523 5.193.479 7.942.489l8.146.01h.918l-.001.916-.182 148.85-.001.736h-.734l-8.457-.011c-2.85-.039-5.56.033-8.265.584-5.353 1.18-10.374 3.982-14.052 8.08-3.76 4.017-6.117 9.275-6.798 14.722-.424 5.46-.129 11.225-.229 16.823l-.012.655-.64-.002-200.638-.652 200.638-.652-.652.651c.091-5.669-.231-11.204.198-16.984.7-5.726 3.168-11.262 7.11-15.497 3.857-4.315 9.134-7.285 14.777-8.54 2.827-.592 5.78-.67 8.563-.636l8.457-.01-.734.734-.182-148.85.916.915-8.146.01c-2.672-.003-5.527.054-8.29-.501-5.535-1.035-10.686-3.804-14.69-7.75-3.957-3.996-6.74-9.144-7.79-14.684-.563-2.765-.513-5.628-.523-8.297l-.01-8.147.996.996-202.189.241-202.189-.245.992-.992-.01 8.147c-.01 2.67.04 5.532-.522 8.297-1.05 5.54-3.833 10.686-7.788 14.681-4.005 3.946-9.155 6.715-14.689 7.75-2.763.554-5.617.498-8.29.5l-8.146-.009.913-.913-.181 148.85-.732-.731 8.457.01c2.783-.033 5.736.044 8.563.636 5.643 1.255 10.919 4.224 14.776 8.54 3.941 4.234 6.41 9.77 7.11 15.496.429 5.779.106 11.315.197 16.983l-.65-.65 200.742.65zM250 .002c6.83-.083 13.658 2.663 18.546 7.502 4.954 4.761 7.997 11.546 8.12 18.547.173 6.982-2.532 14.074-7.498 19.168-4.961 5.085-12.015 8.084-19.168 8.119-7.154-.026-14.209-3.033-19.17-8.117-4.975-5.088-7.675-12.188-7.502-19.17.125-7.002 3.168-13.79 8.125-18.547C236.342 2.664 243.17-.082 250 .002zm0 0c-6.832.038-13.555 2.9-18.291 7.757-4.74 4.867-7.306 11.632-7.135 18.292.127 6.68 3.036 13.131 7.757 17.668 4.665 4.612 11.161 7.215 17.669 7.142 6.509.081 13.007-2.529 17.671-7.14 4.73-4.531 7.633-10.99 7.76-17.67.17-6.662-2.396-13.428-7.138-18.292C263.556 2.9 256.833.039 250 .002z"/></svg>