<svg version="1.1" id="OBJECTS" xmlns="http://www.w3.org/2000/svg" x="0" y="0" viewBox="0 0 279.111 178.5" xml:space="preserve"><style>.st0{fill:#868686}.st1{font-family:&apos;AnticDidone-Regular&apos;}</style><path class="st0" d="M127.115 21.39c2.49-1.671 4.567-3.807 6.551-6.008 1.955-2.226 3.873-4.514 5.585-6.917l.542-.76.494.803a69.937 69.937 0 005.145 7.26c1.862 2.31 3.876 4.514 6.337 6.25-2.754-1.276-5.038-3.394-7.088-5.606-1.045-1.101-1.958-2.313-2.876-3.515-.9-1.22-1.787-2.435-2.582-3.748l1.036.042c-1.846 2.401-3.746 4.731-5.91 6.84-2.148 2.096-4.482 4.117-7.234 5.36zm76.267 13.08c-1.838-1.275-1.978-4.37-.139-5.912 1.812-1.509 4.389-1.62 6.525-.812 2.25.79 3.744 3.232 3.602 5.603-.054 2.428-1.669 4.525-3.555 5.752-3.896 2.507-8.922 2.396-12.942.626-4.124-1.742-7.265-5.099-9.43-8.804 2.598 3.417 5.83 6.452 9.792 7.906 3.876 1.496 8.469 1.533 11.888-.777 1.694-1.071 3.029-2.788 3.105-4.754.148-1.951-1.022-3.876-2.836-4.665-1.794-.806-4.144-.815-5.757.397-1.684 1.156-1.882 3.933-.253 5.44zm-127.29.078c1.627-1.509 1.425-4.285-.26-5.439-1.614-1.21-3.964-1.198-5.757-.39-1.813.792-2.981 2.718-2.83 4.669.078 1.966 1.415 3.68 3.11 4.75 3.422 2.306 8.015 2.263 11.889.763 3.96-1.46 7.188-4.498 9.782-7.919-2.16 3.708-5.297 7.068-9.42 8.816-4.016 1.774-9.042 1.892-12.942-.61-1.887-1.225-3.504-3.32-3.562-5.748-.145-2.371 1.346-4.815 3.595-5.607 2.136-.81 4.713-.703 6.526.804 1.842 1.54 1.705 4.635-.13 5.911z"/><path class="st0" d="M111.009 5.071c1.778.224 3.602.354 5.368.765 1.745.492 3.533.899 5.184 1.699 3.403 1.351 6.446 3.542 9.062 6.099 2.563 2.62 4.708 5.655 6.238 8.969 1.51 3.313 2.585 6.837 2.91 10.438a43.234 43.234 0 00-3.777-10.008c-1.665-3.135-3.727-6.059-6.26-8.511-1.176-1.322-2.615-2.363-3.994-3.455-1.486-.953-2.958-1.932-4.58-2.656-3.152-1.66-6.644-2.5-10.151-3.34z"/><path class="st0" d="M169.281 5.035c-3.54.85-7.066 1.702-10.252 3.377-1.641.727-3.128 1.719-4.639 2.667-1.4 1.1-2.86 2.14-4.066 3.46-2.588 2.45-4.724 5.364-6.478 8.494a44.757 44.757 0 00-4.076 10.008c.437-3.625 1.618-7.15 3.22-10.459 1.62-3.307 3.839-6.327 6.455-8.941 2.666-2.556 5.75-4.739 9.184-6.106 1.67-.8 3.469-1.226 5.234-1.717 1.78-.424 3.623-.553 5.418-.783zM74.338 28.463c-1.482-.574-3.08-.913-4.645-.654-1.56.244-2.98 1.112-3.966 2.322-2.003 2.426-2.337 6.01-1.009 8.765 1.306 2.802 4.129 4.693 7.048 5.605 2.972.918 6.193.852 9.191.043 3.014-.804 5.83-2.265 8.45-3.992 2.608-1.752 4.988-3.836 7.37-5.948 4.762-4.204 9.501-8.617 15.25-11.692 2.845-1.524 6.073-2.621 9.415-2.534 3.353.041 6.522 1.456 9.119 3.465 5.27 4.246 6.294 12.663 2.119 17.964-2.057 2.617-5.083 4.35-8.309 4.943-3.197.616-6.825-.14-9.144-2.557-2.384-2.284-3.064-6.274-1.208-9.043 1.831-2.757 6.302-3.263 8.431-.736-2.211-2.455-6.557-1.74-8.174.904-1.67 2.67-.889 6.414 1.384 8.437 2.206 2.198 5.557 2.845 8.563 2.214 3.023-.607 5.852-2.315 7.685-4.747 3.718-4.925 2.758-12.679-2.07-16.491-2.45-1.86-5.353-3.13-8.415-3.15-3.056-.068-6.082.964-8.817 2.446-5.55 2.92-10.287 7.253-15.072 11.433-4.722 4.2-9.933 8.45-16.339 10.018-3.155.79-6.554.803-9.67-.223-3.062-1.03-6.004-3.038-7.364-6.106-1.33-3.02-.83-6.756 1.333-9.217 1.066-1.227 2.572-2.077 4.176-2.274 1.608-.213 3.207.185 4.668.805z"/><path class="st0" d="M205.196 28.382c1.46-.622 3.059-1.022 4.668-.81 1.603.194 3.111 1.042 4.178 2.269 2.167 2.457 2.67 6.194 1.345 9.214-1.356 3.07-4.296 5.082-7.357 6.115-3.114 1.03-6.513 1.022-9.67.235-6.407-1.56-11.623-5.802-16.351-9.997-4.79-4.175-9.533-8.501-15.086-11.415-2.736-1.479-5.764-2.506-8.82-2.435-3.063.024-5.963 1.298-8.41 3.16-4.824 3.819-5.775 11.574-2.05 16.494 1.835 2.43 4.667 4.134 7.69 4.738 3.007.627 6.357-.024 8.56-2.225 2.27-2.025 3.048-5.77 1.374-8.438-1.62-2.643-5.967-3.352-8.175-.894 2.126-2.53 6.597-2.03 8.432.725 1.86 2.766 1.184 6.758-1.197 9.044-2.316 2.42-5.943 3.181-9.141 2.569-3.226-.59-6.255-2.318-8.314-4.933-4.182-5.296-3.168-13.714 2.096-17.966 2.594-2.013 5.762-3.43 9.114-3.477 3.342-.09 6.572 1.002 9.42 2.523 5.75 3.067 10.495 7.475 15.262 11.672 2.385 2.11 4.769 4.191 7.379 5.94 2.622 1.723 5.44 3.18 8.454 3.982 3 .805 6.22.867 9.19-.055 2.92-.916 5.74-2.81 7.042-5.614 1.325-2.757.987-6.34-1.02-8.764-.986-1.209-2.408-2.075-3.969-2.317-1.564-.256-3.163.084-4.644.66zm.081 130.168c1.4.525 2.882.881 4.37.708a6.576 6.576 0 003.85-1.98c2.018-2.126 2.71-5.398 1.786-8.139-.857-2.776-3.242-4.873-5.885-6.03-2.669-1.188-5.682-1.483-8.562-1.067-5.814.913-10.985 4.262-15.429 8.135-4.517 3.89-8.856 8.091-13.86 11.536-2.535 1.65-5.17 3.256-8.148 4.13-2.944.898-6.188 1.074-9.184.138l-2.17-.875c-.68-.369-1.305-.834-1.959-1.249-1.336-.775-2.46-1.958-3.352-3.227-1.794-2.574-2.584-5.781-2.278-8.873.284-3.09 1.718-6.088 4.051-8.142 2.308-2.059 5.304-3.277 8.368-3.465 3.074-.198 6.237 1.104 8.112 3.538 1.848 2.408 2.137 6.067.223 8.46 1.828-2.456 1.382-6.029-.464-8.269-1.898-2.283-4.924-3.398-7.835-3.114-2.901.244-5.743 1.458-7.87 3.438-2.14 1.96-3.411 4.763-3.621 7.638-.22 2.874.563 5.818 2.206 8.165.835 1.163 1.828 2.213 3.098 2.935.613.38 1.2.817 1.832 1.157l2.004.79c2.75.836 5.712.666 8.482-.194 2.797-.833 5.34-2.404 7.799-4.02 4.908-3.331 9.246-7.471 13.827-11.368 4.55-3.886 9.875-7.402 16.04-8.218 3.042-.382 6.221-.01 9.017 1.3 2.762 1.278 5.28 3.541 6.144 6.577.885 2.98.024 6.382-2.155 8.529a6.81 6.81 0 01-4.051 1.916c-1.527.126-3.007-.29-4.386-.86zm-130.858.081c-1.379.573-2.858.99-4.385.865a6.808 6.808 0 01-4.053-1.91c-2.183-2.145-3.047-5.545-2.167-8.527.86-3.037 3.376-5.303 6.136-6.584 2.795-1.313 5.974-1.69 9.017-1.312 6.165.81 11.495 4.318 16.05 8.198 4.585 3.892 8.928 8.026 13.84 11.35 2.461 1.614 5.007 3.182 7.804 4.012 2.771.856 5.733 1.022 8.483.184l2.003-.793c.632-.34 1.217-.778 1.83-1.16 1.27-.723 2.261-1.775 3.095-2.938 1.64-2.35 2.419-5.294 2.195-8.168-.213-2.875-1.488-5.676-3.63-7.633-2.13-1.978-4.973-3.188-7.875-3.429-2.91-.28-5.935.839-7.83 3.124-1.844 2.242-2.285 5.815-.454 8.27-1.917-2.392-1.633-6.05.212-8.46 1.872-2.437 5.034-3.743 8.108-3.549 3.064.185 6.061 1.399 8.372 3.455 2.335 2.051 3.774 5.047 4.062 8.137.309 3.091-.477 6.3-2.268 8.875-.891 1.271-2.013 2.455-3.348 3.232-.653.415-1.277.882-1.956 1.251l-2.17.877c-2.995.94-6.239.768-9.184-.127-2.98-.87-5.617-2.472-8.154-4.12-5.008-3.438-9.352-7.634-13.874-11.518-4.449-3.867-9.624-7.21-15.439-8.115-2.88-.413-5.893-.114-8.56 1.077-2.642 1.16-5.025 3.26-5.878 6.038-.92 2.742-.225 6.013 1.796 8.136a6.576 6.576 0 003.853 1.975c1.488.172 2.97-.186 4.369-.713zM252.236 44.946c-1.29 1.111-3.256 1.294-4.835.58-1.596-.734-2.71-2.32-3.067-4.043-.71-3.588 1.98-7.174 5.452-8.072 3.59-.93 7.373 1.123 9.13 4.223 1.8 3.188 1.397 7.222-.493 10.226-1.955 3.036-5.328 4.875-8.782 5.365-3.49.486-7.056-.355-10.05-2.054-6.085-3.381-9.955-9.888-10.674-16.567 1.182 6.605 5.293 12.665 11.132 15.714 2.908 1.481 6.226 2.275 9.424 1.774 3.17-.48 6.206-2.22 7.889-4.906 1.708-2.633 2.086-6.238.558-8.992-1.494-2.738-4.83-4.522-7.905-3.847-3.04.66-5.61 3.81-5.08 7.028.227 1.573 1.156 3.103 2.6 3.876 1.432.756 3.346.724 4.701-.305zm-224.917.139c1.356 1.028 3.27 1.057 4.701.3 1.444-.775 2.37-2.306 2.595-3.88.527-3.218-2.048-6.366-5.088-7.022-3.076-.671-6.41 1.117-7.9 3.857-1.525 2.756-1.143 6.36.569 8.992 1.686 2.683 4.724 4.42 7.895 4.896 3.198.497 6.516-.3 9.422-1.786 5.835-3.056 9.938-9.121 11.112-15.728-.71 6.68-4.573 13.192-10.653 16.58-2.992 1.703-6.556 2.548-10.048 2.067-3.455-.485-6.83-2.32-8.788-5.355-1.894-3-2.301-7.034-.507-10.224 1.754-3.103 5.535-5.16 9.125-4.235 3.473.894 6.169 4.477 5.463 8.066-.355 1.724-1.467 3.31-3.062 4.046-1.578.716-3.544.536-4.836-.574z"/><path class="st0" d="M24.78 62.455c-.81 2.742-3.022 4.996-5.733 5.934-2.676.983-5.94.601-8.124-1.37-2.194-1.944-3.15-4.973-3.084-7.838.064-2.87.97-5.837 3.042-7.976 2.098-2.168 5.422-2.76 8.229-1.948 2.846.776 5.284 2.63 7.063 4.922 3.523 4.716 4.621 10.604 5.356 16.208 2.774 22.64 1.026 45.847-5.256 67.809-.803 2.738-1.651 5.467-2.62 8.152-.943 2.688-1.88 5.4-3.23 7.981-1.356 2.534-3.124 5.084-5.915 6.437-2.728 1.356-6.323.933-8.529-1.271-1.101-1.076-1.818-2.512-2.086-4.006-.27-1.507-.07-3.02.306-4.445.733-2.929 2.932-5.289 5.429-6.76 5.13-2.998 11.032-3.327 16.598-4.239 11.29-1.55 22.698-2.271 34.09-2.037a222.32 222.32 0 0133.944 3.452 222.016 222.016 0 00-33.954-2.836c-11.36-.146-22.725.63-33.963 2.25-5.557.933-11.424 1.344-16.228 4.216-2.348 1.414-4.307 3.558-4.956 6.22-.336 1.31-.506 2.688-.26 3.996.244 1.304.867 2.524 1.81 3.436 1.896 1.864 4.96 2.218 7.325 1.03 2.401-1.163 4.1-3.546 5.366-5.977 1.275-2.474 2.192-5.163 3.111-7.844.949-2.67 1.766-5.385 2.556-8.104 6.37-21.755 8.255-44.819 5.634-67.358-.688-5.566-1.759-11.339-5.106-15.866-1.678-2.195-4.002-3.974-6.664-4.714-2.626-.776-5.666-.23-7.62 1.731-1.96 1.946-2.907 4.782-3.013 7.55-.113 2.77.76 5.7 2.83 7.6 2.055 1.929 5.216 2.374 7.87 1.455 2.682-.875 4.922-3.063 5.783-5.79zm230.61-.143c.862 2.72 3.096 4.9 5.77 5.775 2.646.92 5.798.484 7.857-1.428 2.077-1.884 2.957-4.807 2.851-7.568-.097-2.76-1.016-5.6-2.965-7.55-1.931-1.97-4.949-2.571-7.579-1.808-2.656.72-4.996 2.466-6.684 4.647-3.366 4.495-4.455 10.253-5.14 15.804-2.608 22.481-.738 45.488 5.603 67.191.767 2.72 1.615 5.418 2.54 8.088.924 2.67 1.826 5.36 3.067 7.848 1.234 2.462 2.877 4.812 5.208 6.16 1.144.667 2.453 1.053 3.737.935 1.278-.135 2.473-.767 3.348-1.735 1.713-1.988 2.197-4.978 1.728-7.587-.436-2.693-2.428-4.836-4.762-6.24-4.823-2.809-10.666-3.215-16.214-4.135-11.212-1.59-22.55-2.348-33.882-2.183a222.14 222.14 0 00-33.864 2.877 222.432 222.432 0 0133.854-3.493c11.362-.253 22.743.449 34.008 1.97 5.556.899 11.431 1.223 16.579 4.154 2.482 1.457 4.748 3.839 5.257 6.855.52 2.9.07 6.091-1.92 8.478-1.016 1.148-2.475 1.942-4.025 2.109-1.556.154-3.096-.304-4.393-1.05-2.635-1.511-4.384-4.041-5.69-6.595-1.31-2.59-2.229-5.292-3.178-7.973a139.527 139.527 0 01-2.604-8.135c-6.253-21.91-7.986-45.059-5.224-67.641.732-5.59 1.847-11.466 5.393-16.15 1.79-2.277 4.244-4.097 7.086-4.852 2.811-.798 6.114-.147 8.185 2.03 2.057 2.143 2.936 5.112 2.99 7.972.057 2.858-.906 5.879-3.107 7.806-2.187 1.955-5.441 2.327-8.11 1.344-2.703-.939-4.908-3.187-5.72-5.92zm-176.5 88.096c6.195 1.989 11.976 5.231 17.199 9.134 5.285 3.829 9.959 8.44 15.186 12.146 2.594 1.805 5.475 3.42 8.563 3.403 3.085-.043 5.894-1.82 8.183-3.997 2.326-2.183 4.3-4.768 6.099-7.45 1.871-2.641 3.489-5.456 5.163-8.241-2.879 5.8-5.966 11.631-10.59 16.387-2.256 2.357-5.331 4.334-8.836 4.446-3.515.048-6.609-1.692-9.302-3.518-5.311-3.902-9.932-8.451-15.05-12.409-5.054-4.023-10.604-7.424-16.616-9.901zm120.781-.075c-6.009 2.485-11.554 5.893-16.604 9.922-5.112 3.964-9.728 8.519-15.034 12.428-2.69 1.829-5.782 3.573-9.298 3.529-3.505-.107-6.582-2.08-8.841-4.435-4.63-4.75-7.725-10.577-10.61-16.374 1.677 2.783 3.298 5.596 5.173 8.235 1.802 2.679 3.779 5.262 6.108 7.442 2.292 2.175 5.103 3.948 8.189 3.987 3.087.014 5.966-1.605 8.558-3.414 5.223-3.712 9.89-8.33 15.17-12.164 5.22-3.91 10.995-7.16 17.19-9.156z"/><text transform="translate(43.128 100.601)" class="st0 st1" letter-spacing="19" font-size="54.843">LUXO</text><text transform="translate(44.395 128.538)" class="st0 st1" letter-spacing="4" font-size="19.269">LUXURY BRAND</text></svg>