<svg version="1.1" id="OBJECTS" xmlns="http://www.w3.org/2000/svg" x="0" y="0" viewBox="0 0 500 558.287" xml:space="preserve"><style>.st0{fill:#868686}.st1{font-family:&apos;AnticDidone-Regular&apos;}</style><path class="st0" d="M263.223 4.54l232.222-2.358 2.344-.024.014 2.382 1.448 245.226.735 245.226.014 4.534-4.555.008-245.226.451-245.227-.464-4.54-.008.011-4.52c.196-81.743.163-163.485.77-245.227L2.725 4.54l.014-2.29 2.253.023 221.076 2.266L4.992 6.807 7.26 4.54l1.492 245.226c.608 81.742.574 163.484.77 245.226l-4.529-4.527L250.22 490l245.226.452-4.54 4.54.735-245.226L493.088 4.54l2.357 2.357-232.222-2.358z"/><path class="st0" d="M495.446 262.77l2.357 232.222.024 2.345-2.382.013-245.226 1.448-245.227.736-4.532.014-.009-4.556L0 249.766.463 4.54.473 0l4.52.01c81.742.196 163.484.163 245.226.77l245.226 1.493 2.29.013-.022 2.254-2.267 221.075L493.179 4.54l2.266 2.267L250.22 8.299c-81.742.607-163.484.574-245.227.769L9.52 4.54l.464 245.226-.451 245.226-4.54-4.54 245.226.736 245.226 1.448-2.357 2.356 2.358-232.221z"/><path class="st0" d="M42.236 458.384c-1.342 11.15 9.197 20.784 19.534 20.696 10.702.058 20.092-6.724 27.255-14.39 7.305-7.81 13.568-16.86 22.06-24.11 4.227-3.58 9.02-6.741 14.526-8.424 5.478-1.76 11.641-1.511 17.019.61 10.753 4.31 18.3 15.363 18.14 26.934-.072 11.604-7.997 22.374-18.738 26.254-5.354 1.95-11.48 1.996-16.737-.236-5.237-2.123-9.8-6.451-11.367-12.008-1.55-5.382-.59-11.799 3.639-15.69 4.116-3.818 11.216-4.123 15.024-.02-4.016-3.895-10.84-3.12-14.465.613-3.729 3.78-4.305 9.787-2.642 14.612 1.573 4.946 5.774 8.745 10.584 10.536 4.848 1.89 10.282 1.678 15.063-.205 9.539-3.829 16.708-13.59 16.608-23.868.08-10.266-6.842-20.136-16.339-23.83-4.72-1.889-9.972-2.172-14.875-.659-4.925 1.447-9.44 4.32-13.493 7.697-8.189 6.772-14.387 15.807-22.175 23.57-7.603 7.67-17.644 14.644-29.141 14.233-11.264-.52-21.394-11.233-19.48-22.315z"/><path class="st0" d="M53.773 451.62c11.522 2.808 23.617 4.064 34.971 1.41 5.605-1.417 11.1-3.524 15.5-7.114 4.408-3.58 7.845-8.352 9.669-13.675 1.927-5.255 2.078-11.17.542-16.573-1.427-5.388-5.285-10.163-10.73-10.95-5.357-1.055-11.172 2.512-12.355 8.1-1.353 5.553.544 11.595 3.116 16.869-3.205-4.947-5.614-10.905-4.712-17.213.56-3.115 2.359-6.067 5.014-7.96 2.646-1.92 6.032-2.69 9.271-2.337 3.267.29 6.408 1.927 8.648 4.307 2.24 2.388 3.744 5.3 4.652 8.314 1.819 6.007 1.768 12.58-.308 18.548-2.144 5.923-6.027 11.096-10.924 14.94-4.955 3.837-10.87 6.15-16.853 7.24-12.069 2.247-24.36.21-35.501-3.907zm64.695-20.29c16.792-19.384 42.809-30.761 68.79-29.401 12.887.668 25.98 4.138 36.8 11.673 10.65 7.264 19.689 19.135 19.468 32.968-.554 13.663-9.327 25.576-20.502 32.511-11.675 6.77-25.782 7.725-38.515 4.154-6.304-1.908-12.581-5.473-16.333-11.37-3.692-5.921-4.163-13.292-2.624-19.705 2.61-13.43 16.266-23.552 29.898-21.79l-.116 2.618c-4.071.153-8.145 2.101-11.45 4.754-3.352 2.674-5.854 6.258-6.805 10.436-1.013 4.13-.726 8.607.835 12.58 1.569 3.966 4.552 7.35 8.232 9.59 7.331 4.671 17.473 4.198 24.687-.876 7.238-5.08 11.282-14.277 10.65-23.197.906 8.894-2.816 18.365-10.156 23.883-7.298 5.484-17.96 6.434-26.045 1.628-4.004-2.342-7.328-5.952-9.142-10.303-1.791-4.339-2.192-9.208-1.158-13.798.952-4.63 3.777-8.84 7.38-11.787 3.598-2.964 7.948-5.238 12.888-5.537l-.116 2.618c-12.123-1.326-24.494 7.804-26.672 19.796-1.394 5.992-.846 12.391 2.32 17.433 3.23 5.03 8.801 8.233 14.65 9.963 11.776 3.266 25.33 2.205 35.912-3.859 10.42-6.333 18.662-17.58 19.168-29.823.324-12.36-7.921-23.59-18.035-30.632-10.185-7.374-22.759-10.975-35.338-11.853-25.238-1.613-51.255 8.406-68.671 27.326zm4.175-16.177c18.657-7.87 35.459-19.487 50.23-33.063 14.675-13.698 27.548-29.412 37.255-46.956l1.309 2.434c-10.78-.73-21.717.587-32.014 3.986-10.316 3.349-19.93 8.752-28.33 15.626-8.417 6.874-15.512 15.387-21.005 24.84-5.588 9.402-9.634 19.785-11.818 30.603 3.179-21.834 14.11-42.795 31.12-57.463 16.963-14.613 39.783-22.51 62.285-20.858l2.594.19-1.285 2.245c-10.135 17.714-23.135 33.775-38.455 47.187-15.25 13.453-32.803 24.423-51.886 31.23z"/><path class="st0" d="M120.394 423.197c1.666-9.848 5.953-19.208 11.594-27.519 5.638-8.365 12.664-15.608 19.866-22.53 7.436-6.7 15.252-12.982 23.57-18.512 8.223-5.675 17.324-9.962 26.082-14.592-4.089 2.87-8.265 5.543-12.375 8.308-4.204 2.607-8.324 5.338-12.23 8.378-7.924 5.902-15.638 12.07-22.785 18.858-7.292 6.627-14.135 13.756-20.05 21.571-5.925 7.811-10.668 16.542-13.672 26.038zm70.429-38.852c7.238 10.329 17.62 19.372 30.049 20.74 6.078.668 12.327-.514 17.28-3.998 4.96-3.37 8.633-8.696 9.552-14.521 1.007-5.778-.515-12.193-4.415-16.563-3.745-4.447-10.56-6.074-15.674-3.444-5.01 2.563-7.581 10.018-4.36 15.05 1.517 2.51 4.34 4.344 7.387 4.433 3.045.08 6.142-1.5 8.025-4.08-1.58 2.78-4.638 4.813-8.015 4.963-3.384.164-6.74-1.611-8.751-4.406-4.061-5.867-1.673-14.533 4.462-18.196 6.263-3.702 14.582-1.56 19.164 3.634 4.703 5.159 6.515 12.387 5.459 19.16-2.384 13.893-17.224 23.159-30.456 20.496-6.584-1.046-12.67-4.11-17.647-8.281-4.934-4.25-8.96-9.394-12.06-14.987zm9.036 33.018c-7.35 1.095-14.314 3.741-20.553 7.464-6.227 3.762-11.575 8.824-15.733 14.668l-1.332 1.873-1.163-1.992c-4.017-6.878-10.155-12.375-17.199-15.891l-2.771-1.383 2.668-1.47c8.517-4.695 18.068-7.833 27.813-8.173 9.72-.496 19.407 1.357 28.27 4.904zm0 0c-9.241-2.377-18.765-3.466-28.091-2.521-9.294 1.05-18.357 3.834-26.399 8.589l-.103-2.853c7.836 3.585 14.165 9.942 18.383 17.312l-2.493-.12c4.454-6.223 10.491-11.179 17.16-14.694a48.792 48.792 0 0121.543-5.713zm255.661 45.281c5.535.842 10.858-2.134 14.23-6.238 3.45-4.132 5.393-9.454 5.265-14.763-.048-10.798-6.047-20.622-13.358-28.356-7.398-7.85-16.187-14.66-23.004-23.63-3.37-4.46-6.287-9.425-7.874-14.962-1.603-5.502-1.696-11.592.078-17.113 3.345-10.934 13.43-20.36 25.453-20.43 12.038-.074 22.151 9.292 25.42 20.12 1.665 5.47 1.737 11.487-.19 16.882-1.833 5.333-5.639 10.39-11.196 12.377-5.385 1.948-12.116.6-15.53-4.129-3.27-4.56-3.461-11.36.343-15.48-3.588 4.295-2.958 10.894.304 14.984 3.372 4.21 9.571 5.083 14.312 3.098 4.858-1.912 8.227-6.551 9.77-11.513 1.634-5.02 1.4-10.475-.25-15.429-3.333-9.789-12.551-18.131-22.939-17.878-10.4.093-19.421 8.575-22.317 18.378-3.412 10.007.581 20.894 7.035 29.279 6.362 8.646 15.135 15.384 22.472 23.73 7.308 8.19 13.394 18.643 13.091 30.103-.147 5.67-2.498 11.18-6.277 15.267-3.697 4.087-9.353 6.832-14.838 5.703z"/><path class="st0" d="M449.133 450.422c2.484-11.708 3.628-23.81 1.552-35.407-1.14-5.719-2.812-11.467-5.835-16.323-3.026-4.858-7.34-8.955-12.437-11.365-5.024-2.536-10.935-3.076-16.37-1.545-5.422 1.43-10.002 5.481-11.008 10.974-1.186 5.322 1.252 11.761 6.662 13.637 5.39 1.973 11.61-.273 16.733-3.102-4.773 3.42-10.868 6.28-17.248 4.65-6.495-1.875-9.751-9.32-8.673-15.615.733-6.705 6.625-11.801 12.681-13.454 6.09-1.85 12.922-1.34 18.668 1.458 5.72 2.83 10.358 7.43 13.575 12.784 3.188 5.434 4.965 11.428 5.77 17.501 1.622 12.179-.264 24.44-4.07 35.807zm-19.151-68.538c-18.646-18.339-28.617-44.954-27.88-71.242a88.919 88.919 0 012.548-19.579c1.423-6.457 3.866-12.713 7.072-18.532 3.25-5.794 7.39-11.184 12.625-15.465 5.23-4.199 11.643-7.412 18.675-7.578 6.97-.15 13.689 2.56 19.067 6.612 5.438 4.04 9.907 9.267 13.124 15.206 3.197 6.018 4.859 12.666 5.469 19.304.598 6.652.266 13.4-1.297 19.947-1.585 6.469-4.476 13.04-9.912 17.581-5.392 4.693-13.277 5.63-19.762 3.79-6.848-1.451-12.604-6.23-16.173-11.991-3.623-5.787-5.31-12.773-4.526-19.578l2.597.102c.142 4.128 1.79 8.301 4.213 11.807 2.42 3.543 5.742 6.426 9.853 7.533 4.048 1.192 8.557.832 12.386-.992 3.846-1.813 6.913-5.138 8.91-8.96 4.077-7.668 3.783-17.528-.604-25.17-4.323-7.685-13.289-12.68-22.278-11.926 8.957-1.036 18.263 3.68 22.994 11.498 4.768 7.757 5.472 17.996 1.373 26.355-2.066 4.12-5.302 7.804-9.562 9.912a19.602 19.602 0 01-13.795 1.34c-4.653-1.157-8.566-4.443-11.215-8.224-2.7-3.798-4.612-8.246-4.88-13.098l2.598.102c-1.223 12.226 6.61 25.778 18.782 28.399 6.015 1.63 12.569.718 17.136-3.281 4.633-3.897 7.322-9.867 8.758-15.945 2.656-12.231 1.691-25.827-3.922-36.967-2.95-5.536-7.128-10.47-12.131-14.23-4.963-3.787-11.02-6.204-17.132-6.107-6.098.082-12.066 2.946-16.918 6.82-4.906 3.944-8.85 9.063-12.05 14.567-3.174 5.54-5.633 11.503-7.122 17.754a86.653 86.653 0 00-2.816 19.066c-1.004 25.668 7.667 52.248 25.795 71.17zm-15.271-4.422c-7.202-19.116-17.863-36.725-30.624-52.46-12.88-15.635-27.86-29.65-45.025-40.348l2.506-1.28c-1.388 21.851 4.644 44.207 17.198 62.244 12.499 18.013 31.81 31.49 53.557 36.477-10.984-1.893-21.618-6.022-31.158-11.97-9.482-6.038-17.873-13.851-24.552-22.974-6.69-9.122-11.52-19.54-14.64-30.397-3.07-10.872-4.456-22.278-3.673-33.592l.191-2.769 2.316 1.49c17.342 11.154 32.663 25.324 45.214 41.58 12.604 16.203 22.566 34.5 28.69 53.999z"/><path class="st0" d="M422.304 379.844c-9.823-1.96-18.984-6.855-26.9-13.06-7.989-6.2-14.765-13.694-21.23-21.336-6.247-7.846-12.034-16.053-17.108-24.677-5.179-8.563-9.057-17.854-13.254-26.856 2.672 4.234 5.141 8.548 7.706 12.8 2.423 4.326 4.889 8.624 7.722 12.7 5.47 8.255 11.157 16.362 17.51 23.929 6.166 7.714 12.853 15.03 20.27 21.466 7.4 6.45 15.858 11.744 25.284 15.034zm-36.674-74.612c10.076-7.871 18.18-18.922 19.461-31.47.615-6.167-.218-12.514-3.235-17.846-2.918-5.303-7.833-9.672-13.59-10.936-5.694-1.338-12.172.468-16.24 4.732-4.12 4.164-5.47 10.983-3.226 16.365 2.08 5.326 9.65 8.535 14.462 4.648 2.36-1.782 3.918-4.768 3.94-7.855.027-3.08-1.328-6.266-3.821-8.322 2.717 1.766 4.504 4.946 4.703 8.296.23 3.365-1.18 6.824-3.787 9.145-2.653 2.368-6.638 2.96-9.97 1.874-3.355-1.02-6.294-3.483-7.849-6.701-3.12-6.438-1.447-14.41 3.342-19.53 4.802-5.151 12.296-7.395 19.181-5.897 6.93 1.662 12.348 6.795 15.513 12.735 3.226 6.002 4.184 13.06 3.107 19.623-1.013 6.592-3.747 12.825-7.64 18.093-3.969 5.224-8.885 9.622-14.35 13.046zm31.167-9.572c1.04 7.57 3.457 14.83 6.927 21.469 3.507 6.622 8.32 12.49 14.078 17.095l1.594 1.276-1.714 1.126c-6.692 4.395-11.779 10.96-14.987 18.236l-1.413 3.205-1.522-3.105c-4.5-9.177-7.395-19.264-7.677-29.481-.428-10.199 1.308-20.368 4.714-29.82zm0 0c-2.2 9.797-3.195 19.816-2.303 29.663.974 9.82 3.563 19.462 8.154 28.175l-2.934.099c3.272-7.972 9.124-14.81 16.354-19.459l-.12 2.4c-6.148-4.946-10.783-11.496-14.02-18.522-3.275-7.029-4.976-14.73-5.13-22.356zM44.918 462.644c-5.485 1.129-11.142-1.616-14.839-5.703-3.778-4.087-6.129-9.596-6.276-15.267-.303-11.46 5.782-21.914 13.09-30.103 7.338-8.346 16.11-15.084 22.473-23.73 6.454-8.385 10.446-19.272 7.035-29.279-2.896-9.803-11.918-18.285-22.318-18.378-10.387-.253-19.605 8.09-22.938 17.878-1.65 4.954-1.885 10.408-.25 15.429 1.542 4.962 4.911 9.6 9.77 11.513 4.74 1.985 10.94 1.112 14.312-3.098 3.262-4.09 3.891-10.689.303-14.984 3.805 4.12 3.614 10.92.344 15.48-3.414 4.73-10.145 6.077-15.53 4.129-5.558-1.988-9.364-7.044-11.196-12.377-1.928-5.395-1.855-11.412-.19-16.881 3.269-10.83 13.381-20.195 25.42-20.12 12.023.07 22.107 9.495 25.453 20.429 1.774 5.52 1.68 11.61.077 17.113-1.587 5.537-4.503 10.502-7.873 14.962-6.817 8.97-15.606 15.78-23.005 23.63-7.31 7.734-13.309 17.558-13.358 28.356-.127 5.31 1.815 10.631 5.266 14.763 3.371 4.104 8.694 7.08 14.23 6.238z"/><path class="st0" d="M51.304 450.422c-3.806-11.367-5.691-23.628-4.07-35.807.805-6.073 2.583-12.067 5.771-17.5 3.217-5.354 7.854-9.955 13.575-12.785 5.746-2.797 12.578-3.307 18.668-1.458 6.056 1.653 11.947 6.749 12.68 13.454 1.08 6.294-2.177 13.74-8.672 15.616-6.38 1.628-12.476-1.23-17.249-4.65 5.124 2.828 11.344 5.074 16.733 3.1 5.41-1.875 7.849-8.314 6.663-13.636-1.006-5.493-5.586-9.544-11.007-10.974-5.436-1.531-11.348-.99-16.37 1.545-5.1 2.41-9.413 6.507-12.439 11.365-3.023 4.856-4.694 10.604-5.834 16.323-2.076 11.598-.932 23.7 1.551 35.407zm19.152-68.538c18.127-18.922 26.799-45.502 25.795-71.17a86.654 86.654 0 00-2.816-19.066c-1.489-6.25-3.948-12.215-7.122-17.754-3.2-5.504-7.144-10.623-12.05-14.567-4.852-3.874-10.82-6.738-16.918-6.82-6.113-.097-12.17 2.32-17.132 6.108-5.004 3.758-9.182 8.693-12.132 14.23-5.613 11.14-6.578 24.735-3.922 36.966 1.436 6.078 4.126 12.048 8.759 15.945 4.567 4 11.12 4.911 17.135 3.28 12.172-2.62 20.006-16.172 18.783-28.398l2.597-.102c-.267 4.852-2.18 9.3-4.879 13.098-2.65 3.781-6.562 7.067-11.216 8.224a19.602 19.602 0 01-13.794-1.34c-4.26-2.108-7.497-5.791-9.562-9.912-4.1-8.359-3.395-18.598 1.373-26.355 4.73-7.817 14.036-12.534 22.994-11.498-8.99-.754-17.955 4.241-22.278 11.926-4.387 7.642-4.681 17.502-.605 25.17 1.998 3.822 5.065 7.147 8.91 8.96 3.83 1.824 8.34 2.184 12.387.992 4.11-1.107 7.432-3.99 9.853-7.533 2.422-3.506 4.07-7.679 4.213-11.807l2.597-.102c.784 6.805-.904 13.79-4.526 19.578-3.569 5.76-9.325 10.54-16.173 11.99-6.486 1.84-14.37.904-19.763-3.789-5.435-4.541-8.326-11.112-9.91-17.581-1.565-6.547-1.897-13.295-1.298-19.947.61-6.638 2.272-13.286 5.469-19.304 3.216-5.94 7.686-11.165 13.123-15.206 5.38-4.053 12.097-6.762 19.067-6.612 7.033.166 13.446 3.38 18.676 7.578 5.235 4.281 9.374 9.671 12.625 15.465 3.206 5.819 5.648 12.075 7.071 18.532a88.924 88.924 0 012.548 19.579c.738 26.288-9.234 52.903-27.88 71.242zm15.27-4.422c6.125-19.498 16.087-37.796 28.69-53.999 12.552-16.256 27.873-30.426 45.215-41.58l2.315-1.49.192 2.769c.782 11.314-.604 22.72-3.674 33.592-3.118 10.857-7.95 21.275-14.64 30.397-6.678 9.123-15.07 16.936-24.552 22.974-9.54 5.948-20.173 10.077-31.158 11.97 21.747-4.987 41.059-18.464 53.558-36.477 12.554-18.037 18.586-40.393 17.198-62.243l2.506 1.279C144.21 295.352 129.23 309.367 116.35 325c-12.761 15.736-23.422 33.345-30.625 52.461z"/><path class="st0" d="M78.134 379.844c9.425-3.29 17.883-8.584 25.284-15.034 7.417-6.435 14.104-13.752 20.269-21.466 6.354-7.567 12.04-15.674 17.51-23.93 2.834-4.075 5.3-8.373 7.723-12.7 2.565-4.251 5.034-8.565 7.705-12.799-4.196 9.002-8.075 18.293-13.253 26.856-5.075 8.624-10.861 16.831-17.107 24.677-6.466 7.642-13.243 15.136-21.231 21.336-7.917 6.205-17.077 11.1-26.9 13.06zm36.673-74.612c-5.465-3.424-10.382-7.822-14.35-13.046-3.893-5.268-6.628-11.5-7.64-18.093-1.077-6.564-.12-13.62 3.106-19.623 3.166-5.94 8.584-11.073 15.513-12.735 6.886-1.498 14.38.746 19.182 5.898 4.788 5.12 6.46 13.091 3.341 19.529-1.554 3.218-4.494 5.682-7.849 6.7-3.331 1.087-7.316.495-9.969-1.873-2.607-2.32-4.018-5.78-3.787-9.145.2-3.35 1.985-6.53 4.703-8.296-2.493 2.056-3.848 5.242-3.82 8.322.02 3.087 1.579 6.073 3.939 7.855 4.81 3.887 12.38.678 14.461-4.648 2.244-5.382.894-12.2-3.226-16.365-4.068-4.264-10.546-6.07-16.239-4.732-5.758 1.264-10.673 5.633-13.59 10.936-3.017 5.332-3.85 11.679-3.235 17.847 1.28 12.547 9.385 23.598 19.46 31.469zM83.64 295.66c-.154 7.627-1.855 15.327-5.13 22.356-3.237 7.026-7.872 13.576-14.02 18.523l-.12-2.4c7.23 4.647 13.082 11.486 16.354 19.458l-2.935-.1c4.592-8.712 7.18-18.355 8.154-28.174.893-9.847-.102-19.866-2.303-29.663zm0 0c3.407 9.453 5.143 19.622 4.715 29.821-.282 10.217-3.178 20.304-7.677 29.481l-1.522 3.105-1.413-3.205c-3.209-7.277-8.296-13.841-14.987-18.236l-1.715-1.126 1.595-1.276c5.758-4.605 10.57-10.473 14.078-17.095 3.47-6.64 5.888-13.899 6.926-21.469zm374.562 162.724c1.914 11.082-8.217 21.795-19.48 22.315-11.497.411-21.538-6.563-29.141-14.233-7.788-7.763-13.987-16.798-22.175-23.57-4.054-3.376-8.569-6.25-13.493-7.697-4.903-1.513-10.155-1.23-14.876.66-9.497 3.693-16.42 13.563-16.338 23.83-.1 10.277 7.069 20.038 16.608 23.867 4.78 1.883 10.215 2.094 15.063.205 4.81-1.791 9.01-5.59 10.584-10.536 1.662-4.825 1.087-10.833-2.643-14.612-3.624-3.733-10.448-4.508-14.465-.612 3.809-4.104 10.909-3.8 15.025.018 4.23 3.892 5.188 10.309 3.639 15.691-1.568 5.557-6.13 9.885-11.367 12.008-5.258 2.232-11.383 2.187-16.737.236-10.74-3.88-18.666-14.65-18.74-26.254-.159-11.571 7.389-22.623 18.142-26.934 5.377-2.121 11.54-2.37 17.019-.61 5.506 1.683 10.3 4.843 14.525 8.423 8.493 7.25 14.756 16.301 22.06 24.111 7.163 7.666 16.553 14.448 27.255 14.39 10.337.088 20.877-9.545 19.535-20.696z"/><path class="st0" d="M446.665 451.62c-11.141 4.115-23.433 6.153-35.501 3.906-5.984-1.09-11.898-3.403-16.853-7.24-4.897-3.844-8.78-9.017-10.925-14.94-2.076-5.969-2.126-12.541-.308-18.548.908-3.013 2.412-5.926 4.653-8.314 2.24-2.38 5.38-4.017 8.648-4.307 3.24-.353 6.625.417 9.271 2.337 2.655 1.893 4.454 4.845 5.014 7.96.901 6.308-1.507 12.266-4.712 17.213 2.571-5.274 4.469-11.316 3.115-16.87-1.182-5.587-6.998-9.154-12.354-8.1-5.445.788-9.303 5.563-10.73 10.951-1.536 5.402-1.385 11.318.542 16.573 1.823 5.323 5.26 10.096 9.669 13.675 4.4 3.59 9.894 5.697 15.5 7.114 11.353 2.654 23.45 1.398 34.971-1.41zm-64.695-20.29c-17.416-18.92-43.434-28.939-68.671-27.326-12.58.878-25.154 4.479-35.338 11.853-10.114 7.042-18.36 18.271-18.035 30.632.506 12.244 8.747 23.49 19.168 29.823 10.583 6.064 24.136 7.125 35.912 3.86 5.848-1.73 11.42-4.934 14.65-9.964 3.166-5.042 3.714-11.44 2.32-17.433-2.178-11.992-14.55-21.122-26.673-19.796l-.115-2.618c4.94.299 9.29 2.573 12.887 5.537 3.604 2.947 6.429 7.157 7.38 11.787 1.035 4.59.634 9.459-1.157 13.798-1.814 4.35-5.138 7.961-9.142 10.303-8.086 4.806-18.747 3.856-26.045-1.628-7.34-5.518-11.063-14.989-10.155-23.883-.633 8.92 3.41 18.117 10.649 23.197 7.214 5.074 17.355 5.547 24.687.876 3.68-2.24 6.663-5.624 8.231-9.59 1.562-3.973 1.848-8.45.836-12.58-.952-4.178-3.454-7.762-6.806-10.436-3.304-2.653-7.378-4.601-11.45-4.754l-.115-2.619c13.632-1.761 27.288 8.36 29.898 21.79 1.539 6.414 1.067 13.785-2.625 19.705-3.751 5.898-10.028 9.463-16.333 11.371-12.733 3.571-26.84 2.615-38.514-4.154-11.175-6.935-19.948-18.848-20.502-32.51-.221-13.834 8.817-25.705 19.468-32.97 10.819-7.534 23.912-11.004 36.799-11.672 25.982-1.36 51.999 10.017 68.79 29.401zm-4.175-16.177c-19.083-6.806-36.636-17.776-51.886-31.229-15.32-13.412-28.32-29.473-38.456-47.187l-1.284-2.245 2.594-.19c22.501-1.651 45.322 6.245 62.285 20.858 17.009 14.668 27.941 35.629 31.12 57.463-2.184-10.818-6.23-21.201-11.818-30.604-5.493-9.452-12.588-17.965-21.005-24.839-8.4-6.874-18.015-12.277-28.33-15.626-10.298-3.399-21.235-4.716-32.014-3.986l1.309-2.434c9.706 17.544 22.58 33.258 37.255 46.956 14.771 13.576 31.573 25.192 50.23 33.063z"/><path class="st0" d="M380.044 423.197c-3.005-9.496-7.747-18.227-13.672-26.038-5.915-7.815-12.758-14.944-20.05-21.57-7.147-6.788-14.862-12.957-22.785-18.859-3.906-3.04-8.027-5.771-12.23-8.378-4.11-2.765-8.287-5.437-12.376-8.308 8.759 4.63 17.86 8.917 26.083 14.592 8.318 5.53 16.134 11.811 23.57 18.512 7.202 6.922 14.228 14.165 19.865 22.53 5.642 8.311 9.929 17.671 11.595 27.519zm-70.43-38.852c-3.099 5.593-7.125 10.737-12.06 14.987-4.976 4.17-11.063 7.235-17.646 8.28-13.232 2.664-28.072-6.602-30.456-20.495-1.056-6.773.756-14.001 5.459-19.16 4.582-5.193 12.9-7.336 19.163-3.634 6.136 3.663 8.524 12.33 4.463 18.196-2.011 2.795-5.367 4.57-8.752 4.406-3.376-.15-6.435-2.184-8.015-4.963 1.884 2.58 4.981 4.16 8.026 4.08 3.046-.089 5.87-1.923 7.386-4.434 3.222-5.031.651-12.486-4.36-15.05-5.112-2.629-11.928-1.002-15.673 3.445-3.9 4.37-5.422 10.785-4.416 16.563.92 5.825 4.593 11.15 9.553 14.521 4.953 3.484 11.202 4.666 17.28 3.999 12.428-1.37 22.811-10.412 30.048-20.741zm-9.035 33.018a48.792 48.792 0 0121.542 5.713c6.67 3.515 12.706 8.471 17.161 14.694l-2.494.12c4.219-7.37 10.548-13.727 18.384-17.312l-.103 2.853c-8.043-4.755-17.105-7.54-26.4-8.59-9.325-.944-18.85.145-28.09 2.522zm0 0c8.863-3.547 18.55-5.4 28.27-4.904 9.745.34 19.295 3.478 27.813 8.172l2.668 1.47-2.772 1.384c-7.044 3.516-13.181 9.013-17.199 15.891l-1.163 1.992-1.332-1.873c-4.157-5.844-9.505-10.906-15.732-14.668-6.24-3.723-13.203-6.369-20.553-7.464zM42.236 41.148c-1.914-11.081 8.216-21.794 19.48-22.314 11.497-.412 21.538 6.562 29.14 14.233 7.789 7.763 13.987 16.798 22.176 23.57 4.053 3.376 8.568 6.25 13.493 7.697 4.903 1.513 10.154 1.23 14.875-.66 9.497-3.694 16.42-13.564 16.339-23.83.1-10.278-7.069-20.038-16.608-23.867-4.781-1.883-10.215-2.095-15.063-.205-4.81 1.79-9.011 5.59-10.584 10.535-1.663 4.825-1.087 10.833 2.642 14.613 3.625 3.733 10.449 4.508 14.465.611-3.808 4.105-10.908 3.8-15.024-.018-4.23-3.891-5.189-10.308-3.64-15.69 1.568-5.557 6.131-9.885 11.368-12.008 5.258-2.232 11.383-2.188 16.737-.237 10.74 3.88 18.666 14.65 18.739 26.254.16 11.572-7.388 22.624-18.141 26.934-5.378 2.121-11.54 2.371-17.019.61-5.507-1.682-10.3-4.843-14.525-8.422-8.493-7.251-14.756-16.301-22.06-24.112-7.164-7.665-16.554-14.447-27.256-14.389-10.337-.088-20.876 9.544-19.534 20.695z"/><path class="st0" d="M53.773 47.913c11.141-4.116 23.432-6.153 35.5-3.906 5.984 1.09 11.9 3.403 16.854 7.24 4.897 3.843 8.78 9.016 10.924 14.94 2.076 5.968 2.127 12.54.308 18.548-.908 3.012-2.411 5.926-4.652 8.313-2.24 2.38-5.38 4.018-8.648 4.307-3.24.353-6.625-.416-9.271-2.337-2.655-1.892-4.455-4.845-5.014-7.96-.902-6.307 1.507-12.265 4.712-17.212-2.572 5.273-4.469 11.316-3.116 16.87 1.183 5.587 6.998 9.154 12.355 8.099 5.445-.788 9.303-5.562 10.73-10.95 1.536-5.403 1.385-11.318-.542-16.574-1.824-5.323-5.261-10.096-9.67-13.675-4.4-3.59-9.894-5.696-15.499-7.114-11.354-2.654-23.45-1.398-34.971 1.411zm64.695 20.289c17.416 18.92 43.433 28.94 68.67 27.327 12.58-.879 25.154-4.48 35.339-11.854 10.114-7.041 18.36-18.27 18.035-30.631-.506-12.244-8.747-23.49-19.168-29.824-10.583-6.063-24.136-7.124-35.912-3.859-5.849 1.73-11.42 4.934-14.65 9.963-3.166 5.043-3.714 11.44-2.32 17.433 2.178 11.993 14.55 21.122 26.672 19.796l.116 2.62c-4.94-.3-9.29-2.574-12.887-5.539-3.604-2.947-6.43-7.156-7.38-11.787-1.035-4.59-.634-9.459 1.157-13.797 1.814-4.352 5.138-7.962 9.142-10.304 8.085-4.806 18.747-3.855 26.045 1.629 7.34 5.518 11.062 14.988 10.155 23.883.633-8.92-3.411-18.118-10.649-23.198-7.214-5.073-17.356-5.547-24.687-.875-3.68 2.24-6.663 5.624-8.232 9.59-1.561 3.972-1.848 8.45-.835 12.58.951 4.178 3.453 7.761 6.806 10.435 3.304 2.654 7.378 4.602 11.45 4.754l.115 2.62c-13.632 1.761-27.289-8.361-29.898-21.792-1.54-6.412-1.068-13.783 2.624-19.704 3.752-5.898 10.029-9.463 16.333-11.37 12.733-3.571 26.84-2.616 38.515 4.153 11.175 6.935 19.948 18.848 20.502 32.511.221 13.834-8.818 25.705-19.468 32.969-10.82 7.535-23.913 11.005-36.8 11.673-25.981 1.36-51.998-10.017-68.79-29.402zm4.175 16.178c19.083 6.806 36.636 17.775 51.886 31.228 15.32 13.413 28.32 29.473 38.455 47.188l1.285 2.245-2.594.19c-22.502 1.65-45.322-6.246-62.286-20.859-17.008-14.668-27.94-35.628-31.12-57.462 2.185 10.818 6.23 21.2 11.819 30.603 5.493 9.452 12.588 17.966 21.004 24.84 8.402 6.873 18.015 12.276 28.331 15.626 10.297 3.398 21.234 4.715 32.014 3.985l-1.31 2.434c-9.706-17.544-22.58-33.258-37.254-46.955-14.771-13.577-31.573-25.193-50.23-33.064z"/><path class="st0" d="M120.394 76.336c3.004 9.495 7.747 18.226 13.671 26.037 5.916 7.817 12.759 14.945 20.051 21.571 7.147 6.788 14.861 12.957 22.784 18.858 3.907 3.04 8.027 5.772 12.231 8.378 4.11 2.765 8.286 5.438 12.375 8.308-8.758-4.629-17.859-8.917-26.082-14.591-8.318-5.53-16.134-11.812-23.57-18.512-7.202-6.922-14.228-14.165-19.866-22.53-5.641-8.312-9.928-17.672-11.594-27.519zm70.429 38.851c3.1-5.592 7.126-10.737 12.06-14.985 4.976-4.172 11.063-7.236 17.647-8.283 13.232-2.662 28.072 6.604 30.456 20.496 1.056 6.773-.756 14.002-5.46 19.16-4.581 5.194-12.9 7.336-19.163 3.635-6.135-3.663-8.523-12.33-4.462-18.197 2.01-2.794 5.367-4.57 8.751-4.405 3.377.15 6.436 2.183 8.015 4.963-1.883-2.581-4.98-4.162-8.025-4.08-3.047.088-5.87 1.922-7.386 4.433-3.222 5.032-.651 12.486 4.359 15.05 5.113 2.629 11.929 1.002 15.674-3.444 3.9-4.37 5.422-10.786 4.415-16.563-.92-5.825-4.593-11.15-9.552-14.522-4.953-3.484-11.202-4.665-17.28-3.998-12.428 1.369-22.811 10.412-30.049 20.74zm9.036-33.017a48.792 48.792 0 01-21.542-5.714c-6.67-3.515-12.707-8.47-17.161-14.694l2.493-.12c-4.218 7.37-10.547 13.727-18.383 17.313l.103-2.853c8.042 4.755 17.105 7.54 26.399 8.588 9.326.946 18.85-.143 28.09-2.52zm0 0c-8.863 3.546-18.55 5.399-28.27 4.903-9.745-.34-19.296-3.478-27.813-8.172l-2.668-1.47 2.771-1.384c7.044-3.516 13.182-9.013 17.2-15.89l1.162-1.993 1.332 1.873c4.158 5.844 9.506 10.906 15.733 14.669 6.239 3.723 13.203 6.368 20.553 7.464zM455.52 36.889c5.485-1.13 11.141 1.616 14.838 5.702 3.779 4.087 6.13 9.597 6.277 15.268.303 11.46-5.783 21.913-13.091 30.103-7.337 8.346-16.11 15.083-22.472 23.73-6.454 8.385-10.447 19.27-7.035 29.279 2.896 9.802 11.917 18.285 22.317 18.377 10.388.254 19.606-8.09 22.938-17.877 1.651-4.955 1.885-10.409.25-15.429-1.542-4.962-4.91-9.601-9.769-11.513-4.74-1.986-10.94-1.112-14.312 3.097-3.262 4.09-3.892 10.69-.304 14.984-3.804-4.12-3.613-10.92-.343-15.48 3.414-4.73 10.145-6.076 15.53-4.128 5.557 1.987 9.363 7.043 11.195 12.377 1.928 5.394 1.856 11.41.191 16.88-3.269 10.83-13.382 20.195-25.42 20.12-12.023-.07-22.108-9.495-25.453-20.428-1.774-5.52-1.68-11.611-.078-17.114 1.587-5.537 4.503-10.502 7.874-14.961 6.817-8.97 15.606-15.78 23.004-23.63 7.311-7.735 13.31-17.559 13.358-28.356.128-5.31-1.814-10.632-5.265-14.763-3.372-4.105-8.695-7.08-14.23-6.238z"/><path class="st0" d="M449.133 49.11c3.806 11.368 5.692 23.628 4.07 35.808-.805 6.072-2.582 12.066-5.77 17.5-3.217 5.354-7.854 9.956-13.575 12.785-5.746 2.797-12.578 3.306-18.668 1.458-6.056-1.653-11.948-6.75-12.68-13.455-1.08-6.294 2.177-13.74 8.672-15.616 6.38-1.628 12.475 1.231 17.248 4.652-5.123-2.83-11.343-5.076-16.733-3.102-5.41 1.875-7.848 8.314-6.662 13.637 1.006 5.492 5.586 9.544 11.007 10.974 5.436 1.53 11.347.99 16.37-1.546 5.099-2.41 9.412-6.506 12.438-11.365 3.023-4.855 4.694-10.604 5.835-16.323 2.076-11.597.932-23.7-1.552-35.406zm-19.151 68.538c-18.128 18.923-26.8 45.502-25.795 71.17a86.648 86.648 0 002.816 19.066c1.489 6.25 3.948 12.216 7.121 17.754 3.2 5.505 7.145 10.623 12.051 14.567 4.852 3.874 10.82 6.739 16.918 6.82 6.113.097 12.169-2.32 17.132-6.108 5.003-3.758 9.181-8.692 12.131-14.228 5.613-11.14 6.578-24.736 3.922-36.967-1.436-6.08-4.125-12.049-8.758-15.944-4.567-4.001-11.121-4.912-17.136-3.282-12.172 2.62-20.005 16.172-18.782 28.399l-2.597.102c.267-4.853 2.18-9.3 4.879-13.098 2.65-3.781 6.562-7.068 11.215-8.224 4.577-1.257 9.569-.761 13.795 1.34 4.26 2.107 7.496 5.79 9.562 9.912 4.099 8.358 3.395 18.598-1.373 26.354-4.73 7.817-14.037 12.535-22.994 11.5 8.989.752 17.955-4.242 22.278-11.927 4.387-7.643 4.681-17.502.604-25.17-1.997-3.821-5.064-7.148-8.91-8.96-3.829-1.824-8.338-2.185-12.386-.993-4.11 1.108-7.432 3.99-9.853 7.534-2.422 3.506-4.07 7.679-4.213 11.806l-2.597.103c-.784-6.806.903-13.791 4.526-19.578 3.569-5.76 9.325-10.54 16.173-11.991 6.485-1.84 14.37-.903 19.762 3.79 5.436 4.54 8.327 11.112 9.912 17.581 1.563 6.547 1.895 13.296 1.297 19.947-.61 6.638-2.272 13.286-5.47 19.303-3.216 5.94-7.685 11.166-13.123 15.207-5.378 4.052-12.097 6.762-19.067 6.611-7.032-.166-13.445-3.38-18.675-7.578-5.235-4.28-9.375-9.67-12.625-15.464-3.206-5.82-5.649-12.075-7.072-18.533a88.923 88.923 0 01-2.547-19.578c-.738-26.289 9.233-52.903 27.879-71.243zm-15.271 4.422c-6.124 19.498-16.086 37.796-28.69 54-12.551 16.255-27.872 30.426-45.214 41.58l-2.316 1.489-.191-2.769c-.783-11.314.604-22.72 3.674-33.591 3.118-10.857 7.949-21.276 14.64-30.398 6.678-9.122 15.069-16.936 24.551-22.974 9.54-5.948 20.174-10.076 31.158-11.968-21.746 4.985-41.058 18.462-53.557 36.475-12.554 18.037-18.586 40.393-17.198 62.243l-2.506-1.279c17.164-10.698 32.146-24.713 45.025-40.346 12.76-15.735 23.422-33.346 30.624-52.461z"/><path class="st0" d="M422.304 119.689c-9.426 3.29-17.883 8.584-25.284 15.034-7.417 6.435-14.104 13.752-20.27 21.466-6.353 7.566-12.04 15.673-17.51 23.929-2.833 4.075-5.299 8.373-7.722 12.7-2.565 4.252-5.034 8.565-7.705 12.8 4.196-9.002 8.074-18.293 13.253-26.856 5.074-8.624 10.86-16.832 17.107-24.678 6.466-7.642 13.242-15.136 21.231-21.336 7.916-6.204 17.077-11.099 26.9-13.06zM385.63 194.3c5.466 3.425 10.382 7.822 14.35 13.046 3.894 5.27 6.628 11.501 7.64 18.094 1.078 6.563.12 13.62-3.106 19.622-3.165 5.94-8.584 11.074-15.513 12.736-6.885 1.498-14.38-.747-19.181-5.898-4.789-5.12-6.461-13.091-3.342-19.53 1.555-3.217 4.494-5.681 7.85-6.7 3.33-1.086 7.316-.494 9.969 1.874 2.607 2.321 4.017 5.78 3.787 9.144-.2 3.35-1.986 6.53-4.703 8.297 2.493-2.057 3.848-5.243 3.82-8.322-.02-3.088-1.579-6.074-3.94-7.856-4.81-3.887-12.38-.678-14.46 4.648-2.244 5.383-.895 12.201 3.226 16.365 4.067 4.264 10.545 6.071 16.239 4.733 5.757-1.264 10.672-5.633 13.59-10.936 3.017-5.332 3.85-11.68 3.235-17.847-1.28-12.547-9.385-23.598-19.46-31.47zm31.167 9.572c.155-7.626 1.856-15.327 5.131-22.356 3.237-7.025 7.872-13.575 14.02-18.522l.12 2.4c-7.23-4.648-13.082-11.486-16.354-19.458l2.934.099c-4.591 8.713-7.18 18.355-8.154 28.175-.892 9.847.103 19.865 2.303 29.662zm0 0c-3.406-9.452-5.142-19.621-4.714-29.82.282-10.218 3.177-20.305 7.677-29.482l1.522-3.105 1.413 3.205c3.208 7.277 8.295 13.842 14.987 18.237l1.714 1.126-1.594 1.275c-5.758 4.606-10.57 10.473-14.078 17.096-3.47 6.639-5.888 13.898-6.927 21.468zM44.918 36.889c-5.536-.843-10.859 2.133-14.23 6.238-3.45 4.131-5.393 9.453-5.266 14.763.05 10.797 6.048 20.621 13.358 28.355 7.399 7.85 16.188 14.662 23.005 23.63 3.37 4.46 6.286 9.425 7.873 14.962 1.604 5.503 1.697 11.593-.077 17.114-3.346 10.933-13.43 20.359-25.453 20.429-12.039.074-22.151-9.291-25.42-20.12-1.665-5.47-1.738-11.487.19-16.88 1.832-5.335 5.638-10.39 11.196-12.378 5.385-1.948 12.116-.601 15.53 4.129 3.27 4.56 3.46 11.36-.344 15.48 3.588-4.296 2.959-10.895-.303-14.985-3.372-4.21-9.572-5.083-14.312-3.097-4.859 1.912-8.228 6.551-9.77 11.513-1.635 5.02-1.4 10.474.25 15.429 3.333 9.788 12.55 18.13 22.938 17.877 10.4-.092 19.422-8.575 22.318-18.377 3.411-10.008-.581-20.894-7.035-29.279-6.363-8.647-15.135-15.384-22.472-23.73C29.585 79.772 23.5 69.32 23.803 57.86c.147-5.671 2.498-11.181 6.276-15.268 3.697-4.086 9.354-6.831 14.84-5.702z"/><path class="st0" d="M51.304 49.11c-2.483 11.708-3.627 23.81-1.551 35.407 1.14 5.72 2.811 11.468 5.834 16.323 3.026 4.859 7.34 8.956 12.438 11.365 5.023 2.536 10.935 3.077 16.37 1.546 5.422-1.43 10.002-5.482 11.008-10.974 1.186-5.323-1.253-11.762-6.663-13.637-5.39-1.974-11.609.272-16.733 3.102 4.773-3.42 10.869-6.28 17.249-4.652 6.495 1.876 9.751 9.322 8.672 15.616-.733 6.706-6.624 11.802-12.68 13.455-6.09 1.848-12.922 1.34-18.668-1.458-5.721-2.83-10.358-7.431-13.575-12.785-3.188-5.434-4.966-11.428-5.77-17.5-1.622-12.18.263-24.44 4.07-35.807zm19.152 68.538c18.645 18.34 28.617 44.954 27.88 71.243a88.928 88.928 0 01-2.549 19.578c-1.423 6.458-3.865 12.713-7.071 18.533-3.25 5.793-7.39 11.184-12.625 15.464-5.23 4.199-11.643 7.412-18.676 7.578-6.97.151-13.688-2.56-19.067-6.611-5.437-4.041-9.907-9.268-13.123-15.207-3.197-6.017-4.86-12.665-5.47-19.303-.598-6.651-.266-13.4 1.298-19.947 1.585-6.47 4.476-13.04 9.911-17.582 5.393-4.692 13.277-5.63 19.763-3.79 6.848 1.452 12.604 6.231 16.173 11.992 3.622 5.787 5.31 12.772 4.526 19.578l-2.597-.103c-.143-4.127-1.791-8.3-4.213-11.806-2.421-3.544-5.743-6.426-9.853-7.534-4.048-1.192-8.558-.831-12.387.993-3.845 1.812-6.912 5.139-8.91 8.96-4.076 7.668-3.782 17.527.605 25.17 4.323 7.685 13.289 12.68 22.278 11.926-8.958 1.036-18.264-3.682-22.994-11.5-4.768-7.755-5.472-17.995-1.373-26.353 2.065-4.121 5.302-7.805 9.562-9.913 4.226-2.1 9.218-2.596 13.794-1.34 4.654 1.157 8.566 4.444 11.216 8.225 2.7 3.798 4.612 8.245 4.879 13.098l-2.597-.102c1.223-12.227-6.61-25.778-18.783-28.4-6.014-1.629-12.568-.718-17.135 3.283-4.633 3.895-7.323 9.865-8.759 15.944-2.656 12.231-1.69 25.827 3.922 36.967 2.95 5.536 7.128 10.47 12.132 14.228 4.963 3.789 11.019 6.205 17.132 6.109 6.097-.082 12.066-2.947 16.918-6.82 4.906-3.945 8.85-9.063 12.05-14.568 3.174-5.538 5.633-11.503 7.122-17.754a86.648 86.648 0 002.816-19.066c1.004-25.668-7.668-52.247-25.795-71.17zm15.27 4.422c7.203 19.116 17.864 36.727 30.625 52.462 12.879 15.633 27.86 29.648 45.025 40.346l-2.506 1.28c1.388-21.85-4.644-44.207-17.198-62.244-12.5-18.013-31.811-31.49-53.558-36.475 10.985 1.892 21.618 6.02 31.158 11.968 9.483 6.038 17.874 13.852 24.552 22.974 6.69 9.122 11.522 19.541 14.64 30.398 3.07 10.872 4.456 22.277 3.674 33.591l-.192 2.769-2.315-1.49c-17.342-11.153-32.663-25.324-45.214-41.58-12.604-16.203-22.566-34.5-28.69-53.998z"/><path class="st0" d="M78.134 119.689c9.823 1.96 18.983 6.855 26.9 13.06 7.988 6.2 14.765 13.693 21.23 21.335 6.247 7.846 12.033 16.054 17.108 24.678 5.178 8.563 9.057 17.854 13.253 26.856-2.67-4.235-5.14-8.548-7.705-12.8-2.424-4.327-4.889-8.625-7.722-12.7-5.47-8.256-11.157-16.363-17.511-23.93-6.165-7.713-12.852-15.03-20.269-21.465-7.401-6.45-15.859-11.744-25.284-15.034zm36.673 74.611c-10.075 7.872-18.18 18.923-19.46 31.47-.616 6.167.218 12.515 3.235 17.847 2.917 5.303 7.832 9.672 13.59 10.936 5.693 1.338 12.171-.469 16.24-4.733 4.12-4.164 5.469-10.982 3.225-16.365-2.08-5.326-9.65-8.535-14.461-4.648-2.36 1.782-3.919 4.768-3.94 7.856-.027 3.08 1.328 6.265 3.82 8.322-2.717-1.767-4.503-4.947-4.702-8.297-.23-3.365 1.18-6.823 3.787-9.144 2.653-2.368 6.638-2.96 9.97-1.874 3.354 1.019 6.294 3.483 7.848 6.7 3.12 6.439 1.447 14.41-3.341 19.53-4.802 5.151-12.296 7.396-19.182 5.898-6.929-1.662-12.347-6.795-15.513-12.736-3.225-6.002-4.183-13.06-3.106-19.622 1.012-6.593 3.747-12.825 7.64-18.094 3.968-5.224 8.885-9.621 14.35-13.046zm-31.167 9.572c-1.038-7.57-3.456-14.83-6.926-21.468-3.507-6.623-8.32-12.49-14.078-17.096l-1.595-1.275 1.715-1.126c6.691-4.395 11.778-10.96 14.987-18.237l1.413-3.205 1.522 3.105c4.5 9.177 7.395 19.264 7.677 29.482.428 10.199-1.308 20.368-4.715 29.82zm0 0c2.201-9.797 3.196-19.815 2.303-29.662-.973-9.82-3.562-19.462-8.154-28.175l2.935-.1c-3.272 7.973-9.125 14.811-16.355 19.46l.12-2.4c6.149 4.946 10.784 11.496 14.02 18.521 3.276 7.029 4.977 14.73 5.131 22.356zM458.202 41.148c1.342-11.15-9.198-20.783-19.535-20.695-10.702-.058-20.092 6.724-27.255 14.39-7.304 7.81-13.567 16.86-22.06 24.11-4.226 3.58-9.019 6.74-14.525 8.423-5.479 1.761-11.642 1.511-17.019-.61-10.753-4.31-18.3-15.362-18.141-26.934.073-11.604 7.998-22.373 18.739-26.254 5.354-1.95 11.479-1.995 16.737.237 5.236 2.123 9.8 6.45 11.367 12.008 1.55 5.382.59 11.799-3.64 15.69-4.115 3.818-11.215 4.123-15.024.018 4.017 3.897 10.841 3.122 14.465-.611 3.73-3.78 4.305-9.788 2.643-14.613-1.573-4.945-5.775-8.744-10.584-10.535-4.848-1.89-10.282-1.678-15.063.205-9.54 3.829-16.709 13.589-16.608 23.867-.081 10.266 6.841 20.136 16.338 23.83 4.721 1.89 9.973 2.173 14.876.66 4.924-1.447 9.44-4.32 13.493-7.698 8.188-6.771 14.387-15.806 22.175-23.57 7.603-7.67 17.644-14.644 29.141-14.232 11.263.52 21.394 11.233 19.48 22.314z"/><path class="st0" d="M446.665 47.913c-11.522-2.809-23.618-4.065-34.971-1.411-5.606 1.418-11.1 3.525-15.5 7.114-4.408 3.58-7.846 8.352-9.67 13.675-1.926 5.256-2.077 11.171-.542 16.574 1.428 5.388 5.286 10.162 10.73 10.95 5.357 1.055 11.173-2.512 12.355-8.1 1.354-5.553-.544-11.596-3.115-16.87 3.205 4.948 5.613 10.906 4.712 17.213-.56 3.115-2.36 6.068-5.014 7.96-2.646 1.921-6.032 2.69-9.271 2.337-3.268-.29-6.408-1.926-8.648-4.307-2.241-2.387-3.745-5.3-4.653-8.313-1.818-6.007-1.768-12.58.308-18.549 2.145-5.923 6.028-11.096 10.925-14.939 4.955-3.837 10.87-6.15 16.853-7.24 12.068-2.247 24.36-.21 35.501 3.906zM381.97 68.202c-16.792 19.385-42.81 30.762-68.791 29.402-12.887-.668-25.98-4.138-36.8-11.673-10.65-7.264-19.688-19.135-19.467-32.969.554-13.663 9.327-25.576 20.502-32.51 11.675-6.77 25.781-7.725 38.514-4.155 6.305 1.908 12.582 5.473 16.333 11.371 3.692 5.92 4.164 13.292 2.625 19.704-2.61 13.43-16.266 23.553-29.898 21.791l.115-2.619c4.072-.152 8.146-2.1 11.45-4.754 3.352-2.674 5.854-6.257 6.806-10.435 1.012-4.13.726-8.608-.836-12.58-1.568-3.966-4.551-7.35-8.231-9.59-7.332-4.672-17.473-4.198-24.687.875-7.238 5.08-11.282 14.277-10.65 23.198-.907-8.895 2.816-18.365 10.156-23.883 7.298-5.484 17.96-6.435 26.045-1.63 4.004 2.343 7.328 5.953 9.142 10.305 1.79 4.338 2.192 9.207 1.157 13.797-.951 4.63-3.776 8.84-7.38 11.787-3.597 2.965-7.947 5.239-12.887 5.538l.115-2.619c12.123 1.326 24.495-7.803 26.672-19.796 1.395-5.992.847-12.39-2.32-17.433-3.23-5.029-8.8-8.233-14.65-9.963-11.775-3.265-25.328-2.204-35.911 3.859-10.421 6.333-18.662 17.58-19.168 29.824-.325 12.36 7.92 23.59 18.035 30.631 10.184 7.375 22.758 10.975 35.338 11.854 25.237 1.612 51.255-8.407 68.67-27.327zm-4.175 16.178c-18.657 7.87-35.459 19.486-50.23 33.063-14.675 13.697-27.549 29.41-37.255 46.955l-1.31-2.434c10.78.73 21.716-.587 32.013-3.985 10.316-3.35 19.93-8.753 28.331-15.627 8.417-6.873 15.512-15.387 21.005-24.84 5.588-9.402 9.634-19.784 11.818-30.602-3.179 21.834-14.111 42.794-31.12 57.462-16.963 14.613-39.784 22.51-62.285 20.858l-2.594-.19 1.284-2.244c10.136-17.715 23.136-33.775 38.456-47.188 15.25-13.453 32.803-24.422 51.886-31.229z"/><path class="st0" d="M380.044 76.336c-1.666 9.847-5.953 19.207-11.595 27.518-5.637 8.366-12.663 15.609-19.866 22.53-7.435 6.701-15.251 12.982-23.57 18.513-8.222 5.674-17.323 9.962-26.082 14.591 4.09-2.87 8.266-5.543 12.375-8.308 4.204-2.606 8.325-5.338 12.231-8.378 7.923-5.901 15.638-12.07 22.784-18.858 7.293-6.626 14.136-13.754 20.051-21.57 5.925-7.812 10.667-16.543 13.672-26.038zm-70.43 38.851c-7.237-10.328-17.62-19.371-30.048-20.74-6.078-.667-12.327.514-17.28 3.998-4.96 3.371-8.633 8.697-9.553 14.522-1.006 5.777.515 12.193 4.416 16.563 3.745 4.446 10.56 6.073 15.674 3.444 5.01-2.564 7.581-10.018 4.359-15.05-1.516-2.51-4.34-4.345-7.386-4.434-3.045-.08-6.142 1.5-8.026 4.08 1.58-2.779 4.639-4.813 8.015-4.962 3.385-.165 6.741 1.61 8.752 4.405 4.06 5.867 1.673 14.534-4.463 18.197-6.262 3.701-14.58 1.559-19.163-3.634-4.703-5.16-6.515-12.388-5.46-19.16 2.385-13.893 17.225-23.159 30.457-20.497 6.583 1.047 12.67 4.11 17.647 8.283 4.934 4.248 8.96 9.393 12.06 14.985zm-9.035-33.017c7.35-1.096 14.314-3.741 20.553-7.464 6.227-3.763 11.575-8.825 15.732-14.67l1.332-1.872 1.163 1.992c4.018 6.878 10.155 12.375 17.2 15.891l2.77 1.384-2.667 1.47c-8.518 4.694-18.068 7.833-27.813 8.172-9.72.496-19.407-1.357-28.27-4.903zm0 0c9.24 2.377 18.765 3.466 28.09 2.52 9.295-1.048 18.357-3.833 26.4-8.588l.103 2.853c-7.836-3.586-14.165-9.942-18.384-17.313l2.494.12c-4.455 6.223-10.491 11.18-17.161 14.694a48.792 48.792 0 01-21.542 5.714z"/><text transform="translate(211.777 297.22)" class="st0 st1" letter-spacing="52" font-size="150.147">L</text><text transform="translate(27.29 558.287)" class="st0 st1" letter-spacing="9" font-size="36.645">premium product</text></svg>