<?xml version="1.0" encoding="utf-8"?>
<!-- Generator: Adobe Illustrator 27.2.0, SVG Export Plug-In . SVG Version: 6.00 Build 0)  -->
<svg version="1.1" id="OBJECTS" xmlns="http://www.w3.org/2000/svg" xmlns:xlink="http://www.w3.org/1999/xlink" x="0px" y="0px"
	 viewBox="0 0 500 558.2872314" style="enable-background:new 0 0 500 558.2872314;" xml:space="preserve">
<style type="text/css">
	.st0{fill:#868686;}
	.st1{font-family:'AnticDidone-Regular';}
	.st2{font-size:150.1469879px;}
	.st3{letter-spacing:52;}
	.st4{font-size:36.6449661px;}
	.st5{letter-spacing:9;}
</style>
<g>
	<g>
		<g>
			<path class="st0" d="M263.2232056,4.5393248l232.2220154-2.357666l2.3439941-0.0237849l0.0142517,2.3820455
				l1.4473267,245.2264099l0.7355347,245.2257996L500,499.5255127l-4.5547791,0.0083313l-245.2263336,0.4512939
				L4.9924245,499.5213318l-4.5399189-0.0083008l0.0107031-4.5209045
				c0.1956298-81.7417297,0.1623311-163.4840698,0.770032-245.2257996L2.7245462,4.5399194L2.738817,2.2494452l2.2536075,0.0231903
				l221.0753326,2.2666893L4.9924245,6.8066087l2.2666893-2.2666893l1.4919,245.2264099
				c0.6077013,81.7417297,0.5744028,163.4840698,0.7694378,245.2257996l-4.5280271-4.5274353l245.2264557-0.464386
				l245.2263336,0.4519043l-4.5405273,4.539917l0.7356262-245.2257996l1.4478149-245.2264099l2.3570862,2.3570714
				L263.2232056,4.5393248z"/>
		</g>
		<g>
			<path class="st0" d="M495.4458618,262.7706604l2.357605,232.2214661l0.0231934,2.344574l-2.3814392,0.0137024
				l-245.2263336,1.447876L4.9924245,499.533844l-4.5327835,0.0136719l-0.0083247-4.5553894L0,249.7663269L0.4632085,4.5399194
				L0.4721278,0l4.5202966,0.0107031c81.7423325,0.1956298,163.4846497,0.1623311,245.2264557,0.7700322l245.2263336,1.4919002
				l2.2904663,0.0136762l-0.022583,2.2536077l-2.2672424,221.0753479l-2.267334-221.0753479l2.2666931,2.2666893
				l-245.2263336,1.4919C168.4770813,8.9062099,86.7347565,8.8729115,4.9924245,9.0679464l4.5280271-4.5280271
				l0.4638033,245.2264099L9.532938,494.9921265l-4.5405135-4.539917l245.2264557,0.7355347l245.2263336,1.4479065
				l-2.3570862,2.3564758L495.4458618,262.7706604z"/>
		</g>
		<g>
			<g>
				<g>
					<g>
						<g>
							<path class="st0" d="M42.235817,458.3843689c-1.3420563,11.1503296,9.1975708,20.7837524,19.5344353,20.6951599
								c10.7019615,0.0582581,20.0921898-6.7239685,27.2549782-14.3892212
								c7.304306-7.8103027,13.567482-16.8610229,22.060379-24.1112061
								c4.2260132-3.5796204,9.0186462-6.7406006,14.5253601-8.4227905
								c5.4782333-1.7606506,11.6414566-1.5115051,17.0186081,0.6094971
								c10.7530975,4.3109741,18.3005981,15.3631592,18.1412354,26.9344788
								c-0.0731354,11.6033936-7.9981689,22.3737488-18.7388306,26.2542114
								c-5.3539581,1.9503479-11.479126,1.9955444-16.7373505-0.2366638
								c-5.2362137-2.1227722-9.799324-6.4510193-11.366745-12.0077209
								c-1.5495758-5.3825073-0.5904007-11.7990417,3.6390762-15.6908264
								c4.1159515-3.8174438,11.2157059-4.1224976,15.0242996-0.0184326
								c-4.0167084-3.8959351-10.8405609-3.1211548-14.4647675,0.6118774
								c-3.729454,3.7793884-4.3050461,9.7874146-2.6424332,14.6121521c1.5727158,4.9460449,5.774292,8.7450867,10.58358,10.5360718
								c4.8479309,1.8890991,10.2821503,1.678009,15.0628967-0.2051392
								c9.5394745-3.8287659,16.7088013-13.589447,16.6083069-23.8674316
								c0.0808716-10.2661133-6.8416901-20.1362-16.3383484-23.8299561c-4.721283-1.8891296-9.9729614-2.17276-14.8755951-0.6594543
								c-4.9246368,1.4467163-9.4395828,4.3205261-13.493103,7.6967468
								c-8.1885071,6.7721252-14.3868179,15.8067932-22.1751404,23.5701294
								c-7.6028061,7.6705933-17.6435471,14.6442871-29.1411095,14.2328186
								C50.4522667,480.1789551,40.3217354,469.4656982,42.235817,458.3843689z"/>
						</g>
						<g>
							<path class="st0" d="M53.7726212,451.6193848c11.5219421,2.8084106,23.617691,4.0648193,34.971405,1.4110413
								c5.605423-1.417572,11.0997086-3.524292,15.4998932-7.1140137c4.4079666-3.5796204,7.8454056-8.3520203,9.6691055-13.6750793
								c1.9265671-5.255249,2.0775986-11.1711121,0.5423508-16.5732117
								c-1.427742-5.3884583-5.2856293-10.1626587-10.7305603-10.950531
								c-5.3563309-1.0548401-11.1717072,2.5122681-12.3544083,8.0999146
								c-1.3533554,5.5531616,0.544075,11.5950928,3.1152115,16.8693542
								c-3.2050018-4.9472351-5.613205-10.9047241-4.7117615-17.2124329
								c0.5595322-3.1152344,2.3588562-6.0675049,5.0138245-7.9601746c2.6460571-1.9206238,6.0318222-2.6900635,9.2713089-2.3374634
								c3.2674332,0.2901917,6.4076157,1.9271545,8.648201,4.3068237c2.2404709,2.3880005,3.7442627,5.3010559,4.6522446,8.3139648
								c1.8183517,6.0074463,1.767807,12.5797729-0.3080139,18.548584
								c-2.1447906,5.9223938-6.0276566,11.0961914-10.9243469,14.939209
								c-4.9549637,3.837677-10.8696442,6.1501465-16.8532944,7.2406921
								C77.2053833,457.7731018,64.9140091,455.7353516,53.7726212,451.6193848z"/>
						</g>
						<g>
							<path class="st0" d="M118.4678116,431.3303833c16.7920456-19.3845825,42.8090286-30.7614441,68.7909164-29.4015503
								c12.8865967,0.6677551,25.9801178,4.13797,36.7992096,11.6729736
								c10.650238,7.2638855,19.6890411,19.1348572,19.4678497,32.968689
								c-0.5535889,13.6625671-9.3272095,25.5757446-20.5018921,32.5108032
								c-11.6747589,6.769165-25.7815094,7.7247009-38.514679,4.1540222
								c-6.3046875-1.9081421-12.5815582-5.4729004-16.3330078-11.3709106
								c-3.6919861-5.9206238-4.1635284-13.2915344-2.624649-19.7044983
								c2.6098328-13.4300842,16.2664032-23.5522766,29.898056-21.7904358l-0.1153564,2.6187134
								c-4.0713654,0.1528015-8.1456909,2.1007996-11.4494019,4.7539673
								c-3.3524628,2.6740112-5.8546143,6.257782-6.806015,10.4355774
								c-1.0126343,4.1302185-0.7260284,8.6077271,0.8354492,12.5803833
								c1.5686646,3.9655151,4.5518036,7.3494873,8.231308,9.5894165c7.331665,4.671936,17.4729614,4.197998,24.6874084-0.8752747
								c7.2377167-5.079834,11.281723-14.276825,10.6490479-23.1972961
								c0.9073792,8.8943176-2.8149261,18.3648071-10.1555023,23.8828735
								c-7.2977142,5.4841919-17.9592438,6.4338074-26.0449371,1.6286621
								c-4.0035706-2.3421936-7.3280792-5.9527283-9.1416779-10.3035583
								c-1.7909851-4.3389282-2.1923523-9.2076721-1.1577148-13.7975464
								c0.9513855-4.6303101,3.7764282-8.84021,7.3804169-11.7871399c3.5974426-2.9641724,7.9470825-5.2385864,12.8871765-5.5376892
								l-0.1153564,2.6187134c-12.1230927-1.3260193-24.494751,7.803772-26.6722412,19.796051
								c-1.3943787,5.9919739-0.8461456,12.390686,2.3196106,17.4324646
								c3.2306213,5.0298767,8.8015594,8.2337036,14.650238,9.9634399
								c11.7758331,3.2656555,25.3289948,2.2048645,35.9120941-3.8590698
								c10.420639-6.3327026,18.6614685-17.5793457,19.1674957-29.8231506
								c0.3246613-12.3609314-7.920929-23.590332-18.0348053-30.6324158
								c-10.1846466-7.3738708-22.7584686-10.9742737-35.3382263-11.8525391
								C161.9011841,402.391449,135.8836212,412.4101868,118.4678116,431.3303833z"/>
						</g>
						<g>
							<path class="st0" d="M122.6426315,415.1531677c18.6573715-7.8709717,35.4589462-19.4868774,50.2304764-33.0632019
								c14.6746063-13.6976624,27.5481262-29.4116821,37.2546844-46.9559326l1.3087616,2.4337769
								c-10.7792053-0.7295837-21.716095,0.5874939-32.0130615,3.9857483
								c-10.3161163,3.3494873-19.9299164,8.7528076-28.3312988,15.6265869
								c-8.4161835,6.8738098-15.5112457,15.3869934-21.0042725,24.8390503
								c-5.588295,9.40271-9.6340866,19.7853699-11.8181229,30.6038818
								c3.1788406-21.8344421,14.1109085-42.7947693,31.1194687-57.4634399
								c16.9638367-14.6121826,39.7841339-22.508728,62.2857208-20.8580627l2.5937347,0.1902771l-1.2843781,2.2446899
								c-10.1352844,17.714325-23.1354523,33.7755737-38.4552307,47.1878052
								C159.2789154,397.3770142,141.7257538,408.3465576,122.6426315,415.1531677z"/>
						</g>
						<g>
							<path class="st0" d="M120.3937836,423.1965942c1.6661224-9.8475037,5.9527283-19.2073975,11.5944824-27.5184021
								c5.6375885-8.3651123,12.6636047-15.6081543,19.8662262-22.5301208
								c7.4351807-6.7007751,15.2514038-12.9817505,23.5695343-18.5116882
								c8.2229919-5.6750488,17.3236389-9.9628601,26.0823822-14.59198
								c-4.0892029,2.8702393-8.2658081,5.5430603-12.3752136,8.3080444
								c-4.2039642,2.6062012-8.3240814,5.3378906-12.2307281,8.377594
								c-7.9233093,5.9015808-15.6378937,12.0707703-22.7839813,18.8583374
								c-7.2924652,6.6264343-14.1353455,13.7553406-20.0512085,21.5710144
								C128.1410828,404.9703064,123.3984528,413.7011108,120.3937836,423.1965942z"/>
						</g>
						<g>
							<path class="st0" d="M190.8234711,384.3447571c7.2371216,10.3291321,17.6203613,19.3721008,30.0485077,20.7409058
								c6.0776062,0.6671753,12.3270569-0.5143433,17.2796326-3.9981995
								c4.9597168-3.3709106,8.6332855-8.6969299,9.5525665-14.5218201
								c1.0066833-5.7773132-0.5149384-12.1926575-4.4150543-16.5625305
								c-3.7454987-4.4471436-10.5610352-6.0740356-15.6741638-3.4446106
								c-5.0102081,2.5639954-7.5814056,10.0181274-4.3591614,15.0498047
								c1.5162811,2.5110779,4.3395386,4.3448792,7.3857727,4.4335022c3.0450439,0.0808411,6.1424255-1.499054,8.0255737-4.0797119
								c-1.5792999,2.7792664-4.638031,4.8128662-8.0148773,4.9627075
								c-3.3845673,0.1641235-6.7406006-1.6108093-8.7516022-4.4055481
								c-4.0606537-5.8670959-1.6726685-14.5336609,4.462616-18.1965332
								c6.2625275-3.7020874,14.5812531-1.559082,19.1633911,3.6343079
								c4.7034454,5.1589355,6.5152435,12.3871155,5.4592743,19.1604309
								c-2.3844299,13.8920898-17.2238159,23.1580505-30.4564209,20.4953308
								c-6.5830841-1.045929-12.6701965-4.1099854-17.6465759-8.28125
								C197.9488068,395.0823975,193.9226379,389.9377441,190.8234711,384.3447571z"/>
						</g>
						<g>
							<path class="st0" d="M199.8587189,417.362793c-7.3500977,1.0952759-14.3136749,3.741333-20.5530243,7.4642334
								c-6.2267914,3.7621765-11.5748596,8.8241577-15.7324371,14.6680908l-1.3319397,1.8724365l-1.1630859-1.9913635
								c-4.0172424-6.8779602-10.1548462-12.3752136-17.198761-15.8912048l-2.7715302-1.3830872l2.6681213-1.4704895
								c8.5172729-4.6939392,18.0680389-7.8323364,27.8126678-8.1724548
								C181.3095703,411.9630432,190.9959106,413.8158875,199.8587189,417.362793z M199.8587189,417.362793
								c-9.2409821-2.376709-18.7649994-3.4660645-28.0910034-2.5212097
								c-9.2939148,1.0494995-18.3565063,3.8341064-26.3987274,8.5892944l-0.1034698-2.8529968
								c7.8364868,3.5849609,14.1656189,9.9420471,18.3838501,17.3117676l-2.4938354-0.1195374
								c4.4549561-6.2226868,10.4914703-11.178833,17.1613159-14.6942444
								C184.9736176,419.5170898,192.4444122,417.5649414,199.8587189,417.362793z"/>
						</g>
					</g>
					<g>
						<g>
							<path class="st0" d="M455.5195007,462.6436462c5.5358887,0.8425598,10.8589478-2.1334839,14.2304382-6.2375488
								c3.4505615-4.132019,5.3931885-9.4538574,5.2653503-14.7632141
								c-0.0487671-10.797699-6.0472717-20.6213989-13.3581238-28.3556213
								c-7.3982544-7.8501587-16.1873474-14.6609497-23.0046387-23.630188
								c-3.3702393-4.4596252-6.2863159-9.4247131-7.8733521-14.961792
								c-1.6030884-5.5026245-1.6964722-11.5927124,0.0778809-17.1137695
								c3.3453369-10.9332581,13.4294739-20.3585815,25.4526978-20.4287415
								c12.0386658-0.0749207,22.1513367,9.2909241,25.4205627,20.1201477
								c1.6643372,5.4692993,1.7368774,11.4862671-0.1908569,16.8806458
								c-1.8320312,5.3337402-5.6381836,10.389801-11.1954956,12.3770142
								c-5.3848877,1.9485474-12.1159668,0.6011658-15.5302734-4.1284485
								c-3.2698059-4.5595398-3.4606934-11.360199,0.343689-15.4797363
								c-3.5879517,4.2949524-2.9581604,10.894043,0.3032532,14.9838257
								c3.3720703,4.2093201,9.5715942,5.0827942,14.3124695,3.0973816
								c4.8580627-1.9117126,8.2271729-6.5509338,9.7690125-11.513031
								c1.6352234-5.0203857,1.401001-10.4742126-0.2497253-15.4285889
								c-3.3328552-9.7886353-12.5506287-18.131134-22.9380493-17.8778381
								c-10.3999023,0.0927734-19.4214478,8.5750122-22.3172607,18.3778992
								c-3.4119263,10.0074463,0.5809631,20.8937378,7.0349426,29.2784729
								c6.3624268,8.6463623,15.1349182,15.3840027,22.4718628,23.730072
								c7.3085327,8.1896973,13.3937988,18.6430969,13.0911255,30.1032104
								c-0.1474609,5.6708679-2.4979858,11.1806335-6.2767944,15.2674561
								C466.6614685,461.0280762,461.0048523,463.7728271,455.5195007,462.6436462z"/>
						</g>
						<g>
							<path class="st0" d="M449.1332703,450.4218445c2.4837341-11.7074585,3.6277771-23.8091736,1.5513611-35.4066162
								c-1.1404724-5.7190552-2.8113403-11.4672546-5.8343811-16.3229065
								c-3.0260315-4.8580322-7.339386-8.9555664-12.4376526-11.3649597
								c-5.0233459-2.5360413-10.9344788-3.0765686-16.3704834-1.5454102
								c-5.4211426,1.4300537-10.0014954,5.4812012-11.0069885,10.9743042
								c-1.1862793,5.3218384,1.2522583,11.7609558,6.6621094,13.6363831
								c5.389679,1.9729614,11.6094055-0.2723389,16.7331848-3.101532
								c-4.7729492,3.4202576-10.8684692,6.2791748-17.2487183,4.6505127
								c-6.4950256-1.8754272-9.7510986-9.321228-8.6725159-15.6152954
								c0.7331543-6.7055054,6.6246338-11.8013916,12.6809082-13.4538574
								c6.0900269-1.8498535,12.9216003-1.3396606,18.6674194,1.457428
								c5.7214355,2.8297729,10.3582764,7.4309387,13.5751648,12.7843018
								c3.1883545,5.4342346,4.9656677,11.428009,5.7707825,17.5008545
								C454.8249817,426.7940369,452.9394531,439.0545044,449.1332703,450.4218445z"/>
						</g>
						<g>
							<path class="st0" d="M429.981781,381.8842163c-18.6454773-18.3392639-28.6165771-44.9544067-27.8792725-71.2425537
								c0.1182861-6.5848083,0.973938-13.1666565,2.5478821-19.5784302
								c1.4229431-6.4569702,3.8656311-12.713562,7.071228-18.5319214
								c3.2507935-5.7939453,7.3905334-11.1841736,12.6256104-15.4648438
								c5.2296143-4.1992035,11.6426392-7.4125366,18.6751404-7.5784302
								c6.9701233-0.1498413,13.6881409,2.5592499,19.0670776,6.6115723
								c5.4371948,4.0410461,9.9069519,9.2671509,13.1232605,15.2067871
								c3.1973267,6.0175476,4.8592224,12.6654053,5.4692993,19.3031311
								c0.598175,6.6520081,0.2663879,13.4003601-1.2974548,19.947113
								c-1.5846558,6.4688721-4.475708,13.0400085-9.9111328,17.5816956
								c-5.3926086,4.6921692-13.2772522,5.6292725-19.7627563,3.7895203
								c-6.8476562-1.4508667-12.6041565-6.2304077-16.1730652-11.9910889
								c-3.622406-5.7868347-5.3099365-12.7724304-4.5256348-19.5778503l2.5967102,0.1022644
								c0.1427002,4.1278687,1.7909851,8.3009033,4.2128601,11.8067627
								c2.4212952,3.5433655,5.7428284,6.4260559,9.8534546,7.5332336
								c4.0475769,1.1922302,8.5571594,0.8318787,12.3865051-0.9924011c3.8453979-1.8124084,6.9124451-5.1381226,8.90979-8.9603271
								c4.0766907-7.6676025,3.7823486-17.5270081-0.6041565-25.1696472
								c-4.3234558-7.684845-13.2891235-12.679657-22.2785339-11.9256897
								c8.9578857-1.0364075,18.2636719,3.6806946,22.9944763,11.4981689
								c4.7676392,7.7568054,5.4716797,17.9961548,1.3730469,26.3547058
								c-2.0657959,4.1207275-5.3023071,7.8043823-9.5621643,9.912323c-4.2259521,2.1013794-9.2183838,2.59552-13.7944946,1.3396606
								c-4.6535645-1.157135-8.5661621-4.4429932-11.2157898-8.2241821
								c-2.6995544-3.797821-4.6118469-8.245575-4.8788452-13.0982666l2.5967712,0.1022644
								c-1.2225952,12.2265625,6.6109009,25.7779541,18.7827759,28.3990479
								c6.0145569,1.6304321,12.5684509,0.7182922,17.1357422-3.2811279
								c4.6326599-3.8965454,7.3222046-9.8665161,8.7581482-15.9447021
								c2.6561584-12.2313232,1.6911011-25.8267212-3.9221191-36.9669189
								c-2.9498901-5.536499-7.1276855-10.4706421-12.1314087-14.229248
								c-4.9627075-3.7877045-11.0188904-6.204834-17.1315918-6.1079102
								c-6.0978088,0.0820465-12.0666199,2.9463348-16.9181213,6.8196716
								c-4.906189,3.9447327-8.8502502,9.0632019-12.0505371,14.5675964
								c-3.1734924,5.5388794-5.632843,11.5028992-7.1217651,17.75354
								c-1.6411438,6.2137756-2.5901794,12.6243896-2.8161316,19.0664673
								C403.1828918,336.3821411,411.8542786,362.9616394,429.981781,381.8842163z"/>
						</g>
						<g>
							<path class="st0" d="M414.7113647,377.4620361c-7.2026367-19.1158447-17.8635559-36.7254944-30.6246948-52.460907
								c-12.8788452-15.633728-27.8602905-29.6488953-45.0245667-40.34729l2.5057068-1.2790222
								c-1.3878174,21.8504639,4.6439819,44.2063599,17.1981812,62.2435608
								c12.4989014,18.0128174,31.8109436,31.4892578,53.557373,36.4763184
								c-10.9844055-1.8926697-21.617981-6.021698-31.1580505-11.9696655
								c-9.4823914-6.0377808-17.8735962-13.8510742-24.5518494-22.9737244
								c-6.6906433-9.1220703-11.5213318-19.5403748-14.6395264-30.3975525
								c-3.0700073-10.8720093-4.456665-22.2779846-3.6740723-33.5918274l0.1914062-2.7685547l2.3154297,1.4895325
								c17.3420715,11.1538696,32.6630554,25.3242493,45.2142639,41.5805359
								C398.6251221,339.6662292,408.586792,357.9638672,414.7113647,377.4620361z"/>
						</g>
						<g>
							<path class="st0" d="M422.3040466,379.8440857c-9.8230896-1.9604797-18.9838257-6.8553772-26.8999939-13.0602417
								c-7.9886475-6.1994934-14.7649841-13.6934814-21.2308044-21.3355408
								c-6.2465515-7.8459778-12.0327759-16.0535278-17.1072083-24.6772766
								c-5.1785889-8.5631104-9.057312-17.8540649-13.25354-26.8559875
								c2.671051,4.2342834,5.1405029,8.5476379,7.7057495,12.7991638
								c2.4230042,4.3270569,4.8883057,8.6243591,7.7216492,12.7005005
								c5.47052,8.2556763,11.1568604,16.3627319,17.5109558,23.9292603
								c6.1650085,7.7139893,12.8521118,15.0307922,20.2687988,21.4663391
								C404.4208679,371.259552,412.8781433,376.5540466,422.3040466,379.8440857z"/>
						</g>
						<g>
							<path class="st0" d="M385.6303101,305.2318115c10.0758362-7.8709717,18.180481-18.9219666,19.4606934-31.4690247
								c0.615448-6.1679993-0.2182312-12.5149536-3.235321-17.8469086
								c-2.9172058-5.3028259-7.8323059-9.6720886-13.5899658-10.9362488
								c-5.6935425-1.3378906-12.1713257,0.4685669-16.2390442,4.7325745
								c-4.1201782,4.1641235-5.4699707,10.9826202-3.2264709,16.3645172
								c2.0805664,5.3265991,9.6506653,8.5351868,14.461731,4.6487427c2.3600464-1.782074,3.9185486-4.7688599,3.9394226-7.8555298
								c0.0272827-3.0795288-1.32724-6.2655029-3.8204956-8.3222809c2.7174072,1.7666168,4.5036621,4.94664,4.7028503,8.2967377
								c0.2307129,3.3649292-1.179657,6.8238525-3.7871399,9.1446533c-2.6525879,2.3677673-6.6377258,2.9599915-9.9693909,1.8736267
								c-3.3548279-1.019165-6.2946167-3.482666-7.8489685-6.7007446
								c-3.1193848-6.4379578-1.4467163-14.4094238,3.3417664-19.5290985
								c4.8015442-5.1517792,12.2955322-7.395874,19.1812439-5.8980255
								c6.9291382,1.6619568,12.3478394,6.7953033,15.5130005,12.7355499
								c3.2258301,6.0020905,4.1837463,13.0590363,3.1063538,19.6224518
								c-1.012085,6.5925293-3.7467346,12.8247375-7.6403198,18.0936584
								C396.0123596,297.4102173,391.0960999,301.8080139,385.6303101,305.2318115z"/>
						</g>
						<g>
							<path class="st0" d="M416.7972717,295.6602478c1.0388794,7.5700989,3.456543,14.8291931,6.9267273,21.4687195
								c3.5071411,6.6222839,8.3199158,12.4899902,14.0776367,17.0953064l1.5947571,1.2754517l-1.7148743,1.1262207
								c-6.6912537,4.3948364-11.7782288,10.9594421-14.9867859,18.2363892l-1.4128418,3.2049866l-1.5222168-3.1051025
								c-4.4994812-9.1773376-7.3946838-19.2638855-7.677124-29.4812317
								C411.6550293,315.282074,413.3907166,305.112915,416.7972717,295.6602478z M416.7972717,295.6602478
								c-2.2006836,9.796936-3.1954651,19.8156738-2.302887,29.6625671
								c0.9733276,9.8195496,3.5623169,19.4619141,8.1539612,28.1748657l-2.9344482,0.0993042
								c3.2721863-7.9720764,9.1244202-14.810791,16.3544006-19.4589233l-0.1200562,2.4004822
								c-6.1483459-4.9466553-10.7834778-11.4969788-14.019989-18.5223999
								C418.6531067,310.9871521,416.9518738,303.2868347,416.7972717,295.6602478z"/>
						</g>
					</g>
					<g>
						<g>
							<path class="st0" d="M44.9181442,462.6436462c-5.485363,1.1291809-11.1419792-1.6155701-14.838726-5.7023926
								c-3.7788067-4.0868225-6.1293373-9.5965881-6.276804-15.2674561
								c-0.30266-11.4601135,5.7827282-21.9135132,13.0911427-30.1032104
								c7.3370628-8.3460693,16.1094284-15.0837097,22.4718552-23.730072
								c6.4539986-8.3847351,10.4468651-19.2710266,7.0349464-29.2784729
								c-2.8958015-9.802887-11.917366-18.2851257-22.3172607-18.3778992
								c-10.3874054-0.2532959-19.605196,8.0892029-22.9380379,17.8778381
								c-1.6506081,4.9543762-1.884943,10.4082031-0.2497387,15.4285889
								c1.5418472,4.9620972,4.9109612,9.6013184,9.769001,11.513031c4.7409,1.9854126,10.9404049,1.1119385,14.3124905-3.0973816
								c3.2615433-4.0897827,3.8911896-10.6888733,0.303257-14.9838257
								c3.8043747,4.1195374,3.6134987,10.9201965,0.343689,15.4797363
								c-3.4143066,4.7296143-10.1453972,6.0769958-15.5302696,4.1284485
								c-5.5573139-1.9872131-9.363472-7.0432739-11.1954956-12.3770142
								c-1.9277554-5.3943787-1.8552113-11.4113464-0.1908722-16.8806458
								c3.2692184-10.8292236,13.3819084-20.1950684,25.4205742-20.1201477
								c12.0232048,0.0701599,22.107357,9.4954834,25.4526863,20.4287415
								c1.7743454,5.5210571,1.6809845,11.611145,0.0778961,17.1137695
								c-1.5870438,5.5370789-4.5029984,10.5021667-7.8733597,14.961792
								c-6.8173103,8.9692383-15.6063805,15.7800293-23.0046349,23.630188
								c-7.3108463,7.7342224-13.3093662,17.5579224-13.3581257,28.3556213
								c-0.1278419,5.3093567,1.8147793,10.6311951,5.2653561,14.7632141
								C34.0592041,460.5101624,39.3822365,463.4862061,44.9181442,462.6436462z"/>
						</g>
						<g>
							<path class="st0" d="M51.3043556,450.4218445c-3.8061562-11.3673401-5.6916962-23.6278076-4.0701675-35.8067932
								c0.8051147-6.0728455,2.5824318-12.0666199,5.7707787-17.5008545
								c3.2168922-5.353363,7.8537369-9.9545288,13.5751648-12.7843018
								c5.7458038-2.7970886,12.5773849-3.3072815,18.6675339-1.457428
								c6.0561447,1.6524658,11.9476318,6.7483521,12.6808014,13.4538574
								c1.0786972,6.2940674-2.1774979,13.7398682-8.6725235,15.6152954
								c-6.3802719,1.6286621-12.4756546-1.2302551-17.2487259-4.6505127
								c5.1238937,2.8291931,11.3436127,5.0744934,16.7331848,3.101532
								c5.4098511-1.8754272,7.8483887-8.3145447,6.662117-13.6363831
								c-1.0055008-5.493103-5.5858536-9.5442505-11.0069962-10.9743042
								c-5.4360123-1.5311584-11.3471222-0.9906311-16.3704681,1.5454102
								c-5.0982666,2.4093933-9.4116364,6.5069275-12.4376526,11.3649597
								c-3.0230484,4.8556519-4.6939278,10.6038513-5.8344078,16.3229065
								C47.6765823,426.6126709,48.8206329,438.714386,51.3043556,450.4218445z"/>
						</g>
						<g>
							<path class="st0" d="M70.4558563,381.8842163c18.1276245-18.9225769,26.7989044-45.5020752,25.7951889-71.1700134
								c-0.2259598-6.4420776-1.1749725-12.8526917-2.8161163-19.0664673
								c-1.4889297-6.2506409-3.9482727-12.2146606-7.1217575-17.75354
								c-3.2001877-5.5043945-7.1443558-10.6228638-12.05056-14.5675964
								c-4.8515015-3.8733368-10.8202896-6.7376251-16.9181099-6.8196716
								c-6.1126862-0.0969238-12.1688881,2.3202057-17.1315804,6.1079102
								c-5.0037231,3.758606-9.1815186,8.692749-12.1314259,14.229248
								c-5.6132069,11.1401978-6.5782738,24.7355957-3.9221096,36.9669189
								c1.4360619,6.078186,4.1254711,12.0481567,8.758152,15.9447021
								c4.5672684,3.9994202,11.1211662,4.9115601,17.1357384,3.2811279
								c12.1718597-2.6210938,20.0053787-16.1724854,18.7828979-28.3990479l2.5966415-0.1022644
								c-0.266983,4.8526917-2.1792755,9.3004456-4.8788528,13.0982666
								c-2.6496201,3.781189-6.5622177,7.0670471-11.2156525,8.2241821
								c-4.5762444,1.2558594-9.5686722,0.7617188-13.794632-1.3396606
								c-4.2598534-2.1079407-7.4963646-5.7915955-9.5620193-9.912323
								c-4.0987663-8.358551-3.3947353-18.5979004,1.372921-26.3547058
								c4.730793-7.8174744,14.0365868-12.5345764,22.9945831-11.4981689
								c-8.9895096-0.7539673-17.9551811,4.2408447-22.2786598,11.9256897
								c-4.386507,7.6426392-4.6808453,17.5020447-0.6041336,25.1696472
								c1.9973259,3.8222046,5.064373,7.1479187,8.9097786,8.9603271c3.8293457,1.8242798,8.3389397,2.1846313,12.3865166,0.9924011
								c4.1106033-1.1071777,7.432148-3.9898682,9.8534393-7.5332336c2.4218826-3.5058594,4.0701675-7.678894,4.2128754-11.8067627
								l2.5967026-0.1022644c0.7843018,6.8054199-0.9032288,13.7910156-4.52565,19.5778503
								c-3.5689011,5.7606812-9.3254128,10.5402222-16.1730499,11.9910889
								c-6.4855156,1.8397522-14.3701668,0.9026489-19.7627716-3.7895203
								c-5.4354153-4.541687-8.3264542-11.1128235-9.9111156-17.5816956
								c-1.5638485-6.5467529-1.895647-13.295105-1.2974606-19.947113
								c0.6100807-6.6377258,2.2720966-13.2855835,5.4693108-19.3031311
								c3.2162952-5.9396362,7.6860504-11.165741,13.1232491-15.2067871
								c5.3789291-4.0523224,12.0969391-6.7614136,19.0670662-6.6115723
								c7.0326233,0.1658936,13.4455338,3.3792267,18.6752701,7.5784302
								c5.2349701,4.2806702,9.3747101,9.6708984,12.6254959,15.4648438
								c3.2055969,5.8183594,5.6482925,12.0749512,7.0712128,18.5319214
								c1.5739594,6.4117737,2.4296188,12.9936218,2.5480042,19.5784302
								C99.0725708,336.9298096,89.1013412,363.5449524,70.4558563,381.8842163z"/>
						</g>
						<g>
							<path class="st0" d="M85.7262802,377.4620361c6.1245804-19.4981689,16.086235-37.7958069,28.6903839-53.9985962
								c12.5512314-16.2562866,27.8722-30.4266663,45.2142715-41.5805359l2.3154449-1.4895325l0.1915283,2.7685547
								c0.7824554,11.3138428-0.6042023,22.7198181-3.6742096,33.5918274
								c-3.1181946,10.8571777-7.9488831,21.2754822-14.6395416,30.3975525
								c-6.6781006,9.1226501-15.0694275,16.9359436-24.5518265,22.9737244
								c-9.5400772,5.9479675-20.1736526,10.0769958-31.1580582,11.9696655
								c21.7464218-4.9870605,41.0584717-18.463501,53.557373-36.4763184
								c12.5541992-18.0372009,18.5860138-40.3930969,17.1981659-62.2435608l2.5057373,1.2790222
								c-17.1642914,10.6983948-32.1457214,24.713562-45.0245895,40.34729
								C103.5898361,340.7365417,92.9289017,358.3461914,85.7262802,377.4620361z"/>
						</g>
						<g>
							<path class="st0" d="M78.1335831,379.8440857c9.4259109-3.2900391,17.8831787-8.5845337,25.2844086-15.033783
								c7.416687-6.4355469,14.103775-13.7523499,20.2687912-21.4663391
								c6.3541107-7.5665283,12.040451-15.673584,17.5109406-23.9292603
								c2.833374-4.0761414,5.2986603-8.3734436,7.7217865-12.7005005
								c2.5651398-4.2515259,5.0345917-8.5648804,7.7056274-12.7991638
								c-4.1962433,9.0019226-8.0749359,18.2928772-13.253418,26.8559875
								c-5.0745392,8.6237488-10.8607788,16.8312988-17.1072006,24.6772766
								c-6.46595,7.6420593-13.2421799,15.1360474-21.2309494,21.3355408
								C97.1174011,372.9887085,87.9566956,377.883606,78.1335831,379.8440857z"/>
						</g>
						<g>
							<path class="st0" d="M114.8073349,305.2318115c-5.4656906-3.4237976-10.3820572-7.8215942-14.3499527-13.0453491
								c-3.8935699-5.2689209-6.6282272-11.5011292-7.640213-18.0936584
								c-1.0774994-6.5634155-0.1195679-13.6203613,3.1062393-19.6224518
								c3.1651611-5.9402466,8.5839844-11.0735931,15.5130234-12.7355499
								c6.8856964-1.4978485,14.3796844,0.7462463,19.1812286,5.8980255
								c4.7884827,5.1196747,6.4611359,13.0911407,3.3417664,19.5290985
								c-1.5543365,3.2180786-4.4941254,5.6815796-7.8489761,6.7007446
								c-3.3316498,1.0863647-7.3167877,0.4941406-9.9693909-1.8736267
								c-2.6073456-2.3208008-4.0178375-5.7797241-3.7871246-9.1446533
								c0.1991959-3.3500977,1.9854279-6.5301208,4.7028427-8.2967377c-2.4932404,2.056778-3.8477859,5.2427521-3.8203735,8.3222809
								c0.020752,3.0866699,1.5792542,6.0734558,3.9392929,7.8555298
								c4.8110657,3.8864441,12.3811722,0.6778564,14.4617386-4.6487427
								c2.2434998-5.381897,0.8937225-12.2003937-3.2263489-16.3645172
								c-4.0678406-4.2640076-10.5456314-6.0704651-16.2390518-4.7325745
								c-5.7577591,1.2641602-10.6728821,5.6334229-13.5900803,10.9362488
								c-3.0171051,5.331955-3.8507614,11.6789093-3.2353287,17.8469086
								C96.6268463,286.309845,104.7315063,297.3608398,114.8073349,305.2318115z"/>
						</g>
						<g>
							<path class="st0" d="M83.640358,295.6602478c-0.1546021,7.6265869-1.8558121,15.3269043-5.1309738,22.355896
								c-3.2365112,7.0254211-7.8715134,13.5757446-14.0198822,18.5223999l-0.1201706-2.4004822
								c7.2299805,4.6481323,13.082222,11.4868469,16.3544159,19.4589233l-2.9344482-0.0993042
								c4.5916519-8.7129517,7.1806259-18.3553162,8.1540756-28.1748657
								C86.8358383,315.4759216,85.8410416,305.4571838,83.640358,295.6602478z M83.640358,295.6602478
								c3.4065704,9.4526672,5.1422653,19.6218262,4.7147369,29.8207397
								c-0.2824478,10.2173462-3.1776505,20.303894-7.6771317,29.4812317l-1.5222244,3.1051025l-1.4128189-3.2049866
								c-3.2085648-7.276947-8.2955322-13.8415527-14.9867859-18.2363892l-1.7148857-1.1262207l1.5947723-1.2754517
								c5.7577019-4.6053162,10.5706062-10.4730225,14.07761-17.0953064
								C80.1838303,310.4894409,82.6016083,303.2303467,83.640358,295.6602478z"/>
						</g>
					</g>
					<g>
						<g>
							<path class="st0" d="M458.2018127,458.3843689c1.914093,11.0813293-8.2164307,21.7945862-19.4797363,22.3143005
								c-11.4975586,0.4114685-21.5382996-6.5622253-29.1410828-14.2328186
								c-7.7883301-7.7633362-13.9866333-16.7980042-22.1751404-23.5701294
								c-4.0535278-3.3762207-8.5684814-6.2500305-13.493103-7.6967468
								c-4.9026489-1.5133057-10.1543274-1.2296753-14.8756104,0.6594543
								c-9.4966736,3.6937561-16.41922,13.5638428-16.3383484,23.8299561
								c-0.1004944,10.2779846,7.0688171,20.0386658,16.6083069,23.8674316
								c4.7807312,1.8831482,10.2149658,2.0942383,15.0628967,0.2051392
								c4.8092957-1.7909851,9.0108643-5.5900269,10.5837097-10.5360718
								c1.6624756-4.8247375,1.0868835-10.8327637-2.6425476-14.6121521
								c-3.6242065-3.7330322-10.4480591-4.5078125-14.4646606-0.6118774
								c3.8084717-4.1040649,10.9082336-3.7990112,15.0241699,0.0184326
								c4.2296143,3.8917847,5.1886597,10.3083191,3.6390991,15.6908264
								c-1.5674438,5.5567017-6.1305542,9.8849487-11.3667603,12.0077209
								c-5.2582092,2.2322083-11.3833923,2.1870117-16.7373352,0.2366638
								c-10.7405701-3.8804626-18.6657104-14.6508179-18.7388611-26.2542114
								c-0.1593323-11.5713196,7.3881531-22.6235046,18.1412659-26.9344788
								c5.3771362-2.1210022,11.5403748-2.3701477,17.0185852-0.6094971
								c5.5068359,1.6821899,10.299469,4.8431702,14.5253601,8.4227905
								c8.4930115,7.2501831,14.756073,16.3009033,22.0603943,24.1112061
								c7.1627808,7.6652527,16.553009,14.4474792,27.2549744,14.3892212
								C449.0042419,479.1681213,459.5438843,469.5346985,458.2018127,458.3843689z"/>
						</g>
						<g>
							<path class="st0" d="M446.6650085,451.6193848c-11.1413879,4.1159668-23.4327393,6.153717-35.5011597,3.9066772
								c-5.9836426-1.0905457-11.8983154-3.4030151-16.8532715-7.2406921
								c-4.896698-3.8430176-8.7795715-9.0168152-10.9243774-14.939209
								c-2.0758057-5.968811-2.1263428-12.5411377-0.3079834-18.548584c0.907959-3.0129089,2.4117737-5.9259644,4.6523438-8.3139648
								c2.2404785-2.3796692,5.3806458-4.0166321,8.6481018-4.3068237c3.2394714-0.3526001,6.6252441,0.4168396,9.2713013,2.3374634
								c2.6549683,1.8926697,4.4542847,4.8449402,5.0138245,7.9601746
								c0.9014282,6.3077087-1.5067749,12.2651978-4.7117615,17.2124329
								c2.5711365-5.2742615,4.4685669-11.3161926,3.1152039-16.8693542
								c-1.1827087-5.5876465-6.9980774-9.1547546-12.3544006-8.0999146
								c-5.4449463,0.7878723-9.3028259,5.5620728-10.7304382,10.950531
								c-1.5353699,5.4020996-1.3843384,11.3179626,0.5422363,16.5732117
								c1.8237,5.3230591,5.2612305,10.095459,9.6690979,13.6750793c4.400177,3.5897217,9.8944702,5.6964417,15.5,7.1140137
								C423.0473328,455.6842041,435.1430664,454.4277954,446.6650085,451.6193848z"/>
						</g>
						<g>
							<path class="st0" d="M381.9698181,431.3303833c-17.415802-18.9201965-43.4333801-28.9389343-68.6708069-27.3263245
								c-12.5797729,0.8782654-25.153595,4.4786682-35.3382263,11.8525391
								c-10.1138916,7.0420837-18.3594666,18.2714844-18.03479,30.6324158
								c0.506012,12.2438049,8.7468262,23.490448,19.1676025,29.8231506
								c10.5829773,6.0639343,24.1361389,7.1247253,35.9119873,3.8590698
								c5.8486633-1.7297363,11.4197083-4.9335632,14.650238-9.9634399
								c3.165741-5.0417786,3.7139893-11.4404907,2.3196106-17.4324646
								c-2.1775208-11.9922791-14.5491638-21.1220703-26.6722717-19.796051l-0.1153564-2.6187134
								c4.9401245,0.2991028,9.2897644,2.5735168,12.887207,5.5376892
								c3.6039734,2.9469299,6.4290161,7.1568298,7.3804016,11.7871399
								c1.0346375,4.5898743,0.6332703,9.4586182-1.1577148,13.7975464
								c-1.8135986,4.3508301-5.1381226,7.9613647-9.1416931,10.3035583
								c-8.0855713,4.8051453-18.7471008,3.8555298-26.0449219-1.6286621
								c-7.3405762-5.5180664-11.0628967-14.9885559-10.1554871-23.8828735
								c-0.6326904,8.9204712,3.4113159,18.1174622,10.6490173,23.1972961
								c7.2145996,5.0732727,17.3557739,5.5472107,24.6874084,0.8752747
								c3.6795044-2.2399292,6.6627808-5.6239014,8.2313232-9.5894165
								c1.5614624-3.9726562,1.8480835-8.4501648,0.8354492-12.5803833
								c-0.9513855-4.1777954-3.4535522-7.7615662-6.8060303-10.4355774
								c-3.3036804-2.6531677-7.3780212-4.6011658-11.4493713-4.7539673l-0.1153564-2.6187134
								c13.6316223-1.7618408,27.2883301,8.3603516,29.8980408,21.7904358
								c1.5388794,6.4129639,1.0673523,13.7838745-2.6246338,19.7044983
								c-3.7514648,5.8980103-10.0281982,9.4627686-16.3330078,11.3709106
								c-12.7331848,3.5706787-26.8399353,2.6151428-38.5147095-4.1540222
								c-11.1746826-6.9350586-19.9476929-18.8482361-20.5018616-32.5108032
								c-0.2212219-13.8338318,8.8175964-25.7048035,19.4678345-32.968689
								c10.8190918-7.5350037,23.9126282-11.0052185,36.7991943-11.6729736
								C339.1607971,400.5689392,365.1777649,411.9458008,381.9698181,431.3303833z"/>
						</g>
						<g>
							<path class="st0" d="M377.7950134,415.1531677c-19.0831299-6.8066101-36.6362915-17.7761536-51.8865051-31.2288208
								c-15.3197632-13.4122314-28.3199158-29.4734802-38.4552307-47.1878052l-1.2843628-2.2446899l2.5937195-0.1902771
								c22.5015869-1.6506653,45.3218994,6.2458801,62.2858582,20.8580627
								c17.0084229,14.6686707,27.9405212,35.6289978,31.1193542,57.4634399
								c-2.1840515-10.818512-6.2298279-21.2011719-11.8179932-30.6038818
								c-5.4931641-9.4520569-12.5881042-17.9652405-21.004425-24.8390503
								c-8.4013672-6.8737793-18.0151672-12.2770996-28.3311462-15.6265869
								c-10.2970886-3.3982544-21.2338867-4.715332-32.0131836-3.9857483l1.3087463-2.4337769
								c9.7065735,17.5442505,22.5800781,33.2582703,37.2546997,46.9559326
								C342.3360596,395.6662903,359.1376343,407.282196,377.7950134,415.1531677z"/>
						</g>
						<g>
							<path class="st0" d="M380.0438538,423.1965942c-3.0045471-9.4954834-7.7472839-18.2262878-13.6714783-26.0372009
								c-5.915863-7.8156738-12.7587585-14.9445801-20.0511169-21.5710144
								c-7.1461792-6.7875671-14.8607788-12.9567566-22.7840881-18.8583374
								c-3.9066467-3.0397034-8.0267639-5.7713928-12.2307129-8.377594
								c-4.109436-2.7649841-8.2860413-5.4378052-12.3752136-8.3080444c8.758728,4.6291199,17.859375,8.9169312,26.0823669,14.59198
								c8.3181458,5.5299377,16.1344604,11.8109131,23.569519,18.5116882
								c7.2026367,6.9219666,14.2286682,14.1650085,19.8662415,22.5301208
								C374.0911255,403.9891968,378.3777466,413.3490906,380.0438538,423.1965942z"/>
						</g>
						<g>
							<path class="st0" d="M309.6141663,384.3447571c-3.0991516,5.5929871-7.1253357,10.7376404-12.0594788,14.9867859
								c-4.9763794,4.1712646-11.0634766,7.235321-17.6464539,8.28125
								c-13.2327271,2.6627197-28.071991-6.603241-30.4564056-20.4953308
								c-1.0561066-6.7733154,0.7556915-14.0014954,5.459137-19.1604309
								c4.5821381-5.1933899,12.9008636-7.3363953,19.1633759-3.6343079
								c6.1352844,3.6628723,8.5232849,12.3294373,4.4626465,18.1965332
								c-2.0110168,2.7947388-5.3670349,4.5696716-8.7516174,4.4055481
								c-3.3768616-0.1498413-6.4355774-2.1834412-8.0148926-4.9627075c1.8831787,2.580658,4.9805603,4.160553,8.0256042,4.0797119
								c3.0462341-0.088623,5.8694763-1.9224243,7.3857422-4.4335022
								c3.2222595-5.0316772,0.6511841-12.4858093-4.3591309-15.0498047
								c-5.1131287-2.629425-11.9286804-1.002533-15.6741638,3.4446106
								c-3.900116,4.369873-5.4217529,10.7852173-4.4150696,16.5625305
								c0.919281,5.8248901,4.5928345,11.1509094,9.5525818,14.5218201
								c4.9525757,3.4838562,11.2020264,4.6653748,17.2796326,3.9981995
								C291.9938049,403.7168579,302.3770447,394.6738892,309.6141663,384.3447571z"/>
						</g>
						<g>
							<path class="st0" d="M300.5789185,417.362793c7.4143066,0.2021484,14.8851013,2.1542969,21.5418701,5.7130737
								c6.6698608,3.5154114,12.7064819,8.4715576,17.1613159,14.6942444l-2.4938354,0.1195374
								c4.2182312-7.3697205,10.5473633-13.7268066,18.3838501-17.3117676l-0.1034546,2.8529968
								c-8.0422363-4.755188-17.1048279-7.5397949-26.3987427-8.5892944
								C319.3439331,413.8967285,309.8199158,414.986084,300.5789185,417.362793z M300.5789185,417.362793
								c8.862793-3.5469055,18.5491638-5.3997498,28.269989-4.9038391
								c9.7446289,0.3401184,19.2954102,3.4785156,27.8128052,8.1724548l2.6679993,1.4704895l-2.7715454,1.3830872
								c-7.0437927,3.5159912-13.1815186,9.0132446-17.198761,15.8912048l-1.1630859,1.9913635l-1.3319397-1.8724365
								c-4.1575623-5.8439331-9.5055237-10.9059143-15.7324524-14.6680908
								C314.8926086,421.104126,307.9290161,418.4580688,300.5789185,417.362793z"/>
						</g>
					</g>
				</g>
				<g>
					<g>
						<g>
							<path class="st0" d="M42.235817,41.1482582c-1.9140816-11.0813274,8.2164497-21.7945862,19.4797325-22.3142834
								c11.4975624-0.4114761,21.5383034,6.5616264,29.1411095,14.2328129
								c7.7883224,7.7633514,13.9866333,16.7979965,22.1751404,23.5695229
								c4.0535202,3.3768425,8.5684662,6.2506409,13.493103,7.6973457
								c4.9026337,1.5133057,10.1543121,1.2296753,14.8755951-0.6594315
								c9.4966583-3.6943703,16.41922-13.5638618,16.3383484-23.8299675
								c0.1004944-10.2785912-7.0688324-20.0386734-16.6083069-23.8674278
								c-4.7807465-1.8831596-10.2149658-2.0948448-15.0628967-0.2051439
								c-4.809288,1.7909937-9.0108643,5.5900164-10.58358,10.5354662
								c-1.6626129,4.8253365-1.0870209,10.8327789,2.6424332,14.6127739
								c3.6242065,3.7330208,10.4480591,4.5078087,14.4647675,0.6112671
								c-3.8085938,4.10466-10.9083481,3.7996178-15.0242996-0.0178375
								c-4.2294769-3.8917847-5.188652-10.3083229-3.6390762-15.6908169
								c1.567421-5.5567188,6.1305313-9.8849545,11.366745-12.0077457
								c5.2582245-2.2322006,11.3833923-2.1876049,16.7373505-0.2366581
								c10.7406616,3.8804855,18.6656952,14.6502342,18.7388306,26.2536373
								c0.1593628,11.571888-7.3881378,22.6240807-18.1412354,26.9344788
								c-5.3771515,2.1210022-11.5403748,2.3707428-17.0186081,0.6100769
								c-5.5067139-1.6827774-10.2993469-4.8431778-14.5253601-8.4227867
								c-8.492897-7.2507858-14.756073-16.3008957-22.060379-24.1112213
								C81.862442,27.1770802,72.4722137,20.3948517,61.7702522,20.453125
								C51.4333878,20.3645267,40.8937607,29.9973602,42.235817,41.1482582z"/>
						</g>
						<g>
							<path class="st0" d="M53.7726212,47.9132423c11.1413879-4.1159554,23.4327621-6.1537132,35.5011597-3.9066467
								c5.9836502,1.0905304,11.8983307,3.4030037,16.8532944,7.2406807
								c4.8966904,3.8430252,8.7795563,9.0162125,10.9243469,14.9392166
								c2.0758209,5.9687881,2.1263657,12.5411224,0.3080139,18.5485611
								c-0.9079819,3.0123367-2.4117737,5.925972-4.6522446,8.3133698c-2.2405853,2.3802643-5.3807678,4.0172501-8.648201,4.3068314
								c-3.2394867,0.3532028-6.6252518-0.4162369-9.2713089-2.336853
								c-2.6549683-1.8926773-4.4542923-4.8449631-5.0138245-7.9601746
								c-0.9014435-6.307724,1.5067596-12.265213,4.7117615-17.2124481
								c-2.5711365,5.2736816-4.4685669,11.3162079-3.1152115,16.8693542
								c1.1827011,5.5876389,6.9980774,9.1547623,12.3544083,8.0999069
								c5.444931-0.7884674,9.3028183-5.5620728,10.7305603-10.9505081
								c1.5352478-5.4021225,1.3842163-11.3179932-0.5423508-16.5732346
								c-1.8237-5.3230362-5.2611389-10.0960464-9.6691055-13.6750603
								c-4.4001846-3.5897179-9.8944702-5.6964531-15.4998932-7.1146202
								C77.3903122,43.8478317,65.2945633,45.1042633,53.7726212,47.9132423z"/>
						</g>
						<g>
							<path class="st0" d="M118.4678116,68.2022552c17.4158096,18.9201965,43.4333725,28.9389343,68.6708145,27.3263245
								c12.5797577-0.8782501,25.1535797-4.4786682,35.3382263-11.8531418
								c10.1138763-7.041481,18.3594666-18.2708664,18.0348053-30.6318169
								c-0.5060272-12.2438087-8.7468567-23.4904404-19.1674957-29.8237324
								c-10.5830994-6.0633354-24.136261-7.124136-35.9120941-3.8584862
								c-5.8486786,1.7297478-11.4196167,4.9335575-14.650238,9.9628487
								c-3.1657562,5.0423717-3.7139893,11.4404774-2.3196106,17.4324589
								c2.1774902,11.992878,14.5491486,21.1226616,26.6722412,19.7966652l0.1153564,2.6187057
								c-4.940094-0.2990952-9.2897339-2.5735168-12.8871765-5.537693
								c-3.6039886-2.9469337-6.4290314-7.1568413-7.3804169-11.7871437
								c-1.0346375-4.5904617-0.6332703-9.4592056,1.1577148-13.7975464
								c1.8135986-4.3514252,5.1381073-7.9613609,9.1416779-10.3041611
								c8.0856934-4.8051186,18.7472229-3.8549175,26.0449371,1.6292572
								c7.3405762,5.5180702,11.0628815,14.9885712,10.1555023,23.8828888
								c0.6326752-8.9204788-3.4113312-18.1174583-10.6490479-23.1972923
								c-7.214447-5.0738869-17.3557434-5.5478001-24.6874084-0.8752804
								c-3.6795044,2.2399311-6.6626434,5.6239109-8.231308,9.589426
								c-1.5614777,3.9726524-1.8480835,8.4501381-0.8354492,12.5803642
								c0.9514008,4.1777954,3.4535522,7.7615662,6.806015,10.4349785
								c3.3037109,2.6537857,7.3780365,4.6017609,11.4494019,4.7545776l0.1153564,2.6186981
								c-13.6316528,1.7618637-27.2882233-8.3603439-29.898056-21.7910156
								c-1.5388794-6.4123764-1.067337-13.7832756,2.624649-19.7039032
								c3.7514496-5.8980293,10.0283203-9.4627724,16.3330078-11.3709068
								c12.7331696-3.5706892,26.83992-2.6151361,38.514679,4.1540108
								c11.1746826,6.9344521,19.9483032,18.8476524,20.5018921,32.5108185
								c0.2211914,13.8338165-8.8176117,25.7048035-19.4678497,32.9686737
								c-10.8190918,7.5350189-23.9126129,11.0052185-36.7992096,11.6729736
								C161.2768402,98.9636993,135.2598572,87.5868454,118.4678116,68.2022552z"/>
						</g>
						<g>
							<path class="st0" d="M122.6426315,84.3794708c19.0831223,6.8066101,36.6362839,17.7755508,51.8864822,31.2288132
								c15.3197784,13.4122391,28.3199463,29.472908,38.4552307,47.1878128l1.2843781,2.2446899l-2.5937347,0.189682
								c-22.5015869,1.6506653-45.3218842-6.2458801-62.2857208-20.8580627
								c-17.0085602-14.6680756-27.9406281-35.6284027-31.1194687-57.4628296
								c2.1840363,10.8185043,6.2298279,21.2005615,11.8181229,30.6032791
								c5.4930267,9.4520645,12.588089,17.9658279,21.0042725,24.8396225
								c8.4013824,6.8738098,18.0151825,12.2765198,28.3312988,15.6266022
								c10.2969666,3.3982544,21.2338562,4.715332,32.0130615,3.9851379l-1.3087616,2.4337769
								c-9.7065582-17.5442352-22.5800781-33.2576599-37.2546844-46.9547119
								C158.1015778,103.8663406,141.3000031,92.2504501,122.6426315,84.3794708z"/>
						</g>
						<g>
							<path class="st0" d="M120.3937836,76.3360519c3.0046692,9.4948807,7.7472992,18.2262726,13.6714935,26.0371933
								c5.915863,7.8162766,12.7587433,14.9445724,20.0512085,21.5710144
								c7.1460876,6.7875824,14.860672,12.9567566,22.7839813,18.8577576
								c3.9066467,3.0402832,8.0267639,5.7719727,12.2307281,8.3781891
								c4.1094055,2.7649841,8.2860107,5.4377899,12.3752136,8.3080139
								c-8.7587433-4.6291046-17.8593903-8.9169006-26.0823822-14.5913544
								c-8.3181305-5.5305634-16.1343536-11.8115234-23.5695343-18.512291
								c-7.2026215-6.9219666-14.2286377-14.1650238-19.8662262-22.5301285
								C126.3465118,95.5434494,122.059906,86.1829529,120.3937836,76.3360519z"/>
						</g>
						<g>
							<path class="st0" d="M190.8234711,115.187294c3.0991669-5.592392,7.1253357-10.7376328,12.0594788-14.9855957
								c4.9763794-4.1718521,11.0634918-7.2359238,17.6465759-8.2824554
								c13.232605-2.6621094,28.071991,6.6038437,30.4564209,20.4959412
								c1.0559692,6.7733078-0.7558289,14.001503-5.4592743,19.1604233
								c-4.5821381,5.1934052-12.9008636,7.3358154-19.1633911,3.6343079
								c-6.1352844-3.6628571-8.5232697-12.3300247-4.462616-18.1971359
								c2.0110016-2.7941208,5.3670349-4.5696487,8.7516022-4.4049454c3.3768463,0.1492538,6.4355774,2.1834488,8.0148773,4.9626999
								c-1.8831482-2.5806503-4.9805298-4.1611481-8.0255737-4.0802841
								c-3.0462341,0.0891953-5.8694916,1.9230042-7.3857727,4.434082
								c-3.2222443,5.0316696-0.6510468,12.4858093,4.3591614,15.0492249
								c5.1131287,2.6294098,11.9286652,1.0025177,15.6741638-3.444046
								c3.900116-4.3698502,5.4217377-10.785202,4.4150543-16.5625229
								c-0.919281-5.8254852-4.5928497-11.1509018-9.5525665-14.5217972
								c-4.9525757-3.4838715-11.2020264-4.6653824-17.2796326-3.9982224
								C208.4438324,95.8157883,198.0605927,104.858757,190.8234711,115.187294z"/>
						</g>
						<g>
							<path class="st0" d="M199.8587189,82.1698608c-7.4143066-0.2021713-14.8851013-2.1548996-21.5418701-5.7136917
								c-6.6698456-3.514801-12.7063599-8.4709549-17.1613159-14.6942406l2.4938354-0.1195183
								c-4.2182312,7.3703079-10.5473633,13.7267914-18.3838501,17.3123474l0.1034698-2.8529892
								c8.0422211,4.7551727,17.1048126,7.5397797,26.3987274,8.5886841
								C181.0937195,85.6359024,190.6177368,84.5465546,199.8587189,82.1698608z M199.8587189,82.1698608
								c-8.8628082,3.5463104-18.5491486,5.399147-28.269989,4.9032364
								c-9.7446289-0.3395309-19.2953949-3.4779282-27.8126678-8.1718597l-2.6681213-1.4704895l2.7715302-1.3836823
								c7.0439148-3.5159836,13.1815186-9.0126419,17.198761-15.8906097l1.1630859-1.9919739l1.3319397,1.8724556
								c4.1575775,5.8445168,9.5056458,10.9065132,15.7324371,14.6686668
								C185.5450439,78.4285202,192.5086212,81.0739822,199.8587189,82.1698608z"/>
						</g>
					</g>
					<g>
						<g>
							<path class="st0" d="M455.5195007,36.8889999c5.4853516-1.1291809,11.1419678,1.6155815,14.8387146,5.7024002
								c3.7788086,4.0862236,6.1293335,9.5965614,6.2767944,15.2674484
								c0.3026733,11.4600983-5.7825928,21.9135056-13.0911255,30.1032028
								c-7.3369446,8.346077-16.109436,15.0831146-22.4718628,23.730072
								c-6.4539795,8.3847275-10.4468689,19.2704315-7.0349426,29.2784729
								c2.895813,9.802887,11.9173584,18.285141,22.3172607,18.3773041
								c10.3874207,0.2539062,19.6051941-8.0892029,22.9380493-17.877243
								c1.6507263-4.954361,1.8849487-10.4082184,0.2497253-15.4285812
								c-1.5418396-4.9621048-4.9109497-9.601326-9.7690125-11.5130234
								c-4.7408752-1.9860306-10.9403992-1.1125336-14.3124695,3.0967789
								c-3.2614136,4.0897903-3.8912048,10.689476-0.3032532,14.9844131
								c-3.8043823-4.1195221-3.6134949-10.9201889-0.343689-15.4797287
								c3.4143066-4.7296066,10.1453857-6.0770111,15.5302734-4.1284485
								c5.557312,1.9872208,9.3634644,7.0426712,11.1954956,12.3770065
								c1.9277344,5.3937988,1.8551941,11.4107513,0.1908569,16.8806458
								c-3.2692261,10.8292084-13.381897,20.1944733-25.4205627,20.1201477
								c-12.0232239-0.0701752-22.1073608-9.4954834-25.4526978-20.4287567
								c-1.774353-5.5210419-1.6809692-11.6111298-0.0778809-17.113739
								c1.5870361-5.5376892,4.5031128-10.5021667,7.8733521-14.9618073
								c6.8172913-8.9686508,15.6063843-15.780014,23.0046387-23.6301804
								c7.3108521-7.7342148,13.3093567-17.5579224,13.3581238-28.3556175
								c0.1278381-5.3093567-1.8147888-10.631794-5.2653503-14.7632103
								C466.3784485,39.0224953,461.0553894,36.0464249,455.5195007,36.8889999z"/>
						</g>
						<g>
							<path class="st0" d="M449.1332703,49.1108055c3.8061829,11.366745,5.6917114,23.6272011,4.0701904,35.806797
								c-0.8051147,6.0728455-2.582428,12.0666122-5.7707825,17.5008392
								c-3.2168884,5.3533554-7.8537292,9.9551163-13.5751648,12.784317
								c-5.7458191,2.7976837-12.5773926,3.3066788-18.6674194,1.4580078
								c-6.0562744-1.6530457-11.9477539-6.7489319-12.6809082-13.4544601
								c-1.0785828-6.2940445,2.1774902-13.7404633,8.6725159-15.6158905
								c6.380249-1.628067,12.475769,1.2308578,17.2487183,4.6511078
								c-5.1237793-2.8291931-11.3435059-5.0750732-16.7331848-3.101532
								c-5.4098511,1.8748322-7.8483887,8.3139725-6.6621094,13.637001
								c1.0054932,5.4919052,5.5858459,9.5436401,11.0069885,10.9737015
								c5.4360046,1.5311432,11.3471375,0.9906387,16.3704834-1.5454178
								c5.0982666-2.4093933,9.4116211-6.5063248,12.4376526-11.3649597
								c3.0230408-4.8556595,4.6939087-10.6038437,5.8343811-16.3228989
								C452.7610474,72.91996,451.6170044,60.8176727,449.1332703,49.1108055z"/>
						</g>
						<g>
							<path class="st0" d="M429.981781,117.6478348c-18.1275024,18.9231644-26.7988892,45.5020523-25.7951965,71.1705856
								c0.2259521,6.4415131,1.1749878,12.8527069,2.8161316,19.0658875
								c1.4889221,6.2506409,3.9482727,12.2152557,7.1217651,17.75354
								c3.2002869,5.5049896,7.1443481,10.6234741,12.0505371,14.5675812
								c4.8515015,3.8739471,10.8203125,6.7382355,16.9181213,6.8202972
								c6.1127014,0.0963287,12.1688843-2.3202057,17.1315918-6.1085358
								c5.0037231-3.7579956,9.1815186-8.6921387,12.1314087-14.2286377
								c5.6132202-11.1396027,6.5782776-24.7355804,3.9221191-36.9669037
								c-1.4359436-6.0787964-4.1254883-12.048172-8.7581482-15.9441223
								c-4.5672913-4.0005951-11.1211853-4.9115601-17.1357422-3.2817078
								c-12.171875,2.6210785-20.0053711,16.1724548-18.7827759,28.3990326l-2.5967712,0.1016693
								c0.2669983-4.8520966,2.1792908-9.2998505,4.8788452-13.0976715
								c2.6496277-3.781189,6.5622253-7.0676575,11.2157898-8.2241821
								c4.5761108-1.2564392,9.5685425-0.7611237,13.7944946,1.3396759
								c4.2598572,2.1079254,7.4963684,5.7915955,9.5621643,9.9123077
								c4.0986328,8.3585663,3.3945923,18.5979004-1.3730469,26.354126
								c-4.7308044,7.8174591-14.0365906,12.5351715-22.9944763,11.4993439
								c8.9894104,0.7533722,17.9550781-4.2414246,22.2785339-11.9262848
								c4.3865051-7.6432343,4.6808472-17.5020294,0.6041565-25.1696472c-1.997345-3.8216248-5.0643921-7.1479187-8.90979-8.9603119
								c-3.8293457-1.824295-8.3389282-2.1852264-12.3865051-0.9930267
								c-4.1106262,1.1077881-7.4321594,3.9904938-9.8534546,7.5338287
								c-2.421875,3.5058746-4.0701599,7.6789246-4.2128601,11.8067627l-2.5967102,0.1022797
								c-0.7843018-6.8054199,0.9032288-13.7910004,4.5256348-19.5778503
								c3.5689087-5.7606659,9.3254089-10.5402222,16.1730652-11.9910889
								c6.4855042-1.8403473,14.3701477-0.9032288,19.7627563,3.789505
								c5.4354248,4.5411072,8.3264771,11.1122589,9.9111328,17.5817108
								c1.5638428,6.547348,1.8956299,13.2956848,1.2974548,19.9470978
								c-0.6100769,6.6377411-2.2719727,13.2855835-5.4692993,19.302536
								c-3.2163086,5.9396667-7.6860657,11.1663666-13.1232605,15.2073975
								c-5.3789368,4.0517426-12.0969543,6.7620087-19.0670776,6.6109772
								c-7.0325012-0.1658936-13.4455261-3.3792267-18.6751404-7.5778351
								c-5.2350769-4.2806549-9.3748169-9.6708832-12.6256104-15.4642639
								c-3.2055969-5.8195343-5.6482849-12.0749359-7.071228-18.5325012
								c-1.5739441-6.4123688-2.4295959-12.9936218-2.5478821-19.5784454
								C401.3652039,162.6022491,411.3363037,135.9876709,429.981781,117.6478348z"/>
						</g>
						<g>
							<path class="st0" d="M414.7113647,122.07061c-6.1245728,19.4975662-16.0862427,37.7952042-28.6903992,53.9991684
								c-12.5512085,16.2557068-27.8721924,30.4260864-45.2142639,41.5799561l-2.3154297,1.4889221l-0.1914062-2.7685394
								c-0.7825928-11.3138275,0.6040649-22.719223,3.6740723-33.5912476
								c3.1181946-10.8565521,7.9488831-21.2754822,14.6395264-30.3981323
								c6.6782532-9.1220551,15.069458-16.9353485,24.5518494-22.9737091
								c9.5400696-5.9479828,20.173645-10.0764236,31.1580505-11.9685059
								c-21.7464294,4.9858856-41.0584717,18.4629364-53.557373,36.4757385
								c-12.5541992,18.0371857-18.5859985,40.3930969-17.1981812,62.242981l-2.5057068-1.2790222
								c17.1642761-10.6977997,32.1457214-24.7129822,45.0245667-40.3467102
								C396.8478088,158.7966919,407.508728,141.1858368,414.7113647,122.07061z"/>
						</g>
						<g>
							<path class="st0" d="M422.3040466,119.6885681c-9.4259033,3.2900238-17.8831787,8.5845184-25.2843933,15.0343475
								c-7.416687,6.4349823-14.1037903,13.75177-20.2687988,21.4657745
								c-6.3540955,7.5659332-12.0404358,15.6735687-17.5109558,23.9292603
								c-2.8333435,4.075531-5.298645,8.3734283-7.7216492,12.7004852
								c-2.5652466,4.2515259-5.0346985,8.5648956-7.7057495,12.7991791
								c4.196228-9.0019531,8.0749512-18.2928772,13.25354-26.8559875
								c5.0744324-8.623764,10.8606567-16.8312988,17.1072083-24.6773071
								c6.4658203-7.6420441,13.242157-15.1360321,21.2308044-21.3361359
								C403.3202209,126.5439301,412.480957,121.649025,422.3040466,119.6885681z"/>
						</g>
						<g>
							<path class="st0" d="M385.6303101,194.3002167c5.4657898,3.4244232,10.3820496,7.8222198,14.3499451,13.0459595
								c3.8935852,5.2689209,6.6282349,11.5011292,7.6403198,18.0936737
								c1.0773926,6.5628052,0.1194763,13.619751-3.1063538,19.6224365
								c-3.1651611,5.9402466-8.5838623,11.0736084-15.5130005,12.736145
								c-6.8857117,1.4972534-14.3796997-0.7474365-19.1812439-5.8986206
								c-4.7884827-5.1202698-6.4611511-13.0911407-3.3417664-19.5290833
								c1.5543518-3.2180786,4.4941406-5.6821747,7.8489685-6.7007599c3.331665-1.08638,7.316803-0.4941406,9.9693909,1.873642
								c2.6074829,2.3213959,4.0178528,5.7796936,3.7871399,9.1440582
								c-0.1991882,3.3506775-1.9854431,6.5301056-4.7028503,8.2973175
								c2.4932556-2.0567932,3.8477783-5.2427521,3.8204956-8.3222961c-0.020874-3.087265-1.5793762-6.0734406-3.9394226-7.8561096
								c-4.8110657-3.8864288-12.3811646-0.6772766-14.461731,4.6487427
								c-2.2434998,5.3824921-0.8937073,12.2009888,3.2264709,16.3651123
								c4.0677185,4.2640076,10.5455017,6.0710602,16.2390442,4.7325745
								c5.7576599-1.2641602,10.67276-5.6334229,13.5899658-10.9362488
								c3.0170898-5.3319397,3.850769-11.6795044,3.235321-17.8468933
								C403.810791,213.2227936,395.7061462,202.1717987,385.6303101,194.3002167z"/>
						</g>
						<g>
							<path class="st0" d="M416.7972717,203.872406c0.1546021-7.6265869,1.855835-15.3274994,5.1309814-22.3559113
								c3.2365112-7.0254211,7.8716431-13.5757599,14.019989-18.5223846l0.1200562,2.4004669
								c-7.2299805-4.6481323-13.0822144-11.4868469-16.3544006-19.4589233l2.9344482,0.0993042
								c-4.5916443,8.7129669-7.1806335,18.3553162-8.1539612,28.1748505
								C413.6018066,184.0567169,414.5965881,194.0748596,416.7972717,203.872406z M416.7972717,203.872406
								c-3.4065552-9.4526672-5.1422424-19.6218414-4.7147217-29.820755
								c0.2824402-10.2173462,3.1776428-20.3044739,7.677124-29.4812317l1.5222168-3.1056976l1.4128418,3.2050018
								c3.2085571,7.2775421,8.2955322,13.8421326,14.9867859,18.236969l1.7148743,1.1262054l-1.5947571,1.2754669
								c-5.7577209,4.6053314-10.5704956,10.4724274-14.0776367,17.0953064
								C420.2538147,189.0426025,417.8361511,196.301712,416.7972717,203.872406z"/>
						</g>
					</g>
					<g>
						<g>
							<path class="st0" d="M44.9181442,36.8889999c-5.5359077-0.8425751-10.8589401,2.1334953-14.2304306,6.2375565
								c-3.4505768,4.1314163-5.393198,9.4538536-5.2653561,14.7632103
								c0.0487595,10.7976952,6.0472794,20.6214027,13.3581257,28.3556175
								c7.3982544,7.8501663,16.1873245,14.6615295,23.0046349,23.6301804
								c3.3703613,4.4596405,6.2863159,9.424118,7.8733597,14.9618073
								c1.6030884,5.5026093,1.6964493,11.5926971-0.0778961,17.113739
								c-3.3453293,10.9332733-13.4294815,20.3585815-25.4526863,20.4287567
								c-12.0386658,0.0743256-22.1513557-9.2909393-25.4205742-20.1201477
								c-1.6643391-5.4698944-1.7368832-11.4868469,0.1908722-16.8806458
								c1.8320236-5.3343353,5.6381817-10.3897858,11.1954956-12.3770065
								c5.3848724-1.9485626,12.115963-0.6011581,15.5302696,4.1284485
								c3.2698097,4.5595398,3.4606857,11.3602066-0.343689,15.4797287
								c3.5879326-4.2949371,2.9582863-10.8946228-0.303257-14.9844131
								c-3.3720856-4.2093124-9.5715904-5.0828094-14.3124905-3.0967789
								c-4.8580399,1.9116974-8.2271538,6.5509186-9.769001,11.5130234
								c-1.6352043,5.0203629-1.4008694,10.4742203,0.2497387,15.4285812
								c3.3328419,9.7880402,12.5506325,18.1311493,22.9380379,17.877243
								c10.3998947-0.0921631,19.4214592-8.5744171,22.3172607-18.3773041
								c3.4119186-10.0080414-0.5809479-20.8937454-7.0349464-29.2784729
								c-6.3624268-8.6469574-15.1347923-15.3839951-22.4718552-23.730072
								c-7.3084145-8.1896973-13.3938026-18.6431046-13.0911427-30.1032028
								c0.1474667-5.670887,2.4979973-11.1812248,6.276804-15.2674484
								C33.776165,38.5045815,39.4327812,35.759819,44.9181442,36.8889999z"/>
						</g>
						<g>
							<path class="st0" d="M51.3043556,49.1108055c-2.4837227,11.7068672-3.6277733,23.8091545-1.5513611,35.4066124
								c1.14048,5.7190552,2.8113594,11.4672394,5.8344078,16.3228989
								c3.0260162,4.8586349,7.339386,8.9555664,12.4376526,11.3649597
								c5.0233459,2.5360565,10.9344559,3.076561,16.3704681,1.5454178
								c5.4211426-1.4300613,10.0014954-5.4817963,11.0069962-10.9737015
								c1.1862717-5.3230286-1.2522659-11.7621689-6.662117-13.637001
								c-5.3895721-1.9735413-11.6092911,0.2723389-16.7331848,3.101532
								c4.7730713-3.4202499,10.868454-6.2791748,17.2487259-4.6511078
								c6.4950256,1.8754272,9.7512207,9.321846,8.6725235,15.6158905
								c-0.7331696,6.7055283-6.6246567,11.8014145-12.6808014,13.4544601
								c-6.0901489,1.848671-12.92173,1.3396759-18.6675339-1.4580078
								c-5.7214279-2.8292007-10.3582726-7.4309616-13.5751648-12.784317
								c-3.1883469-5.434227-4.9656639-11.4279938-5.7707787-17.5008392
								C45.6126595,72.7380066,47.4981995,60.4775505,51.3043556,49.1108055z"/>
						</g>
						<g>
							<path class="st0" d="M70.4558563,117.6478348c18.6454849,18.3398361,28.6167145,44.9544144,27.8793869,71.2431259
								c-0.1183853,6.5848236-0.9740448,13.1660767-2.5480042,19.5784454
								c-1.4229202,6.4575653-3.8656158,12.7129669-7.0712128,18.5325012
								c-3.2507858,5.7933807-7.3905258,11.183609-12.6254959,15.4642639
								c-5.2297363,4.1986084-11.6426468,7.4119415-18.6752701,7.5778351
								c-6.9701271,0.1510315-13.6881371-2.5592346-19.0670662-6.6109772
								c-5.4371986-4.0410309-9.9069538-9.2677307-13.1232491-15.2073975
								c-3.1972141-6.0169525-4.85923-12.6647949-5.4693108-19.302536
								c-0.5981865-6.651413-0.2663879-13.3997498,1.2974606-19.9470978
								c1.5846615-6.4694519,4.4757004-13.0406036,9.9111156-17.5817108
								c5.3926048-4.6927338,13.277256-5.6298523,19.7627716-3.789505
								c6.8476372,1.4508667,12.6041489,6.230423,16.1730499,11.9910889c3.6224213,5.78685,5.3099518,12.7724304,4.52565,19.5778503
								l-2.5967026-0.1022797c-0.1427078-4.1278381-1.7909927-8.3008881-4.2128754-11.8067627
								c-2.4212914-3.543335-5.742836-6.4260406-9.8534393-7.5338287
								c-4.0475769-1.1921997-8.5571709-0.8312683-12.3865166,0.9930267
								c-3.8454056,1.8123932-6.9124527,5.1386871-8.9097786,8.9603119
								c-4.0767117,7.6676178-3.7823734,17.526413,0.6041336,25.1696472
								c4.3234787,7.6848602,13.2891502,12.679657,22.2786598,11.9262848
								c-8.9579964,1.0358276-18.2637901-3.6818848-22.9945831-11.4993439
								c-4.7676563-7.7562256-5.4716873-17.9955597-1.372921-26.354126c2.0656548-4.1207123,5.302166-7.8043823,9.5620193-9.9123077
								c4.2259598-2.1007996,9.2183876-2.5961151,13.794632-1.3396759
								c4.6534348,1.1565247,8.5660324,4.4429932,11.2156525,8.2241821c2.6995773,3.797821,4.6118698,8.245575,4.8788528,13.0976715
								l-2.5966415-0.1016693c1.2224808-12.2265778-6.6110382-25.7779541-18.7828979-28.3990326
								c-6.0145721-1.6298523-12.56847-0.7188873-17.1357384,3.2817078
								c-4.6326809,3.8959503-7.3220901,9.8653259-8.758152,15.9441223
								c-2.6561642,12.2313232-1.6910973,25.827301,3.9221096,36.9669037
								c2.9499073,5.536499,7.1277027,10.4706421,12.1314259,14.2286377
								c4.9626923,3.7883301,11.0188942,6.2048645,17.1315804,6.1085358
								c6.0978203-0.0820618,12.0666084-2.9463501,16.9181099-6.8202972
								c4.9062042-3.9441071,8.8503723-9.0625916,12.05056-14.5675812c3.1734848-5.5382843,5.6328278-11.5028992,7.1217575-17.75354
								c1.6411438-6.2131805,2.5901566-12.6243744,2.8161163-19.0658875
								C97.2547607,163.1498871,88.5834808,136.5709991,70.4558563,117.6478348z"/>
						</g>
						<g>
							<path class="st0" d="M85.7262802,122.07061c7.2026215,19.1152267,17.8635559,36.7260818,30.6246796,52.4608994
								c12.8788681,15.633728,27.8602982,29.6489105,45.0245895,40.3467102l-2.5057373,1.2790222
								c1.3878479-21.849884-4.6439667-44.2057953-17.1981659-62.242981
								c-12.4989014-18.0128021-31.8109512-31.4898529-53.557373-36.4757385
								c10.9844055,1.8920822,21.617981,6.0205231,31.1580582,11.9685059
								c9.482399,6.0383606,17.8737259,13.8516541,24.5518265,22.9737091
								c6.6906586,9.1226501,11.521347,19.5415802,14.6395416,30.3981323
								c3.0700073,10.8720245,4.456665,22.27742,3.6742096,33.5912476l-0.1915283,2.7685394l-2.3154449-1.4889221
								c-17.3420715-11.1538696-32.6630402-25.3242493-45.2142715-41.5799561
								C101.8125153,159.8658142,91.8508606,141.5681763,85.7262802,122.07061z"/>
						</g>
						<g>
							<path class="st0" d="M78.1335831,119.6885681c9.8231125,1.9604568,18.9838181,6.8553619,26.8999863,13.0596161
								c7.9887695,6.2001038,14.7649994,13.6940918,21.2309494,21.3361359
								c6.2464218,7.8460083,12.0326614,16.0535431,17.1072006,24.6773071
								c5.1784821,8.5631104,9.0571747,17.8540344,13.253418,26.8559875
								c-2.6710358-4.2342834-5.1404877-8.5476532-7.7056274-12.7991791
								c-2.4231262-4.3270569-4.8884125-8.6249542-7.7217865-12.7004852
								c-5.4704895-8.2556915-11.1568298-16.363327-17.5109406-23.9292603
								c-6.1650162-7.7140045-12.8521042-15.0307922-20.2687912-21.4657745
								C96.0167618,128.2730865,87.559494,122.9785919,78.1335831,119.6885681z"/>
						</g>
						<g>
							<path class="st0" d="M114.8073349,194.3002167c-10.0758286,7.871582-18.1804886,18.9225769-19.4607086,31.4696503
								c-0.6154327,6.1673889,0.2182236,12.5149536,3.2353287,17.8468933
								c2.9171982,5.3028259,7.8323212,9.6720886,13.5900803,10.9362488
								c5.6934204,1.3384857,12.1712112-0.4685669,16.2390518-4.7325745
								c4.1200714-4.1641235,5.4698486-10.9826202,3.2263489-16.3651123
								c-2.0805664-5.3260193-9.6506729-8.5351715-14.4617386-4.6487427
								c-2.3600388,1.7826691-3.918541,4.7688446-3.9392929,7.8561096
								c-0.0274124,3.0795441,1.3271332,6.2655029,3.8203735,8.3222961c-2.7174149-1.7672119-4.5036469-4.94664-4.7028427-8.2973175
								c-0.2307129-3.3643646,1.1797791-6.8226624,3.7871246-9.1440582c2.6526031-2.3677826,6.6377411-2.960022,9.9693909-1.873642
								c3.3548508,1.0185852,6.2946396,3.4826813,7.8489761,6.7007599
								c3.1193695,6.4379425,1.4467163,14.4088135-3.3417664,19.5290833
								c-4.8015442,5.1511841-12.2955322,7.395874-19.1812286,5.8986206
								c-6.929039-1.6625366-12.3478622-6.7958984-15.5130234-12.736145
								c-3.2258072-6.0026855-4.1837387-13.0596313-3.1062393-19.6224365
								c1.0119858-6.5925446,3.7466431-12.8247528,7.640213-18.0936737
								C104.4252777,202.1224365,109.3416443,197.7246399,114.8073349,194.3002167z"/>
						</g>
						<g>
							<path class="st0" d="M83.640358,203.872406c-1.0387497-7.570694-3.4565277-14.8298035-6.9267273-21.4687347
								c-3.5070038-6.622879-8.3199081-12.489975-14.07761-17.0953064l-1.5947723-1.2754669l1.7148857-1.1262054
								c6.6912537-4.3948364,11.7782211-10.9594269,14.9867859-18.236969l1.4128189-3.2050018l1.5222244,3.1056976
								c4.4994812,9.1767578,7.3946838,19.2638855,7.6771317,29.4812317
								C88.7826233,184.2505646,87.0469284,194.4197388,83.640358,203.872406z M83.640358,203.872406
								c2.2006836-9.7975464,3.1954803-19.8156891,2.3030167-29.6625977
								c-0.9734497-9.8195343-3.5624237-19.4618835-8.1540756-28.1748505l2.9344482-0.0993042
								c-3.2721939,7.9720764-9.1244354,14.810791-16.3544159,19.4589233l0.1201706-2.4004669
								c6.1483688,4.9466248,10.783371,11.4969635,14.0198822,18.5223846
								C81.7845459,188.5449066,83.4857559,196.2458191,83.640358,203.872406z"/>
						</g>
					</g>
					<g>
						<g>
							<path class="st0" d="M458.2018127,41.1482582c1.3420715-11.150898-9.1975708-20.7837315-19.5344238-20.6951332
								c-10.7019653-0.0582733-20.0921936,6.7239552-27.2549744,14.3891945
								c-7.3043213,7.8103256-13.5673828,16.8604355-22.0603943,24.1112213
								c-4.2258911,3.5796089-9.0185242,6.7400093-14.5253601,8.4227867
								c-5.4782104,1.7606659-11.641449,1.5109253-17.0185852-0.6100769
								c-10.7531128-4.3103981-18.3005981-15.3625908-18.1412659-26.9344788
								c0.0731506-11.6034031,7.998291-22.3731518,18.7388611-26.2536373
								c5.3539429-1.9509468,11.479126-1.9955425,16.7373352,0.2366581
								c5.2362061,2.1227913,9.7993164,6.4510269,11.3667603,12.0077457
								c1.5495605,5.382494,0.5905151,11.7990322-3.6390991,15.6908169
								c-4.1159363,3.8174553-11.2156982,4.1224976-15.0241699,0.0178375
								c4.0166016,3.8965416,10.8404541,3.1217537,14.4646606-0.6112671
								c3.7294312-3.779995,4.3050232-9.7874374,2.6425476-14.6127739
								c-1.5728455-4.9454498-5.7744141-8.7444725-10.5837097-10.5354662
								c-4.8479309-1.8897009-10.2821655-1.6780157-15.0628967,0.2051439
								c-9.5394897,3.8287544-16.7088013,13.5888367-16.6083069,23.8674278
								c-0.0808716,10.2661057,6.8416748,20.1355972,16.3383484,23.8299675
								c4.721283,1.8891068,9.9729614,2.1727371,14.8756104,0.6594315c4.9246216-1.4467049,9.4395752-4.3205032,13.493103-7.6973457
								c8.1885071-6.7715263,14.3868103-15.8061714,22.1751404-23.5695229
								c7.6027832-7.6711864,17.6435242-14.644289,29.1410828-14.2328129
								C449.9853821,19.353672,460.1159058,30.0669308,458.2018127,41.1482582z"/>
						</g>
						<g>
							<path class="st0" d="M446.6650085,47.9132423c-11.5219421-2.808979-23.6176758-4.0654106-34.971283-1.4116249
								c-5.6055298,1.4181671-11.099823,3.5249023-15.5,7.1146202c-4.4078674,3.5790138-7.8453979,8.3520241-9.6690979,13.6750603
								c-1.9265747,5.2552414-2.0776062,11.1711121-0.5422363,16.5732346
								c1.4276123,5.3884354,5.2854919,10.1620407,10.7304382,10.9505081
								c5.3563232,1.0548553,11.1716919-2.5122681,12.3544006-8.0999069
								c1.353363-5.5531464-0.5440674-11.5956726-3.1152039-16.8693542
								c3.2049866,4.9472351,5.6131897,10.9047241,4.7117615,17.2124481
								c-0.5595398,3.1152115-2.3588562,6.0674973-5.0138245,7.9601746
								c-2.6460571,1.9206161-6.0318298,2.6900558-9.2713013,2.336853
								c-3.2674561-0.2895813-6.4076233-1.9265671-8.6481018-4.3068314
								c-2.2405701-2.3873978-3.7443848-5.301033-4.6523438-8.3133698
								c-1.8183594-6.0074387-1.7678223-12.5797729,0.3079834-18.5485611
								c2.1448059-5.9230042,6.0276794-11.0961914,10.9243774-14.9392166
								c4.9549561-3.837677,10.8696289-6.1501503,16.8532715-7.2406807
								C423.2322693,41.7595291,435.5236206,43.797287,446.6650085,47.9132423z"/>
						</g>
						<g>
							<path class="st0" d="M381.9698181,68.2022552c-16.7920532,19.3845901-42.809021,30.7614441-68.7909241,29.4015503
								c-12.8865662-0.6677551-25.9801025-4.1379547-36.7991943-11.6729736
								c-10.650238-7.2638702-19.6890564-19.1348572-19.4678345-32.9686737
								c0.5541687-13.663166,9.327179-25.5763664,20.5018616-32.5108185
								c11.6747742-6.7691469,25.7815247-7.7247,38.5147095-4.1540108
								c6.3048096,1.9081345,12.581543,5.4728775,16.3330078,11.3709068
								c3.6919861,5.9206276,4.1635132,13.2915268,2.6246338,19.7039032
								c-2.6097107,13.4306717-16.2664185,23.5528793-29.8980408,21.7910156l0.1153564-2.6186981
								c4.0713501-0.1528168,8.1456909-2.1007919,11.4493713-4.7545776
								c3.352478-2.6734123,5.8546448-6.2571831,6.8060303-10.4349785
								c1.0126343-4.1302261,0.7260132-8.6077118-0.8354492-12.5803642
								c-1.5685425-3.9655151-4.5518188-7.3494949-8.2313232-9.589426
								c-7.3316345-4.6725197-17.4728088-4.1986065-24.6874084,0.8752804
								c-7.2377014,5.079834-11.2817078,14.2768135-10.6490173,23.1972923
								c-0.9074097-8.8943176,2.8149109-18.3648186,10.1554871-23.8828888
								c7.297821-5.4841747,17.9593506-6.4343758,26.0449219-1.6292572
								c4.0035706,2.3428001,7.3280945,5.9527359,9.1416931,10.3041611
								c1.7909851,4.3383408,2.1923523,9.2070847,1.1577148,13.7975464
								c-0.9513855,4.6303024-3.7764282,8.84021-7.3804016,11.7871437c-3.5974426,2.9641762-7.9470825,5.2385979-12.887207,5.537693
								l0.1153564-2.6187057c12.1231079,1.3259964,24.494751-7.8037872,26.6722717-19.7966652
								c1.3943787-5.9919815,0.8461304-12.3900871-2.3196106-17.4324589
								c-3.2305298-5.0292912-8.8015747-8.2331009-14.650238-9.9628487
								c-11.7758484-3.2656498-25.32901-2.2048492-35.9119873,3.8584862
								c-10.4207764,6.333292-18.6615906,17.5799236-19.1676025,29.8237324
								c-0.3246765,12.3609505,7.9208984,23.5903358,18.03479,30.6318169
								c10.1846313,7.3744736,22.7584534,10.9748917,35.3382263,11.8531418
								C338.536438,97.1411896,364.5540161,87.1224518,381.9698181,68.2022552z"/>
						</g>
						<g>
							<path class="st0" d="M377.7950134,84.3794708c-18.6573792,7.8709793-35.4589539,19.4868698-50.2304688,33.0638123
								c-14.6746216,13.697052-27.5481262,29.4104767-37.2546997,46.9547119l-1.3087463-2.4337769
								c10.7792969,0.7301941,21.716095-0.5868835,32.0131836-3.9851379
								c10.315979-3.3500824,19.9297791-8.7527924,28.3311462-15.6266022
								c8.4163208-6.8737946,15.511261-15.387558,21.004425-24.8396225
								c5.5881653-9.4027176,9.6339417-19.7847748,11.8179932-30.6032791
								c-3.178833,21.8344269-14.1109314,42.794754-31.1193542,57.4628296
								c-16.9639587,14.6121826-39.7842712,22.508728-62.2858582,20.8580627l-2.5937195-0.189682l1.2843628-2.2446899
								c10.1353149-17.7149048,23.1354675-33.7755737,38.4552307-47.1878128
								C341.1587219,102.1550217,358.7118835,91.1860809,377.7950134,84.3794708z"/>
						</g>
						<g>
							<path class="st0" d="M380.0438538,76.3360519c-1.6661072,9.8469009-5.9527283,19.2073975-11.5944824,27.5183945
								c-5.6375732,8.3651047-12.6636047,15.6081619-19.8662415,22.5301285
								c-7.4350586,6.7007675-15.2513733,12.9817276-23.569519,18.512291
								c-8.2229919,5.6744537-17.3236389,9.9622498-26.0823669,14.5913544
								c4.0891724-2.870224,8.2657776-5.5430298,12.3752136-8.3080139c4.203949-2.6062164,8.3240662-5.3379059,12.2307129-8.3781891
								c7.9233093-5.901001,15.6379089-12.0701752,22.7840881-18.8577576
								c7.2923584-6.626442,14.1352539-13.7547379,20.0511169-21.5710144
								C372.2965698,94.5623245,377.0393066,85.8309326,380.0438538,76.3360519z"/>
						</g>
						<g>
							<path class="st0" d="M309.6141663,115.187294c-7.2371216-10.328537-17.6203613-19.3715057-30.0484924-20.7403259
								c-6.0776062-0.66716-12.3270569,0.5143509-17.2796326,3.9982224
								c-4.9597473,3.3708954-8.6333008,8.696312-9.5525818,14.5217972
								c-1.0066833,5.7773209,0.5149536,12.1926727,4.4150696,16.5625229
								c3.7454834,4.4465637,10.5610352,6.0734558,15.6741638,3.444046
								c5.0103149-2.5634155,7.5813904-10.0175552,4.3591309-15.0492249
								c-1.5162659-2.5110779-4.3395081-4.3448868-7.3857422-4.434082c-3.0450439-0.080864-6.1424255,1.4996338-8.0256042,4.0802841
								c1.5793152-2.7792511,4.638031-4.813446,8.0148926-4.9626999c3.3845825-0.1647034,6.7406006,1.6108246,8.7516174,4.4049454
								c4.0606384,5.8671112,1.6726379,14.5342789-4.4626465,18.1971359
								c-6.2625122,3.7015076-14.5812378,1.5590973-19.1633759-3.6343079
								c-4.7034454-5.1589203-6.5152435-12.3871155-5.459137-19.1604233
								c2.3844147-13.8920975,17.2236786-23.1580505,30.4564056-20.4959412
								c6.5829773,1.0465317,12.6700745,4.1106033,17.6464539,8.2824554
								C302.4888306,104.4496613,306.5150146,109.594902,309.6141663,115.187294z"/>
						</g>
						<g>
							<path class="st0" d="M300.5789185,82.1698608c7.3500977-1.0958786,14.3136902-3.7413406,20.553009-7.4642563
								c6.2269287-3.7621536,11.5748901-8.8241501,15.7324524-14.6686668l1.3319397-1.8724556l1.1630859,1.9919739
								c4.0172424,6.8779678,10.1549683,12.3746262,17.198761,15.8906097l2.7715454,1.3836823l-2.6679993,1.4704895
								c-8.517395,4.6939316-18.0681763,7.8323288-27.8128052,8.1718597
								C319.1280823,87.5690079,309.4417114,85.7161713,300.5789185,82.1698608z M300.5789185,82.1698608
								c9.2409973,2.3766937,18.7650146,3.4660416,28.0910034,2.5205917
								c9.2939148-1.0489044,18.3565063-3.8335114,26.3987427-8.5886841l0.1034546,2.8529892
								c-7.8364868-3.585556-14.1656189-9.9420395-18.3838501-17.3123474l2.4938354,0.1195183
								c-4.454834,6.2232857-10.4914551,11.1794395-17.1613159,14.6942406
								C315.4640198,80.0149612,307.9932251,81.9676895,300.5789185,82.1698608z"/>
						</g>
					</g>
				</g>
			</g>
		</g>
	</g>
	<g>
		<text transform="matrix(1 0 0 1 211.7773438 297.2207947)" class="st0 st1 st2 st3">L</text>
	</g>
	<g>
		<text transform="matrix(1 0 0 1 27.2900391 558.2872314)" class="st0 st1 st4 st5">premium product</text>
	</g>
</g>
</svg>
