<?xml version="1.0" encoding="utf-8"?>
<!-- Generator: Adobe Illustrator 27.2.0, SVG Export Plug-In . SVG Version: 6.00 Build 0)  -->
<svg version="1.1" id="OBJECTS" xmlns="http://www.w3.org/2000/svg" xmlns:xlink="http://www.w3.org/1999/xlink" x="0px" y="0px"
	 viewBox="0 0 500 374.6144714" style="enable-background:new 0 0 500 374.6144714;" xml:space="preserve">
<style type="text/css">
	.st0{fill:#868686;}
</style>
<g>
	<g>
		<g>
			<path class="st0" d="M173.5083923,54.5552864c0.9905701-6.3946342,8.1906738-11.3691711,14.855423-9.4371872
				c6.5000153,1.86866,10.9440765,9.7196999,8.0848389,16.3720474c-2.6971588,6.4787712-10.4024506,10.0491524-17.1575928,8.2336311
				c-6.7577362-1.8035736-11.6786957-7.7549515-13.2210083-14.3563766
				c-1.4400177-6.7108002,0.5256195-13.7103119,4.351944-19.1232338c3.8418274-5.497057,9.7365265-9.3251572,16.0240021-11.1464386
				c6.302536-1.8894749,12.9920807-2.0466728,19.3605804-0.9609013c6.3738251,1.1526375,12.4762573,3.3414516,18.2239532,6.1515312
				c-11.7673187-4.6437588-25.0140228-7.4502945-37.0062256-3.3720055
				c-5.866745,2.0085907-11.3076172,5.5072384-14.7500305,10.6186085
				c-3.4689789,5.0205879-5.120224,11.4169922-3.7838135,17.3006248
				c1.2571411,5.7826653,5.6325531,11.1451111,11.3833313,12.7113266
				c5.6387634,1.6583328,12.3584747-1.4599457,14.8297424-6.8073311c2.6480103-5.3788223-0.9272461-12.5687447-6.7037201-14.4688454
				C182.2056427,44.1558685,175.0423431,48.3081093,173.5083923,54.5552864z"/>
		</g>
	</g>
	<g>
		<g>
			<path class="st0" d="M326.4920654,54.5552864c-1.5343628-6.2471771-8.6976929-10.3994179-14.4918823-8.2845497
				c-5.7764893,1.9001007-9.3517456,9.090023-6.7037354,14.4688454c2.4717712,5.3473854,9.1914978,8.4656639,14.8297424,6.8073311
				c5.7503662-1.5662155,10.125824-6.9286613,11.3834229-12.7113266c1.3367615-5.8836327-0.3149109-12.2800369-3.783905-17.3006248
				c-3.4423828-5.1113701-8.8832092-8.6100178-14.7495728-10.6186085
				c-11.9926453-4.078289-25.2393494-1.2717533-37.0065918,3.3720055c5.7476807-2.8100796,11.8500671-4.9988937,18.223877-6.1515312
				c6.3684998-1.0857716,13.0580444-0.9285736,19.3605652,0.9609013
				c6.2879333,1.8212814,12.1817322,5.6493816,16.0244446,11.1464386c3.826416,5.4129219,5.7911072,12.4124336,4.351532,19.1232338
				c-1.5423279,6.6014252-6.4632263,12.552803-13.22052,14.3563766c-6.7555847,1.8155212-14.4609375-1.7548599-17.1581116-8.2336311
				c-2.8596497-6.6523476,1.5848389-14.5033875,8.0849304-16.3720474
				C318.3009338,43.1861153,325.5014954,48.1606522,326.4920654,54.5552864z"/>
		</g>
	</g>
</g>
<g>
	<g>
		<g>
			<path class="st0" d="M492.5709534,94.8621521c-2.9083862-5.7379456-10.8253784-8.1605606-15.9903259-4.7890015
				c-5.1968384,3.158577-7.0512695,10.9710846-3.2546692,15.6108627c3.6181946,4.6490707,10.8696899,6.1656952,15.9859009,3.2732544
				c5.2468872-2.8273468,8.2947388-9.0408707,8.2101746-14.9581528c-0.0296631-6.0333023-3.0863953-11.8899155-7.6021729-15.9952164
				c-4.5100403-4.1987381-10.6013489-6.3751526-16.7705994-7.0035019
				c-12.6041565-1.2575836-24.8717957,4.4750519-35.2822876,11.6618729
				c4.9625854-4.0379944,10.4109192-7.5512543,16.3583374-10.1169052
				c5.9571228-2.4992218,12.5085144-3.8608627,19.0754089-3.4472809c6.5367737,0.3502655,13.1448364,2.7449875,18.1313171,7.229332
				C496.3844604,80.7333832,499.8830872,87.1063232,500,93.9694443c-0.0079651,6.7794418-3.4534912,13.689949-9.627533,16.9764938
				c-6.1688538,3.2971649-14.4822083,1.5644455-18.5759277-4.1354141
				c-4.2913513-5.8322678-1.7398682-14.4861221,4.1685791-17.777977
				C482.0192261,85.6423874,490.1589661,88.858078,492.5709534,94.8621521z"/>
		</g>
	</g>
	<g>
		<g>
			<path class="st0" d="M7.4285965,94.8621521c2.4124346-6.0040741,10.5521851-9.2197647,16.606739-5.8296051
				c5.9079838,3.2918549,8.4594612,11.9457092,4.168623,17.777977c-4.0942307,5.6998596-12.4075632,7.432579-18.5763626,4.1354141
				C3.4534826,107.6593933,0.0080259,100.7488861,0,93.9694443c0.1164593-6.863121,3.6155515-13.2360611,8.5679493-17.6420288
				c4.9869375-4.4843445,11.5945625-6.8790665,18.1317806-7.229332c6.5664444-0.4135818,13.1178322,0.9480591,19.0749664,3.4472809
				c5.9478378,2.5656509,11.3957977,6.0789108,16.358326,10.1169052
				c-10.4104881-7.186821-22.6781235-12.9194565-35.2822952-11.6618729
				c-6.1688004,0.6283493-12.2605505,2.8047638-16.7705803,7.0035019
				c-4.5153432,4.1053009-7.5720673,9.9619141-7.6021786,15.9952164c-0.0845768,5.9172821,2.9633465,12.130806,8.2101583,14.9581528
				c5.1166801,2.8924408,12.3677092,1.3758163,15.9859743-3.2732544c3.7970486-4.6397781,1.9421139-12.4522858-3.2542744-15.6108627
				C18.2548828,86.7015915,10.3374224,89.1242065,7.4285965,94.8621521z"/>
		</g>
	</g>
</g>
<g>
	<g>
		<g>
			<path class="st0" d="M166.3193512,71.0916214c-0.0097351-2.1498489-0.8865051-4.4143829-2.7790833-5.4558792
				c-1.8283539-1.1158829-4.161972-0.8962479-6.0673828-0.1222153c-1.9426117,0.7802353-3.5885468,2.2791519-4.4316559,4.1509094
				c-0.8457794,1.845192-0.9648895,4.0446396-0.4139709,5.9677658c1.1419525,3.9742279,5.2795715,6.2223816,9.2644348,7.1744232
				c4.0937805,1.0468063,8.36203,0.833374,12.4687195-0.1669388c8.2415466-1.9837952,15.6059265-6.7178879,22.0461731-12.2959747
				c6.3605347-5.6183853,12.2764893-12.3663826,20.1151276-16.7533112c3.8866119-2.1835022,8.3009338-3.678875,12.8610077-3.8741531
				c4.5857544-0.2125511,9.1777039,1.0547752,13.0323639,3.5039635c3.8449402,2.4345741,6.9826965,6.2555885,8.0963593,10.8036995
				c1.157074,4.6008072-0.1690826,9.4433899-2.7352448,13.163002c-2.5576782,3.7386551-6.4490967,6.6802444-10.9777222,7.5760498
				c-4.4932098,0.8466568-9.278595-0.3002243-12.8118439-3.1532516c-1.7194366-1.4710236-3.1435242-3.3188705-3.8568878-5.4877625
				c-0.7713776-2.179512-0.4711456-4.6136475,0.5791931-6.5872498c0.9972076-2.0125809,2.7883759-3.5491333,4.8067169-4.4090729
				c2.0595093-0.8054733,4.4090729-0.7372818,6.3853302,0.1611862c-2.0205383-0.8054733-4.3218384-0.7487946-6.2671051,0.1182251
				c-1.9067383,0.9223785-3.5384369,2.4700012-4.3802795,4.3975601c-2.0435791,3.9224167,0.200592,8.4559174,3.4884644,10.8568344
				c3.2998199,2.504982,7.7359009,3.444191,11.7380371,2.569191c4.0118561-0.8966904,7.4902039-3.6580582,9.7072906-7.099144
				c2.2202606-3.4379807,3.2369537-7.7142105,2.2432861-11.583046c-0.9905701-3.9095802-3.7541504-7.2634315-7.2222443-9.4177055
				c-3.4743042-2.1688881-7.6420288-3.2754745-11.7132416-3.0443268c-4.118515,0.2121048-8.1273499,1.5981064-11.7672577,3.6709023
				c-7.4445343,4.0725327-13.2320709,10.523407-19.854248,16.2989883
				c-6.6586151,5.6205978-14.3112793,10.6332169-23.1006317,12.4394455
				c-4.3249359,0.9409714-8.9602814,1.0538864-13.2732544-0.177124c-4.1743164-1.1180954-8.8163605-3.6607208-10.0371399-8.370018
				c-0.5265656-2.2525787-0.2750397-4.6415405,0.769104-6.686882c1.0450287-2.0444641,2.9145813-3.5708313,5.0236969-4.3089981
				c2.0719147-0.7319641,4.5538635-0.8426666,6.4424591,0.4281998
				C165.6511536,66.5860138,166.4070282,68.9537277,166.3193512,71.0916214z"/>
		</g>
	</g>
	<g>
		<g>
			<path class="st0" d="M333.6810913,71.0916214c-0.0881348-2.1378937,0.6682129-4.5056076,2.6210022-5.7127075
				c1.8885803-1.2708664,4.3709717-1.1601639,6.4429016-0.4281998c2.1086426,0.7381668,3.9782104,2.264534,5.0232239,4.3089981
				c1.0446167,2.0453415,1.2961121,4.4343033,0.769165,6.686882c-1.2208252,4.7092972-5.8623657,7.2519226-10.0371704,8.370018
				c-4.3129883,1.2310104-8.9478455,1.1180954-13.2728271,0.177124
				c-8.7893677-1.8062286-16.4424744-6.8188477-23.1010132-12.4394455
				c-6.6222229-5.7755814-12.4092712-12.2264557-19.8543091-16.2989883
				c-3.6398926-2.0727959-7.6486816-3.4587975-11.7672729-3.6709023c-4.0711975-0.2311478-8.2389221,0.8754387-11.7132263,3.0443268
				c-3.4680939,2.154274-6.2312317,5.5081253-7.2222443,9.4177055c-0.9936676,3.8688354,0.0230255,8.1450653,2.2432861,11.583046
				c2.2171478,3.4410858,5.6954193,6.2024536,9.7072906,7.099144c4.0025635,0.875,8.4386597-0.064209,11.7380371-2.569191
				c3.2878723-2.4009171,5.5321045-6.9344177,3.4884644-10.8568344c-0.8417664-1.9275589-2.4735413-3.4751816-4.3802795-4.3975601
				c-1.9452209-0.8670197-4.2465515-0.9236984-6.2666626-0.1182251c1.9762573-0.898468,4.3253784-0.9666595,6.3853455-0.1611862
				c2.0178833,0.8599396,3.8090515,2.396492,4.8067017,4.4090729c1.0498962,1.9736023,1.3505859,4.4077377,0.5787659,6.5872498
				c-0.7133789,2.1688919-2.1374512,4.0167389-3.8569031,5.4877625c-3.5331726,2.8530273-8.318634,3.9999084-12.8114014,3.1532516
				c-4.5286255-0.8958054-8.4204865-3.8373947-10.9776611-7.5760498c-2.5666046-3.7196121-3.8928223-8.5621948-2.7353058-13.163002
				c1.1132202-4.548111,4.2514191-8.3691254,8.0959015-10.8036995c3.8546753-2.4491882,8.4466248-3.7165146,13.0319214-3.5039635
				c4.5605164,0.1952782,8.9749146,1.6906509,12.8614502,3.8741531
				c7.8386536,4.3869286,13.7546082,11.1349258,20.1151428,16.7533112
				c6.4406738,5.5780869,13.8050842,10.3121796,22.0466614,12.2959747
				c4.1062012,1.0003128,8.3748779,1.2137451,12.4682312,0.1669388c3.9848633-0.9520416,8.1224976-3.2001953,9.2644958-7.1744232
				c0.5508423-1.9231262,0.432251-4.1225739-0.4135132-5.9677658c-0.8436279-1.8717575-2.4899902-3.3706741-4.4321594-4.1509094
				c-1.905426-0.7740326-4.2390442-0.9936676-6.0668945,0.1222153
				C334.5671387,66.6772385,333.6908264,68.9417725,333.6810913,71.0916214z"/>
		</g>
	</g>
</g>
<g>
	<g>
		<g>
			<path class="st0" d="M364.2438965,71.0916214c-0.0097351-2.1498489-0.8865051-4.4143829-2.7790833-5.4558792
				c-1.8278503-1.1158829-4.1619873-0.8962479-6.0669556-0.1222153c-1.9425354,0.7802353-3.5885315,2.2791519-4.4320984,4.1509094
				c-0.8457642,1.845192-0.9643555,4.0446396-0.4135742,5.9677658c1.1419983,3.9742279,5.2796326,6.2223816,9.2644958,7.1744232
				c4.0934143,1.0468063,8.3616028,0.833374,12.4682312-0.1669388c8.2415771-1.9837952,15.6059875-6.7178879,22.0466614-12.2959747
				c6.3605347-5.6183853,12.2764893-12.3663826,20.1151428-16.7533112c3.8861084-2.1835022,8.3009338-3.678875,12.8609924-3.8741531
				c4.5857544-0.2125511,9.1772461,1.0547752,13.0323792,3.5039635c3.8444824,2.4345741,6.982666,6.2555885,8.0959167,10.8036995
				c1.1575012,4.6008072-0.1687317,9.4433899-2.73526,13.163002c-2.5572205,3.7386551-6.4490967,6.6802444-10.9777222,7.5760498
				c-4.4927673,0.8466568-9.2782288-0.3002243-12.8118591-3.1532516c-1.7194214-1.4710236-3.1434937-3.3188705-3.8564453-5.4877625
				c-0.7718201-2.179512-0.4711304-4.6136475,0.5787659-6.5872498c0.9976501-2.0125809,2.7888794-3.5491333,4.8067017-4.4090729
				c2.059967-0.8054733,4.4090881-0.7372818,6.3853455,0.1611862c-2.0205383-0.8054733-4.3213806-0.7487946-6.2666626,0.1182251
				c-1.9067383,0.9223785-3.5385132,2.4700012-4.3802795,4.3975601c-2.0435791,3.9224167,0.2001343,8.4559174,3.4880981,10.8568344
				c3.2997437,2.504982,7.7359009,3.444191,11.7384033,2.569191c4.0118713-0.8966904,7.4896851-3.6580582,9.7073059-7.099144
				c2.2202454-3.4379807,3.2369385-7.7142105,2.2432556-11.583046c-0.9909973-3.9095802-3.7541504-7.2634315-7.222229-9.4177055
				c-3.4743042-2.1688881-7.6420288-3.2754745-11.7132263-3.0443268c-4.1185913,0.2121048-8.1273804,1.5981064-11.7672729,3.6709023
				c-7.4449768,4.0725327-13.2320862,10.523407-19.8543091,16.2989883
				c-6.6585388,5.6205978-14.3112183,10.6332169-23.1005554,12.4394455
				c-4.3249512,0.9409714-8.9602966,1.0538864-13.2732849-0.177124c-4.1748047-1.1180954-8.8167419-3.6607208-10.0376282-8.370018
				c-0.5264893-2.2525787-0.2749939-4.6415405,0.7692261-6.686882c1.0454102-2.0444641,2.914978-3.5708313,5.0236206-4.3089981
				c2.0719299-0.7319641,4.5538635-0.8426666,6.4429016,0.4281998
				C363.5756836,66.5860138,364.3320312,68.9537277,364.2438965,71.0916214z"/>
		</g>
	</g>
	<g>
		<g>
			<path class="st0" d="M135.7561646,71.0916214c-0.087738-2.1378937,0.6681366-4.5056076,2.6209259-5.7127075
				c1.8890381-1.2708664,4.371048-1.1601639,6.4429016-0.4281998c2.1086731,0.7381668,3.9782257,2.264534,5.0232544,4.3089981
				c1.0445862,2.0453415,1.2961578,4.4343033,0.7696075,6.686882c-1.2208405,4.7092972-5.8628235,7.2519226-10.0372009,8.370018
				c-4.312973,1.2310104-8.9483185,1.1180954-13.2732544,0.177124c-8.789299-1.8062286-16.4420166-6.8188477-23.1009521-12.4394455
				c-6.6218491-5.7755814-12.4093933-12.2264557-19.8543701-16.2989883
				c-3.6394653-2.0727959-7.6486206-3.4587975-11.7672577-3.6709023c-4.0712051-0.2311478-8.238945,0.8754387-11.7132378,3.0443268
				c-3.4680939,2.154274-6.2312355,5.5081253-7.2222481,9.4177055c-0.9936676,3.8688354,0.0235252,8.1450653,2.2432823,11.583046
				c2.217598,3.4410858,5.6958771,6.2024536,9.7073021,7.099144c4.0025711,0.875,8.4386444-0.064209,11.7380295-2.569191
				c3.2878723-2.4009171,5.5320435-6.9344177,3.4889069-10.8568344c-0.8417816-1.9275589-2.4739838-3.4751816-4.380722-4.3975601
				c-1.9448318-0.8670197-4.2460632-0.9236984-6.2666626-0.1182251c1.9763184-0.898468,4.3253784-0.9666595,6.3853302-0.1611862
				c2.0178909,0.8599396,3.8095627,2.396492,4.8067169,4.4090729c1.0503464,1.9736023,1.3505707,4.4077377,0.5792542,6.5872498
				c-0.7134247,2.1688919-2.1379471,4.0167389-3.8568878,5.4877625c-3.5332413,2.8530273-8.3191452,3.9999084-12.8119049,3.1532516
				c-4.5285683-0.8958054-8.4204941-3.8373947-10.977726-7.5760498c-2.5664749-3.7196121-3.8927498-8.5621948-2.7352448-13.163002
				c1.1136703-4.548111,4.2514877-8.3691254,8.0963554-10.8036995c3.8546715-2.4491882,8.4466171-3.7165146,13.031929-3.5039635
				c4.5605087,0.1952782,8.9748917,1.6906509,12.8610001,3.8741531
				c7.8386383,4.3869286,13.7545929,11.1349258,20.1155777,16.7533112
				c6.440239,5.5780869,13.8046265,10.3121796,22.0462265,12.2959747c4.106636,1.0003128,8.3748856,1.2137451,12.4682236,0.1669388
				c3.9853058-0.9520416,8.1224823-3.2001953,9.2649384-7.1744232c0.550415-1.9231262,0.4317474-4.1225739-0.414032-5.9677658
				c-0.8435516-1.8717575-2.4894867-3.3706741-4.4316559-4.1509094c-1.9054108-0.7740326-4.2390289-0.9936676-6.0673828,0.1222153
				C136.6421661,66.6772385,135.7658386,68.9417725,135.7561646,71.0916214z"/>
		</g>
	</g>
</g>
<g>
	<path class="st0" d="M441.0269165,111.3480301H58.9759674c0,21.2370377-17.2162247,38.4532547-38.4529877,38.4532547V276.324585
		c21.236763,0,38.4529877,17.216217,38.4529877,38.4529724h382.0509644c0-21.2367554,17.2159424-38.4529724,38.4532471-38.4529724
		V149.8012848C458.2428589,149.8012848,441.0269165,132.5850677,441.0269165,111.3480301z M129.6754456,270.019165H73.7013779
		v-100.60112h12.9859467v89.7038116h42.988121V270.019165z M265.0484619,228.0775299
		c0,30.8973236-16.2680969,43.5848846-38.0626984,43.5848846c-20.5967712,0-36.1167755-11.79245-36.1167755-42.9881287V169.418045
		h13.1329803v59.5546265c0,22.5383759,10.0021667,32.0908051,23.4335175,32.0908051
		c14.9275818,0,24.480011-9.8507996,24.480011-32.0908051V169.418045h13.1329651V228.0775299z M394.8993225,270.019165
		l-12.8345947-22.2400055c-5.2237854-8.5059509-8.5059509-14.0281067-11.6410828-19.8486633h-0.2983704
		c-2.8367615,5.8205566-5.6735229,11.1913605-10.8973083,20.0000153L347.137146,270.019165h-14.9232483l30.7459717-50.8973083
		l-29.5524597-49.7038116h15.0746155l13.2843323,23.5848846c3.7318726,6.5686493,6.568634,11.6410828,9.2540588,17.0162201h0.449707
		c2.8324585-5.9718933,5.3708191-10.5989227,9.1027222-17.0162201l13.7297363-23.5848846h14.9275818l-30.598938,48.960022
		l31.3470459,51.641098H394.8993225z"/>
</g>
<g>
	<path class="st0" d="M72.2859192,374.6144714l-11.9221687-30.7719116h4.4064903l8,22.3524475
		c0.6399994,1.7946167,1.180542,3.4724426,1.6129761,5.0378418c0.4756699-1.6778259,1.0291901-3.3556824,1.6605377-5.0378418
		l8.3113556-22.3524475h4.1556778l-12.0475693,30.7719116H72.2859192z"/>
	<path class="st0" d="M103.602684,374.6144714v-30.7719116h4.0735168v30.7719116H103.602684z"/>
	<path class="st0" d="M125.6048584,374.6144714v-30.7719116h11.6064911c2.0454102,0,3.6064911,0.0951538,4.6832428,0.2940674
		c1.5091858,0.250824,2.7762146,0.7308044,3.8010864,1.4356689c1.0205383,0.709198,1.8421631,1.6994629,2.464859,2.9708252
		c0.6227112,1.2756653,0.9340515,2.6724243,0.9340515,4.1989136c0,2.6162109-0.8345947,4.8302612-2.4994507,6.6421814
		c-1.6648712,1.8118896-4.6746063,2.7200012-9.0248718,2.7200012h-7.8918915v12.5102539H125.6048584z M129.6783752,358.4717712
		h7.9524231c2.6335144,0,4.5016327-0.4886475,5.6086578-1.4702759c1.1027069-0.9772949,1.6562195-2.3567505,1.6562195-4.1340637
		c0-1.2886353-0.3243256-2.3913269-0.9772949-3.3081055c-0.6486511-0.9124146-1.5048676-1.5221558-2.5686493-1.8118896
		c-0.6875763-0.1816101-1.9546051-0.2767639-3.8010864-0.2767639h-7.8702698V358.4717712z"/>
	<path class="st0" d="M185.557312,364.7290649l3.8399963-0.3372803c0.1816254,1.5394592,0.6053162,2.8021545,1.2713623,3.7880859
		c0.6616211,0.9859619,1.6951294,1.7859497,3.0962067,2.3956909c1.396759,0.6054077,2.9708099,0.9124146,4.722168,0.9124146
		c1.5524292,0,2.9232483-0.23349,4.1124268-0.691864c1.1891937-0.4627075,2.0756836-1.0983887,2.6551361-1.90271
		c0.583786-0.8043213,0.8735199-1.6821594,0.8735199-2.6335144c0-0.964325-0.2810822-1.8075867-0.838913-2.5297241
		c-0.5621643-0.722168-1.4832458-1.3275757-2.7718964-1.8162231c-0.825943-0.3200073-2.6508179-0.8216248-5.4789276-1.5005493
		s-4.8086395-1.3189087-5.9416199-1.9200134c-1.4702759-0.7697144-2.5643311-1.7254028-3.2864838-2.8670044
		c-0.7178345-1.1372986-1.0810852-2.4172974-1.0810852-3.8313599c0-1.5524292,0.4410858-3.0054016,1.3232422-4.3546143
		c0.8821716-1.3491821,2.1708069-2.374054,3.861618-3.074585c1.6951447-0.700531,3.5762177-1.0508118,5.647583-1.0508118
		c2.2832336,0,4.2940521,0.3675842,6.0367584,1.1027222c1.742691,0.7351074,3.0832367,1.8161926,4.0172882,3.2432251
		c0.938385,1.4270325,1.4443359,3.044342,1.5135193,4.8475647l-3.9048615,0.2940674
		c-0.2118988-1.9416199-0.9210815-3.4118958-2.131897-4.4064941s-2.9967651-1.4918823-5.3621674-1.4918823
		c-2.464859,0-4.2594604,0.4540405-5.3837891,1.3535156c-1.1286469,0.9037781-1.6908112,1.9934998-1.6908112,3.2648621
		c0,1.1070251,0.3978424,2.0151367,1.1978455,2.7286377c0.7826996,0.7135315,2.8281097,1.4486694,6.1405334,2.1967773
		c3.3081207,0.7481079,5.5783844,1.401062,6.8108215,1.9632263c1.7902679,0.8216248,3.1135101,1.868103,3.9654083,3.1351318
		c0.8562164,1.2670288,1.284317,2.7286682,1.284317,4.3762207c0,1.638916-0.471344,3.1827087-1.409729,4.6313477
		c-0.9383698,1.4486694-2.2832336,2.572998-4.0389099,3.3773193s-3.7319031,1.2064819-5.9286499,1.2064819
		c-2.7891998,0-5.1200104-0.4064941-7.0010986-1.2151489c-1.8853912-0.8129578-3.3600006-2.0324097-4.4324341-3.6626892
		C186.1756897,368.6296082,185.6092072,366.7831116,185.557312,364.7290649z"/>
	<path class="st0" d="M226.4438171,374.6144714v-30.7719116h22.2529755v3.6281128H230.517334v9.4270325h17.0248566v3.6108093
		H230.517334v10.4735413h18.8929749v3.6324158H226.4438171z"/>
	<path class="st0" d="M265.8513794,374.6144714v-30.7719116h13.6432495c2.7416382,0,4.8259583,0.2767639,6.2529907,0.8259583
		c1.4270325,0.5535278,2.568634,1.5308228,3.4248657,2.9318848c0.8518982,1.396759,1.2799988,2.9448853,1.2799988,4.6356812
		c0,2.1837769-0.709198,4.0259399-2.12323,5.5221863c-1.4097595,1.4962158-3.5935364,2.4475403-6.5470581,2.8540344
		c1.0767822,0.5189209,1.8940735,1.0292053,2.4562378,1.5351562c1.1891785,1.0897217,2.3135071,2.4562073,3.3772888,4.0907898
		l5.3535156,8.3762207h-5.1199951l-4.0735168-6.4043274c-1.1891785-1.8464661-2.1708069-3.2605286-2.9405518-4.2378235
		c-0.7697144-0.9816284-1.4572754-1.6648865-2.0670166-2.0583801c-0.6054077-0.3891907-1.2281189-0.6616211-1.8551331-0.8172913
		c-0.4627075-0.0994873-1.2194519-0.1470337-2.2702637-0.1470337h-4.722168v13.664856H265.8513794z M269.9205933,357.4209595
		h8.7524414c1.8637695,0,3.3167419-0.1902771,4.3675537-0.5751343s1.8464966-0.9989319,2.3956909-1.8464966
		c0.5448608-0.8475647,0.8172913-1.7686462,0.8172913-2.7632446c0-1.4529724-0.5275879-2.6508179-1.5870361-3.5891724
		c-1.0551453-0.9340515-2.7243347-1.405426-5.0032349-1.405426h-9.7427063V357.4209595z"/>
	<path class="st0" d="M315.5984497,374.6144714l-11.9221802-30.7719116h4.4064941l8,22.3524475
		c0.6400146,1.7946167,1.180542,3.4724426,1.6129761,5.0378418c0.4756775-1.6778259,1.0291748-3.3556824,1.660553-5.0378418
		l8.3113403-22.3524475h4.1556702l-12.0475769,30.7719116H315.5984497z"/>
	<path class="st0" d="M346.9152222,374.6144714v-30.7719116h4.0734863v30.7719116H346.9152222z"/>
	<path class="st0" d="M390.8763123,363.8252869l4.0691833,1.0291748c-0.8518982,3.3427124-2.3870239,5.8940735-4.6054077,7.6497498
		s-4.929718,2.6335144-8.1340637,2.6335144c-3.3167419,0-6.0151367-0.6745911-8.0951233-2.0238037
		c-2.0756836-1.3491821-3.6583862-3.3081055-4.7438049-5.868103c-1.0810547-2.5599976-1.625946-5.3102722-1.625946-8.2507935
		c0-3.2043457,0.6140747-5.9978638,1.8378601-8.3848877s2.9664917-4.1989136,5.2280884-5.4356689
		c2.2573242-1.2410889,4.7438049-1.8594666,7.4594727-1.8594666c3.0789185,0,5.6691895,0.7870178,7.7664795,2.3524475
		c2.1016235,1.5653992,3.5632629,3.770813,4.3891907,6.6118774l-4.0086365,0.9470215
		c-0.7135315-2.2399902-1.7513428-3.8702698-3.1091919-4.8951111c-1.3579407-1.0205688-3.061615-1.5308228-5.1199951-1.5308228
		c-2.3654175,0-4.3416443,0.5664978-5.9286499,1.6994629c-1.5913696,1.1329651-2.7070312,2.6551208-3.3513489,4.5664978
		c-0.6443481,1.9113464-0.964325,3.8789062-0.964325,5.9113464c0,2.6162109,0.3805237,4.8994446,1.1459351,6.8497314
		c0.7610779,1.9545898,1.9459534,3.4118958,3.5545959,4.3805237c1.6086426,0.964325,3.3513489,1.4486694,5.2281189,1.4486694
		c2.2832336,0,4.2118835-0.6616211,5.7945862-1.9762268C389.2416992,368.3658142,390.3141479,366.4155579,390.8763123,363.8252869z"
		/>
	<path class="st0" d="M410.7898254,374.6144714v-30.7719116h22.2529907v3.6281128h-18.1794739v9.4270325h17.0247803v3.6108093
		h-17.0247803v10.4735413h18.8929749v3.6324158H410.7898254z"/>
</g>
<g>
	<g>
		<path class="st0" d="M243.1621094,11.0637197c-0.042511-0.2590446-0.2146912-0.5185318-0.5163116-0.5597134l-2.2361908-0.2152061
			c0-0.2568302-0.0420685-0.4312973-0.0420685-0.6447325l8.6427765-0.043395c0,0.0872335,0.0438385,0.600894,0.0438385,0.64429
			l-2.9681549,0.2590437v28.3385773h11.8691101l0.8599243-6.8803997l0.8178711,0.2156506l-0.6455994,7.5246849h-9.9769897
			l-8.6427765,0.0438385c0-0.2156487,0.0420685-0.3879013,0.0420685-0.60355l2.2361908-0.3002243
			c0.3440552-0.043396,0.4738007-0.3440666,0.5163116-0.5597153V11.0637197z"/>
	</g>
</g>
<g>
	<g>
		<path class="st0" d="M248.552887,327.4738464l-200.7416992,0.6505127l-0.6389732,0.0021973l-0.0119591-0.6531372
			c-0.0996323-5.5980225,0.1948395-11.3638611-0.2289314-16.8241577
			c-0.6801567-5.4470215-3.0376816-10.7054138-6.7984772-14.7230225c-3.6770439-4.0973206-8.6990204-6.9003296-14.0526066-8.0795288
			c-2.7042465-0.5517578-5.4155769-0.6234741-8.2655087-0.5845032l-8.4568033,0.0101624l-0.731967,0.000885l-0.0008297-0.7337341
			L8.4444056,137.6890564l-0.0008307-0.9121857l0.9143496-0.0013275l8.1463938-0.0097504
			c2.7490253-0.0097351,5.3628826,0.0345459,7.9418144-0.4884186c5.1622887-0.9786072,9.958374-3.5739288,13.6890564-7.2638702
			c3.680645-3.7404175,6.2613487-8.5400467,7.2249031-13.696579c0.5158768-2.5767212,0.4649544-5.183548,0.4684944-7.934288
			l-0.0101852-8.1463928l-0.0008278-0.9914551l0.9936104-0.0013275L250,97.9976959l202.1888733,0.242218l0.9975891,0.0013275
			l-0.0012512,0.9950027l-0.0098267,8.1463928c0.0031128,2.7507401-0.0477295,5.3575668,0.4680786,7.9338455
			c0.9635315,5.1556473,3.5437927,9.9548264,7.223999,13.6943665c3.7297974,3.6899414,8.5254517,6.2848206,13.6868591,7.2634277
			c2.5789185,0.5229645,5.1923828,0.4786835,7.9413757,0.4884186l8.1463928,0.0101929l0.9174805,0.000885l-0.000885,0.9152832
			l-0.1819763,148.8504639l-0.000885,0.7355042l-0.7337341-0.0004272l-8.4568176-0.0106201
			c-2.8499451-0.0385437-5.5608215,0.0327454-8.2650757,0.5845032c-5.3535767,1.178772-10.3746033,3.9817505-14.0516968,8.0786438
			c-3.760376,4.0176086-6.1178894,9.2755432-6.7980347,14.7225647c-0.4242249,5.4594421-0.129303,11.225708-0.2294006,16.8237305
			l-0.0119324,0.65448l-0.6402588-0.0022278l-200.6381531-0.651825l200.6381531-0.6513672l-0.6514282,0.6509399
			c0.0907593-5.6693115-0.2315979-11.2044373,0.197937-16.9840088c0.698761-5.7264404,3.1679382-11.2624512,7.1097717-15.4970703
			c3.8568726-4.3156433,9.1338501-7.2851257,14.7766113-8.5396118c2.8269043-0.5924683,5.7808838-0.6699524,8.5635071-0.6367493
			l8.4568176-0.0106201l-0.7337646,0.7341614l-0.1819763-148.8504639l0.915741,0.9161835l-8.1463928,0.0101776
			c-2.671936-0.0030975-5.5270996,0.0531464-8.2902527-0.5016937c-5.5347595-1.0348511-10.6855469-3.8037567-14.6903076-7.7505341
			c-3.9564514-3.9954758-6.7400513-9.1427155-7.7894897-14.6827164c-0.5623779-2.765358-0.5127869-5.6281281-0.522522-8.2978363
			l-0.0097351-8.1463928l0.9954834,0.9954376L250,100.4734573l-202.1888123-0.2453232l0.9918976-0.99189l-0.0097427,8.1463928
			c-0.0096855,2.6697083,0.039856,5.5320358-0.5220718,8.2973862c-1.0494614,5.5391235-3.8329735,10.6859207-7.7886047,14.680954
			c-4.0043373,3.9463348-9.1546154,6.714798-14.6884804,7.7491913c-2.7626972,0.5548401-5.6175003,0.4986115-8.2898636,0.501709
			l-8.1463938-0.0097351l0.9130754-0.9130859l-0.1811094,148.8504639l-0.731966-0.7319641l8.4568033,0.0101929
			c2.7830677-0.0332031,5.7361736,0.0447083,8.5630779,0.6367493c5.6427402,1.2544861,10.9188328,4.2235413,14.7757168,8.5387268
			c3.9419022,4.2350464,6.4110184,9.7706299,7.1097717,15.4966125c0.4295273,5.7791443,0.1071625,11.3147278,0.197937,16.9835815
			l-0.6500473-0.6495972L248.552887,327.4738464z"/>
	</g>
</g>
<g>
	<g>
		<path class="st0" d="M250,0.0018589c6.8299255-0.0832485,13.6576843,2.6630652,18.5463257,7.5025468
			c4.9536438,4.7606606,7.9966431,11.5454102,8.119751,18.5462513c0.1731262,6.9822445-2.5324402,14.0743046-7.4981079,19.1679592
			c-4.9612122,5.0852394-12.014801,8.0839577-19.1679688,8.119381c-7.1544342-0.0261269-14.2089233-3.0328102-19.170166-8.1171684
			c-4.9745483-5.0878983-7.6743622-12.1879272-7.5016632-19.1701717c0.1248627-7.0017262,3.1674194-13.789134,8.1246948-18.5471382
			C236.3419342,2.6640384,243.1700897-0.0818324,250,0.0018589z M250,0.0018589
			c-6.8321228,0.0380817-13.5553284,2.9004118-18.2911377,7.757163c-4.7394562,4.8673782-7.3055573,11.6317577-7.1346283,18.2916355
			c0.1266479,6.6802464,3.0354767,13.1315594,7.7571716,17.6686001C236.9955292,48.3311348,243.4924469,50.9335327,250,50.8613548
			c6.5088806,0.0810356,13.0067444-2.5288925,17.6712646-7.1398811c4.7305298-4.5317307,7.6331787-10.9910126,7.7602539-17.6708164
			c0.1691589-6.6612053-2.3960571-13.4278002-7.1390076-18.292078C263.5558472,2.9013851,256.8321228,0.0394979,250,0.0018589z"/>
	</g>
</g>
</svg>
