<?xml version="1.0" encoding="utf-8"?>
<!-- Generator: Adobe Illustrator 27.2.0, SVG Export Plug-In . SVG Version: 6.00 Build 0)  -->
<svg version="1.1" id="OBJECTS" xmlns="http://www.w3.org/2000/svg" xmlns:xlink="http://www.w3.org/1999/xlink" x="0px" y="0px"
	 viewBox="0 0 279.1111145 178.5" style="enable-background:new 0 0 279.1111145 178.5;" xml:space="preserve">
<style type="text/css">
	.st0{fill:#868686;}
	.st1{font-family:'AnticDidone-Regular';}
	.st2{font-size:54.8425179px;}
	.st3{letter-spacing:19;}
	.st4{font-size:19.2688389px;}
	.st5{letter-spacing:4;}
</style>
<g>
	<g>
		<g>
			<g>
				<g>
					<path class="st0" d="M127.1147079,21.3907356c2.490242-1.671917,4.5672836-3.8077965,6.5515823-6.0087996
						c1.9542236-2.225482,3.8726959-4.5138426,5.5845947-6.9167347l0.5416565-0.7603912l0.4947205,0.8028355
						c1.5468445,2.510684,3.2800598,4.9548969,5.1444397,7.2603245c1.862793,2.3099203,3.8767395,4.5140676,6.3373413,6.2499876
						c-2.7536621-1.276226-5.0379791-3.3936901-7.0885315-5.6054726c-1.044693-1.1019621-1.9573364-2.3132887-2.8756104-3.5154085
						c-0.9005127-1.2200851-1.787323-2.4352293-2.5816498-3.7485104l1.0357208,0.0424433
						c-1.846405,2.4013195-3.7458191,4.7310009-5.9106598,6.8401566
						C132.2012024,18.1272945,129.866806,20.1477451,127.1147079,21.3907356z"/>
				</g>
			</g>
			<g>
				<g>
					<g>
						<path class="st0" d="M203.3815765,34.4692039c-1.8378754-1.273983-1.9777832-4.3689976-0.1385498-5.9108906
							c1.8115997-1.5093288,4.3885193-1.6198177,6.5250702-0.8118172c2.2506409,0.7886868,3.744278,3.2311039,3.6018677,5.6027775
							c-0.0541077,2.4280434-1.6685486,4.5248489-3.5547028,5.7516708
							c-3.8962708,2.5066414-8.9225922,2.3957062-12.941925,0.6258736
							c-4.1244354-1.7422066-7.2652588-5.0983963-9.4296722-8.8037891c2.5975952,3.4170475,5.8298187,6.4518757,9.7916718,7.9064121
							c3.8753967,1.4954071,8.4685059,1.5324593,11.8878021-0.7776833c1.693924-1.0709724,3.0287628-2.7878036,3.1049042-4.7539101
							c0.1482086-1.9508324-1.0222473-3.875391-2.836319-4.6645279c-1.7938538-0.8059788-4.1439819-0.8154106-5.7568359,0.3965893
							C201.9512939,30.1859932,201.7525482,32.9625664,203.3815765,34.4692039z"/>
					</g>
					<g>
						<path class="st0" d="M76.0921173,34.548027c1.6269989-1.5086555,1.4251175-4.2850075-0.2600555-5.4390697
							c-1.6142044-1.209753-3.9645233-1.197628-5.7572784-0.3894024c-1.8131714,0.7916069-2.981163,2.717514-2.8306961,4.6681213
							c0.078598,1.9661064,1.4156799,3.6811409,3.1109543,4.7500916c3.4219894,2.3058777,8.0151062,2.2632065,11.8887024,0.7628593
							c3.9600525-1.4594765,7.1886826-4.4981232,9.7817841-7.9185371c-2.1599045,3.708313-5.296463,7.0680962-9.4186554,8.8156929
							c-4.0170975,1.7745476-9.0431824,1.8919945-12.9426041-0.6101532
							c-1.8875046-1.2243538-3.504631-3.3191376-3.5618896-5.7471809c-0.1453018-2.3714504,1.3453903-4.8156624,3.594902-5.6072693
							c2.1356506-0.8106937,4.7128067-0.703125,6.5259857,0.8037338
							C78.0645065,30.1765614,77.928421,33.271801,76.0921173,34.548027z"/>
					</g>
				</g>
			</g>
			<g>
				<g>
					<g>
						<path class="st0" d="M111.0088196,5.0712862c1.7785873,0.2234464,3.6025391,0.3534718,5.3678818,0.7644339
							c1.745575,0.4920311,3.533371,0.8991752,5.18396,1.6993155c3.4037933,1.3510089,6.4460373,3.5416827,9.0620346,6.0988526
							c2.5634918,2.6198254,4.7085571,5.6555538,6.2380981,8.9686241c1.509552,3.3139687,2.5850067,6.8376846,2.9092865,10.4386559
							c-0.8385468-3.5026093-2.1261902-6.8637371-3.776123-10.0081558
							c-1.6649628-3.1352119-3.7271881-6.0588799-6.2607727-8.5114012c-1.174942-1.3211412-2.6139908-2.3624697-3.9932938-3.454999
							c-1.4861984-0.9528475-2.9580002-1.9315205-4.5803146-2.655756
							C118.0077438,6.7512889,114.5163651,5.9100523,111.0088196,5.0712862z"/>
					</g>
				</g>
			</g>
			<g>
				<g>
					<g>
						<path class="st0" d="M169.2814026,5.0351305c-3.5412292,0.8497701-7.0665131,1.7022352-10.2524872,3.3766241
							c-1.6408997,0.7269306-3.1275482,1.7190771-4.6384735,2.6674337
							c-1.3997345,1.0990419-2.8603363,2.1399202-4.0660553,3.4594898
							c-2.5883636,2.4504995-4.7242584,5.3647356-6.4781494,8.4938841c-1.7388306,3.1385803-3.128006,6.497015-4.0761566,10.008606
							c0.4367828-3.6247749,1.6182556-7.1498394,3.2194214-10.458868c1.62117-3.3074551,3.8394623-6.3274632,6.4557037-8.9416742
							c2.6660767-2.55515,5.7498627-4.7381878,9.1837616-6.1053658c1.66922-0.8001404,3.468689-1.2261481,5.2335815-1.7168322
							C165.6431885,5.3942165,167.4859772,5.2653136,169.2814026,5.0351305z"/>
					</g>
				</g>
			</g>
			<g>
				<g>
					<path class="st0" d="M74.3382263,28.4628716c-1.4819336-0.5742226-3.080864-0.9126492-4.644989-0.6534958
						c-1.5600815,0.243433-2.9811554,1.111393-3.9658966,2.321373c-2.0038261,2.4266968-2.3375397,6.009922-1.0092087,8.7653885
						c1.3058701,2.8017273,4.128479,4.6923752,7.0483475,5.6050262c2.9717102,0.9182625,6.1920319,0.8520126,9.1907043,0.0431175
						c3.0134964-0.804184,5.8293686-2.2654572,8.4492188-3.9919472c2.6081238-1.7520866,4.9887848-3.8365402,7.37146-5.948616
						c4.7615433-4.2039356,9.5006332-8.6171703,15.2482605-11.6912994c2.8455124-1.524601,6.0743713-2.6216221,9.4159622-2.5342655
						c3.3525925,0.0413208,6.5223923,1.455883,9.1184158,3.4653301c5.2699585,4.2450333,6.2940063,12.6621132,2.1190338,17.9630737
						c-2.0563812,2.6173515-5.0828781,4.3496819-8.3083954,4.9432182c-3.1976395,0.6164436-6.8255539-0.1392326-9.1442337-2.5571709
						c-2.3835754-2.2834206-3.0640259-6.2737923-1.2081833-9.0429573c1.8315887-2.756588,6.3020859-3.262991,8.4312286-0.7354622
						c-2.2113342-2.4552174-6.5565262-1.7408638-8.1738739,0.9041138c-1.6707916,2.6701279-0.8886185,6.4141502,1.3840256,8.4366188
						c2.205719,2.1980858,5.5567398,2.8446198,8.5625992,2.2142525c3.0229263-0.607235,5.8520508-2.3153076,7.6852112-4.7469444
						c3.7181854-4.9254761,2.7579346-12.678957-2.070755-16.4912453c-2.4500504-1.8594341-5.3517075-3.1298218-8.4141617-3.1507072
						c-3.0559387-0.0669212-6.0824585,0.9643002-8.8168106,2.446907
						c-5.5500107,2.9198494-10.2873001,7.2524643-15.0717468,11.4332733
						c-4.7226944,4.2003441-9.9338226,8.4498672-16.3392105,10.0173607
						c-3.155426,0.7909317-6.5547256,0.8030586-9.6699524-0.2229958c-3.0626755-1.0298767-6.0047607-3.0377502-7.3643036-6.106041
						c-1.3296738-3.0188828-0.8302307-6.7557182,1.3332901-9.2163239c1.0655594-1.2279434,2.572197-2.0772648,4.175621-2.2742119
						C71.2782516,27.4451237,72.877182,27.8430614,74.3382263,28.4628716z"/>
				</g>
				<g>
					<path class="st0" d="M205.1963196,28.3818035c1.4601593-0.6216087,3.0586395-1.0215664,4.6672211-0.8104706
						c1.603653,0.1951504,3.1114197,1.04245,4.1785736,2.2692719c2.1666412,2.4576855,2.6703644,6.1940708,1.3444824,9.214529
						c-1.3557129,3.0698586-4.2953339,5.0815506-7.3566589,6.1152458c-3.1138763,1.0298729-6.5134125,1.0217896-9.6697235,0.2348976
						c-6.407196-1.5596313-11.6234894-5.8026466-16.3515625-9.9971504
						c-4.7898407-4.1747437-9.5323029-8.5015202-15.0858917-11.4146328
						c-2.7361603-1.4790134-5.7637939-2.5066414-8.8197327-2.4359035c-3.0626831,0.024704-5.9625397,1.2986851-8.4103546,3.1612625
						c-4.8239746,3.8179035-5.7747955,11.572731-2.0503082,16.4934921c1.8360748,2.429615,4.66745,4.1340942,7.69104,4.7375145
						c3.0067902,0.62677,6.3568878-0.0240288,8.559906-2.2248077c2.2701721-2.0253906,3.0476379-5.7703094,1.3734741-8.4381943
						c-1.6204987-2.643177-5.9665833-3.3521442-8.1747742-0.8942337c2.1257782-2.5302219,6.5969543-2.0292091,8.4321442,0.7249107
						c1.858963,2.7669182,1.1836853,6.7581863-1.1971893,9.044529c-2.3155365,2.4208565-5.9427795,3.1812477-9.141098,2.5686226
						c-3.2261658-0.5894966-6.2549286-2.3180046-8.3142242-4.932888
						c-4.1816864-5.2957954-3.1679993-13.7142239,2.0965729-17.9657688c2.5935516-2.0125904,5.7615509-3.4309692,9.114151-3.4765568
						c3.3415833-0.0914001,6.5715637,1.0015774,9.4190979,2.5225868
						c5.7514496,3.0671673,10.4959259,7.4745636,15.2626343,11.6724358c2.385376,2.1089325,4.7685089,4.190464,7.378891,5.9394112
						c2.6218567,1.7233429,5.4397736,3.1810226,8.4541473,3.9816132c2.9997864,0.8050804,6.220108,0.8675117,9.1907196-0.0545692
						c2.9187164-0.9162445,5.7388611-2.8104858,7.0413666-5.6137848c1.3249512-2.7570381,0.9869843-6.339817-1.019989-8.7642651
						c-0.9862823-1.2086334-2.4085083-2.0747967-3.9688263-2.316433
						C208.276062,27.4655609,206.6773529,27.8057823,205.1963196,28.3818035z"/>
				</g>
			</g>
			<g>
				<g>
					<path class="st0" d="M205.2767181,158.5500183c1.3999634,0.5250549,2.8823547,0.8814392,4.3694458,0.7076263
						c1.4734039-0.2032318,2.8434906-0.9169159,3.8506927-1.9795837c2.0184174-2.1259918,2.7094269-5.3979645,1.7862244-8.1386108
						c-0.8567047-2.7768097-3.2418823-4.8731537-5.8855133-6.0308075c-2.668335-1.187973-5.6820526-1.4830627-8.5614777-1.0662537
						c-5.8136597,0.9122009-10.9848175,4.2618713-15.4288177,8.1343384
						c-4.516983,3.8899994-8.8558807,8.0912323-13.8597412,11.5359039
						c-2.5351562,1.6499176-5.1700134,3.2560272-8.1484985,4.1296082c-2.9443207,0.8982697-6.1880035,1.0750122-9.1841736,0.1383362
						l-2.1707153-0.8742523c-0.6793213-0.3691864-1.3045197-0.8342743-1.9577942-1.2488251
						c-1.335968-0.7756653-2.4594879-1.9580231-3.3523712-3.2279663c-1.7936401-2.5735626-2.5836639-5.7806396-2.2782593-8.8720551
						c0.2838593-3.090744,1.718399-6.0883026,4.0516815-8.1424408c2.3076782-2.0590668,5.3036499-3.2766876,8.3676758-3.4646454
						c3.0736847-0.1985168,6.2374115,1.1035309,8.1118927,3.5376434c1.8477478,2.4082794,2.1372223,6.0665131,0.2225494,8.4599609
						c1.8286591-2.4563293,1.3826752-6.029007-0.4637451-8.268631c-1.8975983-2.2829742-4.9239044-3.3986359-7.8345337-3.1143341
						c-2.9016724,0.2441101-5.7431488,1.4583588-7.869812,3.438385c-2.1399231,1.9595947-3.411438,4.7628937-3.6213989,7.6376038
						c-0.2200775,2.8740387,0.5625458,5.817688,2.2054901,8.1651154c0.8351746,1.1623688,1.8286591,2.2129059,3.0983734,2.9346619
						c0.6133118,0.3811035,1.1994324,0.8174438,1.8318176,1.1569824l2.0040588,0.7909393
						c2.7503052,0.8349457,5.7121429,0.6649475,8.4824219-0.1947021c2.7963715-0.8329315,5.3400421-2.4040222,7.7988434-4.020462
						c4.9077606-3.3305969,9.2462006-7.47052,13.8267365-11.3679199c4.5495453-3.885498,9.8749847-7.4013672,16.0394135-8.2181244
						c3.0426941-0.3815308,6.2221375-0.0089722,9.0182495,1.3009338c2.7619781,1.277359,5.2800751,3.5407867,6.1439972,6.5762939
						c0.8841248,2.9811554,0.0240326,6.3822479-2.1558685,8.5291443c-1.0884857,1.0732117-2.5382996,1.7606201-4.0505524,1.9160156
						C208.1363831,159.5356598,206.6560211,159.1208801,205.2767181,158.5500183z"/>
				</g>
				<g>
					<path class="st0" d="M74.4188461,158.6310883c-1.3784027,0.5724335-2.8583145,0.9892273-4.3851624,0.8650513
						c-1.5122299-0.1531677-2.9631882-0.8389893-4.052803-1.9108734c-2.1825867-2.1439514-3.0469551-5.5441589-2.1663971-8.5264435
						c0.8600998-3.0366211,3.3752747-5.3031921,6.1356583-6.5839233c2.7945404-1.3132782,5.9735489-1.6898804,9.0166855-1.3119354
						c6.1653214,0.8091278,11.4952545,4.3182526,16.0497437,8.1981354
						c4.5852737,3.8917847,8.9286499,8.0263214,13.8406525,11.3508453c2.4608307,1.6133118,5.0063248,3.1814728,7.8037796,4.0105896
						c2.7714157,0.8565063,5.7334824,1.0226898,8.4828796,0.1841431l2.0029373-0.7931671
						c0.6319351-0.3404541,1.2176208-0.7772369,1.8304596-1.1592407c1.2688141-0.7233276,2.2607422-1.7749939,3.0947876-2.9387054
						c1.6398163-2.3492279,2.418869-5.2939911,2.1953888-8.1675873c-0.2137909-2.8744812-1.4888916-5.6762085-3.6308289-7.6331024
						c-2.129364-1.9775696-4.9724121-3.1882172-7.8742981-3.4287262c-2.9110718-0.2807159-5.9358139,0.8385315-7.8305054,3.1239777
						c-1.8437119,2.2420959-2.2852173,5.8152161-0.4536285,8.2693176c-1.9176025-2.3912201-1.632843-6.0496674,0.2119904-8.4602051
						c1.8715591-2.4363403,5.0337219-3.7424469,8.1076279-3.5477448c3.0640182,0.1841431,6.0615768,1.3981781,8.3719406,3.4543304
						c2.3357391,2.0512085,3.7741089,5.0469666,4.0617828,8.1372681c0.3092346,3.0909729-0.4769897,6.2991638-2.2672577,8.8747559
						c-0.8913116,1.271286-2.0134735,2.4549866-3.3485413,3.2322235c-0.6526031,0.4152222-1.2771301,0.8814392-1.9560013,1.251297
						l-2.1697922,0.8769379c-2.9948502,0.940506-6.2389832,0.767807-9.184433-0.1271057
						c-2.9793625-0.869751-5.6162491-2.4725037-8.1536636-4.1192627
						c-5.0078888-3.4386139-9.3521881-7.6344604-13.8738861-11.5188446
						c-4.4489441-3.8668518-9.6241455-7.2102356-15.4389114-8.1152496c-2.8798599-0.413208-5.8931503-0.1143036-8.5601349,1.0768127
						c-2.6420593,1.1612396-5.0245132,3.2605133-5.8781052,6.0384369c-0.9196091,2.7415466-0.2245636,6.012619,1.7965546,8.1361389
						c1.008316,1.0615387,2.3793182,1.7734222,3.8529358,1.9750977
						C71.5376282,159.5161133,73.019783,159.1577148,74.4188461,158.6310883z"/>
				</g>
			</g>
			<g>
				<g>
					<g>
						<path class="st0" d="M252.2364044,44.9460335c-1.2905731,1.1111679-3.256485,1.2935181-4.8356476,0.5793877
							c-1.5962372-0.7334404-2.7098846-2.318676-3.0669556-4.0422478c-0.7105255-3.5879402,1.9809265-7.1738625,5.4525452-8.0723648
							c3.5895233-0.9301682,7.3721619,1.1228447,9.1303101,4.2232475c1.798584,3.1882133,1.3959656,7.222374-0.4935913,10.2255402
							c-1.9546509,3.0363998-5.3276825,4.8758469-8.7822418,5.3654099
							c-3.4906921,0.4855194-7.0561829-0.3552704-10.0501404-2.0543594
							c-6.0844879-3.3806686-9.954483-9.8875618-10.6733246-16.5667038
							c1.1821289,6.6048088,5.2926483,12.6650352,11.1314392,15.7142372
							c2.907959,1.4812584,6.2266388,2.2751122,9.4244995,1.7740974c3.1693573-0.4810257,6.205307-2.2205429,7.8886719-4.9061661
							c1.7080688-2.633522,2.0864868-6.2378616,0.5582886-8.9922028c-1.4942932-2.7383995-4.8304901-4.522377-7.9055176-3.8473206
							c-3.0395508,0.6595612-5.6104126,3.8109398-5.0788574,7.0281219c0.226593,1.573555,1.154953,3.103096,2.5991669,3.8758392
							C248.9669037,46.0066757,250.8807068,45.9754601,252.2364044,44.9460335z"/>
					</g>
					<g>
						<path class="st0" d="M27.3185863,45.0854912c1.3568478,1.0274048,3.2708721,1.0565987,4.701582,0.2986755
							c1.443531-0.7745361,2.3698807-2.3054276,2.5944481-3.8792076c0.5277405-3.2178535-2.0471725-6.3658676-5.087616-7.0218315
							c-3.0757008-0.6712379-6.4096565,1.1170044-7.9005718,3.8572006c-1.524826,2.7561378-1.1419353,6.3600273,0.5695076,8.9913063
							c1.6865158,2.6836014,4.7244892,4.4195213,7.8947334,4.8967323c3.1983166,0.4969711,6.5161037-0.3011475,9.4222546-1.7859993
							c5.8347588-3.0563889,9.9381065-9.1217804,11.1119118-15.7279358
							c-0.710537,6.6798134-4.5724564,13.1918755-10.652668,16.5799522
							c-2.9921608,1.7026825-6.5563011,2.5479622-10.0476799,2.0667114
							c-3.4552231-0.4850693-6.8304996-2.3204765-8.788744-5.3546333c-1.893343-3.0006943-2.3011608-7.0344048-0.506403-10.2248611
							c1.7541103-3.1024246,5.5342846-5.1601562,9.1251488-4.2347031c3.4727402,0.8942337,6.1684875,4.4767876,5.4621964,8.0658531
							c-0.3548164,1.7240181-1.4664345,3.3106003-3.0617752,4.0458412
							C30.5766373,46.3749695,28.6105328,46.1948624,27.3185863,45.0854912z"/>
					</g>
				</g>
			</g>
			<g>
				<g>
					<g>
						<path class="st0" d="M24.7805042,62.4545784c-0.8100224,2.741993-3.022253,4.9964409-5.7334785,5.9346962
							c-2.6757431,0.9824905-5.9400826,0.6009445-8.1235695-1.3707733
							c-2.1940413-1.9436493-3.1495838-4.9721909-3.0840096-7.8379173c0.0631037-2.8693237,0.9694657-5.8363342,3.0415664-7.975132
							c2.0983753-2.168438,5.4215517-2.7597313,8.2288923-1.9485855c2.8457413,0.7763367,5.2841148,2.6299286,7.0627041,4.9223328
							c3.5234909,4.7155075,4.6218605,10.6034927,5.3562012,16.2080612
							c2.7738819,22.6395035,1.0265064,45.8464966-5.2558193,67.8084793
							c-0.8026104,2.7386169-1.6510334,5.4671326-2.6207237,8.1520844c-0.9425163,2.6885529-1.8800926,5.3995514-3.228632,7.9812012
							c-1.3561745,2.534256-3.1244316,5.0840149-5.9155846,6.4368286c-2.7278624,1.3557129-6.3229923,0.933075-8.5289364-1.2710724
							c-1.1015124-1.0759125-1.8183374-2.5120239-2.0857997-4.0058594
							c-0.2697077-1.5070801-0.0700655-3.0195618,0.3056388-4.4449005c0.7329941-2.928833,2.9317522-5.2888336,5.4287376-6.7606659
							c5.1307344-2.9971008,11.0324154-3.3263092,16.5983849-4.2380676
							c11.2899761-1.5511017,22.6983204-2.271286,34.0891495-2.0372925
							c11.3890305,0.2793579,22.7477493,1.4352264,33.9445496,3.4520874
							c-11.2316132-1.8145294-22.5934677-2.7626648-33.9537544-2.836319
							c-11.3598404-0.1455231-22.7255135,0.6308136-33.962738,2.2499542
							c-5.5576401,0.9333191-11.4242678,1.3444977-16.2280502,4.2165222
							c-2.348321,1.4138794-4.3076878,3.558075-4.9566932,6.2198944c-0.3359556,1.3103638-0.505281,2.688324-0.2596021,3.9959869
							c0.2438822,1.3036194,0.8670621,2.5237122,1.8109264,3.4363556c1.8951406,1.8639221,4.9587145,2.217392,7.3243465,1.0287476
							c2.4008512-1.1625824,4.0999422-3.5454865,5.3653898-5.9760132c1.2753296-2.4738464,2.1924706-5.1635132,3.1116333-7.84375
							c0.9483547-2.6696777,1.7657871-5.3853912,2.5558224-8.1049347
							c6.3696823-21.754921,8.2549438-44.8184128,5.6342182-67.3570862
							c-0.6878548-5.5663986-1.7590504-11.3391762-5.1067047-15.8667183
							c-1.677309-2.1942635-4.0016003-3.9739761-6.6631966-4.713932c-2.6263371-0.7761116-5.6663313-0.2290611-7.6203089,1.7316551
							c-1.9609385,1.9454422-2.906805,4.7810783-3.0128212,7.5500183c-0.1136322,2.76894,0.7595129,5.7002449,2.8291235,7.5998726
							c2.0554829,1.9283752,5.2162952,2.3736954,7.8698254,1.4543152
							C21.6801014,67.3699493,23.9204044,65.1824188,24.7805042,62.4545784z"/>
					</g>
					<g>
						<path class="st0" d="M255.3902588,62.3117523c0.8616638,2.7195358,3.0952454,4.9003296,5.7702942,5.7756958
							c2.645874,0.9196167,5.7972717,0.4839478,7.856781-1.4289322c2.0765991-1.8832397,2.9562378-4.8064575,2.8506775-7.5679855
							c-0.0965576-2.7597313-1.0159302-5.5996361-2.96521-7.549572c-1.9308472-1.969471-4.948822-2.5713158-7.5785217-1.8077812
							c-2.6564331,0.720417-4.9960022,2.4662209-6.684082,4.6463394c-3.3660736,4.4952011-4.4550171,10.25383-5.1394958,15.8049622
							c-2.6090546,22.4807358-0.7386169,45.4874039,5.6027832,67.1906738
							c0.7668915,2.7193146,1.6146545,5.4177399,2.5391846,8.0876465c0.9247742,2.6701355,1.8262024,5.3602448,3.0669556,7.8480225
							c1.2346802,2.4624023,2.8774109,4.8118439,5.208252,6.1601562c1.1445923,0.6672058,2.4536133,1.0532379,3.7372437,0.9348907
							c1.2778015-0.1351929,2.473175-0.7671356,3.3479004-1.7345734c1.7129822-1.9887848,2.1967163-4.9782562,1.7278137-7.5877533
							c-0.4356689-2.6925812-2.4280396-4.8352051-4.7615356-6.2389832
							c-4.8228455-2.8093567-10.6663818-3.2153778-16.2143555-4.1358948
							c-11.2122955-1.5890503-22.550354-2.3478699-33.8816681-2.1830292
							c-11.331543,0.0922852-22.6630859,1.0543518-33.8643799,2.8776245
							c11.1662598-2.0256195,22.4942169-3.1951752,33.8542938-3.4931793
							c11.3620605-0.25354,22.7423401,0.4489136,34.0074005,1.9701538
							c5.5562897,0.8984985,11.4316864,1.2232208,16.5792694,4.1534119c2.48172,1.4574432,4.7478638,3.8390045,5.2574158,6.8556519
							c0.5205688,2.8994141,0.0700378,6.0907593-1.9196472,8.4777069c-1.0161743,1.1484528-2.4751892,1.9423065-4.026062,2.1087036
							c-1.5558167,0.1542816-3.095459-0.303833-4.3921204-1.049408c-2.6355591-1.511795-4.384491-4.0415802-5.69104-6.5953827
							c-1.309021-2.5892792-2.2283936-5.2921906-3.1772156-7.9728699c-0.9456482-2.6849518-1.8243866-5.3964081-2.6040955-8.1348114
							c-6.2533569-21.909874-7.9863586-45.0589218-5.2239075-67.6413879
							c0.7313995-5.5906525,1.8470612-11.4653854,5.392334-16.1501236c1.7895966-2.2769089,4.2443542-4.096817,7.0862732-4.8520432
							c2.811615-0.7976723,6.1145935-0.1464195,8.1851196,2.0301056c2.0572815,2.1432877,2.9364624,5.1123199,2.9898987,7.9726601
							c0.0570374,2.8578682-0.9054565,5.8785515-3.1064758,7.8051262c-2.1875,1.9555511-5.4415283,2.3272171-8.1096191,1.3444977
							C258.4073486,67.2931519,256.2020569,65.045433,255.3902588,62.3117523z"/>
					</g>
				</g>
			</g>
			<g>
				<g>
					<g>
						<g>
							<path class="st0" d="M78.889122,150.4075928c6.1963196,1.9892273,11.9765091,5.231781,17.1997681,9.1345825
								c5.2852325,3.8286743,9.9587479,8.4397583,15.1858215,12.1460571c2.594223,1.8050842,5.4749985,3.420639,8.5628281,3.4026642
								c3.0858307-0.0428925,5.8947144-1.8192291,8.1833038-3.9971008c2.3265381-2.1828156,4.3000488-4.7680664,6.0988464-7.4489746
								c1.8713684-2.6420593,3.4891357-5.4570312,5.1635437-8.2421417
								c-2.8789673,5.8008575-5.9663696,11.6315765-10.5900269,16.3872681
								c-2.2557983,2.3575287-5.3312759,4.3344116-8.835907,4.4458008c-3.5156326,0.0480652-6.6092987-1.691452-9.30233-3.5174255
								c-5.3110657-3.9021149-9.932251-8.4514465-15.0490646-12.4090271
								C90.4506454,156.2859192,84.9012909,152.8852692,78.889122,150.4075928z"/>
						</g>
					</g>
				</g>
			</g>
			<g>
				<g>
					<g>
						<g>
							<path class="st0" d="M199.671463,150.3328094c-6.0092468,2.4850769-11.5545349,5.8927002-16.6046448,9.9221497
								c-5.1118774,3.9638672-9.7274475,8.5190277-15.0337982,12.4276581
								c-2.6907654,1.8293457-5.7822113,3.5728912-9.2978363,3.5291138
								c-3.5048523-0.107132-6.5825806-2.0801849-8.8412933-4.4347992
								c-4.629715-4.7500916-7.7245026-10.5769958-10.6106567-16.3742523
								c1.6779633,2.7830963,3.2991333,5.5958252,5.1738281,8.2356415c1.8021698,2.6786499,3.7788391,5.2614288,6.1080627,7.4415436
								c2.2915039,2.1749573,5.1026917,3.947937,8.1884766,3.9867859c3.0876312,0.0141449,5.9663544-1.6047821,8.5583344-3.4132385
								c5.22258-3.7125702,9.8902588-8.3294983,15.1710052-12.1646881
								C187.7012482,155.579422,193.4774017,152.3296814,199.671463,150.3328094z"/>
						</g>
					</g>
				</g>
			</g>
		</g>
	</g>
	<g>
		<text transform="matrix(1 -0.00062 0.00062 1 43.1281166 100.6014557)" class="st0 st1 st2 st3">LUXO</text>
	</g>
	<g>
		<text transform="matrix(1 -0.00062 0.00062 1 44.3954391 128.5381775)" class="st0 st1 st4 st5">LUXURY BRAND</text>
	</g>
</g>
</svg>
