<?xml version="1.0" encoding="utf-8"?>
<!-- Generator: Adobe Illustrator 27.2.0, SVG Export Plug-In . SVG Version: 6.00 Build 0)  -->
<svg version="1.1" id="Object" xmlns="http://www.w3.org/2000/svg" xmlns:xlink="http://www.w3.org/1999/xlink" x="0px" y="0px"
	 viewBox="0 0 500 396.7207642" style="enable-background:new 0 0 500 396.7207642;" xml:space="preserve">
<style type="text/css">
	.st0{fill:#868686;}
</style>
<g>
	<g>
		<path class="st0" d="M38.0272789,331.5349426c1.9625702,2.4255676,2.9479485,5.2718201,2.9479485,8.5396118
			c0,4.5444641-1.5191345,8.1307678-4.5574112,10.7601929c-3.0382729,2.6307678-7.4435577,3.9449463-13.2129498,3.9449463H0
			v-54.0735474h22.7455864c5.4627647,0,9.6641617,1.2006226,12.5991707,3.6005554
			c2.9352722,2.3999329,4.4052849,5.7696533,4.4052849,10.1089172c0,3.3710327-0.8821144,6.1282959-2.6436996,8.2728577
			c-1.7615852,2.1445312-4.0725136,3.5487671-6.9301376,4.2117004
			C33.4413452,327.5643921,36.0591621,329.1091309,38.0272789,331.5349426z M10.7990236,323.3769836h9.7259607
			c2.7055016,0,4.7610359-0.5995178,6.166872-1.7988281c1.4029293-1.1992798,2.1043949-2.923645,2.1043949-5.1701355
			c0-2.2462158-0.6885242-3.98349-2.0684776-5.2084045c-1.3770466-1.2251892-3.4972878-1.837677-6.3549137-1.837677h-9.5738363
			V323.3769836z M27.6487122,344.0953064c1.5320778-1.250824,2.2979851-3.075531,2.2979851-5.4767761
			c0-2.3985901-0.7788486-4.2505188-2.3368092-5.5528259c-1.5576973-1.301239-3.7656212-1.9525146-6.6258869-1.9525146H10.7990236
			v14.8585815h10.2623606C23.9192734,345.9717712,26.1166344,345.3476868,27.6487122,344.0953064z"/>
		<path class="st0" d="M84.4005661,354.7796936l-12.6379929-21.0626831h-4.7483597v21.0626831H56.2154541v-54.0735474h20.6023712
			c6.2801666,0,11.0670853,1.532074,14.3607483,4.5962219c3.2934036,3.0625916,4.9390488,7.0978699,4.9390488,12.1013489
			c0,4.0854492-1.1375046,7.5053406-3.4072342,10.2623596c-2.2721024,2.7572632-5.5528259,4.5962219-9.8419037,5.5142517
			l13.4786453,21.5993652H84.4005661z M67.0142136,326.2876892h8.8826752c6.1798096,0,9.2695847-2.7313538,9.2695847-8.1954651
			c0-2.6035461-0.7556076-4.6334534-2.2594299-6.0878906c-1.5088348-1.4560242-3.8430023-2.1833801-7.0101547-2.1833801h-8.8826752
			V326.2876892z"/>
		<path class="st0" d="M143.9894409,343.9032898h-21.6754303l-3.8300629,10.8764038h-11.4128036l19.9138489-53.4608154h12.3308334
			l19.8388367,53.4608154h-11.4125366L143.9894409,343.9032898z M141.0774078,335.7080994l-7.9643707-22.8229675
			l-7.9643784,22.8229675H141.0774078z"/>
		<path class="st0" d="M218.4342804,354.7796936h-10.7990265l-24.2029266-36.7635193v36.7635193h-10.7987518v-54.0735474h10.7987518
			l24.2029266,37.0704346v-37.0704346h10.7990265V354.7796936z"/>
		<path class="st0" d="M280.0889893,341.8361511c-2.2464905,4.0851746-5.5013123,7.2642212-9.7647705,9.5350037
			c-4.2632141,2.2723694-9.3313904,3.4085388-15.2040558,3.4085388h-19.2224121v-54.0735474h19.2224121
			c5.8726654,0,10.9408417,1.1102905,15.2040558,3.3322144c4.2634583,2.2208862,7.51828,5.3608398,9.7647705,9.4204102
			c2.2464905,4.0598145,3.3707886,8.7962952,3.3707886,14.2073059
			C283.4597778,333.0281982,282.3354797,337.7507019,280.0889893,341.8361511z M267.7193298,340.5335693
			c3.1903992-3.0639038,4.7869263-7.353241,4.7869263-12.8674927c0-5.5644531-1.5965271-9.879425-4.7869263-12.9432983
			c-3.1903992-3.0641479-7.6963196-4.5962524-13.5174713-4.5962524h-7.5053558v35.0030212h7.5053558
			C260.0230103,345.1295471,264.5289307,343.5977173,267.7193298,340.5335693z"/>
	</g>
	<path class="st0" d="M150.7497559,0c0,0,139.4338989,52.640255,136.4745789,128.8128662h0.0464783v128.8125916
		c0,0-139.433609-52.6399841-136.4745636-128.8125916h-0.0464935V0z"/>
	<g>
		<path class="st0" d="M411.434906,227.4854431c25.8527832-17.7788086,56.1575928-29.3059692,88.5649719-32.643219v-40.335022
			c-18.7485962,7.2032166-36.3610229,17.5622406-52.1358032,30.9333954
			C433.413269,197.6892853,421.2118225,211.881012,411.434906,227.4854431z"/>
		<path class="st0" d="M395.5927734,239.620575c11.2731018-22.8002472,27.1619568-43.2835083,47.149231-60.2243042
			c17.2590637-14.6280365,36.6243591-25.8115997,57.2578735-33.3552551V29.856636
			c0,0-198.5566101,74.9606323-194.3425293,183.4323425h-0.0662842v183.4317932c0,0,8.8604736-3.3491211,22.7698669-9.6340637
			c-0.0520325-5.8850708,0.1376038-11.8002319,0.6272583-17.737854
			C333.304718,316.9985657,358.4581604,271.2728882,395.5927734,239.620575z"/>
		<path class="st0" d="M376.7232056,307.7712402c1.0619507-12.8709412,3.4117126-25.4307556,6.9372559-37.5531921
			c-23.1633911,27.3388977-38.3494873,61.8609619-41.5134583,100.2165222
			c-0.288147,3.4972839-0.4429016,6.98349-0.5287476,10.4630737c11.2794189-5.4313354,24.4015198-12.1818542,38.188385-20.130127
			C376.3413086,343.5525513,375.2402344,325.7565918,376.7232056,307.7712402z"/>
		<path class="st0" d="M384.6207581,308.4225159c-1.3442993,16.296936-0.4592896,32.4282532,2.4443054,48.0836487
			c54.2544556-32.453064,115.2238159-82.5985718,112.8688049-143.2171936h0.0660095v-5.1638031
			c-39.483551,4.3656769-75.5168457,21.8077545-103.2175598,48.2032623
			C390.2485962,272.7772217,386.1166687,290.2837524,384.6207581,308.4225159z"/>
	</g>
</g>
</svg>
