<?xml version="1.0" encoding="utf-8"?>
<!-- Generator: Adobe Illustrator 27.2.0, SVG Export Plug-In . SVG Version: 6.00 Build 0)  -->
<svg version="1.1" id="Object" xmlns="http://www.w3.org/2000/svg" xmlns:xlink="http://www.w3.org/1999/xlink" x="0px" y="0px"
	 viewBox="0 0 502.9602356 497.127655" style="enable-background:new 0 0 502.9602356 497.127655;" xml:space="preserve">
<style type="text/css">
	.st0{fill:#868686;}
</style>
<g>
	<path class="st0" d="M27.9879742,474.8207703c1.304348-0.4735107,2.4190559-1.0320435,3.3441257-1.6726379
		c0.9296951-0.640625,1.6882515-1.3563843,2.2802963-2.1461792c0.5920448-0.7874451,1.0222015-1.631012,1.2997208-2.52948
		c0.277523-0.8955688,0.4162827-1.8269958,0.4162827-2.794281c0-1.7755432-0.3006477-3.3840332-0.9019432-4.8225098
		c-0.6012955-1.4407959-1.5633659-2.6630249-2.8862152-3.6690369s-3.0296021-1.7859802-5.1156349-2.3363953
		c-2.0952816-0.5533142-4.6299725-0.8285217-7.6040707-0.8285217H2.960222v43.1059265h17.2201672
		c2.5809422,0,4.8797398-0.3295593,6.8917656-0.990387c2.0120258-0.661438,3.7049026-1.5778198,5.0740051-2.750946
		c1.3691025-1.1736755,2.4144325-2.550293,3.1221085-4.127533c0.7123032-1.5801392,1.0638313-3.2857361,1.0638313-5.1202698
		c0-2.4242554-0.6799278-4.4108276-2.0397797-5.9597473C32.927845,476.6292725,30.8279362,475.5099487,27.9879742,474.8207703z
		 M12.9602222,461.5072937h5.8603134c1.1239605,0,2.0906582,0.0872803,2.9093437,0.264801
		c0.8186874,0.1774902,1.4986134,0.4735107,2.0305271,0.8874817c0.5319157,0.4145508,0.9250698,0.9626465,1.1840897,1.6419983
		c0.2543945,0.6816711,0.3839035,1.5338745,0.3839035,2.5601196c0,1.0447693-0.1618881,1.9120178-0.4902859,2.6040649
		c-0.3237743,0.6897583-0.8001862,1.232666-1.4199829,1.6264038s-1.3737278,0.671814-2.261795,0.8285217
		c-0.8880653,0.1566772-1.882515,0.23703-2.9879723,0.23703h-5.2081413V461.5072937z M26.1840897,485.973053
		c-0.1757641,0.6712646-0.5041637,1.2737122-0.9759483,1.8062134c-0.4717865,0.5324707-1.1285858,0.9649658-1.9657726,1.3020325
		c-0.8371887,0.3347473-1.9195194,0.5018311-3.2377434,0.5018311h-7.0444031v-10.7406311h6.9842739
		c1.2580948,0,2.3080482,0.1185303,3.1313591,0.3555908c0.8325634,0.2364502,1.4986134,0.5735474,2.0027752,1.006012
		c0.4995384,0.4347839,0.85569,0.9672546,1.0592041,1.5974731c0.2127666,0.6330872,0.3145237,1.3436584,0.3145237,2.1305542
		C26.4523582,484.6218872,26.3644772,485.3035278,26.1840897,485.973053z"/>
	<path class="st0" d="M78.1822357,480.322052c-0.5827942-0.4914551-1.2072144-0.905426-1.8778915-1.2430725
		c1.3968582-0.5325012,2.6364517-1.211853,3.7141571-2.0403442c1.073082-0.8285217,1.9796448-1.7703552,2.7197037-2.825531
		c0.7400589-1.0545654,1.2950974-2.2051392,1.669754-3.4476013c0.3792725-1.2401733,0.5642853-2.5630188,0.5642853-3.9627686
		c0-1.8345337-0.3145218-3.530304-0.9481888-5.09021c-0.6290512-1.556427-1.6419983-2.9075928-3.0296097-4.0523682
		c-1.3922272-1.1424561-3.1868591-2.0351562-5.3839035-2.6786499c-2.2016602-0.640625-4.8612366-0.9597778-7.9740982-0.9597778
		H53.6123962v43.1059265h10v-15.9458923h2.5439377c0.767807,0,1.3644791,0.1179504,1.7900085,0.355011
		c0.4209137,0.2364807,0.7909393,0.630188,1.1100845,1.1835022l7.1554108,12.5133057
		c0.7308044,1.2638855,1.9333954,1.8940735,3.6123962,1.8940735h9.0518036l-9.1720581-14.9988403
		C79.2691956,481.4182434,78.7650299,480.8163757,78.1822357,480.322052z M74.7918625,470.1890564
		c-0.2728958,0.8181152-0.7169342,1.5332947-1.3274765,2.1461792c-0.6151733,0.6122742-1.3968582,1.0881042-2.3543015,1.4355774
		c-0.9574509,0.3446045-2.1137848,0.5174561-3.4736404,0.5174561h-4.0240479v-12.7809753h4.0240479
		c2.5809479,0,4.4912186,0.5324707,5.726181,1.5974731c1.2303467,1.0626831,1.8455124,2.5427856,1.8455124,4.4362793
		C75.2081375,468.4880981,75.0740051,469.3709412,74.7918625,470.1890564z"/>
	<path class="st0" d="M117.9879761,454.0217285l-16.6836319,43.1059265h7.8122177
		c0.8279343,0,1.5263596-0.2208557,2.0999069-0.666626c0.5689163-0.4422913,0.9528198-0.9412537,1.1517105-1.4922485
		l2.5439377-7.5162048h16.3922348l2.5439301,7.5162048c0.217392,0.6307678,0.6059265,1.1476746,1.1702271,1.5517883
		c0.5596619,0.4041443,1.2765808,0.6070862,2.1461487,0.6070862h7.747467l-16.6882629-43.1059265H117.9879761z
		 M117.2201691,480.6487122l3.9639206-11.7466431c0.2960205-0.7487488,0.6105423-1.6362305,0.9481964-2.6630554
		c0.3330231-1.0239258,0.6567993-2.1380615,0.9759445-3.3423767c0.3330307,1.1835022,0.6753006,2.2820129,1.0222015,3.2990112
		c0.3422775,1.0158386,0.6429291,1.8987122,0.8973236,2.6474304l3.9685364,11.8056335H117.2201691z"/>
	<path class="st0" d="M189.056427,476.8327942c0,0.6897583,0.0185089,1.4228821,0.0601349,2.2028198
		c0.0370026,0.7793579,0.0971222,1.5824585,0.175766,2.4109497l-20.4717865-25.886322
		c-0.2775269-0.3370667-0.527298-0.6018677-0.7400665-0.8001709c-0.2220154-0.1954346-0.4440308-0.3497925-0.6845398-0.4579163
		c-0.2359009-0.1081238-0.4995422-0.1827087-0.7955627-0.2214355c-0.2960205-0.0410461-0.6614227-0.0589905-1.0915833-0.0589905
		h-5.2682648v43.1059265h8.8159027v-23.1070862c0-0.6307678-0.0184937-1.3049011-0.0601349-2.0252991
		c-0.0370026-0.7203979-0.0878754-1.4564209-0.1480103-2.2051392l20.3237762,25.6805115
		c0.4949188,0.6330872,1.0083313,1.0649719,1.5402527,1.3020325c0.5319061,0.2364502,1.184082,0.3549805,1.9565125,0.3549805
		h5.2035217v-43.1059265h-8.815918V476.8327942z"/>
	<path class="st0" d="M249.7641144,460.1456909c-1.9519043-1.9143066-4.3015747-3.4117737-7.0536652-4.4975586
		c-2.7520752-1.0834961-5.8048096-1.6264038-9.1581879-1.6264038h-16.7483826v43.1059265h16.7483826
		c3.3533783,0,6.4061127-0.5376892,9.1581879-1.613678c2.7520905-1.0724792,5.1017609-2.5728455,7.0536652-4.4952393
		c1.951889-1.9247131,3.4690094-4.2015686,4.5420837-6.8345337c1.077713-2.6347046,1.6142426-5.5087891,1.6142426-8.6251221
		c0-3.09552-0.5365295-5.9620667-1.6142426-8.5944519C253.2331238,464.3322144,251.7160034,462.0577087,249.7641144,460.1456909z
		 M244.8519897,481.3592834c-0.550415,1.7160034-1.3459778,3.1700745-2.3774261,4.3640137
		c-1.036087,1.1915894-2.303421,2.110321-3.8020325,2.7509155c-1.4986115,0.640625-3.205368,0.9620667-5.1202698,0.9620667
		h-6.6836243v-27.7237549h6.6836243c1.9149017,0,3.6216583,0.322052,5.1202698,0.9626465
		c1.4986115,0.640625,2.7659454,1.5570068,3.8020325,2.750946c1.0314484,1.1939087,1.8270111,2.6480103,2.3774261,4.3640137
		c0.5550385,1.7160034,0.8279419,3.6383972,0.8279419,5.7689514
		C245.6799316,477.7104492,245.4070282,479.6427002,244.8519897,481.3592834z"/>
	<path class="st0" d="M324.6160889,476.8327942c0,0.6897583,0.0184937,1.4228821,0.0601501,2.2028198
		c0.0369873,0.7793579,0.0971069,1.5824585,0.1757507,2.4109497l-20.4717712-25.886322
		c-0.2775269-0.3370667-0.5226746-0.6018677-0.7400818-0.8001709c-0.2173767-0.1954346-0.4440308-0.3497925-0.6799011-0.4579163
		c-0.2359009-0.1081238-0.5041809-0.1827087-0.8002014-0.2214355c-0.2960205-0.0410461-0.6614075-0.0589905-1.0915833-0.0589905
		h-5.26828v43.1059265h8.815918v-23.1070862c0-0.6307678-0.0184937-1.3049011-0.0601196-2.0252991
		c-0.0370178-0.7203979-0.0878906-1.4564209-0.1480103-2.2051392l20.3283997,25.6805115
		c0.4902954,0.6330872,1.0036926,1.0649719,1.5402222,1.3020325c0.5319214,0.2364502,1.1841125,0.3549805,1.9519043,0.3549805
		h5.2035217v-43.1059265h-8.815918V476.8327942z"/>
	<path class="st0" d="M365.5643005,454.0217285l-16.6882629,43.1059265h7.8122253
		c0.8279114,0,1.5309753-0.2208557,2.099884-0.666626c0.5735474-0.4422913,0.9574585-0.9412537,1.1517334-1.4922485
		l2.5485535-7.5162048h16.3876038l2.548584,7.5162048c0.212738,0.6307678,0.605896,1.1476746,1.1655579,1.5517883
		c0.5596924,0.4041443,1.2766113,0.6070862,2.1461792,0.6070862h7.7520752l-16.6882629-43.1059265H365.5643005z
		 M364.7964783,480.6487122l3.9639282-11.7466431c0.2960205-0.7487488,0.6105347-1.6362305,0.9482117-2.6630554
		c0.3330078-1.0239258,0.6567993-2.1380615,0.9759216-3.3423767c0.3330383,1.1835022,0.6753235,2.2820129,1.0175781,3.2990112
		c0.3469238,1.0158386,0.6475525,1.8987122,0.901947,2.6474304l3.9639282,11.8056335H364.7964783z"/>
	<path class="st0" d="M447.5023193,454.0500793c-0.3283997,0-0.6151733,0.0485535-0.8742065,0.1491699
		c-0.2543945,0.0976868-0.4856567,0.2520752-0.6937866,0.4578857c-0.2081604,0.2087402-0.4116516,0.4989624-0.6059265,0.8747864
		l-11.0684509,21.7975159c-0.393158,0.7695312-0.7770691,1.5645142-1.1517029,2.3832092
		c-0.3746643,0.8204346-0.7308044,1.6645508-1.0638428,2.5341187c-0.3376465-0.8487549-0.6845398-1.6801453-1.0499573-2.4884338
		c-0.365387-0.8106079-0.7446899-1.5899658-1.1424561-2.3386841l-11.0915833-21.8877258
		c-0.1988831-0.375824-0.4024048-0.6660461-0.6059265-0.8747864c-0.2081299-0.2058105-0.4440308-0.360199-0.6937866-0.4578857
		c-0.2590332-0.1006165-0.550415-0.1491699-0.8742065-0.1491699c-0.3283997,0-0.7076721,0-1.1424561,0h-7.6318054v43.0775757
		h8.8158875v-24.7924194c0-0.5712585-0.0184937-1.1991272-0.055481-1.878479
		c-0.0416565-0.682251-0.1017761-1.3667908-0.1803894-2.0559692l11.4801025,22.1883545
		c0.3561401,0.6897583,0.83255,1.2124329,1.4338379,1.5668335c0.6013184,0.3555908,1.2904968,0.5330811,2.0582886,0.5330811
		h1.3598633c0.7677917,0,1.4523621-0.1774902,2.0582886-0.5330811c0.5966492-0.3544006,1.0776978-0.8770752,1.4292297-1.5668335
		l11.4245911-22.160614c-0.1202698,1.4026489-0.1757507,2.7023621-0.1757507,3.9067078v24.7924194h8.8158875v-43.0775757h-7.6364441
		C448.2099915,454.0500793,447.8260803,454.0500793,447.5023193,454.0500793z"/>
	<polygon class="st0" points="502.9602356,461.7125244 502.9602356,454.0217285 475.2081299,454.0217285 475.2081299,497.127655 
		502.9602356,497.127655 502.9602356,489.4362793 485.26828,489.4362793 485.26828,479.1691589 498.8205261,479.1691589 
		498.8205261,471.7715149 485.26828,471.7715149 485.26828,461.7125244 	"/>
	<path class="st0" d="M444.4310913,333.2510376l-65.5087891-113.4638062l55.6151733-96.333252
		c4.3986816-7.6138992-1.0962219-17.1305542-9.8890076-17.1305542H313.4135132L252.0259094,0l-61.3829803,106.3234253H79.4033279
		c-8.7881546,0-14.2830658,9.516655-9.8889923,17.1305542l55.6197968,96.333252L59.6253471,333.2510376h131.0175781
		l51.493988,89.1928711c2.1970367,3.8066711,6.0453186,5.7105713,9.8889923,5.7105713
		c3.8482819,0,7.6919556-1.9039001,9.8936157-5.7105713l51.493988-89.1928711H444.4310913z M416.4801025,122.4606857
		l-46.8778687,81.1887131l-46.873291-81.1887131H416.4801025z M307.5809326,311.0730896H205.2035217l-34.0286865-58.9390717
		l52.6734467-91.2361298l85.2220306,147.602356L307.5809326,311.0730896z M216.0869598,147.4491272l-52.6780853,91.2366943
		l-10.8788147-18.8488617l52.6734619-91.2355499L216.0869598,147.4491272z M87.5763168,122.4606857h93.7465286
		l-46.8732605,81.1887131L87.5763168,122.4606857z M252.0259094,407.2987976l-42.7520905-74.04776h85.5041656
		L252.0259094,407.2987976z"/>
</g>
</svg>
