<?xml version="1.0" encoding="utf-8"?>
<!-- Generator: Adobe Illustrator 27.2.0, SVG Export Plug-In . SVG Version: 6.00 Build 0)  -->
<svg version="1.1" id="Shape_22_00000145041455102106534430000003338197698968286630_"
	 xmlns="http://www.w3.org/2000/svg" xmlns:xlink="http://www.w3.org/1999/xlink" x="0px" y="0px" viewBox="0 0 106 105"
	 style="enable-background:new 0 0 106 105;" xml:space="preserve">
<style type="text/css">
	.st0{fill:#34C3FF;}
</style>
<g id="Shape_22">
	<g>
		<path class="st0" d="M81.3978882,28.7653198c-1.1942139,0-2.1610107,0.9658203-2.1610107,2.1583252
			c0,1.1901245,0.9667969,2.1575317,2.1610107,2.1575317c1.1928101,0,2.1610718-0.9674072,2.1610718-2.1575317
			C83.55896,29.7311401,82.5906982,28.7653198,81.3978882,28.7653198z M66.9918213,28.7653198
			c-1.1948853,0-2.1623535,0.9658203-2.1623535,2.1583252c0,1.1901245,0.9674683,2.1575317,2.1623535,2.1575317
			c1.1929321,0,2.159729-0.9674072,2.159729-2.1575317C69.1515503,29.7311401,68.1847534,28.7653198,66.9918213,28.7653198z
			 M66.9918213,14.3811646c-1.1948853,0-2.1623535,0.967041-2.1623535,2.157959
			c0,1.1917114,0.9674683,2.1578979,2.1623535,2.1578979c1.1929321,0,2.159729-0.9661865,2.159729-2.1578979
			C69.1515503,15.3482056,68.1847534,14.3811646,66.9918213,14.3811646z M52.5845337,14.3811646c0,0,0,0-0.0007324,0
			c-1.1941528,0-2.1616821,0.967041-2.1616821,2.157959c0,1.1917114,0.9675293,2.1578979,2.1616821,2.1578979
			c0.0007324,0,0.0007324,0,0.0007324,0c1.1928101,0,2.1610718-0.9661865,2.1610718-2.1578979
			C54.7456055,15.3482056,53.7773438,14.3811646,52.5845337,14.3811646z M74.1946411,35.9580078
			c-1.1929321,0-2.1605835,0.9653931-2.1605835,2.1575317c0,1.190918,0.9676514,2.1567383,2.1605835,2.1567383
			c1.192688,0,2.1602783-0.9658203,2.1602783-2.1567383C76.3549194,36.9234009,75.3873291,35.9580078,74.1946411,35.9580078z
			 M88.6019287,35.9580078c-1.1942139,0-2.1618042,0.9653931-2.1618042,2.1575317
			c0,1.190918,0.9675903,2.1567383,2.1618042,2.1567383c1.1914673,0,2.1610718-0.9658203,2.1610718-2.1567383
			C90.7630005,36.9234009,89.793396,35.9580078,88.6019287,35.9580078z M74.1946411,21.5734863
			c-1.1929321,0-2.1605835,0.965332-2.1605835,2.1578979c0,1.1917114,0.9676514,2.1571045,2.1605835,2.1571045
			c1.192688,0,2.1602783-0.9653931,2.1602783-2.1571045C76.3549194,22.5388184,75.3873291,21.5734863,74.1946411,21.5734863z
			 M59.7879028,21.5734863c-1.1948853,0-2.1624756,0.965332-2.1624756,2.1578979
			c0,1.1917114,0.9675903,2.1571045,2.1624756,2.1571045c1.1928101,0,2.1610718-0.9653931,2.1610718-2.1571045
			C61.9489746,22.5388184,60.9807129,21.5734863,59.7879028,21.5734863z M95.8052979,57.5332642
			c-1.1942139,0-2.1618042,0.9653931-2.1618042,2.1575317c0,1.1913452,0.9675903,2.1575317,2.1618042,2.1575317
			c1.1928101,0,2.1596069-0.9661865,2.1596069-2.1575317C97.9649048,58.4986572,96.9981079,57.5332642,95.8052979,57.5332642z
			 M81.3978882,57.5332642c-1.1942139,0-2.1610107,0.9653931-2.1610107,2.1575317
			c0,1.1913452,0.9667969,2.1575317,2.1610107,2.1575317c1.1928101,0,2.1610718-0.9661865,2.1610718-2.1575317
			C83.55896,58.4986572,82.5906982,57.5332642,81.3978882,57.5332642z M66.9918213,57.5332642
			c-1.1948853,0-2.1623535,0.9653931-2.1623535,2.1575317c0,1.1913452,0.9674683,2.1575317,2.1623535,2.1575317
			c1.1929321,0,2.159729-0.9661865,2.159729-2.1575317C69.1515503,58.4986572,68.1847534,57.5332642,66.9918213,57.5332642z
			 M95.8052979,43.1486816c-1.1942139,0-2.1618042,0.967041-2.1618042,2.1575317
			c0,1.1925659,0.9675903,2.1583252,2.1618042,2.1583252c1.1928101,0,2.1596069-0.9657593,2.1596069-2.1583252
			C97.9649048,44.1157227,96.9981079,43.1486816,95.8052979,43.1486816z M81.3978882,43.1486816
			c-1.1942139,0-2.1610107,0.967041-2.1610107,2.1575317c0,1.1925659,0.9667969,2.1583252,2.1610107,2.1583252
			c1.1928101,0,2.1610718-0.9657593,2.1610718-2.1583252C83.55896,44.1157227,82.5906982,43.1486816,81.3978882,43.1486816z
			 M66.9918213,43.1486816c-1.1948853,0-2.1623535,0.967041-2.1623535,2.1575317
			c0,1.1925659,0.9674683,2.1583252,2.1623535,2.1583252c1.1929321,0,2.159729-0.9657593,2.159729-2.1583252
			C69.1515503,44.1157227,68.1847534,43.1486816,66.9918213,43.1486816z M52.5845337,43.1486816c0,0,0,0-0.0007324,0
			c-1.1941528,0-2.1616821,0.967041-2.1616821,2.1575317c0,1.1925659,0.9675293,2.1583252,2.1616821,2.1583252
			c0.0007324,0,0.0007324,0,0.0007324,0c1.1928101,0,2.1610718-0.9657593,2.1610718-2.1583252
			C54.7456055,44.1157227,53.7773438,43.1486816,52.5845337,43.1486816z M74.1946411,64.7251587
			c-1.1929321,0-2.1605835,0.9657593-2.1605835,2.1578979c0,1.1913452,0.9676514,2.1567383,2.1605835,2.1567383
			c1.192688,0,2.1602783-0.9653931,2.1602783-2.1567383C76.3549194,65.690918,75.3873291,64.7251587,74.1946411,64.7251587z
			 M88.6019287,64.7251587c-1.1942139,0-2.1618042,0.9657593-2.1618042,2.1578979
			c0,1.1913452,0.9675903,2.1567383,2.1618042,2.1567383c1.1914673,0,2.1610718-0.9653931,2.1610718-2.1567383
			C90.7630005,65.690918,89.793396,64.7251587,88.6019287,64.7251587z M74.1946411,50.3413696
			c-1.1929321,0-2.1605835,0.9653931-2.1605835,2.1571655c0,1.1925049,0.9676514,2.1578979,2.1605835,2.1578979
			c1.192688,0,2.1602783-0.9653931,2.1602783-2.1578979C76.3549194,51.3067627,75.3873291,50.3413696,74.1946411,50.3413696z
			 M90.7615356,52.4985352c0-1.1917725-0.9681396-2.1571655-2.1610107-2.1571655
			c-1.1928101,0-2.1604004,0.9653931-2.1604004,2.1571655c0,1.1925049,0.9675903,2.1578979,2.1604004,2.1578979
			C89.793396,54.6564331,90.7615356,53.69104,90.7615356,52.4985352z M103.0085449,50.3413696
			c-1.1948853,0-2.1624756,0.9653931-2.1624756,2.1571655c0,1.1925049,0.9675903,2.1578979,2.1624756,2.1578979
			c1.1907349,0,2.1604004-0.9653931,2.1604004-2.1578979C105.1689453,51.3067627,104.1992798,50.3413696,103.0085449,50.3413696z
			 M59.7879028,50.3413696c-1.1948853,0-2.1624756,0.9653931-2.1624756,2.1571655
			c0,1.1925049,0.9675903,2.1578979,2.1624756,2.1578979c1.1928101,0,2.1610718-0.9653931,2.1610718-2.1578979
			C61.9489746,51.3067627,60.9807129,50.3413696,59.7879028,50.3413696z M66.9918213,86.3007812
			c-1.1948853,0-2.1623535,0.9653931-2.1623535,2.1575317c0,1.1913452,0.9674683,2.1575317,2.1623535,2.1575317
			c1.1929321,0,2.159729-0.9661865,2.159729-2.1575317C69.1515503,87.2661743,68.1847534,86.3007812,66.9918213,86.3007812z
			 M81.3978882,71.9161987c-1.1942139,0-2.1610107,0.967041-2.1610107,2.157959
			c0,1.1921387,0.9667969,2.1578979,2.1610107,2.1578979c1.1928101,0,2.1610718-0.9657593,2.1610718-2.1578979
			C83.55896,72.8832397,82.5906982,71.9161987,81.3978882,71.9161987z M66.9918213,71.9161987
			c-1.1948853,0-2.1623535,0.967041-2.1623535,2.157959c0,1.1921387,0.9674683,2.1578979,2.1623535,2.1578979
			c1.1929321,0,2.159729-0.9657593,2.159729-2.1578979C69.1515503,72.8832397,68.1847534,71.9161987,66.9918213,71.9161987z
			 M52.5845337,71.9161987c0,0,0,0-0.0007324,0c-1.1941528,0-2.1616821,0.967041-2.1616821,2.157959
			c0,1.1921387,0.9675293,2.1578979,2.1616821,2.1578979c0.0007324,0,0.0007324,0,0.0007324,0
			c1.1928101,0,2.1610718-0.9657593,2.1610718-2.1578979C54.7456055,72.8832397,53.7773438,71.9161987,52.5845337,71.9161987z
			 M74.1946411,79.1080933c-1.1929321,0-2.1605835,0.9661865-2.1605835,2.1583252
			c0,1.1913452,0.9676514,2.1583252,2.1605835,2.1583252c1.192688,0,2.1602783-0.96698,2.1602783-2.1583252
			C76.3549194,80.0742798,75.3873291,79.1080933,74.1946411,79.1080933z M59.7879028,79.1080933
			c-1.1948853,0-2.1624756,0.9661865-2.1624756,2.1583252c0,1.1913452,0.9675903,2.1583252,2.1624756,2.1583252
			c1.1928101,0,2.1610718-0.96698,2.1610718-2.1583252C61.9489746,80.0742798,60.9807129,79.1080933,59.7879028,79.1080933z
			 M52.5845337,100.6837769c0,0,0,0-0.0007324,0c-1.1941528,0-2.1616821,0.9665527-2.1616821,2.1583252
			c0,1.1912842,0.9675293,2.1571045,2.1616821,2.1571045c0.0007324,0,0.0007324,0,0.0007324,0
			c1.1928101,0,2.1610718-0.9658203,2.1610718-2.1571045C54.7456055,101.6503296,53.7773438,100.6837769,52.5845337,100.6837769z
			 M52.5838013,4.3128662c1.1928101,0,2.1611328-0.9658203,2.1611328-2.1575317
			c0-1.1913452-0.9683228-2.1578979-2.1611328-2.1578979c-1.1941528,0-2.1616821,0.9665527-2.1616821,2.1578979
			C50.4221191,3.3470459,51.3896484,4.3128662,52.5838013,4.3128662z M45.3798828,7.1901245
			c-1.1929321,0-2.1604004,0.965332-2.1604004,2.1571045c0,1.1921387,0.9674683,2.1575317,2.1604004,2.1575317
			c1.1933594,0,2.1616821-0.9653931,2.1616821-2.1575317C47.5415649,8.1554565,46.5732422,7.1901245,45.3798828,7.1901245z
			 M59.7879028,11.5047607c1.1914062,0,2.1604004-0.9653931,2.1604004-2.1575317
			c0-1.1917725-0.9689941-2.1571045-2.1604004-2.1571045c-1.1948853,0-2.1624756,0.965332-2.1624756,2.1571045
			C57.6254272,10.5393677,58.5930176,11.5047607,59.7879028,11.5047607z M52.5838013,33.0811768
			c1.1928101,0,2.1611328-0.9674072,2.1611328-2.1575317c0-1.1925049-0.9683228-2.1583252-2.1611328-2.1583252
			c-1.1941528,0-2.1616821,0.9658203-2.1616821,2.1583252C50.4221191,32.1137695,51.3896484,33.0811768,52.5838013,33.0811768z
			 M45.3798828,35.9580078c-1.1929321,0-2.1604004,0.9653931-2.1604004,2.1575317
			c0,1.190918,0.9674683,2.1567383,2.1604004,2.1567383c1.1933594,0,2.1616821-0.9658203,2.1616821-2.1567383
			C47.5415649,36.9234009,46.5732422,35.9580078,45.3798828,35.9580078z M59.7879028,40.2722778
			c1.1914062,0,2.1604004-0.9658203,2.1604004-2.1567383c0-1.1921387-0.9689941-2.1575317-2.1604004-2.1575317
			c-1.1948853,0-2.1624756,0.9653931-2.1624756,2.1575317C57.6254272,39.3064575,58.5930176,40.2722778,59.7879028,40.2722778z
			 M45.3798828,21.5734863c-1.1929321,0-2.1604004,0.965332-2.1604004,2.1578979
			c0,1.1917114,0.9674683,2.1571045,2.1604004,2.1571045c1.1933594,0,2.1616821-0.9653931,2.1616821-2.1571045
			C47.5415649,22.5388184,46.5732422,21.5734863,45.3798828,21.5734863z M31.8153076,21.743042
			c-0.2593384-0.1091919-0.5421143-0.1695557-0.8408203-0.1695557h-0.0006714c-0.8947754,0-1.6628418,0.5432739-1.991272,1.3173828
			c-0.1094971,0.2581177-0.1697998,0.5424805-0.1697998,0.8405151c0,0.2972412,0.0603027,0.5819702,0.1697998,0.8397217
			c0.3284302,0.7744751,1.0964966,1.3173828,1.991272,1.3173828h0.0006714c0.2987061,0,0.5814819-0.0599976,0.8408203-0.1691284
			c0.7749023-0.3270264,1.319519-1.0934448,1.319519-1.9879761C33.1348267,22.8369141,32.59021,22.0696411,31.8153076,21.743042z
			 M52.5838013,61.8483276c1.1928101,0,2.1611328-0.9661865,2.1611328-2.1575317
			c0-1.1921387-0.9683228-2.1575317-2.1611328-2.1575317c-1.1941528,0-2.1616821,0.9653931-2.1616821,2.1575317
			C50.4221191,60.8821411,51.3896484,61.8483276,52.5838013,61.8483276z M45.3798828,64.7251587
			c-1.1929321,0-2.1604004,0.9657593-2.1604004,2.1578979c0,1.1913452,0.9674683,2.1567383,2.1604004,2.1567383
			c1.1933594,0,2.1616821-0.9653931,2.1616821-2.1567383C47.5415649,65.690918,46.5732422,64.7251587,45.3798828,64.7251587z
			 M59.7879028,69.0397949c1.1914062,0,2.1604004-0.9653931,2.1604004-2.1567383
			c0-1.1921387-0.9689941-2.1578979-2.1604004-2.1578979c-1.1948853,0-2.1624756,0.9657593-2.1624756,2.1578979
			C57.6254272,68.0744019,58.5930176,69.0397949,59.7879028,69.0397949z M45.3798828,50.3413696
			c-1.1929321,0-2.1604004,0.9653931-2.1604004,2.1571655c0,1.1925049,0.9674683,2.1578979,2.1604004,2.1578979
			c1.1933594,0,2.1616821-0.9653931,2.1616821-2.1578979C47.5415649,51.3067627,46.5732422,50.3413696,45.3798828,50.3413696z
			 M31.8153076,50.5109253c-0.2593384-0.1091309-0.5421143-0.1695557-0.8408203-0.1695557h-0.0006714
			c-0.8947754,0-1.6628418,0.5425415-1.991272,1.3173828c-0.1094971,0.258606-0.1697998,0.541748-0.1697998,0.8397827
			c0,0.2991943,0.0603027,0.5819702,0.1697998,0.8400879c0.3284302,0.7741089,1.0964966,1.3178101,1.991272,1.3178101h0.0006714
			c0.2987061,0,0.5814819-0.0604248,0.8408203-0.1695557c0.7749023-0.3278198,1.319519-1.0950928,1.319519-1.9883423
			C33.1348267,51.6052246,32.59021,50.8383789,31.8153076,50.5109253z M52.5838013,90.6158447
			c1.1928101,0,2.1611328-0.9661865,2.1611328-2.1575317c0-1.1921387-0.9683228-2.1575317-2.1611328-2.1575317
			c-1.1941528,0-2.1616821,0.9653931-2.1616821,2.1575317C50.4221191,89.6496582,51.3896484,90.6158447,52.5838013,90.6158447z
			 M45.3798828,93.4926758c-1.1929321,0-2.1604004,0.9658203-2.1604004,2.1575317
			c0,1.190918,0.9674683,2.1567383,2.1604004,2.1567383c1.1933594,0,2.1616821-0.9658203,2.1616821-2.1567383
			C47.5415649,94.4584961,46.5732422,93.4926758,45.3798828,93.4926758z M59.7879028,93.4926758
			c-1.1948853,0-2.1624756,0.9658203-2.1624756,2.1575317c0,1.190918,0.9675903,2.1567383,2.1624756,2.1567383
			c1.1914062,0,2.1604004-0.9658203,2.1604004-2.1567383C61.9483032,94.4584961,60.9793091,93.4926758,59.7879028,93.4926758z
			 M45.3798828,79.1080933c-1.1929321,0-2.1604004,0.9661865-2.1604004,2.1583252
			c0,1.1913452,0.9674683,2.1583252,2.1604004,2.1583252c1.1933594,0,2.1616821-0.96698,2.1616821-2.1583252
			C47.5415649,80.0742798,46.5732422,79.1080933,45.3798828,79.1080933z M31.8153076,79.2780762
			c-0.2593384-0.1091309-0.5421143-0.1699829-0.8408203-0.1699829h-0.0006714c-0.8947754,0-1.6628418,0.5437012-1.991272,1.3182373
			c-0.1094971,0.2577515-0.1697998,0.5429077-0.1697998,0.8400879c0,0.2972412,0.0603027,0.5819702,0.1697998,0.8389282
			c0.3284302,0.7753296,1.0964966,1.319397,1.991272,1.319397h0.0006714c0.2987061,0,0.5814819-0.0612183,0.8408203-0.1703491
			c0.7749023-0.3265991,1.319519-1.0938721,1.319519-1.9879761S32.59021,79.6051025,31.8153076,79.2780762z M38.1785889,28.7653198
			c-0.0007324,0-0.0007324,0-0.0007324,0c-0.8961792,0-1.6641846,0.5437622-1.9919434,1.3182373
			c-0.1088257,0.2581177-0.1691284,0.5404663-0.1691284,0.8400879c0,0.296875,0.0603027,0.5808105,0.1691284,0.8393555
			c0.3277588,0.7744751,1.0957642,1.3181763,1.9919434,1.3181763c0,0,0,0,0.0007324,0
			c0.8939819,0,1.6613159-0.5437012,1.9884033-1.3181763c0.1101685-0.2585449,0.1705322-0.5424805,0.1705322-0.8393555
			c0-0.2996216-0.0603638-0.5819702-0.1705322-0.8400879C39.8399048,29.309082,39.0725708,28.7653198,38.1785889,28.7653198z
			 M23.7697754,28.7653198c-1.1934814,0-2.1602783,0.9658203-2.1602783,2.1583252
			c0,1.1901245,0.9667969,2.1575317,2.1602783,2.1575317s2.1618042-0.9674072,2.1618042-2.1575317
			C25.9315796,29.7311401,24.9632568,28.7653198,23.7697754,28.7653198z M38.1785889,14.3811646
			c-0.0007324,0-0.0007324,0-0.0007324,0c-0.8961792,0-1.6641846,0.5437012-1.9919434,1.3173828
			c-0.1088257,0.2593994-0.1691284,0.5429077-0.1691284,0.8405762c0,0.2988281,0.0603027,0.5807495,0.1691284,0.8400879
			c0.3277588,0.7736816,1.0957642,1.3178101,1.9919434,1.3178101c0,0,0,0,0.0007324,0
			c0.8939819,0,1.6613159-0.5441284,1.9884033-1.3178101c0.1101685-0.2593384,0.1705322-0.5412598,0.1705322-0.8400879
			c0-0.2976685-0.0603638-0.5811768-0.1705322-0.8405762C39.8399048,14.9248657,39.0725708,14.3811646,38.1785889,14.3811646z
			 M16.5664062,35.9580078c-1.1928101,0-2.159729,0.9653931-2.159729,2.1575317c0,1.190918,0.9669189,2.1567383,2.159729,2.1567383
			c1.1929321,0,2.1618042-0.9658203,2.1618042-2.1567383C18.7282104,36.9234009,17.7593384,35.9580078,16.5664062,35.9580078z
			 M30.9744873,35.9580078c-1.1948242,0-2.1617432,0.9653931-2.1617432,2.1575317
			c0,1.190918,0.9669189,2.1567383,2.1617432,2.1567383c1.1914673,0,2.1603394-0.9658203,2.1603394-2.1567383
			C33.1348267,36.9234009,32.1659546,35.9580078,30.9744873,35.9580078z M38.1785889,57.5332642
			c-0.0007324,0-0.0007324,0-0.0007324,0c-0.8961792,0-1.6641846,0.543335-1.9919434,1.3178101
			c-0.1088257,0.256958-0.1691284,0.5424805-0.1691284,0.8397217c0,0.2976074,0.0603027,0.581543,0.1691284,0.8401489
			c0.3277588,0.7744751,1.0957642,1.3173828,1.9919434,1.3173828c0,0,0,0,0.0007324,0
			c0.8939819,0,1.6613159-0.5429077,1.9884033-1.3173828c0.1101685-0.258606,0.1705322-0.5425415,0.1705322-0.8401489
			c0-0.2972412-0.0603638-0.5827637-0.1705322-0.8397217C39.8399048,58.0765991,39.0725708,57.5332642,38.1785889,57.5332642z
			 M23.7697754,57.5332642c-1.1934814,0-2.1602783,0.9653931-2.1602783,2.1575317
			c0,1.1913452,0.9667969,2.1575317,2.1602783,2.1575317s2.1618042-0.9661865,2.1618042-2.1575317
			C25.9315796,58.4986572,24.9632568,57.5332642,23.7697754,57.5332642z M9.3638306,57.5332642
			c-1.1941528,0-2.1618042,0.9653931-2.1618042,2.1575317c0,1.1913452,0.9676514,2.1575317,2.1618042,2.1575317
			c1.1934814,0,2.1602783-0.9661865,2.1602783-2.1575317C11.5241089,58.4986572,10.557312,57.5332642,9.3638306,57.5332642z
			 M38.1785889,43.1486816c-0.0007324,0-0.0007324,0-0.0007324,0c-0.8961792,0-1.6641846,0.5437012-1.9919434,1.3182373
			c-0.1088257,0.2581177-0.1691284,0.5420532-0.1691284,0.8392944c0,0.2980347,0.0603027,0.5827637,0.1691284,0.8401489
			c0.3277588,0.7744751,1.0957642,1.3181763,1.9919434,1.3181763c0,0,0,0,0.0007324,0
			c0.8939819,0,1.6613159-0.5437012,1.9884033-1.3181763c0.1101685-0.2573853,0.1705322-0.5421143,0.1705322-0.8401489
			c0-0.2972412-0.0603638-0.5811768-0.1705322-0.8392944C39.8399048,43.6923828,39.0725708,43.1486816,38.1785889,43.1486816z
			 M23.7697754,43.1486816c-1.1934814,0-2.1602783,0.967041-2.1602783,2.1575317
			c0,1.1925659,0.9667969,2.1583252,2.1602783,2.1583252s2.1618042-0.9657593,2.1618042-2.1583252
			C25.9315796,44.1157227,24.9632568,43.1486816,23.7697754,43.1486816z M9.3638306,43.1486816
			c-1.1941528,0-2.1618042,0.967041-2.1618042,2.1575317c0,1.1925659,0.9676514,2.1583252,2.1618042,2.1583252
			c1.1934814,0,2.1602783-0.9657593,2.1602783-2.1583252C11.5241089,44.1157227,10.557312,43.1486816,9.3638306,43.1486816z
			 M16.5664062,64.7251587c-1.1928101,0-2.159729,0.9657593-2.159729,2.1578979c0,1.1913452,0.9669189,2.1567383,2.159729,2.1567383
			c1.1929321,0,2.1618042-0.9653931,2.1618042-2.1567383C18.7282104,65.690918,17.7593384,64.7251587,16.5664062,64.7251587z
			 M30.9744873,64.7251587c-1.1948242,0-2.1617432,0.9657593-2.1617432,2.1578979
			c0,1.1913452,0.9669189,2.1567383,2.1617432,2.1567383c1.1914673,0,2.1603394-0.9653931,2.1603394-2.1567383
			C33.1348267,65.690918,32.1659546,64.7251587,30.9744873,64.7251587z M16.5664062,50.3413696
			c-1.1928101,0-2.159729,0.9653931-2.159729,2.1571655c0,1.1925049,0.9669189,2.1578979,2.159729,2.1578979
			c1.1929321,0,2.1618042-0.9653931,2.1618042-2.1578979C18.7282104,51.3067627,17.7593384,50.3413696,16.5664062,50.3413696z
			 M2.1604614,50.3413696c-1.1942139,0-2.1618042,0.9653931-2.1618042,2.1571655
			c0,1.1925049,0.9675903,2.1578979,2.1618042,2.1578979c1.1928101,0,2.1618042-0.9653931,2.1618042-2.1578979
			C4.3222656,51.3067627,3.3532715,50.3413696,2.1604614,50.3413696z M38.1785889,86.3007812c-0.0007324,0-0.0007324,0-0.0007324,0
			c-0.8961792,0-1.6641846,0.543335-1.9919434,1.3173828c-0.1088257,0.258606-0.1691284,0.541748-0.1691284,0.8401489
			c0,0.2976685,0.0603027,0.581543,0.1691284,0.8397217c0.3277588,0.7744751,1.0957642,1.3178101,1.9919434,1.3178101
			c0,0,0,0,0.0007324,0c0.8939819,0,1.6613159-0.543335,1.9884033-1.3178101
			c0.1101685-0.2581787,0.1705322-0.5420532,0.1705322-0.8397217c0-0.2984009-0.0603638-0.581543-0.1705322-0.8401489
			C39.8399048,86.8441162,39.0725708,86.3007812,38.1785889,86.3007812z M38.1785889,71.9161987
			c-0.0007324,0-0.0007324,0-0.0007324,0c-0.8961792,0-1.6641846,0.543335-1.9919434,1.3182373
			c-0.1088257,0.2585449-0.1691284,0.5421143-0.1691284,0.8397217c0,0.2980347,0.0603027,0.5811768,0.1691284,0.8405151
			c0.3277588,0.7741089,1.0957642,1.3173828,1.9919434,1.3173828c0,0,0,0,0.0007324,0
			c0.8939819,0,1.6613159-0.5432739,1.9884033-1.3173828c0.1101685-0.2593384,0.1705322-0.5424805,0.1705322-0.8405151
			c0-0.2976074-0.0603638-0.5811768-0.1705322-0.8397217C39.8399048,72.4595337,39.0725708,71.9161987,38.1785889,71.9161987z
			 M23.7697754,71.9161987c-1.1934814,0-2.1602783,0.967041-2.1602783,2.157959
			c0,1.1921387,0.9667969,2.1578979,2.1602783,2.1578979s2.1618042-0.9657593,2.1618042-2.1578979
			C25.9315796,72.8832397,24.9632568,71.9161987,23.7697754,71.9161987z"/>
	</g>
</g>
</svg>
