<?xml version="1.0" encoding="utf-8"?>
<!-- Generator: Adobe Illustrator 27.2.0, SVG Export Plug-In . SVG Version: 6.00 Build 0)  -->
<svg version="1.1" id="Shape_28_00000006680191913289903430000013015905773517208454_"
	 xmlns="http://www.w3.org/2000/svg" xmlns:xlink="http://www.w3.org/1999/xlink" x="0px" y="0px" viewBox="0 0 126 53"
	 style="enable-background:new 0 0 126 53;" xml:space="preserve">
<style type="text/css">
	.st0{fill:#FE3E57;}
</style>
<g id="Shape_28">
	<g>
		<path class="st0" d="M124.2589111,49.5233765c-0.9613647,0-1.7409668,0.7785034-1.7409668,1.7382812
			c0,0.9593506,0.7796021,1.7374268,1.7409668,1.7374268c0.9615479,0,1.7410278-0.7780762,1.7410278-1.7374268
			C125.999939,50.3018799,125.220459,49.5233765,124.2589111,49.5233765z M110.5491333,49.5233765
			c-0.9615479,0-1.7409668,0.7785034-1.7409668,1.7382812c0,0.9593506,0.7794189,1.7374268,1.7409668,1.7374268
			c0.9614258,0,1.7409058-0.7780762,1.7409058-1.7374268C112.2900391,50.3018799,111.5105591,49.5233765,110.5491333,49.5233765z
			 M97.0568848,49.5233765c-0.9614868,0-1.7409668,0.7785034-1.7409668,1.7382812
			c0,0.9593506,0.77948,1.7374268,1.7409668,1.7374268c0.9614258,0,1.7409058-0.7780762,1.7409058-1.7374268
			C98.7977905,50.3018799,98.0183105,49.5233765,97.0568848,49.5233765z M83.3469849,49.5233765
			c-0.9614258,0-1.7409668,0.7785034-1.7409668,1.7382812c0,0.9593506,0.779541,1.7374268,1.7409668,1.7374268
			c0.9615479,0,1.7410278-0.7780762,1.7410278-1.7374268C85.0880127,50.3018799,84.3085327,49.5233765,83.3469849,49.5233765z
			 M69.8547363,49.5233765c-0.9614258,0-1.7408447,0.7785034-1.7408447,1.7382812
			c0,0.9593506,0.7794189,1.7374268,1.7408447,1.7374268c0.9615479,0,1.7410278-0.7780762,1.7410278-1.7374268
			C71.5957642,50.3018799,70.8162842,49.5233765,69.8547363,49.5233765z M56.1448364,49.5233765
			c-0.9614258,0-1.7408447,0.7785034-1.7408447,1.7382812c0,0.9593506,0.7794189,1.7374268,1.7408447,1.7374268
			c0.9616699,0,1.7410278-0.7780762,1.7410278-1.7374268C57.8858643,50.3018799,57.1065063,49.5233765,56.1448364,49.5233765z
			 M42.65271,49.5233765c-0.9615479,0-1.7409668,0.7785034-1.7409668,1.7382812
			c0,0.9593506,0.7794189,1.7374268,1.7409668,1.7374268c0.9614258,0,1.7410278-0.7780762,1.7410278-1.7374268
			C44.3937378,50.3018799,43.6141357,49.5233765,42.65271,49.5233765z M28.9428101,49.5233765
			c-0.9614258,0-1.7408447,0.7785034-1.7408447,1.7382812c0,0.9593506,0.7794189,1.7374268,1.7408447,1.7374268
			c0.9615479,0,1.7409058-0.7780762,1.7409058-1.7374268C30.6837158,50.3018799,29.9043579,49.5233765,28.9428101,49.5233765z
			 M15.4505615,49.5233765c-0.9614258,0-1.7408447,0.7785034-1.7408447,1.7382812
			c0,0.9593506,0.7794189,1.7374268,1.7408447,1.7374268c0.9615479,0,1.7410278-0.7780762,1.7410278-1.7374268
			C17.1915894,50.3018799,16.4121094,49.5233765,15.4505615,49.5233765z M1.7407837,49.5233765
			c-0.9615479,0-1.7409668,0.7785034-1.7409668,1.7382812c0,0.9593506,0.7794189,1.7374268,1.7409668,1.7374268
			s1.7408447-0.7780762,1.7408447-1.7374268C3.4816284,50.3018799,2.7023315,49.5233765,1.7407837,49.5233765z
			 M124.2589111,33.0159302c-0.9613647,0-1.7409668,0.77771-1.7409668,1.7374268c0,0.9593506,0.7796021,1.737854,1.7409668,1.737854
			c0.9615479,0,1.7410278-0.7785034,1.7410278-1.737854C125.999939,33.7936401,125.220459,33.0159302,124.2589111,33.0159302z
			 M110.5491333,33.0159302c-0.9615479,0-1.7409668,0.77771-1.7409668,1.7374268c0,0.9593506,0.7794189,1.737854,1.7409668,1.737854
			c0.9614258,0,1.7409058-0.7785034,1.7409058-1.737854C112.2900391,33.7936401,111.5105591,33.0159302,110.5491333,33.0159302z
			 M97.0568848,33.0159302c-0.9614868,0-1.7409668,0.77771-1.7409668,1.7374268c0,0.9593506,0.77948,1.737854,1.7409668,1.737854
			c0.9614258,0,1.7409058-0.7785034,1.7409058-1.737854C98.7977905,33.7936401,98.0183105,33.0159302,97.0568848,33.0159302z
			 M83.3469849,33.0159302c-0.9614258,0-1.7409668,0.77771-1.7409668,1.7374268c0,0.9593506,0.779541,1.737854,1.7409668,1.737854
			c0.9615479,0,1.7410278-0.7785034,1.7410278-1.737854C85.0880127,33.7936401,84.3085327,33.0159302,83.3469849,33.0159302z
			 M69.8547363,33.0159302c-0.9614258,0-1.7408447,0.77771-1.7408447,1.7374268c0,0.9593506,0.7794189,1.737854,1.7408447,1.737854
			c0.9615479,0,1.7410278-0.7785034,1.7410278-1.737854C71.5957642,33.7936401,70.8162842,33.0159302,69.8547363,33.0159302z
			 M56.1448364,33.0159302c-0.9614258,0-1.7408447,0.77771-1.7408447,1.7374268c0,0.9593506,0.7794189,1.737854,1.7408447,1.737854
			c0.9616699,0,1.7410278-0.7785034,1.7410278-1.737854C57.8858643,33.7936401,57.1065063,33.0159302,56.1448364,33.0159302z
			 M42.65271,33.0159302c-0.9615479,0-1.7409668,0.77771-1.7409668,1.7374268c0,0.9593506,0.7794189,1.737854,1.7409668,1.737854
			c0.9614258,0,1.7410278-0.7785034,1.7410278-1.737854C44.3937378,33.7936401,43.6141357,33.0159302,42.65271,33.0159302z
			 M28.9428101,33.0159302c-0.9614258,0-1.7408447,0.77771-1.7408447,1.7374268c0,0.9593506,0.7794189,1.737854,1.7408447,1.737854
			c0.9615479,0,1.7409058-0.7785034,1.7409058-1.737854C30.6837158,33.7936401,29.9043579,33.0159302,28.9428101,33.0159302z
			 M15.4505615,33.0159302c-0.9614258,0-1.7408447,0.77771-1.7408447,1.7374268c0,0.9593506,0.7794189,1.737854,1.7408447,1.737854
			c0.9615479,0,1.7410278-0.7785034,1.7410278-1.737854C17.1915894,33.7936401,16.4121094,33.0159302,15.4505615,33.0159302z
			 M1.7407837,33.0159302c-0.9615479,0-1.7409668,0.77771-1.7409668,1.7374268c0,0.9593506,0.7794189,1.737854,1.7409668,1.737854
			s1.7408447-0.7785034,1.7408447-1.737854C3.4816284,33.7936401,2.7023315,33.0159302,1.7407837,33.0159302z
			 M124.2589111,16.5076294c-0.9613647,0-1.7409668,0.7781372-1.7409668,1.7374878
			c0,0.9597778,0.7796021,1.7382812,1.7409668,1.7382812c0.9615479,0,1.7410278-0.7785034,1.7410278-1.7382812
			C125.999939,17.2857666,125.220459,16.5076294,124.2589111,16.5076294z M110.5491333,16.5076294
			c-0.9615479,0-1.7409668,0.7781372-1.7409668,1.7374878c0,0.9597778,0.7794189,1.7382812,1.7409668,1.7382812
			c0.9614258,0,1.7409058-0.7785034,1.7409058-1.7382812C112.2900391,17.2857666,111.5105591,16.5076294,110.5491333,16.5076294z
			 M97.0568848,16.5076294c-0.9614868,0-1.7409668,0.7781372-1.7409668,1.7374878
			c0,0.9597778,0.77948,1.7382812,1.7409668,1.7382812c0.9614258,0,1.7409058-0.7785034,1.7409058-1.7382812
			C98.7977905,17.2857666,98.0183105,16.5076294,97.0568848,16.5076294z M83.3469849,16.5076294
			c-0.9614258,0-1.7409668,0.7781372-1.7409668,1.7374878c0,0.9597778,0.779541,1.7382812,1.7409668,1.7382812
			c0.9615479,0,1.7410278-0.7785034,1.7410278-1.7382812C85.0880127,17.2857666,84.3085327,16.5076294,83.3469849,16.5076294z
			 M69.8547363,16.5076294c-0.9614258,0-1.7408447,0.7781372-1.7408447,1.7374878
			c0,0.9597778,0.7794189,1.7382812,1.7408447,1.7382812c0.9615479,0,1.7410278-0.7785034,1.7410278-1.7382812
			C71.5957642,17.2857666,70.8162842,16.5076294,69.8547363,16.5076294z M56.1448364,16.5076294
			c-0.9614258,0-1.7408447,0.7781372-1.7408447,1.7374878c0,0.9597778,0.7794189,1.7382812,1.7408447,1.7382812
			c0.9616699,0,1.7410278-0.7785034,1.7410278-1.7382812C57.8858643,17.2857666,57.1065063,16.5076294,56.1448364,16.5076294z
			 M42.65271,16.5076294c-0.9615479,0-1.7409668,0.7781372-1.7409668,1.7374878
			c0,0.9597778,0.7794189,1.7382812,1.7409668,1.7382812c0.9614258,0,1.7410278-0.7785034,1.7410278-1.7382812
			C44.3937378,17.2857666,43.6141357,16.5076294,42.65271,16.5076294z M28.9428101,16.5076294
			c-0.9614258,0-1.7408447,0.7781372-1.7408447,1.7374878c0,0.9597778,0.7794189,1.7382812,1.7408447,1.7382812
			c0.9615479,0,1.7409058-0.7785034,1.7409058-1.7382812C30.6837158,17.2857666,29.9043579,16.5076294,28.9428101,16.5076294z
			 M15.4505615,16.5076294c-0.9614258,0-1.7408447,0.7781372-1.7408447,1.7374878
			c0,0.9597778,0.7794189,1.7382812,1.7408447,1.7382812c0.9615479,0,1.7410278-0.7785034,1.7410278-1.7382812
			C17.1915894,17.2857666,16.4121094,16.5076294,15.4505615,16.5076294z M1.7407837,16.5076294
			c-0.9615479,0-1.7409668,0.7781372-1.7409668,1.7374878c0,0.9597778,0.7794189,1.7382812,1.7409668,1.7382812
			s1.7408447-0.7785034,1.7408447-1.7382812C3.4816284,17.2857666,2.7023315,16.5076294,1.7407837,16.5076294z
			 M124.2589111,3.4750977c0.9615479,0,1.7410278-0.7780762,1.7410278-1.7382202c0-0.9593506-0.77948-1.7374878-1.7410278-1.7374878
			c-0.9613647,0-1.7409668,0.7781372-1.7409668,1.7374878C122.5179443,2.6970215,123.2975464,3.4750977,124.2589111,3.4750977z
			 M110.5491333-0.0006104c-0.9615479,0-1.7409668,0.7781372-1.7409668,1.7374878
			c0,0.960144,0.7794189,1.7382202,1.7409668,1.7382202c0.9614258,0,1.7409058-0.7780762,1.7409058-1.7382202
			C112.2900391,0.7775269,111.5105591-0.0006104,110.5491333-0.0006104z M97.0568848-0.0006104
			c-0.9614868,0-1.7409668,0.7781372-1.7409668,1.7374878c0,0.960144,0.77948,1.7382202,1.7409668,1.7382202
			c0.9614258,0,1.7409058-0.7780762,1.7409058-1.7382202C98.7977905,0.7775269,98.0183105-0.0006104,97.0568848-0.0006104z
			 M83.3469849-0.0006104c-0.9614258,0-1.7409668,0.7781372-1.7409668,1.7374878c0,0.960144,0.779541,1.7382202,1.7409668,1.7382202
			c0.9615479,0,1.7410278-0.7780762,1.7410278-1.7382202C85.0880127,0.7775269,84.3085327-0.0006104,83.3469849-0.0006104z
			 M69.8547363-0.0006104c-0.9614258,0-1.7408447,0.7781372-1.7408447,1.7374878
			c0,0.960144,0.7794189,1.7382202,1.7408447,1.7382202c0.9615479,0,1.7410278-0.7780762,1.7410278-1.7382202
			C71.5957642,0.7775269,70.8162842-0.0006104,69.8547363-0.0006104z M56.1448364-0.0006104
			c-0.9614258,0-1.7408447,0.7781372-1.7408447,1.7374878c0,0.960144,0.7794189,1.7382202,1.7408447,1.7382202
			c0.9616699,0,1.7410278-0.7780762,1.7410278-1.7382202C57.8858643,0.7775269,57.1065063-0.0006104,56.1448364-0.0006104z
			 M42.65271-0.0006104c-0.9615479,0-1.7409668,0.7781372-1.7409668,1.7374878c0,0.960144,0.7794189,1.7382202,1.7409668,1.7382202
			c0.9614258,0,1.7410278-0.7780762,1.7410278-1.7382202C44.3937378,0.7775269,43.6141357-0.0006104,42.65271-0.0006104z
			 M28.9428101-0.0006104c-0.9614258,0-1.7408447,0.7781372-1.7408447,1.7374878
			c0,0.960144,0.7794189,1.7382202,1.7408447,1.7382202c0.9615479,0,1.7409058-0.7780762,1.7409058-1.7382202
			C30.6837158,0.7775269,29.9043579-0.0006104,28.9428101-0.0006104z M15.4505615-0.0006104
			c-0.9614258,0-1.7408447,0.7781372-1.7408447,1.7374878c0,0.960144,0.7794189,1.7382202,1.7408447,1.7382202
			c0.9615479,0,1.7410278-0.7780762,1.7410278-1.7382202C17.1915894,0.7775269,16.4121094-0.0006104,15.4505615-0.0006104z
			 M1.7407837-0.0006104c-0.9615479,0-1.7409668,0.7781372-1.7409668,1.7374878c0,0.960144,0.7794189,1.7382202,1.7409668,1.7382202
			s1.7408447-0.7780762,1.7408447-1.7382202C3.4816284,0.7775269,2.7023315-0.0006104,1.7407837-0.0006104z"/>
	</g>
</g>
</svg>
