<svg version="1.1" id="Layer_1" xmlns="http://www.w3.org/2000/svg" x="0" y="0" viewBox="0 0 209.201 34.401" xml:space="preserve" width="183" height="30"><style>.st0{fill:#1a1a1a}</style><path class="st0" d="M0 34.401V.101h.55l16.226 18.972L32.854.1h.548v34.301H28.36V16.776l.2-4.893c-1.1 1.698-2.115 3.063-3.046 4.095l-8.538 10.285h-.6L7.84 15.978l-2.996-4.095c.133 1.997.2 3.629.2 4.893v17.625H0zm90.82-10.485l7.19 10.485h-6.09l-6.091-8.937c-1.266.134-2.215.2-2.847.2h-3.195V34.4h-5.292V.45h8.487c4.66 0 8.264 1.132 10.81 3.395 2.546 2.264 3.82 5.36 3.82 9.286 0 5.193-2.264 8.788-6.79 10.785zM79.786 21.12h2.996c6.29 0 9.436-2.662 9.436-7.989 0-5.358-3.145-8.038-9.436-8.038h-2.996V21.12z"/><path d="M120.578 34.85c-4.893 0-9.02-1.647-12.382-4.942-3.363-3.296-5.043-7.456-5.043-12.483 0-4.992 1.68-9.136 5.043-12.432 3.361-3.295 7.49-4.943 12.382-4.943 6.058 0 10.586 2.247 13.582 6.74l-4.045 2.897c-2.098-3.262-5.276-4.894-9.537-4.894-3.495 0-6.374 1.199-8.638 3.595-2.264 2.397-3.395 5.41-3.395 9.037 0 3.629 1.131 6.65 3.395 9.063 2.264 2.413 5.143 3.62 8.638 3.62 4.295 0 7.638-1.78 10.037-5.343l4.043 2.846c-3.162 4.827-7.856 7.24-14.08 7.24zm20.07-.449V.45h5.293v15.274h16.327V.45h5.292V34.4h-5.292V20.417h-16.327v13.984h-5.293zm51.077.449c-4.927 0-9.079-1.647-12.457-4.942-3.379-3.296-5.068-7.456-5.068-12.483 0-5.025 1.69-9.187 5.068-12.482C182.646 1.648 186.798 0 191.725 0c4.894 0 9.029 1.648 12.408 4.943 3.378 3.295 5.068 7.457 5.068 12.482 0 5.027-1.69 9.187-5.068 12.483-3.38 3.295-7.514 4.943-12.408 4.943zm-8.713-8.362c2.28 2.413 5.185 3.62 8.713 3.62 3.529 0 6.424-1.207 8.688-3.62 2.264-2.413 3.396-5.434 3.396-9.063 0-3.627-1.132-6.648-3.396-9.062-2.264-2.413-5.16-3.62-8.688-3.62-3.528 0-6.433 1.207-8.713 3.62-2.28 2.414-3.42 5.435-3.42 9.062 0 3.629 1.14 6.65 3.42 9.063z" fill="#fe3e57"/><path class="st0" d="M54.073.1h-.6l-14.53 34.301h5.094l9.636-24.864L63.46 34.4h5.493z"/></svg>