<svg version="1.1" id="Layer_1" xmlns="http://www.w3.org/2000/svg" x="0" y="0" viewBox="0 0 41.84 6.97" xml:space="preserve"><style>.st0{fill:#1a1a1a}</style><switch><g><path class="st0" d="M0 6.88V.02h.11l3.245 3.795L6.571.02h.11v6.86h-1.01V3.355l.04-.978c-.22.34-.423.612-.61.819L3.396 5.253h-.12L1.568 3.196l-.6-.82c.027.4.04.726.04.98V6.88H0zm18.164-2.097l1.438 2.097h-1.218l-1.218-1.787c-.254.027-.443.04-.57.04h-.639V6.88H14.9V.09h1.697c.932 0 1.653.226 2.162.679.51.453.764 1.072.764 1.857 0 1.039-.453 1.758-1.358 2.157zm-2.207-.559h.6c1.258 0 1.887-.532 1.887-1.598 0-1.071-.63-1.607-1.888-1.607h-.599v3.205z"/><path d="M24.116 6.97c-.979 0-1.805-.33-2.477-.988-.672-.66-1.008-1.492-1.008-2.497 0-.998.336-1.827 1.008-2.486.672-.66 1.498-.989 2.477-.989 1.211 0 2.117.45 2.716 1.348l-.81.58c-.419-.653-1.054-.98-1.906-.98-.7 0-1.275.24-1.728.72-.453.479-.679 1.082-.679 1.807 0 .726.226 1.33.68 1.813.452.482 1.028.723 1.727.723.859 0 1.527-.356 2.007-1.068l.809.57c-.633.965-1.572 1.447-2.816 1.447zm4.014-.09V.09h1.058v3.055h3.266V.09h1.058v6.79h-1.058V4.083h-3.266V6.88H28.13zm10.215.09c-.985 0-1.816-.33-2.491-.988-.676-.66-1.014-1.492-1.014-2.497s.338-1.837 1.014-2.496C36.529.329 37.36 0 38.345 0c.979 0 1.806.33 2.482.989.675.659 1.013 1.491 1.013 2.496s-.338 1.837-1.013 2.497c-.676.659-1.503.988-2.482.988zm-1.743-1.672c.456.482 1.037.723 1.743.723.706 0 1.285-.24 1.738-.723.452-.483.679-1.087.679-1.813 0-.725-.227-1.33-.68-1.812-.452-.483-1.031-.724-1.737-.724-.706 0-1.287.241-1.743.724-.456.482-.684 1.087-.684 1.812 0 .726.228 1.33.684 1.813z" fill="#fe3e57"/><path class="st0" d="M10.815.02h-.12L7.789 6.88h1.018l1.928-4.973 1.957 4.973h1.098z"/></g></switch></svg>