<?xml version="1.0" ?><svg viewBox="0 0 800 800" xmlns="http://www.w3.org/2000/svg" xmlns:xlink="http://www.w3.org/1999/xlink"><style>:root>svg{display:none}:root>svg:target{display:block}</style><svg viewBox="0 0 281.25 281.25" xml:space="preserve" id="avocados-svgrepo-com" xmlns="http://www.w3.org/2000/svg"><path d="M-4555.756 3790.627c-12.445 1.829-23.797 9.068-30.701 19.583-5.563 8.472-8.084 18.767-7.07 28.85a4.688 4.688 0 0 0 5.132 4.195 4.688 4.688 0 0 0 4.195-5.132c-.793-7.887 1.23-16.14 5.581-22.766 5.377-8.188 14.535-14.031 24.227-15.456a4.688 4.688 0 0 0 3.955-5.317 4.688 4.688 0 0 0-5.32-3.957z" style="color:#000;fill:#333;fill-opacity:1;stroke-linecap:round;stroke-linejoin:round;-inkscape-stroke:none" transform="translate(4730.031 -3758.272)"/><path d="M-4620.932 3789.08c-1.198-.019-2.396 0-3.593.06a53.968 53.968 0 0 0-9.498 1.32 4.688 4.688 0 0 0-.351.143 4.688 4.688 0 0 0-.676.273 4.688 4.688 0 0 0-.624.38 4.688 4.688 0 0 0-.553.466 4.688 4.688 0 0 0-.476.55 4.688 4.688 0 0 0-.39.625 4.688 4.688 0 0 0-.279.665 4.688 4.688 0 0 0-.177.709 4.688 4.688 0 0 0-.06.732 4.688 4.688 0 0 0-.031.372c.9 12.091 7.412 23.414 17.411 30.27 7.751 5.316 17.251 7.666 26.547 6.827.161-3.254.68-6.481 1.54-9.619-7.816 1.307-16.27-.472-22.784-4.938-6.396-4.386-11.049-11.466-12.739-19.078 9.058-1.171 18.543.44 26.642 4.618 4.78 2.466 9.118 5.823 12.739 9.81a43.755 43.755 0 0 1 1.827-3.055 43.55 43.55 0 0 1 3.67-4.796 54.652 54.652 0 0 0-13.937-10.292c-7.485-3.861-15.825-5.909-24.208-6.042zm27.198 44.978c-3.249.388-6.423 1.337-9.33 2.884a26.554 26.554 0 0 0-10.645 10.402c-2.418 4.3-3.445 8.838-4.23 12.979-.782 4.13-1.355 7.947-2.48 11.237-2.165 6.325-6.75 12.068-11.957 17.585-5.222 5.534-11.215 11.068-15.962 18.155-5.568 8.313-8.777 18.032-9.56 27.915-.782 9.874.841 19.816 4.398 28.961 4.785 12.3 13.078 23.14 23.696 30.978 10.618 7.837 23.421 12.568 36.585 13.515a4.688 4.688 0 0 0 .09-.018 4.688 4.688 0 0 0 .082.026c14.431.515 28.909-3.538 40.973-11.475 12.064-7.937 21.518-19.628 26.757-33.085 3.56-9.146 5.185-19.087 4.402-28.962-.783-9.884-3.992-19.602-9.562-27.915-4.747-7.086-10.74-12.62-15.96-18.154-5.207-5.518-9.795-11.258-11.96-17.584-1.125-3.29-1.698-7.108-2.48-11.24-.785-4.14-1.812-8.678-4.23-12.978a26.554 26.554 0 0 0-10.648-10.4c-2.69-1.431-5.606-2.358-8.6-2.8-.025 1.35.02 2.7.155 4.04a4.688 4.688 0 0 1-3.792 5.07c.28 0 .561-.024.842-.01 2.434.157 4.854.833 6.99 1.97a17.353 17.353 0 0 1 6.88 6.72c1.566 2.783 2.464 6.286 3.192 10.13.73 3.852 1.317 8.13 2.822 12.53 2.892 8.452 8.496 15.139 14.01 20.981 5.498 5.828 11.044 11.05 14.99 16.94 4.61 6.881 7.343 15.087 8.005 23.435.663 8.357-.717 16.924-3.792 24.822-4.517 11.603-12.771 21.808-23.173 28.652-10.37 6.823-22.964 10.363-35.371 9.945-11.342-.827-22.489-4.947-31.639-11.7-9.164-6.765-16.399-16.22-20.528-26.835-3.072-7.899-4.45-16.467-3.788-24.823.661-8.349 3.392-16.557 8.002-23.438 3.945-5.89 9.494-11.112 14.992-16.939 5.514-5.843 11.117-12.53 14.01-20.982 1.505-4.399 2.091-8.677 2.821-12.53.728-3.843 1.625-7.343 3.19-10.126a17.358 17.358 0 0 1 6.88-6.723 17.352 17.352 0 0 1 9.416-1.95 4.688 4.688 0 0 0 .246-.046 4.688 4.688 0 0 1-4.532-4.16 43.912 43.912 0 0 1-.207-5.003zm-32.322 102.301a4.688 4.688 0 0 0-4.662 4.715c.071 12.364 6.513 24.223 16.846 31.013a37.504 37.504 0 0 0 21.44 6.124 4.688 4.688 0 0 0 4.57-4.8 4.688 4.688 0 0 0-4.8-4.57c-5.625.138-11.36-1.502-16.061-4.591-7.576-4.978-12.568-14.164-12.62-23.23a4.688 4.688 0 0 0-4.713-4.661z" style="color:#000;fill:#2aff2a;fill-opacity:1;stroke-linecap:round;stroke-linejoin:round;-inkscape-stroke:none" transform="translate(4730.031 -3758.272)"/></svg></svg>