<svg version="1.1" id="Shape_22_00000145041455102106534430000003338197698968286630_" xmlns="http://www.w3.org/2000/svg" x="0" y="0" viewBox="0 0 106 105" xml:space="preserve"><path d="M81.398 28.765a2.159 2.159 0 100 4.316 2.16 2.16 0 002.161-2.157 2.16 2.16 0 00-2.161-2.159zm-14.406 0a2.16 2.16 0 00-2.163 2.159 2.16 2.16 0 004.323 0 2.159 2.159 0 00-2.16-2.159zm0-14.384a2.16 2.16 0 00-2.163 2.158 2.16 2.16 0 002.163 2.158 2.159 2.159 0 100-4.316zm-14.407 0h-.001a2.16 2.16 0 00-2.162 2.158 2.16 2.16 0 002.162 2.158 2.16 2.16 0 002.162-2.158 2.16 2.16 0 00-2.161-2.158zm21.61 21.577a2.158 2.158 0 100 4.314 2.16 2.16 0 002.16-2.156 2.159 2.159 0 00-2.16-2.158zm14.407 0a2.16 2.16 0 00-2.162 2.158 2.16 2.16 0 002.162 2.156 2.16 2.16 0 002.161-2.156 2.16 2.16 0 00-2.161-2.158zM74.195 21.573a2.158 2.158 0 100 4.315 2.159 2.159 0 100-4.315zm-14.407 0a2.16 2.16 0 00-2.163 2.158 2.16 2.16 0 002.163 2.157 2.16 2.16 0 002.161-2.157 2.16 2.16 0 00-2.161-2.158zm36.017 35.96a2.16 2.16 0 00-2.162 2.158 2.16 2.16 0 002.162 2.157 2.159 2.159 0 100-4.315zm-14.407 0a2.158 2.158 0 100 4.315 2.16 2.16 0 002.161-2.157 2.16 2.16 0 00-2.161-2.158zm-14.406 0a2.16 2.16 0 00-2.163 2.158 2.16 2.16 0 002.163 2.157 2.159 2.159 0 100-4.315zM95.805 43.15a2.16 2.16 0 00-2.162 2.157 2.16 2.16 0 002.162 2.159 2.159 2.159 0 100-4.316zm-14.407 0a2.159 2.159 0 100 4.316 2.16 2.16 0 002.161-2.159 2.16 2.16 0 00-2.161-2.157zm-14.406 0a2.16 2.16 0 00-2.163 2.157 2.16 2.16 0 002.163 2.159 2.159 2.159 0 100-4.316zm-14.407 0h-.001a2.16 2.16 0 00-2.162 2.157 2.16 2.16 0 002.162 2.159 2.16 2.16 0 002.162-2.159 2.16 2.16 0 00-2.161-2.157zm21.61 21.576a2.16 2.16 0 00-2.16 2.158 2.16 2.16 0 004.32 0 2.16 2.16 0 00-2.16-2.158zm14.407 0a2.16 2.16 0 00-2.162 2.158 2.16 2.16 0 002.162 2.157 2.16 2.16 0 002.161-2.157 2.16 2.16 0 00-2.161-2.158zM74.195 50.341a2.159 2.159 0 100 4.315c1.192 0 2.16-.965 2.16-2.157a2.159 2.159 0 00-2.16-2.158zM90.762 52.5a2.16 2.16 0 00-2.162-2.16 2.159 2.159 0 100 4.315 2.16 2.16 0 002.16-2.157zm12.247-2.158a2.16 2.16 0 00-2.163 2.158 2.16 2.16 0 002.163 2.157 2.16 2.16 0 002.16-2.157 2.16 2.16 0 00-2.16-2.158zm-43.221 0a2.16 2.16 0 00-2.163 2.158 2.16 2.16 0 002.163 2.157 2.16 2.16 0 002.161-2.157 2.16 2.16 0 00-2.161-2.158zm7.204 35.96a2.16 2.16 0 00-2.163 2.157 2.16 2.16 0 002.163 2.158 2.159 2.159 0 100-4.315zm14.406-14.385a2.159 2.159 0 100 4.316 2.16 2.16 0 002.161-2.158 2.16 2.16 0 00-2.161-2.158zm-14.406 0a2.16 2.16 0 00-2.163 2.158 2.16 2.16 0 002.163 2.158 2.158 2.158 0 100-4.316zm-14.407 0h-.001a2.16 2.16 0 00-2.162 2.158 2.16 2.16 0 002.162 2.158 2.16 2.16 0 002.162-2.158 2.16 2.16 0 00-2.161-2.158zm21.61 7.192a2.16 2.16 0 00-2.16 2.158 2.16 2.16 0 004.32 0 2.16 2.16 0 00-2.16-2.158zm-14.407 0a2.16 2.16 0 00-2.163 2.158 2.16 2.16 0 002.163 2.159 2.16 2.16 0 002.161-2.159 2.16 2.16 0 00-2.161-2.158zm-7.203 21.576h-.001a2.16 2.16 0 00-2.162 2.158A2.16 2.16 0 0052.584 105a2.16 2.16 0 002.162-2.157 2.16 2.16 0 00-2.161-2.158zm-.001-96.371a2.16 2.16 0 002.16-2.158 2.16 2.16 0 00-2.16-2.158 2.16 2.16 0 00-2.162 2.158 2.16 2.16 0 002.162 2.158zM45.38 7.19a2.158 2.158 0 100 4.315 2.16 2.16 0 002.162-2.158A2.16 2.16 0 0045.38 7.19zm14.408 4.315a2.16 2.16 0 002.16-2.158 2.16 2.16 0 00-2.16-2.157 2.16 2.16 0 00-2.163 2.157 2.16 2.16 0 002.163 2.158zM52.584 33.08a2.16 2.16 0 002.16-2.157 2.16 2.16 0 00-2.16-2.159 2.16 2.16 0 00-2.162 2.159 2.16 2.16 0 002.162 2.157zm-7.204 2.877a2.158 2.158 0 100 4.314 2.16 2.16 0 002.162-2.156 2.16 2.16 0 00-2.162-2.158zm14.408 4.314a2.16 2.16 0 002.16-2.156 2.16 2.16 0 00-2.16-2.158 2.16 2.16 0 00-2.163 2.158 2.16 2.16 0 002.163 2.156zM45.38 21.573a2.159 2.159 0 100 4.315 2.16 2.16 0 002.162-2.157 2.16 2.16 0 00-2.162-2.158zm-13.565.17a2.14 2.14 0 00-.84-.17h-.001a2.163 2.163 0 00-2.161 2.158 2.162 2.162 0 002.161 2.157 2.158 2.158 0 00.841-4.145zm20.769 40.105a2.16 2.16 0 002.16-2.157 2.16 2.16 0 00-2.16-2.158 2.16 2.16 0 00-2.162 2.158 2.16 2.16 0 002.162 2.157zm-7.204 2.877a2.16 2.16 0 00-2.16 2.158c0 1.191.967 2.157 2.16 2.157a2.16 2.16 0 002.162-2.157 2.16 2.16 0 00-2.162-2.158zm14.408 4.315a2.16 2.16 0 002.16-2.157 2.16 2.16 0 00-2.16-2.158 2.16 2.16 0 00-2.163 2.158 2.16 2.16 0 002.163 2.157zM45.38 50.34a2.159 2.159 0 100 4.315 2.16 2.16 0 002.162-2.157 2.16 2.16 0 00-2.162-2.158zm-13.565.17a2.14 2.14 0 00-.84-.17h-.001a2.161 2.161 0 00-2.161 2.158 2.163 2.163 0 002.161 2.158 2.158 2.158 0 00.841-4.146zm20.769 40.105a2.16 2.16 0 002.16-2.158 2.16 2.16 0 00-2.16-2.157 2.16 2.16 0 00-2.162 2.157 2.16 2.16 0 002.162 2.158zm-7.204 2.877a2.158 2.158 0 100 4.314 2.16 2.16 0 002.162-2.157 2.16 2.16 0 00-2.162-2.157zm14.408 0a2.16 2.16 0 00-2.163 2.157 2.16 2.16 0 002.163 2.157 2.16 2.16 0 002.16-2.157 2.16 2.16 0 00-2.16-2.157zM45.38 79.108a2.16 2.16 0 100 4.317 2.16 2.16 0 002.162-2.159 2.16 2.16 0 00-2.162-2.158zm-13.565.17a2.14 2.14 0 00-.84-.17h-.001a2.163 2.163 0 00-2.161 2.158 2.163 2.163 0 002.161 2.158 2.159 2.159 0 00.841-4.146zm6.364-50.513h-.001a2.162 2.162 0 00-2.161 2.159 2.162 2.162 0 002.161 2.158 2.158 2.158 0 100-4.317zm-14.41 0a2.159 2.159 0 100 4.316 2.16 2.16 0 002.163-2.157 2.16 2.16 0 00-2.162-2.159zm14.41-14.384h-.001c-.896 0-1.664.544-1.992 1.318a2.166 2.166 0 000 1.68 2.162 2.162 0 001.992 1.318 2.16 2.16 0 000-4.316zM16.566 35.958a2.158 2.158 0 100 4.314 2.16 2.16 0 002.162-2.156 2.16 2.16 0 00-2.162-2.158zm14.408 0a2.159 2.159 0 00-2.161 2.158c0 1.19.967 2.156 2.161 2.156a2.16 2.16 0 002.16-2.156 2.16 2.16 0 00-2.16-2.158zm7.205 21.575h-.001a2.161 2.161 0 00-2.161 2.158 2.16 2.16 0 002.161 2.158 2.157 2.157 0 100-4.316zm-14.41 0a2.158 2.158 0 100 4.315 2.16 2.16 0 002.163-2.157 2.16 2.16 0 00-2.162-2.158zm-14.405 0a2.16 2.16 0 00-2.162 2.158 2.16 2.16 0 002.162 2.157 2.158 2.158 0 100-4.315zM38.179 43.15h-.001a2.161 2.161 0 00-2.161 2.157 2.155 2.155 0 002.16 2.159h.002a2.158 2.158 0 100-4.316zm-14.41 0a2.159 2.159 0 100 4.316 2.16 2.16 0 002.163-2.159 2.16 2.16 0 00-2.162-2.157zm-14.405 0a2.16 2.16 0 00-2.162 2.157 2.16 2.16 0 002.162 2.159 2.159 2.159 0 100-4.316zm7.202 21.576a2.159 2.159 0 100 4.315 2.16 2.16 0 002.162-2.157 2.16 2.16 0 00-2.162-2.158zm14.408 0a2.159 2.159 0 100 4.315 2.16 2.16 0 002.16-2.157 2.16 2.16 0 00-2.16-2.158zM16.566 50.341a2.158 2.158 0 100 4.315 2.16 2.16 0 002.162-2.157 2.16 2.16 0 00-2.162-2.158zm-14.406 0A2.16 2.16 0 000 52.5a2.16 2.16 0 002.161 2.157A2.16 2.16 0 004.322 52.5a2.16 2.16 0 00-2.162-2.16zm36.019 35.96h-.001c-.896 0-1.664.543-1.992 1.317a2.158 2.158 0 001.992 2.998 2.158 2.158 0 100-4.315zm0-14.385h-.001a2.16 2.16 0 00-1.992 2.999 2.161 2.161 0 001.992 1.317 2.158 2.158 0 100-4.316zm-14.41 0a2.159 2.159 0 100 4.316 2.16 2.16 0 002.163-2.158 2.16 2.16 0 00-2.162-2.158z" fill="#34c3ff" id="Shape_22"/></svg>