<svg version="1.1" id="Shape_28_00000006680191913289903430000013015905773517208454_" xmlns="http://www.w3.org/2000/svg" x="0" y="0" viewBox="0 0 126 53" xml:space="preserve"><path d="M124.259 49.523a1.74 1.74 0 00-1.741 1.739c0 .959.78 1.737 1.74 1.737A1.74 1.74 0 00126 51.262c0-.96-.78-1.739-1.741-1.739zm-13.71 0a1.74 1.74 0 00-1.74 1.739c0 .959.779 1.737 1.74 1.737a1.74 1.74 0 001.741-1.737c0-.96-.78-1.739-1.74-1.739zm-13.492 0a1.74 1.74 0 00-1.741 1.739c0 .959.78 1.737 1.74 1.737a1.74 1.74 0 001.742-1.737c0-.96-.78-1.739-1.741-1.739zm-13.71 0a1.74 1.74 0 00-1.741 1.739c0 .959.78 1.737 1.741 1.737a1.74 1.74 0 001.741-1.737c0-.96-.78-1.739-1.741-1.739zm-13.492 0a1.74 1.74 0 00-1.741 1.739c0 .959.78 1.737 1.74 1.737a1.74 1.74 0 001.742-1.737c0-.96-.78-1.739-1.741-1.739zm-13.71 0a1.74 1.74 0 00-1.741 1.739c0 .959.78 1.737 1.74 1.737a1.74 1.74 0 001.742-1.737c0-.96-.78-1.739-1.741-1.739zm-13.492 0a1.74 1.74 0 00-1.741 1.739c0 .959.78 1.737 1.74 1.737a1.74 1.74 0 001.742-1.737c0-.96-.78-1.739-1.741-1.739zm-13.71 0a1.74 1.74 0 00-1.741 1.739c0 .959.78 1.737 1.74 1.737a1.74 1.74 0 001.742-1.737c0-.96-.78-1.739-1.741-1.739zm-13.492 0a1.74 1.74 0 00-1.741 1.739c0 .959.78 1.737 1.74 1.737a1.74 1.74 0 001.742-1.737c0-.96-.78-1.739-1.741-1.739zm-13.71 0A1.74 1.74 0 000 51.262a1.74 1.74 0 003.482 0c0-.96-.78-1.739-1.741-1.739zm122.518-16.507a1.74 1.74 0 00-1.741 1.737 1.74 1.74 0 003.482 0c0-.96-.78-1.737-1.741-1.737zm-13.71 0a1.74 1.74 0 00-1.74 1.737 1.74 1.74 0 003.482 0 1.74 1.74 0 00-1.742-1.737zm-13.492 0a1.74 1.74 0 00-1.741 1.737 1.74 1.74 0 003.482 0c0-.96-.78-1.737-1.741-1.737zm-13.71 0a1.74 1.74 0 00-1.741 1.737c0 .96.78 1.738 1.741 1.738a1.74 1.74 0 001.741-1.738c0-.96-.78-1.737-1.741-1.737zm-13.492 0c-.962 0-1.741.778-1.741 1.737a1.74 1.74 0 003.482 0c0-.96-.78-1.737-1.741-1.737zm-13.71 0c-.962 0-1.741.778-1.741 1.737a1.74 1.74 0 003.482 0c0-.96-.78-1.737-1.741-1.737zm-13.492 0a1.74 1.74 0 00-1.741 1.737 1.74 1.74 0 003.482 0c0-.96-.78-1.737-1.741-1.737zm-13.71 0c-.962 0-1.741.778-1.741 1.737a1.74 1.74 0 003.482 0c0-.96-.78-1.737-1.741-1.737zm-13.492 0c-.962 0-1.741.778-1.741 1.737a1.74 1.74 0 003.482 0c0-.96-.78-1.737-1.741-1.737zm-13.71 0A1.74 1.74 0 000 34.753a1.74 1.74 0 003.482 0c0-.96-.78-1.737-1.741-1.737zm122.518-16.508a1.74 1.74 0 00-1.741 1.737 1.74 1.74 0 003.482 0c0-.96-.78-1.737-1.741-1.737zm-13.71 0a1.74 1.74 0 00-1.74 1.737 1.74 1.74 0 003.482 0 1.74 1.74 0 00-1.742-1.737zm-13.492 0a1.74 1.74 0 00-1.741 1.737 1.74 1.74 0 003.482 0c0-.96-.78-1.737-1.741-1.737zm-13.71 0a1.74 1.74 0 00-1.741 1.737c0 .96.78 1.738 1.741 1.738a1.74 1.74 0 001.741-1.738c0-.96-.78-1.737-1.741-1.737zm-13.492 0a1.74 1.74 0 00-1.741 1.737 1.74 1.74 0 003.482 0c0-.96-.78-1.737-1.741-1.737zm-13.71 0a1.74 1.74 0 00-1.741 1.737 1.74 1.74 0 003.482 0c0-.96-.78-1.737-1.741-1.737zm-13.492 0a1.74 1.74 0 00-1.741 1.737 1.74 1.74 0 003.482 0c0-.96-.78-1.737-1.741-1.737zm-13.71 0a1.74 1.74 0 00-1.741 1.737 1.74 1.74 0 003.482 0c0-.96-.78-1.737-1.741-1.737zm-13.492 0a1.74 1.74 0 00-1.741 1.737 1.74 1.74 0 003.482 0c0-.96-.78-1.737-1.741-1.737zm-13.71 0A1.74 1.74 0 000 18.245a1.74 1.74 0 003.482 0c0-.96-.78-1.737-1.741-1.737zM124.259 3.475a1.74 1.74 0 001.74-1.738c0-.96-.779-1.738-1.74-1.738a1.74 1.74 0 00-1.741 1.738c0 .96.78 1.738 1.74 1.738zM110.549 0a1.74 1.74 0 00-1.74 1.738c0 .96.779 1.738 1.74 1.738a1.74 1.74 0 001.741-1.738c0-.96-.78-1.738-1.74-1.738zM97.057 0a1.74 1.74 0 00-1.741 1.738 1.74 1.74 0 003.482 0c0-.96-.78-1.738-1.741-1.738zm-13.71 0a1.74 1.74 0 00-1.741 1.738c0 .96.78 1.738 1.741 1.738a1.74 1.74 0 001.741-1.738c0-.96-.78-1.738-1.741-1.738zM69.855 0a1.74 1.74 0 00-1.741 1.738 1.74 1.74 0 003.482 0c0-.96-.78-1.738-1.741-1.738zm-13.71 0a1.74 1.74 0 00-1.741 1.738c0 .96.78 1.738 1.74 1.738a1.74 1.74 0 001.742-1.738c0-.96-.78-1.738-1.741-1.738zM42.653 0a1.74 1.74 0 00-1.741 1.738 1.74 1.74 0 003.482 0c0-.96-.78-1.738-1.741-1.738zm-13.71 0a1.74 1.74 0 00-1.741 1.738c0 .96.78 1.738 1.74 1.738a1.74 1.74 0 001.742-1.738c0-.96-.78-1.738-1.741-1.738zM15.45 0a1.74 1.74 0 00-1.741 1.738 1.74 1.74 0 003.482 0c0-.96-.78-1.738-1.741-1.738zM1.74 0A1.74 1.74 0 000 1.737a1.74 1.74 0 003.482 0c0-.96-.78-1.738-1.741-1.738z" fill="#fe3e57" id="Shape_28"/></svg>