<svg xmlns="http://www.w3.org/2000/svg" xmlns:xlink="http://www.w3.org/1999/xlink" width="15px" height="16px" viewBox="0 0 15 16" version="1.1">
<g>
<path d="M 15 8.179688 C 15 12.527344 12.023438 15.621094 7.621094 15.621094 C 3.40625 15.621094 0 12.21875 0 8 C 0 3.78125 3.40625 0.378906 7.621094 0.378906 C 9.675781 0.378906 11.402344 1.128906 12.734375 2.371094 L 10.660156 4.367188 C 7.945312 1.746094 2.898438 3.714844 2.898438 8 C 2.898438 10.660156 5.023438 12.8125 7.621094 12.8125 C 10.640625 12.8125 11.773438 10.648438 11.949219 9.527344 L 7.621094 9.527344 L 7.621094 6.90625 L 14.878906 6.90625 C 14.949219 7.296875 15 7.671875 15 8.179688 Z M 15 8.179688 "/>
</g>
</svg>
