<?xml version="1.0" encoding="utf-8"?>
<!-- Generator: Adobe Illustrator 27.2.0, SVG Export Plug-In . SVG Version: 6.00 Build 0)  -->
<svg version="1.1" xmlns="http://www.w3.org/2000/svg" xmlns:xlink="http://www.w3.org/1999/xlink" x="0px" y="0px"
	 viewBox="0 0 60 60" style="enable-background:new 0 0 60 60;" xml:space="preserve">
<style type="text/css">
	.st0{enable-background:new    ;}
	.st1{fill:#FFB534;}
	.st2{fill:#FFFFFF;}
</style>
<g id="Icon_x5F_bg_00000070115564300377013510000007287453487803833745_" class="st0">
	<g id="Icon_x5F_bg">
		<g>
			<rect class="st1" width="60" height="60"/>
		</g>
	</g>
</g>
<g id="icon_00000152986854280194055550000016295033776891174038_" class="st0">
	<g id="icon">
		<g>
			<path class="st2" d="M47.1987305,28.5974731l-1.0359497-4.0935059c0.2832642-0.0599976,0.4957886-0.3081055,0.4957886-0.6057739
				v-0.659668c0-1.4334106-1.1801147-2.5997314-2.6306763-2.5997314h-4.7183838v-1.3616943
				c0-0.704834-0.5806885-1.2791748-1.2944336-1.2791748H13.963562c-0.713623,0-1.2943115,0.5743408-1.2943115,1.2791748v11.222168
				c0,0.3427124,0.2803955,0.6194458,0.6263428,0.6194458c0.3458252,0,0.6263428-0.2767334,0.6263428-0.6194458v-11.222168
				c0-0.0221558,0.0186157-0.0410767,0.041626-0.0410767h24.0515137c0.0230103,0,0.041748,0.0189209,0.041748,0.0410767v11.2225952
				c0,0.3427124,0.2803955,0.619812,0.6263428,0.619812c0.3458252,0,0.6263428-0.2770996,0.6263428-0.619812v-0.7012329h7.3886108
				c0.0006104,0,0.0010376,0,0.0016479,0c0.0005493,0,0.0010986,0,0.0018311,0
				c0.9091187,0.0008545,1.6810913,0.5908813,1.9462891,1.402771h-1.9475708c-0.3459473,0-0.6263428,0.2770996-0.6263428,0.6186523
				v1.3206177c0,1.0692749,0.8804321,1.939209,1.9624634,1.939209h0.7098389v2.7230225h-1.6377563
				c-0.5379639-1.5344849-2.0147095-2.6404419-3.7487183-2.6404419s-3.2108765,1.105957-3.7487793,2.6404419h-0.3015137v-4.6622314
				c0-0.3415527-0.2805176-0.6186523-0.6263428-0.6186523c-0.3459473,0-0.6263428,0.2770996-0.6263428,0.6186523v4.6622314
				H25.0614624c-0.5379639-1.5344849-2.0147095-2.6408691-3.7488403-2.6408691
				c-1.7340088,0-3.2107544,1.1063843-3.7487183,2.6408691H13.963562c-0.0230103,0-0.041626-0.0181274-0.041626-0.0415039
				v-1.3616943h2.7140503c0.3459473,0,0.6263428-0.2763062,0.6263428-0.6190186
				c0-0.3411255-0.2803955-0.6186523-0.6263428-0.6186523h-6.0128174c-0.3458252,0-0.6263428,0.2775269-0.6263428,0.6186523
				c0,0.3427124,0.2805176,0.6190186,0.6263428,0.6190186h2.0460815v1.3616943c0,0.7056274,0.5806885,1.279541,1.2943115,1.279541
				h3.3833618c-0.0001221,0.0133057-0.0010376,0.0273438-0.0010376,0.0414429c0,2.1611938,1.779541,3.9191895,3.9667358,3.9191895
				c2.1873169,0,3.9668579-1.7579956,3.9668579-3.9191895c0-0.0140991-0.0009155-0.0281372-0.0010376-0.0414429h14.1155396
				c-0.0001221,0.0133057-0.0010376,0.0273438-0.0010376,0.0414429c0,2.1611938,1.779541,3.9191895,3.9667358,3.9191895
				c2.1873169,0,3.9668579-1.7579956,3.9668579-3.9191895c0-0.0140991-0.0009155-0.0281372-0.0011597-0.0414429h2.0472412
				c0.3459473,0,0.6263428-0.2775269,0.6263428-0.6186523v-6.6022339
				C49.9989624,30.1899414,48.7819824,28.8359375,47.1987305,28.5974731z M39.3095093,21.8768311h4.7183838
				c0.7597656,0,1.3779907,0.6105347,1.3779907,1.3616943v0.0406494h-6.0963745V21.8768311z M39.3095093,28.5612183v-4.0440063
				h5.5656128l1.0229492,4.0440063H39.3095093z M21.3126221,41.7633057c-1.4963989,0-2.7140503-1.2021484-2.7140503-2.6810913
				c0-1.479248,1.2176514-2.6826782,2.7140503-2.6826782c1.496582,0,2.7142334,1.2034302,2.7142334,2.6826782
				C24.0268555,40.5611572,22.8092041,41.7633057,21.3126221,41.7633057z M43.3598022,41.7633057
				c-1.496582,0-2.7141113-1.2021484-2.7141113-2.6810913c0-1.479248,1.2175293-2.6826782,2.7141113-2.6826782
				c1.496521,0,2.7141724,1.2034302,2.7141724,2.6826782C46.0739746,40.5611572,44.8563232,41.7633057,43.3598022,41.7633057z
				 M48.7462769,33.8421021H48.036438c-0.3914185,0-0.7097778-0.3150024-0.7097778-0.7015991v-0.7015991h1.4196167V33.8421021z
				 M21.3126221,37.8027344c-0.7137451,0-1.2944336,0.5734863-1.2944336,1.27948
				c0,0.7052612,0.5806885,1.2787476,1.2944336,1.2787476c0.7138672,0,1.2944336-0.5734863,1.2944336-1.2787476
				C22.6070557,38.3762207,22.0264893,37.8027344,21.3126221,37.8027344z M43.3598022,37.8027344
				c-0.7138062,0-1.2944336,0.5734863-1.2944336,1.27948c0,0.7052612,0.5806274,1.2787476,1.2944336,1.2787476
				c0.7137451,0,1.2944336-0.5734863,1.2944336-1.2787476C44.6542358,38.3762207,44.0735474,37.8027344,43.3598022,37.8027344z
				 M26.0311279,35.7805176c0,0.3427124,0.2803955,0.6190186,0.6263428,0.6190186h9.3532715
				c0.3459473,0,0.6263428-0.2763062,0.6263428-0.6190186c0-0.3411255-0.2803955-0.6186523-0.6263428-0.6186523h-9.3532715
				C26.3115234,35.1618652,26.0311279,35.4393921,26.0311279,35.7805176z M11.9593506,33.7598877h8.0172119
				c0.3458252,0,0.6262817-0.2778931,0.6262817-0.6193848c0-0.3419189-0.2804565-0.6186523-0.6262817-0.6186523h-8.0172119
				c-0.3459473,0-0.6262817,0.2767334-0.6262817,0.6186523C11.3330688,33.4819946,11.6134033,33.7598877,11.9593506,33.7598877z
				 M30.8912354,24.1205444l-5.5699463,5.5043335l-2.897644-2.8635254c-0.2445679-0.2420654-0.6412354-0.2420654-0.8858032,0
				c-0.2445679,0.241272-0.2445679,0.6335449,0,0.8755493l3.3405151,3.3001709
				c0.1222534,0.1212158,0.2827148,0.1816406,0.4429321,0.1816406s0.3205566-0.0604248,0.4428711-0.1816406l6.0128174-5.940979
				c0.2445679-0.2412109,0.2445679-0.6334839,0-0.8755493C31.5324097,23.8792725,31.1358032,23.8792725,30.8912354,24.1205444z"/>
		</g>
	</g>
</g>
</svg>
