<?xml version="1.0" encoding="utf-8"?>
<svg version="1.1" id="Capa_1" xmlns="http://www.w3.org/2000/svg" xmlns:xlink="http://www.w3.org/1999/xlink" x="0px" y="0px"
	 viewBox="174.9523926 382.5714417 48.095211 28.8571281"
	 style="enable-background:new 174.9523926 382.5714417 48.095211 28.8571281;" xml:space="preserve"
	 width="33px" height="20px">
<style type="text/css">
	.st0{fill:#FFB600;}
	.st1{fill:#F7981D;}
	.st2{fill:#FF8500;}
	.st3{fill:#FF5050;}
	.st4{fill:#E52836;}
	.st5{fill:#CB2026;}
	.st6{fill:#FFFFFF;}
	.st7{fill:#DCE5E5;}
</style>
<path class="st0" d="M223.0476074,397c0,7.9395447-6.4127045,14.4285583-14.4285736,14.4285583
	c-7.9395294,0-14.4285583-6.4890137-14.4285583-14.4285583l0,0c0-7.9395142,6.4126892-14.4285583,14.3522186-14.4285583
	C216.634903,382.5714417,223.0476074,389.0604858,223.0476074,397L223.0476074,397z"/>
<path class="st1" d="M208.6190338,382.5714417c7.9395294,0,14.4285736,6.4890442,14.4285736,14.4285583l0,0
	c0,7.9395447-6.4127045,14.4285583-14.4285736,14.4285583c-7.9395294,0-14.4285583-6.4890137-14.4285583-14.4285583"/>
<path class="st2" d="M208.6190338,382.5714417c7.9395294,0,14.4285736,6.4890442,14.4285736,14.4285583l0,0
	c0,7.9395447-6.4127045,14.4285583-14.4285736,14.4285583"/>
<path class="st3" d="M189.2282715,382.5714417c-7.8631897,0.076355-14.2758789,6.4890442-14.2758789,14.4285583
	c0,7.9395447,6.4126892,14.4285583,14.4285583,14.4285583c3.7407379,0,7.0997772-1.45047,9.6953888-3.7407227l0,0l0,0
	c0.5343933-0.4580688,0.9924316-0.9924316,1.4504852-1.526825h-2.9773102
	c-0.3817139-0.4580688-0.7634277-0.9924622-1.0687866-1.4505005h5.1148834
	c0.3053741-0.4580383,0.610733-0.9924316,0.8397522-1.526825h-6.7944031
	c-0.2290192-0.4580688-0.4580383-0.9924622-0.6107178-1.5268555h7.9395142
	c0.4580536-1.45047,0.7634277-2.9773254,0.7634277-4.5804749c0-1.0687866-0.1526947-2.0612488-0.3053741-3.0536804h-8.8556213
	c0.0763397-0.5343933,0.2290192-0.9924316,0.3816986-1.526825h7.9395294
	c-0.1526794-0.5343933-0.3817139-1.0687866-0.610733-1.526825h-6.7180634
	c0.2290344-0.5343933,0.5343933-0.9924622,0.8397675-1.526825h5.1148834
	c-0.3053741-0.5343933-0.6870728-1.0687866-1.1451263-1.5268555h-2.824646
	c0.4580536-0.5343933,0.9161072-0.9924316,1.4505005-1.45047c-2.5192719-2.3666077-5.9546509-3.7407532-9.6953888-3.7407532
	C189.3046112,382.5714417,189.3046112,382.5714417,189.2282715,382.5714417z"/>
<path class="st4" d="M174.9523926,397c0,7.9395447,6.4126892,14.4285583,14.4285583,14.4285583
	c3.7407379,0,7.0997772-1.45047,9.6953888-3.7407227l0,0l0,0c0.5343933-0.4580688,0.9924316-0.9924316,1.4504852-1.526825
	h-2.9773102c-0.3817139-0.4580688-0.7634277-0.9924622-1.0687866-1.4505005h5.1148834
	c0.3053741-0.4580383,0.610733-0.9924316,0.8397522-1.526825h-6.7944031
	c-0.2290192-0.4580688-0.4580383-0.9924622-0.6107178-1.5268555h7.9395142
	c0.4580536-1.45047,0.7634277-2.9773254,0.7634277-4.5804749c0-1.0687866-0.1526947-2.0612488-0.3053741-3.0536804h-8.8556213
	c0.0763397-0.5343933,0.2290192-0.9924316,0.3816986-1.526825h7.9395294
	c-0.1526794-0.5343933-0.3817139-1.0687866-0.610733-1.526825h-6.7180634
	c0.2290344-0.5343933,0.5343933-0.9924622,0.8397675-1.526825h5.1148834
	c-0.3053741-0.5343933-0.6870728-1.0687866-1.1451263-1.5268555h-2.824646
	c0.4580536-0.5343933,0.9161072-0.9924316,1.4505005-1.45047c-2.5192719-2.3666077-5.9546509-3.7407532-9.6953888-3.7407532
	h-0.0763397"/>
<path class="st5" d="M189.3809509,411.4285583c3.7407379,0,7.0997772-1.45047,9.6953888-3.7407227l0,0l0,0
	c0.5343933-0.4580688,0.9924316-0.9924316,1.4504852-1.526825h-2.9773102
	c-0.3817139-0.4580688-0.7634277-0.9924622-1.0687866-1.4505005h5.1148834
	c0.3053741-0.4580383,0.610733-0.9924316,0.8397522-1.526825h-6.7944031
	c-0.2290192-0.4580688-0.4580383-0.9924622-0.6107178-1.5268555h7.9395142
	c0.4580536-1.45047,0.7634277-2.9773254,0.7634277-4.5804749c0-1.0687866-0.1526947-2.0612488-0.3053741-3.0536804h-8.8556213
	c0.0763397-0.5343933,0.2290192-0.9924316,0.3816986-1.526825h7.9395294
	c-0.1526794-0.5343933-0.3817139-1.0687866-0.610733-1.526825h-6.7180634
	c0.2290344-0.5343933,0.5343933-0.9924622,0.8397675-1.526825h5.1148834
	c-0.3053741-0.5343933-0.6870728-1.0687866-1.1451263-1.5268555h-2.824646
	c0.4580536-0.5343933,0.9161072-0.9924316,1.4505005-1.45047c-2.5192719-2.3666077-5.9546509-3.7407532-9.6953888-3.7407532
	h-0.0763397"/>
<g>
	<path class="st6" d="M194.4958496,400.6643982l0.2290192-1.2977905c-0.0763397,0-0.2290192,0.0763245-0.3817139,0.0763245
		c-0.5343933,0-0.610733-0.3053589-0.5343933-0.4580383l0.4580536-2.6719666h0.8397675l0.2290192-1.4505005h-0.7634125
		l0.1526794-0.9160767h-1.5268402c0,0-0.9160919,5.0385437-0.9160919,5.6492615c0,0.9161072,0.5343933,1.297821,1.2214661,1.297821
		C193.9614563,400.8934326,194.3431549,400.7407532,194.4958496,400.6643982z"/>
	<path class="st6" d="M195.0302277,398.2214661c0,2.1375732,1.4505005,2.6719666,2.6719666,2.6719666
		c1.1451263,0,1.6031647-0.2290344,1.6031647-0.2290344l0.3053741-1.4505005c0,0-0.8397675,0.3817139-1.6031799,0.3817139
		c-1.6795197,0-1.3741455-1.2214661-1.3741455-1.2214661h3.1300049c0,0,0.2290192-0.9924316,0.2290192-1.3741455
		c0-0.9924316-0.5343781-2.2138977-2.2138977-2.2138977C196.175354,394.6334229,195.0302277,396.3129272,195.0302277,398.2214661z
		 M197.7021942,396.0075684c0.8397522,0,0.6870728,0.9924316,0.6870728,1.0687866h-1.6795197
		C196.7097473,397,196.8624268,396.0075684,197.7021942,396.0075684z"/>
	<path class="st6" d="M207.3975677,400.6643982l0.3053741-1.6795044c0,0-0.7634125,0.3817139-1.2978058,0.3817139
		c-1.0687866,0-1.5268402-0.8397827-1.5268402-1.7558594c0-1.8322144,0.9161072-2.824646,1.9848938-2.824646
		c0.7634125,0,1.3741455,0.4580383,1.3741455,0.4580383l0.2290192-1.6031799c0,0-0.9160919-0.3816833-1.7558594-0.3816833
		c-1.7558594,0-3.5117035,1.526825-3.5117035,4.4277954c0,1.9085388,0.9160919,3.2063599,2.748291,3.2063599
		C206.5578156,400.8934326,207.3975677,400.6643982,207.3975677,400.6643982z"/>
	<path class="st6" d="M186.0982666,394.6334229c-1.0687866,0-1.8321991,0.3053589-1.8321991,0.3053589l-0.2290192,1.297821
		c0,0,0.6870728-0.3053894,1.6795044-0.3053894c0.5343933,0,0.9924469,0.076355,0.9924469,0.5343933
		c0,0.3053589-0.0763397,0.3817139-0.0763397,0.3817139s-0.4580536,0-0.6870728,0
		c-1.2978058,0-2.7483063,0.5343933-2.7483063,2.2902527c0,1.3741455,0.9161072,1.6795044,1.4505005,1.6795044
		c1.0687714,0,1.526825-0.6870728,1.6031647-0.6870728l-0.0763397,0.6107483h1.3741455l0.610733-4.1987915
		C188.1594849,394.7097473,186.6326599,394.6334229,186.0982666,394.6334229z M186.4036407,398.0687866
		c0,0.2290344-0.1526947,1.4505005-1.0687866,1.4505005c-0.4580536,0-0.610733-0.3817139-0.610733-0.6107483
		c0-0.3817139,0.2290192-0.9160767,1.3741455-0.9160767C186.3272858,398.0687866,186.4036407,398.0687866,186.4036407,398.0687866z"
		/>
	<path class="st6" d="M189.6099854,400.8170776c0.3816986,0,2.2902374,0.076355,2.2902374-1.9848633
		c0-1.9085388-1.8321991-1.5268555-1.8321991-2.2902527c0-0.3817139,0.3053741-0.5343933,0.8397675-0.5343933
		c0.2290192,0,1.0687866,0.0763245,1.0687866,0.0763245l0.2290192-1.3741455c0,0-0.5343933-0.1526794-1.4504852-0.1526794
		c-1.1451263,0-2.2902527,0.4580688-2.2902527,1.9848938c0,1.7558594,1.9085388,1.6031799,1.9085388,2.2902527
		c0,0.4580383-0.5343933,0.5343933-0.9161072,0.5343933c-0.6870728,0-1.3741455-0.2290344-1.3741455-0.2290344l-0.2290192,1.3741455
		C187.9304657,400.6643982,188.3121796,400.8170776,189.6099854,400.8170776z"/>
	<path class="st6" d="M220.070282,393.4119568l-0.3053741,2.0612183c0,0-0.610733-0.7634277-1.4504852-0.7634277
		c-1.3741455,0-2.5956116,1.6795349-2.5956116,3.6643982c0,1.2214661,0.610733,2.5192871,1.9085388,2.5192871
		c0.9160919,0,1.4504852-0.6107483,1.4504852-0.6107483l-0.0763397,0.5343933h1.5268402l1.1451111-7.3287964L220.070282,393.4119568
		z M219.3832092,397.4580383c0,0.8397827-0.3817139,1.9085693-1.2214661,1.9085693
		c-0.5343933,0-0.8397522-0.4580688-0.8397522-1.2214661c0-1.2214661,0.5343933-1.9848938,1.2214661-1.9848938
		C219.0778351,396.1602478,219.3832092,396.5419617,219.3832092,397.4580383z"/>
	<path class="st6" d="M177.7770386,400.7407532l0.9160919-5.4966125l0.1526794,5.4966125h1.0687866l1.9848785-5.4966125
		l-0.8397522,5.4966125h1.6031647l1.2214661-7.3287964h-2.5192719l-1.526825,4.5041504l-0.0763397-4.5041504h-2.213913
		l-1.2214661,7.3287964H177.7770386z"/>
	<path class="st6" d="M201.4429321,400.7407532c0.4580536-2.5192871,0.5343933-4.5805054,1.6031647-4.1987915
		c0.1526947-0.9924316,0.3817139-1.3741455,0.5343933-1.7558594c0,0-0.0763397,0-0.3053589,0
		c-0.6870728,0-1.2214661,0.9161072-1.2214661,0.9161072l0.1526794-0.8397827h-1.4504852l-0.9924469,5.9546509h1.6795197
		V400.7407532z"/>
	<path class="st6" d="M210.9092865,394.6334229c-1.0687866,0-1.8321991,0.3053589-1.8321991,0.3053589l-0.2290192,1.297821
		c0,0,0.6870728-0.3053894,1.6795044-0.3053894c0.5343933,0,0.9924469,0.076355,0.9924469,0.5343933
		c0,0.3053589-0.0763397,0.3817139-0.0763397,0.3817139s-0.4580536,0-0.6870728,0
		c-1.2978058,0-2.7483063,0.5343933-2.7483063,2.2902527c0,1.3741455,0.9161072,1.6795044,1.4505005,1.6795044
		c1.0687866,0,1.526825-0.6870728,1.6031647-0.6870728l-0.0763397,0.6107483h1.3741455l0.610733-4.1987915
		C213.0468597,394.7097473,211.4436798,394.6334229,210.9092865,394.6334229z M211.2910004,398.0687866
		c0,0.2290344-0.1526947,1.4505005-1.0687866,1.4505005c-0.4580536,0-0.610733-0.3817139-0.610733-0.6107483
		c0-0.3817139,0.2290192-0.9160767,1.3741455-0.9160767C211.2146606,398.0687866,211.2146606,398.0687866,211.2910004,398.0687866z"
		/>
	<path class="st6" d="M214.2683258,400.7407532c0.4580383-2.5192871,0.5343781-4.5805054,1.6031647-4.1987915
		c0.1526794-0.9924316,0.3817139-1.3741455,0.5343933-1.7558594c0,0-0.0763397,0-0.3053741,0
		c-0.6870728,0-1.2214508,0.9161072-1.2214508,0.9161072l0.1526794-0.8397827h-1.4505005l-0.9924316,5.9546509h1.6795197
		V400.7407532z"/>
</g>
<g>
	<path class="st7" d="M192.1292572,399.5956116c0,0.9161072,0.5343933,1.297821,1.2214661,1.297821
		c0.5343933,0,0.9924316-0.1526794,1.1451263-0.2290344l0.2290192-1.2977905c-0.0763397,0-0.2290192,0.0763245-0.3817139,0.0763245
		c-0.5343933,0-0.610733-0.3053589-0.5343933-0.4580383l0.4580536-2.6719666h0.8397675l0.2290192-1.4505005h-0.7634125
		l0.1526794-0.9160767"/>
	<path class="st7" d="M195.7936554,398.2214661c0,2.1375732,0.6870728,2.6719666,1.9085388,2.6719666
		c1.1451263,0,1.6031647-0.2290344,1.6031647-0.2290344l0.3053741-1.4505005c0,0-0.8397675,0.3817139-1.6031799,0.3817139
		c-1.6795197,0-1.3741455-1.2214661-1.3741455-1.2214661h3.1300049c0,0,0.2290192-0.9924316,0.2290192-1.3741455
		c0-0.9924316-0.5343781-2.2138977-2.2138977-2.2138977C196.175354,394.6334229,195.7936554,396.3129272,195.7936554,398.2214661z
		 M197.7021942,396.0075684c0.8397522,0,0.9924316,0.9924316,0.9924316,1.0687866h-1.9848785
		C196.7097473,397,196.8624268,396.0075684,197.7021942,396.0075684z"/>
	<path class="st7" d="M207.3975677,400.6643982l0.3053741-1.6795044c0,0-0.7634125,0.3817139-1.2978058,0.3817139
		c-1.0687866,0-1.5268402-0.8397827-1.5268402-1.7558594c0-1.8322144,0.9161072-2.824646,1.9848938-2.824646
		c0.7634125,0,1.3741455,0.4580383,1.3741455,0.4580383l0.2290192-1.6031799c0,0-0.9160919-0.3816833-1.7558594-0.3816833
		c-1.7558594,0-2.748291,1.526825-2.748291,4.4277954c0,1.9085388,0.1526794,3.2063599,1.9848785,3.2063599
		C206.5578156,400.8934326,207.3975677,400.6643982,207.3975677,400.6643982z"/>
	<path class="st7" d="M184.0370483,396.3129272c0,0,0.6870728-0.3053589,1.6795044-0.3053589
		c0.5343933,0,0.9924469,0.0763245,0.9924469,0.5343933c0,0.3053589-0.0763397,0.3817139-0.0763397,0.3817139
		s-0.4580536,0-0.6870728,0c-1.2978058,0-2.7483063,0.5343933-2.7483063,2.2902222
		c0,1.374176,0.9161072,1.6795349,1.4505005,1.6795349c1.0687714,0,1.526825-0.6870728,1.6031647-0.6870728l-0.0763397,0.6107178
		h1.3741455l0.610733-4.1987915c0-1.7558594-1.526825-1.8321838-2.137558-1.8321838 M187.1670532,398.0687866
		c0,0.2290344-0.9161072,1.4505005-1.8321991,1.4505005c-0.4580536,0-0.610733-0.3817139-0.610733-0.6107483
		c0-0.3817139,0.2290192-0.9160767,1.3741455-0.9160767C186.3272858,398.0687866,187.1670532,398.0687866,187.1670532,398.0687866z"
		/>
	<path class="st7" d="M187.9304657,400.6643982c0,0,0.4580536,0.1526794,1.7558594,0.1526794
		c0.3816986,0,2.2902374,0.076355,2.2902374-1.9848633c0-1.9085388-1.8321838-1.5268555-1.8321838-2.2902527
		c0-0.3817139,0.3053589-0.5343933,0.8397522-0.5343933c0.2290192,0,1.0687866,0.0763245,1.0687866,0.0763245l0.2290192-1.3741455
		c0,0-0.5343933-0.1526794-1.4504852-0.1526794c-1.1451263,0-1.5268402,0.4580688-1.5268402,1.9848938
		c0,1.7558594,1.1451263,1.6031799,1.1451263,2.2902527c0,0.4580383-0.5343933,0.5343933-0.9161072,0.5343933"/>
	<path class="st7" d="M219.7649078,395.473175c0,0-0.6107178-0.7634277-1.4504852-0.7634277
		c-1.3741455,0-1.8321991,1.6795349-1.8321991,3.6643982c0,1.2214661-0.1526794,2.5192871,1.1451263,2.5192871
		c0.9160919,0,1.4504852-0.6107483,1.4504852-0.6107483l-0.0763397,0.5343933h1.5268402l1.1451263-7.3287964
		 M219.6885681,397.4580383c0,0.8397827-0.6870728,1.9085693-1.526825,1.9085693
		c-0.5343933,0-0.8397522-0.4580688-0.8397522-1.2214661c0-1.2214661,0.5343781-1.9848938,1.2214508-1.9848938
		C219.0778351,396.1602478,219.6885681,396.5419617,219.6885681,397.4580383z"/>
	<path class="st7" d="M177.7770386,400.7407532l0.9160919-5.4966125l0.1526794,5.4966125h1.0687866l1.9848785-5.4966125
		l-0.8397522,5.4966125h1.6031647l1.2214661-7.3287964h-1.9085388l-2.137558,4.5041504l-0.0763397-4.5041504h-0.8397675
		l-2.5956116,7.3287964H177.7770386z"/>
	<path class="st7" d="M199.8397522,400.7407532h1.6031799c0.4580383-2.5192871,0.5343933-4.5805054,1.6031647-4.1987915
		c0.1526794-0.9924316,0.3817139-1.3741455,0.5343933-1.7558594c0,0-0.0763397,0-0.3053589,0
		c-0.687088,0-1.2214661,0.9161072-1.2214661,0.9161072l0.1526794-0.8397827"/>
	<path class="st7" d="M208.8480682,396.3129272c0,0,0.6870728-0.3053589,1.6795197-0.3053589
		c0.5343933,0,0.9924316,0.0763245,0.9924316,0.5343933c0,0.3053589-0.0763397,0.3817139-0.0763397,0.3817139
		s-0.4580536,0-0.6870728,0c-1.2978058,0-2.748291,0.5343933-2.748291,2.2902222
		c0,1.374176,0.9160919,1.6795349,1.4504852,1.6795349c1.0687866,0,1.526825-0.6870728,1.6031799-0.6870728l-0.076355,0.6107178
		h1.3741455l0.610733-4.1987915c0-1.7558594-1.526825-1.8321838-2.137558-1.8321838 M211.9780731,398.0687866
		c0,0.2290344-0.9161072,1.4505005-1.8321991,1.4505005c-0.4580536,0-0.610733-0.3817139-0.610733-0.6107483
		c0-0.3817139,0.2290192-0.9160767,1.3741455-0.9160767C211.2146606,398.0687866,211.9780731,398.0687866,211.9780731,398.0687866z"
		/>
	<path class="st7" d="M212.6651459,400.7407532h1.6031799c0.4580383-2.5192871,0.5343781-4.5805054,1.6031647-4.1987915
		c0.1526794-0.9924316,0.3817139-1.3741455,0.5343933-1.7558594c0,0-0.0763397,0-0.3053741,0
		c-0.6870728,0-1.2214508,0.9161072-1.2214508,0.9161072l0.1526794-0.8397827"/>
</g>
</svg>
