<?xml version="1.0" encoding="utf-8"?>
<svg version="1.1" id="Capa_1" xmlns="http://www.w3.org/2000/svg" xmlns:xlink="http://www.w3.org/1999/xlink" x="0px" y="0px"
	 viewBox="170.8261719 389.8000183 56.3476677 14.3999634"
	 style="enable-background:new 170.8261719 389.8000183 56.3476677 14.3999634;" xml:space="preserve"
	 width="75px" height="20px">
<style type="text/css">
	.st0{fill:#139AD6;}
	.st1{fill:#263B80;}
	.st2{fill:#232C65;}
</style>
<path class="st0" d="M214.3838196,393.5565186h-3.0409851c-0.178894,0-0.3577728,0.178894-0.4472046,0.3577881l-1.252182,7.8707581
	c0,0.178894,0.089447,0.2683411,0.2683258,0.2683411h1.6099396c0.1788788,0,0.2683258-0.089447,0.2683258-0.2683411
	l0.3577576-2.2359924c0-0.178894,0.1788788-0.3577881,0.4472046-0.3577881h0.9838409
	c2.0571442,0,3.2198639-0.9838257,3.4881897-2.9515381c0.178894-0.8049622,0-1.5204773-0.3577576-1.9676819
	C216.1726227,393.8248596,215.3676605,393.5565186,214.3838196,393.5565186 M214.7415771,396.5080872
	c-0.1788788,1.0732727-0.9838562,1.0732727-1.7888184,1.0732727h-0.5366364l0.3577576-2.0571289
	c0-0.089447,0.089447-0.178894,0.2683258-0.178894h0.1788788c0.5366364,0,1.073288,0,1.3416138,0.3577576
	C214.7415771,395.7925415,214.7415771,396.0608826,214.7415771,396.5080872"/>
<g>
	<path class="st1" d="M192.4708252,393.5565186h-3.0409851c-0.1788788,0-0.3577576,0.178894-0.4471893,0.3577881
		l-1.252182,7.8707581c0,0.178894,0.089447,0.2683411,0.2683258,0.2683411h1.4310455
		c0.178894,0,0.3577728-0.178894,0.4472046-0.3577576l0.3577728-2.1466064c0-0.1788635,0.1788788-0.3577576,0.4472046-0.3577576
		h0.9838409c2.0571442,0,3.2198639-0.9838257,3.4881897-2.9515381c0.1788788-0.8049622,0-1.5204773-0.3577576-1.9676819
		C194.2596436,393.8248596,193.5441132,393.5565186,192.4708252,393.5565186 M192.828598,396.5080872
		c-0.1788788,1.0732727-0.9838562,1.0732727-1.7888184,1.0732727h-0.4472046l0.3577576-2.0571289
		c0-0.089447,0.089447-0.178894,0.2683258-0.178894h0.1788788c0.5366516,0,1.073288,0,1.3416138,0.3577576
		C192.828598,395.7925415,192.9180298,396.0608826,192.828598,396.5080872"/>
	<path class="st1" d="M201.6832275,396.4186401h-1.4310455c-0.089447,0-0.2683258,0.089447-0.2683258,0.1788635l-0.089447,0.4472046
		l-0.0894318-0.1788635c-0.3577576-0.4472046-0.9838409-0.6260986-1.6993713-0.6260986
		c-1.6099396,0-3.0409851,1.2521667-3.3093109,2.9515381c-0.1788788,0.8944092,0.089447,1.6994019,0.5366516,2.2360229
		c0.4472046,0.5366516,1.073288,0.7155457,1.8782501,0.7155457c1.3416138,0,2.0571289-0.8049927,2.0571289-0.8049927
		l-0.0894318,0.4472046c0,0.178894,0.0894318,0.2683411,0.2683258,0.2683411h1.3415985
		c0.178894,0,0.3577728-0.178894,0.4472046-0.3577576l0.8049774-5.0086975
		C201.9515533,396.5975037,201.7726746,396.4186401,201.6832275,396.4186401 M199.6260986,399.2807312
		c-0.178894,0.8049622-0.8049774,1.4310608-1.6993866,1.4310608c-0.4472046,0-0.8049622-0.178894-0.9838409-0.3577576
		c-0.1788788-0.2683411-0.2683258-0.6260986-0.2683258-1.0733032c0.089447-0.8049622,0.8049622-1.4310608,1.6099396-1.4310608
		c0.4472046,0,0.7155151,0.178894,0.9838409,0.3577881C199.5366516,398.475769,199.6260986,398.9229736,199.6260986,399.2807312"/>
</g>
<path class="st0" d="M223.5067749,396.4186401h-1.4310608c-0.0894318,0-0.2683105,0.089447-0.2683105,0.1788635l-0.089447,0.4472046
	l-0.0894318-0.1788635c-0.3577728-0.4472046-0.9838562-0.6260986-1.6993866-0.6260986
	c-1.6099243,0-3.0409851,1.2521667-3.3092957,2.9515381c-0.178894,0.8944092,0.0894318,1.6994019,0.5366364,2.2360229
	c0.4472046,0.5366516,1.073288,0.7155457,1.8782501,0.7155457c1.3416138,0,2.0571442-0.8049927,2.0571442-0.8049927
	l-0.089447,0.4472046c0,0.178894,0.089447,0.2683411,0.2683258,0.2683411h1.3416138
	c0.1788788,0,0.3577576-0.178894,0.4472046-0.3577576l0.8049622-5.0086975
	C223.7750854,396.5975037,223.6856537,396.4186401,223.5067749,396.4186401 M221.4496307,399.2807312
	c-0.1788788,0.8049622-0.8049622,1.4310608-1.6993713,1.4310608c-0.4472046,0-0.8049774-0.178894-0.9838562-0.3577576
	c-0.1788788-0.2683411-0.2683105-0.6260986-0.2683105-1.0733032c0.0894318-0.8049622,0.8049622-1.4310608,1.6099243-1.4310608
	c0.4472046,0,0.7155304,0.178894,0.9838562,0.3577881C221.4496307,398.475769,221.5390778,398.9229736,221.4496307,399.2807312"/>
<path class="st1" d="M209.4645691,396.4186401h-1.5204926c-0.1788788,0-0.2683105,0.089447-0.3577576,0.1788635
	l-1.9676971,3.0409851l-0.8944092-2.8620911c-0.089447-0.178894-0.1788788-0.2683105-0.4472046-0.2683105h-1.4310455
	c-0.178894,0-0.2683258,0.1788635-0.2683258,0.3577576l1.6099243,4.7403564l-1.5204926,2.1465759
	c-0.0894318,0.178894,0,0.4472046,0.178894,0.4472046h1.4310455c0.1788788,0,0.2683258-0.089447,0.3577576-0.178894
	l4.9192505-7.0657959C209.8223419,396.6869507,209.6434631,396.4186401,209.4645691,396.4186401"/>
<path class="st0" d="M225.2061462,393.8248596l-1.252182,8.0496521c0,0.178894,0.089447,0.2683411,0.2683258,0.2683411h1.252182
	c0.1788788,0,0.3577576-0.178894,0.4471893-0.3577881l1.252182-7.8707581c0-0.178894-0.089447-0.2683411-0.2683258-0.2683411
	h-1.4310455C225.385025,393.5565186,225.2955933,393.6459656,225.2061462,393.8248596"/>
<path class="st1" d="M181.1118622,390.8733215c-0.6260834-0.7155457-1.7888184-1.0733032-3.3987579-1.0733032h-4.4720306
	c-0.2683258,0-0.5366516,0.2683105-0.6260834,0.5366516l-1.7888184,11.7167358c0,0.2683105,0.1788788,0.4472046,0.3577576,0.4472046
	h2.7726746l0.7155151-4.3825989v0.178894c0.089447-0.2683411,0.3577728-0.5366516,0.6260834-0.5366516h1.3416138
	c2.5937805,0,4.5614777-1.0733032,5.187561-4.0248413c0-0.089447,0-0.178894,0-0.2683105c-0.0894318,0-0.0894318,0,0,0
	C181.9168243,392.3043518,181.7379456,391.5888367,181.1118622,390.8733215"/>
<path class="st0" d="M181.7379456,393.4671021L181.7379456,393.4671021c0,0.0894165,0,0.1788635,0,0.2683105
	c-0.6260834,3.0409851-2.5937805,4.0248413-5.187561,4.0248413h-1.3416138c-0.2683258,0-0.5366516,0.2683105-0.6260834,0.5366211
	l-0.8944092,5.4559021c0,0.1788635,0.0894318,0.3577576,0.3577576,0.3577576h2.3254547
	c0.2683258,0,0.5366516-0.178894,0.5366516-0.4472046v-0.089447l0.4472046-2.772644v-0.178894
	c0-0.2683105,0.2683258-0.4472046,0.5366364-0.4472046h0.3577728c2.2360229,0,4.024826-0.8944092,4.4720306-3.5776367
	c0.1788788-1.0732727,0.089447-2.0571289-0.4472046-2.683197
	C182.1851501,393.7354126,182.0062714,393.5565186,181.7379456,393.4671021"/>
<path class="st2" d="M181.1118622,393.198761c-0.089447,0-0.1788788-0.089447-0.2683258-0.089447s-0.1788788,0-0.2683258-0.0894165
	c-0.3577576-0.089447-0.7155304-0.089447-1.162735-0.089447h-3.4881744c-0.089447,0-0.178894,0-0.2683258,0.089447
	c-0.1788788,0.0894165-0.2683258,0.2683105-0.2683258,0.4472046l-0.7155304,4.6509094v0.178894
	c0.089447-0.2683411,0.3577728-0.5366516,0.6260834-0.5366516h1.3416138c2.5937805,0,4.5614777-1.0733032,5.187561-4.0248413
	c0-0.089447,0-0.178894,0.089447-0.2683105c-0.1788788-0.089447-0.2683258-0.178894-0.4472046-0.178894
	C181.2012939,393.198761,181.2012939,393.198761,181.1118622,393.198761"/>
</svg>
