<?xml version="1.0" encoding="utf-8"?>
<svg version="1.1" id="Capa_1" xmlns="http://www.w3.org/2000/svg" xmlns:xlink="http://www.w3.org/1999/xlink" x="0px" y="0px"
	 viewBox="183 380.4485474 48 33.1029396" style="enable-background:new 183 380.4485474 48 33.1029396;" xml:space="preserve"
	 width="28px" height="20px">
<style type="text/css">
	.st0{fill:#FFFFFF;}
	.st1{fill:#F79F1A;}
	.st2{fill:#059BBF;}
	.st3{opacity:0.15;fill:#202121;enable-background:new    ;}
</style>
<path class="st0" d="M231,410.7138672c0,1.5671082-1.2703094,2.8375244-2.8373413,2.8375244h-42.3253174
	C184.2703094,413.5514832,183,412.2809753,183,410.7138672v-27.427887c0-1.5671082,1.2703094-2.8374329,2.8373413-2.8374329
	h42.3253174c1.5671234,0,2.8373413,1.2704163,2.8373413,2.8374329V410.7138672L231,410.7138672z"/>
<path class="st1" d="M193.6537476,397.1907959l-1.1270599-5.4066467c-0.1926575-0.7456055-0.7532806-0.9674072-1.4537811-0.9967651
	h-5.1673126l-0.0460358,0.2470398C189.8841553,392.0100708,192.5471191,394.3637695,193.6537476,397.1907959z"/>
<g>
	<polygon class="st2" points="205.6269379,390.8961487 202.2882233,390.8961487 200.2030334,403.1330566 203.5362244,403.1330566 	
		"/>
	<path class="st2" d="M195.6885986,403.1207581l5.2509308-12.2162781h-3.5335236l-3.2665405,8.3463745l-0.3486481-1.2601929
		c-0.6403198-1.5160217-2.4703217-3.6980591-4.6186981-5.0716858l2.9859467,10.2059021L195.6885986,403.1207581z"/>
	<path class="st2" d="M215.1497803,399.132843c0.0123749-1.3892822-0.8796539-2.4489441-2.8019104-3.3241882
		c-1.1682129-0.5653381-1.880249-0.9422913-1.8717194-1.5159607c0-0.5068054,0.6030121-1.0512085,1.9095001-1.0512085
		c1.0932312-0.0167847,1.8803558,0.2218933,2.4960022,0.4690247l0.3016968,0.1382751l0.4524231-2.6509399
		c-0.6617737-0.2472229-1.6963043-0.5110474-2.9901428-0.5110474c-3.2959747,0-5.6159973,1.6585388-5.6370087,4.037262
		c-0.0209961,1.7590332,1.6586304,2.7389832,2.9232178,3.3251953c1.2981567,0.5975647,1.7337189,0.9799805,1.7253876,1.5160522
		c-0.0083466,0.8196411-1.0345459,1.1934204-1.993515,1.1934204c-1.3359375,0-2.0437469-0.1842041-3.1414642-0.64151
		l-0.4265594-0.1959534l-0.4685669,2.7420959c0.7784119,0.34021,2.2188721,0.6376038,3.7141876,0.6499634
		C212.846344,403.313324,215.124649,401.6759033,215.1497803,399.132843z"/>
	<path class="st2" d="M219.1156006,401.2989197c0.3810883,0,3.7857971,0.0042114,4.2718048,0.0042114
		c0.1004944,0.4261169,0.4062195,1.8342285,0.4062195,1.8342285h3.0947876l-2.7012329-12.2285767h-2.5755005
		c-0.7999573,0-1.3944244,0.217804-1.7463684,1.0133667l-4.9542236,11.21521h3.5055084
		C218.4163055,403.1373596,218.9857483,401.6299438,219.1156006,401.2989197z M221.4020691,395.3729858
		c-0.01651,0.0334778,0.2765503-0.7077332,0.4440918-1.168396l0.2260284,1.0552368c0,0,0.6367493,2.9233093,0.7706299,3.5347595
		h-2.7682495C220.3510284,398.0910645,221.4020691,395.3729858,221.4020691,395.3729858z"/>
	<path class="st2" d="M228.1626587,380.4485474h-42.3253174c-1.5670319,0-2.8373413,1.2703247-2.8373413,2.8374329v2.9448853h48
		v-2.9448853C231,381.7188721,229.7297821,380.4485474,228.1626587,380.4485474z"/>
</g>
<path class="st1" d="M228.1626587,413.5514832h-42.3253174c-1.5670319,0-2.8373413-1.2704163-2.8373413-2.8374329v-2.9448853h48
	v2.9448853C231,412.2810669,229.7297821,413.5514832,228.1626587,413.5514832z"/>
<path class="st3" d="M185.0172119,410.7138672v-27.427887c0-1.5671082,1.2704163-2.8374329,2.8375397-2.8374329h-2.0175018
	c-1.5669403,0-2.8372498,1.2703247-2.8372498,2.8374329v27.4279785c0,1.5671082,1.2703094,2.8375244,2.8373413,2.8375244h2.0175018
	C186.2877197,413.5514832,185.0172119,412.2809753,185.0172119,410.7138672z"/>
</svg>
