<?xml version="1.0" encoding="utf-8"?>
<!-- Generator: Adobe Illustrator 27.2.0, SVG Export Plug-In . SVG Version: 6.00 Build 0)  -->
<svg version="1.1" id="Shape_x5F_2_00000130644082734887259070000012344494689211321490_"
	 xmlns="http://www.w3.org/2000/svg" xmlns:xlink="http://www.w3.org/1999/xlink" x="0px" y="0px" viewBox="0 0 65 52"
	 style="enable-background:new 0 0 65 52;" xml:space="preserve">
<style type="text/css">
	.st0{fill:#FE3E57;}
</style>
<g id="Shape_x5F_2">
	<g>
		<path class="st0" d="M1.749939-0.000061c-0.9665527,0-1.75,0.7764893-1.75,1.7342529
			c0,0.9577026,0.7834473,1.7342529,1.75,1.7342529C2.7164307,3.4684448,3.5,2.6918945,3.5,1.7341919
			C3.5,0.7764282,2.7164307-0.000061,1.749939-0.000061z M14.046875-0.000061c-0.9751587,0-1.765686,0.7764893-1.765686,1.7342529
			c0,0.9577026,0.7905273,1.7342529,1.765686,1.7342529c0.9750366,0,1.765564-0.7765503,1.765564-1.7342529
			C15.812439,0.7764282,15.0219116-0.000061,14.046875-0.000061z M26.343689-0.000061
			c-0.9664917,0-1.749939,0.7764893-1.749939,1.7342529c0,0.9577026,0.7834473,1.7342529,1.749939,1.7342529
			c0.9665527,0,1.75-0.7765503,1.75-1.7342529C28.093689,0.7764282,27.3102417-0.000061,26.343689-0.000061z M38.65625-0.000061
			c-0.9665527,0-1.750061,0.7764893-1.750061,1.7342529c0,0.9577026,0.7835083,1.7342529,1.750061,1.7342529
			c0.9664307,0,1.749939-0.7765503,1.749939-1.7342529C40.406189,0.7764282,39.6226807-0.000061,38.65625-0.000061z
			 M50.953064-0.000061c-0.9751587,0-1.765625,0.7764893-1.765625,1.7342529c0,0.9577026,0.7904663,1.7342529,1.765625,1.7342529
			c0.9750977,0,1.765686-0.7765503,1.765686-1.7342529C52.71875,0.7764282,51.9281616-0.000061,50.953064-0.000061z
			 M63.249939,3.4684448C64.2163696,3.4684448,65,2.6918945,65,1.7341919c0-0.9577637-0.7836304-1.7342529-1.750061-1.7342529
			s-1.75,0.7764893-1.75,1.7342529C61.499939,2.6918945,62.2835083,3.4684448,63.249939,3.4684448z M1.749939,12.1246948
			c-0.9665527,0-1.75,0.7764893-1.75,1.7346191c0,0.9577637,0.7834473,1.7342529,1.75,1.7342529
			c0.9664917,0,1.750061-0.7764893,1.750061-1.7342529C3.5,12.9011841,2.7164307,12.1246948,1.749939,12.1246948z
			 M14.046875,12.1246948c-0.9751587,0-1.765686,0.7764893-1.765686,1.7346191c0,0.9577637,0.7905273,1.7342529,1.765686,1.7342529
			c0.9750366,0,1.765564-0.7764893,1.765564-1.7342529C15.812439,12.9011841,15.0219116,12.1246948,14.046875,12.1246948z
			 M26.343689,12.1246948c-0.9664917,0-1.749939,0.7764893-1.749939,1.7346191c0,0.9577637,0.7834473,1.7342529,1.749939,1.7342529
			c0.9665527,0,1.75-0.7764893,1.75-1.7342529C28.093689,12.9011841,27.3102417,12.1246948,26.343689,12.1246948z
			 M38.65625,12.1246948c-0.9665527,0-1.750061,0.7764893-1.750061,1.7346191c0,0.9577637,0.7835083,1.7342529,1.750061,1.7342529
			c0.9664307,0,1.749939-0.7764893,1.749939-1.7342529C40.406189,12.9011841,39.6226807,12.1246948,38.65625,12.1246948z
			 M50.953064,12.1246948c-0.9751587,0-1.765625,0.7764893-1.765625,1.7346191c0,0.9577637,0.7904663,1.7342529,1.765625,1.7342529
			c0.9750977,0,1.765686-0.7764893,1.765686-1.7342529C52.71875,12.9011841,51.9281616,12.1246948,50.953064,12.1246948z
			 M63.249939,12.1246948c-0.9664307,0-1.75,0.7764893-1.75,1.7346191c0,0.9577637,0.7835693,1.7342529,1.75,1.7342529
			S65,14.8170776,65,13.859314C65,12.9011841,64.2163696,12.1246948,63.249939,12.1246948z M1.749939,24.2808838
			c-0.9665527,0-1.75,0.7696533-1.75,1.7189331s0.7834473,1.7189331,1.75,1.7189331
			C2.7164307,27.71875,3.5,26.9490967,3.5,25.9998169S2.7164307,24.2808838,1.749939,24.2808838z M14.046875,24.2808838
			c-0.9751587,0-1.765686,0.7696533-1.765686,1.7189331s0.7905273,1.7189331,1.765686,1.7189331
			c0.9750366,0,1.765564-0.7696533,1.765564-1.7189331S15.0219116,24.2808838,14.046875,24.2808838z M26.343689,24.2808838
			c-0.9664917,0-1.749939,0.7696533-1.749939,1.7189331s0.7834473,1.7189331,1.749939,1.7189331
			c0.9665527,0,1.75-0.7696533,1.75-1.7189331S27.3102417,24.2808838,26.343689,24.2808838z M38.65625,24.2808838
			c-0.9665527,0-1.750061,0.7696533-1.750061,1.7189331S37.6896973,27.71875,38.65625,27.71875
			c0.9664307,0,1.749939-0.7696533,1.749939-1.7189331S39.6226807,24.2808838,38.65625,24.2808838z M50.953064,24.2808838
			c-0.9751587,0-1.765625,0.7696533-1.765625,1.7189331s0.7904663,1.7189331,1.765625,1.7189331
			c0.9750977,0,1.765686-0.7696533,1.765686-1.7189331S51.9281616,24.2808838,50.953064,24.2808838z M63.249939,24.2808838
			c-0.9664307,0-1.75,0.7696533-1.75,1.7189331s0.7835693,1.7189331,1.75,1.7189331S65,26.9490967,65,25.9998169
			S64.2163696,24.2808838,63.249939,24.2808838z M1.749939,36.4060059c-0.9665527,0-1.75,0.7764893-1.75,1.7342529
			c0,0.9581299,0.7834473,1.7346191,1.75,1.7346191c0.9664917,0,1.750061-0.7764893,1.750061-1.7346191
			C3.5,37.1824951,2.7164307,36.4060059,1.749939,36.4060059z M14.046875,36.4060059
			c-0.9751587,0-1.765686,0.7764893-1.765686,1.7342529c0,0.9581299,0.7905273,1.7346191,1.765686,1.7346191
			c0.9750366,0,1.765564-0.7764893,1.765564-1.7346191C15.812439,37.1824951,15.0219116,36.4060059,14.046875,36.4060059z
			 M26.343689,36.4060059c-0.9664917,0-1.749939,0.7764893-1.749939,1.7342529c0,0.9581299,0.7834473,1.7346191,1.749939,1.7346191
			c0.9665527,0,1.75-0.7764893,1.75-1.7346191C28.093689,37.1824951,27.3102417,36.4060059,26.343689,36.4060059z
			 M38.65625,36.4060059c-0.9665527,0-1.750061,0.7764893-1.750061,1.7342529c0,0.9581299,0.7835083,1.7346191,1.750061,1.7346191
			c0.9664307,0,1.749939-0.7764893,1.749939-1.7346191C40.406189,37.1824951,39.6226807,36.4060059,38.65625,36.4060059z
			 M50.953064,36.4060059c-0.9751587,0-1.765625,0.7764893-1.765625,1.7342529c0,0.9581299,0.7904663,1.7346191,1.765625,1.7346191
			c0.9750977,0,1.765686-0.7764893,1.765686-1.7346191C52.71875,37.1824951,51.9281616,36.4060059,50.953064,36.4060059z
			 M63.249939,36.4060059c-0.9664307,0-1.75,0.7764893-1.75,1.7342529c0,0.9581299,0.7835693,1.7346191,1.75,1.7346191
			S65,39.0983887,65,38.1402588C65,37.1824951,64.2163696,36.4060059,63.249939,36.4060059z M1.749939,48.5311279
			c-0.9665527,0-1.75,0.7765503-1.75,1.7342529c0,0.9577637,0.7834473,1.7342529,1.75,1.7342529
			c0.9664917,0,1.750061-0.7764893,1.750061-1.7342529C3.5,49.3076782,2.7164307,48.5311279,1.749939,48.5311279z
			 M14.046875,48.5311279c-0.9751587,0-1.765686,0.7765503-1.765686,1.7342529c0,0.9577637,0.7905273,1.7342529,1.765686,1.7342529
			c0.9750366,0,1.765564-0.7764893,1.765564-1.7342529C15.812439,49.3076782,15.0219116,48.5311279,14.046875,48.5311279z
			 M26.343689,48.5311279c-0.9664917,0-1.749939,0.7765503-1.749939,1.7342529c0,0.9577637,0.7834473,1.7342529,1.749939,1.7342529
			c0.9665527,0,1.75-0.7764893,1.75-1.7342529C28.093689,49.3076782,27.3102417,48.5311279,26.343689,48.5311279z
			 M38.65625,48.5311279c-0.9665527,0-1.750061,0.7765503-1.750061,1.7342529c0,0.9577637,0.7835083,1.7342529,1.750061,1.7342529
			c0.9664307,0,1.749939-0.7764893,1.749939-1.7342529C40.406189,49.3076782,39.6226807,48.5311279,38.65625,48.5311279z
			 M50.953064,48.5311279c-0.9751587,0-1.765625,0.7765503-1.765625,1.7342529c0,0.9577637,0.7904663,1.7342529,1.765625,1.7342529
			c0.9750977,0,1.765686-0.7764893,1.765686-1.7342529C52.71875,49.3076782,51.9281616,48.5311279,50.953064,48.5311279z
			 M63.249939,48.5311279c-0.9664307,0-1.75,0.7765503-1.75,1.7342529c0,0.9577637,0.7835693,1.7342529,1.75,1.7342529
			S65,51.2231445,65,50.2653809C65,49.3076782,64.2163696,48.5311279,63.249939,48.5311279z"/>
	</g>
</g>
</svg>
