<?xml version="1.0" encoding="utf-8"?>
<!-- Generator: Adobe Illustrator 27.2.0, SVG Export Plug-In . SVG Version: 6.00 Build 0)  -->
<svg version="1.1" id="Shape_x5F_1_00000106144437732348996960000015145915197010515591_"
	 xmlns="http://www.w3.org/2000/svg" xmlns:xlink="http://www.w3.org/1999/xlink" x="0px" y="0px" viewBox="0 0 120 121"
	 style="enable-background:new 0 0 120 121;" xml:space="preserve">
<style type="text/css">
	.st0{fill:#FFB534;}
</style>
<g id="Shape_x5F_1">
	<g>
		<path class="st0" d="M0.9196167,67.1070557c0.3226929-0.0325928,0.5576782-0.3225708,0.5256348-0.6480103
			c-0.1347046-1.3552856-0.2235107-2.7310181-0.2648315-4.0899048c-0.0108643-0.3274536-0.2791138-0.586792-0.6052856-0.5731201
			c-0.3238525,0.0096436-0.5782471,0.2827148-0.5685425,0.609375c0.0423584,1.3862305,0.1335449,2.7890015,0.2705688,4.1712646
			c0.0303345,0.3052368,0.2854004,0.5328369,0.583374,0.5328369C0.8800049,67.1094971,0.8995972,67.1086426,0.9196167,67.1070557z
			 M39.0202026,115.9334717c-1.262085-0.4857178-2.5236816-1.022583-3.7502441-1.5957031
			c-0.2963867-0.1376953-0.6437378-0.0084229-0.779541,0.2879639c-0.1364136,0.2964478-0.008606,0.6484375,0.2854004,0.7857666
			c1.2512817,0.5848389,2.5386353,1.1325684,3.8259888,1.6271362c0.0687866,0.0265503,0.1392822,0.039856,0.2091675,0.039856
			c0.2362061,0,0.4591675-0.1449585,0.5485229-0.3814087C39.4747314,116.3917847,39.322876,116.0498657,39.0202026,115.9334717z
			 M2.8093872,74.5353394c-0.3175659-1.319397-0.5938721-2.6697998-0.8213501-4.0145874
			c-0.0545044-0.3214111-0.3565063-0.5384521-0.6769409-0.4840698c-0.3192749,0.055542-0.5341797,0.3612671-0.4797363,0.6834106
			c0.2315063,1.3713989,0.5130615,2.7487793,0.8374023,4.0943604c0.0653076,0.2710571,0.305542,0.4519043,0.5697632,0.4519043
			c0.0457764,0,0.0928345-0.0048218,0.1392822-0.0161133C2.6924438,75.1724854,2.8861694,74.8531494,2.8093872,74.5353394z
			 M0.5842896,58.8382568c0.0074463,0.0003662,0.0148926,0.0003662,0.0223389,0.0003662
			c0.3141479,0,0.5743408-0.2504883,0.5858154-0.569458c0.0504761-1.3637085,0.1472778-2.7399292,0.2883911-4.0891113
			c0.0343018-0.3254395-0.199585-0.6162109-0.5222168-0.6508789c-0.3187256-0.03302-0.6109619,0.2017822-0.6448364,0.5267944
			c-0.1444702,1.3757935-0.243103,2.7785645-0.2940063,4.1692505C0.0077515,58.5518799,0.260437,58.8265381,0.5842896,58.8382568z
			 M5.0774536,37.5441284c-0.300354-0.1208496-0.6425781,0.0241699-0.7640991,0.3278198
			c-0.5163574,1.2924194-0.9932251,2.616272-1.4180298,3.9348755c-0.1002808,0.3109131,0.0687866,0.6447754,0.3771973,0.7454834
			c0.0601807,0.0192871,0.1209717,0.0293579,0.1811523,0.0293579c0.2475586,0,0.4780273-0.1594849,0.5582275-0.4099731
			c0.4161377-1.2924194,0.8838501-2.5908813,1.3905029-3.8575439C5.5233154,38.0108643,5.3777466,37.6665649,5.0774536,37.5441284z
			 M10.6252441,27.7202759c0.1890259,0,0.3742065-0.0922241,0.4877319-0.262207
			c0.7531128-1.130127,1.5550537-2.2489624,2.3837891-3.3230591c0.1989136-0.2581787,0.1524658-0.6298828-0.1036377-0.8305054
			c-0.2562866-0.201355-0.6248779-0.1534424-0.8236694,0.1043091c-0.8449097,1.0958862-1.6629028,2.2365112-2.4308472,3.3899536
			c-0.180542,0.2710571-0.1089478,0.6387939,0.1599121,0.8208008
			C10.3987427,27.6876221,10.5128784,27.7202759,10.6252441,27.7202759z M1.3678589,50.6016235
			c0.0343628,0.0064697,0.0687866,0.0088501,0.1025391,0.0088501c0.2798462,0,0.5273438-0.2017822,0.5772705-0.4889526
			c0.2349243-1.340332,0.5187378-2.6895142,0.8449097-4.0089111c0.0779419-0.3173828-0.1135254-0.6380005-0.4282227-0.7169189
			c-0.3141479-0.0813599-0.6333618,0.1131592-0.7113647,0.430542c-0.3319092,1.3463745-0.6218872,2.7218018-0.8609619,4.0895386
			C0.8353882,50.2383423,1.048584,50.5447998,1.3678589,50.6016235z M8.7463379,30.1323242
			c-0.2814331-0.1627197-0.6397095-0.0648193-0.8018799,0.2174683c-0.6871948,1.2042236-1.3417969,2.4483032-1.9448242,3.6968384
			c-0.1415405,0.2936401-0.0205688,0.6480103,0.2711182,0.7910156c0.0825195,0.0402832,0.170166,0.0595703,0.2562256,0.0595703
			c0.2177734,0,0.4263916-0.121582,0.5285034-0.3326416c0.5909424-1.223938,1.2322998-2.4434814,1.9063721-3.6243286
			C9.1240234,30.6566772,9.0271606,30.2954102,8.7463379,30.1323242z M15.8485718,99.7155762
			c-0.2149658-0.2456665-0.5864258-0.2678223-0.8283691-0.0523071c-0.2435303,0.2162476-0.2665405,0.5908203-0.052063,0.8352661
			c0.9101562,1.039917,1.8685913,2.0620728,2.8486938,3.0387573c0.114624,0.1135864,0.2636719,0.1707764,0.4126587,0.1707764
			c0.1513062,0,0.3025513-0.0588379,0.4172363-0.1764526c0.2280884-0.2319336,0.2258301-0.6065063-0.0045776-0.8364868
			C17.6809692,101.7374268,16.7409668,100.7353516,15.8485718,99.7155762z M6.8983765,86.0934448
			c-0.1397705-0.2944336-0.489502-0.4204712-0.7828979-0.2783203c-0.2922974,0.1417847-0.4155273,0.4949951-0.2751465,0.7902222
			c0.5944214,1.2509155,1.2397461,2.4962158,1.918396,3.7016602c0.1083374,0.1925049,0.3067017,0.300415,0.5112915,0.300415
			c0.0979614,0,0.1977539-0.0249634,0.2888794-0.0773315c0.2819824-0.161499,0.3811646-0.5223389,0.2211914-0.8062744
			C8.114624,88.5413208,7.4818726,87.3198242,6.8983765,86.0934448z M31.6400146,112.4835205
			c-1.182373-0.6560669-2.3574829-1.3640747-3.4934082-2.102356c-0.2728271-0.1771851-0.6357422-0.0982666-0.8116455,0.1768188
			c-0.175415,0.2746582-0.0969238,0.6408081,0.175354,0.8179932c1.1583862,0.7531738,2.3574829,1.4744873,3.5634766,2.1446533
			c0.0899048,0.0491333,0.1868286,0.0736694,0.2825317,0.0736694c0.2069092,0,0.4075317-0.1107178,0.5147705-0.3060913
			C32.0275269,113.0014648,31.9237061,112.6409912,31.6400146,112.4835205z M21.6323853,105.4744873
			c-0.2446899-0.2126465-0.6166992-0.1860352-0.8276367,0.062439c-0.2114868,0.2481079-0.184021,0.6210327,0.0618896,0.8344727
			c1.0421143,0.9046021,2.1310425,1.7850342,3.2362061,2.6174927c0.1054077,0.0801392,0.2286377,0.1176147,0.350769,0.1176147
			c0.178833,0,0.3552856-0.0817871,0.4705811-0.2376099c0.1942749-0.2609863,0.1409912-0.6323242-0.1187134-0.828064
			C23.7216187,107.2248535,22.6537476,106.3613892,21.6323853,105.4744873z M15.6627808,21.1820679
			c0.1611328,0,0.3215942-0.0672607,0.4379883-0.1977539c0.8981323-1.0133057,1.8438721-2.0101318,2.8119507-2.961853
			c0.2321777-0.2279663,0.2367554-0.6029053,0.0102539-0.8364868c-0.2263184-0.234375-0.5978394-0.2380371-0.829895-0.010498
			c-0.9870605,0.9706421-1.9522705,1.9867554-2.868103,3.0202637c-0.2156372,0.2440186-0.1950073,0.6181641,0.046875,0.8356934
			C15.383667,21.1325073,15.5235596,21.1820679,15.6627808,21.1820679z M10.9049072,93.2144165
			c-0.1794434-0.2722168-0.543457-0.3475342-0.8132935-0.1663208c-0.2699585,0.1808472-0.3440552,0.5485229-0.1646118,0.8203735
			c0.7628784,1.1595459,1.572876,2.3045654,2.4074097,3.4024658c0.1157227,0.1517944,0.289978,0.2315674,0.4665527,0.2315674
			c0.1243896,0,0.249939-0.039856,0.3565063-0.1220093c0.2573853-0.1994019,0.3061523-0.5699463,0.1089478-0.8297119
			C12.4478149,95.4742432,11.6535034,94.3521729,10.9049072,93.2144165z M3.9058228,78.4815063
			C3.807312,78.1709595,3.4788818,77.9990234,3.1681519,78.09729c-0.3082886,0.0986328-0.479187,0.4317017-0.3811035,0.7434692
			c0.418396,1.3250122,0.8872681,2.6500854,1.3933105,3.9380493c0.0912476,0.2323608,0.312439,0.3741455,0.5457764,0.3741455
			c0.0720825,0,0.1448975-0.0140991,0.2159424-0.0426636c0.3015747-0.1200562,0.4488525-0.4643555,0.3297119-0.7680664
			C4.7753296,81.0795898,4.3157349,79.781189,3.9058228,78.4815063z M105.5583496,22.967041
			c0.116272,0.1429443,0.28479,0.2166748,0.4550781,0.2166748c0.1306152,0,0.2619629-0.0435181,0.3707886-0.133728
			c0.2510986-0.2061768,0.2883301-0.5795288,0.0831299-0.8324585c-0.8741455-1.0765381-1.7940063-2.1341553-2.7345581-3.1430664
			c-0.2212524-0.2384033-0.5932617-0.2496948-0.8294678-0.0261841c-0.236145,0.2231445-0.2481079,0.5980835-0.0257568,0.8361206
			C103.7992554,20.8735352,104.701416,21.9110107,105.5583496,22.967041z M90.2527466,9.6130981
			c1.159668,0.7027588,2.3077393,1.4543457,3.4121704,2.2328491c0.1026611,0.072876,0.2195435,0.1071167,0.3358765,0.1071167
			c0.1851807,0,0.3673706-0.0881958,0.4815063-0.2525024c0.18573-0.2674561,0.1209106-0.6367798-0.1444702-0.8236694
			c-1.1262817-0.7946167-2.2972412-1.5610352-3.480957-2.2775269c-0.2779541-0.1699219-0.6384277-0.078125-0.8051758,0.2017822
			C89.8848267,9.0814819,89.9749146,9.4451294,90.2527466,9.6130981z M83.0073853,5.8860474
			c1.244873,0.5348511,2.4852295,1.1188354,3.6865845,1.7370605c0.0853882,0.0446777,0.1765137,0.0652466,0.2665405,0.0652466
			c0.2138062,0,0.4195557-0.117981,0.5233765-0.322998c0.1472778-0.2907715,0.0325928-0.6472168-0.2556763-0.7958374
			c-1.2260132-0.6315308-2.4910278-1.2276001-3.7612305-1.7720947c-0.2979736-0.1292725-0.6424561,0.0116577-0.7697144,0.312561
			C82.5700073,5.4108276,82.7092896,5.7579956,83.0073853,5.8860474z M75.3216553,3.2094116
			c1.3045044,0.3540039,2.6119995,0.7583618,3.8866577,1.2025757c0.0630493,0.0217285,0.1278076,0.0326538,0.1914673,0.0326538
			c0.2436523,0,0.4705811-0.1542969,0.5548096-0.3987427c0.1060791-0.3088989-0.0567627-0.6456299-0.3633423-0.7527466
			c-1.2999878-0.4526978-2.6337891-0.8654785-3.9647217-1.2267456c-0.3094482-0.085022-0.6350098,0.1010742-0.7192383,0.4176636
			C74.8230591,2.7998047,75.008667,3.1243896,75.3216553,3.2094116z M116.6990356,44.6345215
			c0.0717773,0.262146,0.3078613,0.4345093,0.5652466,0.4345093c0.0521851,0,0.1047974-0.0080566,0.1569824-0.0220947
			c0.312439-0.0870361,0.4957886-0.4128418,0.4092407-0.7277832c-0.3662109-1.3355103-0.784729-2.6774902-1.244873-3.9888306
			c-0.1077881-0.3076782-0.4419556-0.4691772-0.7485962-0.3608398c-0.305542,0.1091309-0.4660034,0.4470215-0.357605,0.7555542
			C115.9298706,42.0101929,116.340271,43.3255615,116.6990356,44.6345215z M117.6471558,48.6201172
			c0.2682495,1.3330688,0.4940796,2.6931763,0.6705322,4.0427856c0.0390015,0.2972412,0.2912598,0.513916,0.5812378,0.513916
			c0.0252075,0,0.0510254-0.0016479,0.0773926-0.005249c0.3215332-0.0422974,0.5473633-0.3395386,0.5050049-0.6637573
			c-0.1799927-1.3765869-0.40979-2.7636719-0.6844482-4.1233521c-0.0640869-0.3197632-0.3702393-0.5271606-0.6918335-0.4623413
			C117.7875977,47.9873657,117.5823975,48.2994995,117.6471558,48.6201172z M21.5407104,15.4042358
			c0.1341553,0,0.2688599-0.0459595,0.3795166-0.1409912c1.0293579-0.882019,2.1018066-1.737854,3.1873779-2.5449829
			c0.2608032-0.1932983,0.3163452-0.5638428,0.1237183-0.8268433c-0.1925049-0.2630005-0.5599365-0.3189697-0.8206787-0.1248169
			c-1.1068726,0.8223877-2.2004395,1.6955566-3.2505493,2.5949097c-0.2469482,0.2109985-0.2774048,0.5847778-0.0670776,0.8336792
			C21.2088623,15.3329468,21.3738403,15.4042358,21.5407104,15.4042358z M43.0336304,3.6491699
			c0.0549316,0,0.111145-0.0080566,0.1672974-0.0245361c1.2942505-0.3874512,2.6177368-0.7342529,3.9348755-1.0298462
			c0.3164062-0.0708618,0.5153198-0.3870239,0.4453735-0.7059937c-0.0704956-0.3189697-0.3834839-0.5179443-0.7009277-0.4490967
			c-1.3429565,0.3016968-2.6933594,0.6552734-4.0140381,1.0507812c-0.3106079,0.0926514-0.4877319,0.4220581-0.3955078,0.7354126
			C42.5470581,3.4828491,42.7802734,3.6491699,43.0336304,3.6491699z M67.3470459,1.6342163
			c1.3389893,0.168396,2.6899414,0.3866577,4.0145264,0.6480713c0.0384521,0.0076294,0.0762939,0.0108643,0.1135254,0.0108643
			c0.2750854,0,0.5204468-0.196167,0.5753784-0.4785156c0.0626221-0.3205566-0.1448975-0.6310425-0.4630127-0.6939087
			c-1.3515625-0.2662354-2.7295532-0.4889526-4.0948486-0.6608887c-0.3220215-0.0415039-0.6149902,0.1896973-0.6550293,0.5142822
			C66.7974243,1.2983398,67.0255127,1.5939941,67.3470459,1.6342163z M28.1448975,10.4946899
			c0.107666,0,0.2166138-0.0297852,0.3145752-0.0925903c1.1383667-0.7297974,2.3168335-1.4293823,3.5021362-2.0773926
			c0.2848511-0.1558838,0.3903198-0.5151367,0.2355957-0.8023071c-0.1547852-0.2871094-0.5090332-0.3934326-0.7961426-0.2379761
			c-1.208252,0.6616821-2.4102173,1.3741455-3.5720215,2.1188354c-0.2734375,0.1755981-0.354187,0.5421143-0.1800537,0.8171997
			C27.7608032,10.397644,27.9505615,10.4946899,28.1448975,10.4946899z M35.3530273,6.5498047
			c0.0814209,0,0.1638794-0.0165405,0.243103-0.0527954c1.2265625-0.5646362,2.4880371-1.0922241,3.7502441-1.5682983
			c0.303833-0.1151733,0.4573975-0.4558716,0.3438721-0.7619629c-0.1134033-0.3060913-0.4526978-0.4624023-0.7554321-0.3468018
			c-1.2873535,0.4865112-2.574707,1.0245972-3.8259888,1.6005249c-0.295105,0.1353149-0.4246826,0.486145-0.2905273,0.7837524
			C34.9169312,6.4221191,35.130127,6.5498047,35.3530273,6.5498047z M59.2252197,1.1803589c0.0022583,0,0.0045776,0,0.0074463,0
			c1.3452148-0.0181274,2.7208252,0.0116577,4.0649414,0.0869751c0.0114136,0.0004272,0.0222778,0.0007935,0.0332642,0.0007935
			c0.3088989,0,0.5679932-0.2436523,0.5852661-0.559021c0.0183105-0.3262329-0.2299194-0.6057129-0.5532227-0.6234131
			c-1.3709717-0.0769653-2.7678833-0.1075439-4.1451416-0.0894165c-0.3238525,0.0040283-0.5835571,0.272644-0.5795288,0.598877
			C58.6422119,0.9193726,58.9041748,1.1803589,59.2252197,1.1803589z M51.0437012,1.8493042
			c0.0291748,0,0.0584717-0.0024414,0.0882568-0.0064087c1.3314819-0.2030029,2.6899414-0.3616943,4.0380249-0.4720459
			c0.3227539-0.0257568,0.5634155-0.3117065,0.5376587-0.637146c-0.0263062-0.3262329-0.3094482-0.5675049-0.6327515-0.5421143
			c-1.3745728,0.1123657-2.7598877,0.2738647-4.1182861,0.480896c-0.3204346,0.0491333-0.5410767,0.3504028-0.492981,0.6734009
			C50.5077515,1.6390991,50.7583008,1.8493042,51.0437012,1.8493042z M99.9928589,16.9946899
			c0.112793,0.1054688,0.2561035,0.1578369,0.3988037,0.1578369c0.1577148,0,0.3146973-0.0635986,0.430542-0.18927
			c0.2200317-0.2392578,0.2062988-0.6141968-0.0316162-0.8361206c-1.0109863-0.9456177-2.0667725-1.8667603-3.1363525-2.7374878
			c-0.2522583-0.2049561-0.6212769-0.1647339-0.8253784,0.0894165c-0.2034302,0.2541504-0.1639404,0.6262817,0.0882568,0.8320923
			C97.9659424,15.1641846,99.0006104,16.0671387,99.9928589,16.9946899z M71.0256348,118.7688599
			c-1.3233643,0.2532959-2.6749268,0.463562-4.0178833,0.6242065c-0.3215942,0.038269-0.5519409,0.3322754-0.5136108,0.6577148
			c0.0355835,0.3008423,0.2889404,0.5219727,0.5823975,0.5219727c0.0228882,0,0.0464478-0.0016479,0.0699463-0.0040283
			c1.3692627-0.1647339,2.7484131-0.3789673,4.0982056-0.637146c0.3187256-0.0608521,0.527832-0.3705444,0.4671631-0.6915283
			C71.6515503,118.9194336,71.347229,118.7064209,71.0256348,118.7688599z M78.8839722,116.6854248
			c-1.2793579,0.4369507-2.5891113,0.8341064-3.8930664,1.1800537c-0.3135376,0.0825806-0.5009155,0.4059448-0.418396,0.7221069
			c0.069397,0.2662354,0.3067017,0.4418335,0.5668335,0.4418335c0.0499268,0,0.0996704-0.0064697,0.1495972-0.0197754
			c1.3309326-0.3527832,2.6670532-0.7575073,3.9721069-1.2033691c0.3065796-0.1047363,0.4711914-0.44104,0.3674927-0.7503052
			C79.5247192,116.7462158,79.1928711,116.5819092,78.8839722,116.6854248z M62.956543,119.7366333
			c-1.3480835,0.0672607-2.7185669,0.088623-4.0666504,0.0628052c-0.3324585,0.0056763-0.5915527,0.2545776-0.5978394,0.581604
			c-0.0057373,0.3265991,0.2516479,0.5960693,0.5761108,0.6029053c0.3724976,0.0064697,0.7462769,0.0100708,1.1204834,0.0100708
			c1.0064697,0,2.0244751-0.0257568,3.0263672-0.0753174c0.3238525-0.0169067,0.5732422-0.2944336,0.5571289-0.6206055
			C63.555542,119.9714355,63.2792969,119.7112427,62.956543,119.7366333z M86.3712769,113.5274658
			c-1.2058716,0.6105957-2.4474487,1.1865234-3.6900635,1.7104492c-0.2992554,0.1260986-0.4402466,0.4732666-0.3152466,0.7741089
			c0.0946045,0.2271118,0.312439,0.3640747,0.541626,0.3640747c0.0756836,0,0.1524658-0.0148926,0.2263794-0.0463257
			c1.2678833-0.5348511,2.5340576-1.1220703,3.7646484-1.7451172c0.2894287-0.1466064,0.4063721-0.5021973,0.2608032-0.7938232
			C87.013855,113.4988403,86.6636963,113.3812866,86.3712769,113.5274658z M114.6265259,84.0953979
			c-0.2957153-0.1304932-0.6430664,0.0044556-0.7738647,0.3032837c-0.543396,1.2424927-1.1387939,2.4853516-1.7699585,3.694397
			c-0.1513062,0.2891846-0.0407104,0.647644,0.2459717,0.7994385c0.0870361,0.0463257,0.1804199,0.0684814,0.2728271,0.0684814
			c0.2108765,0,0.414917-0.1156006,0.5198975-0.3161621c0.6436157-1.2332153,1.2511597-2.5010376,1.8054199-3.7689209
			C115.0574951,84.5766602,114.9233398,84.227478,114.6265259,84.0953979z M99.7141724,104.2493286
			c-0.9989624,0.9223022-2.0387573,1.8179932-3.0910645,2.6625977c-0.2533569,0.2037964-0.2952271,0.5759277-0.0933838,0.831665
			c0.1157227,0.1469727,0.286438,0.2231445,0.4595947,0.2231445c0.1278687,0,0.2568359-0.0422974,0.3650513-0.128479
			c1.0731201-0.8623047,2.1340332-1.7753296,3.1530762-2.7161865c0.2390747-0.2207031,0.255127-0.5948486,0.0361938-0.8360596
			C100.324707,104.045166,99.9532471,104.0286255,99.7141724,104.2493286z M54.8295288,119.5856323
			c-1.3446655-0.118042-2.7025146-0.2843628-4.0357666-0.4949951c-0.3226929-0.0519409-0.6207275,0.1707764-0.6710815,0.492981
			c-0.0498657,0.3225708,0.1690063,0.6254272,0.4888916,0.6765747c1.3601074,0.2142944,2.744873,0.3846436,4.1159668,0.5042725
			c0.0177612,0.0015869,0.0343628,0.0020142,0.0515137,0.0020142c0.3014526,0,0.5578003-0.2324219,0.5841064-0.5405273
			C55.3911743,119.9005737,55.1522217,119.6138306,54.8295288,119.5856323z M110.8705444,91.4628906
			c-0.2758179-0.1715698-0.6374512-0.0866089-0.8082886,0.1920776c-0.7072144,1.1530762-1.4672241,2.3009033-2.2582397,3.4116821
			c-0.189209,0.2654419-0.1289673,0.6355591,0.1347046,0.8260498c0.1037598,0.0745239,0.2229004,0.111145,0.3415527,0.111145
			c0.1829224,0,0.362793-0.0857544,0.477478-0.2472534c0.8064575-1.1325073,1.5814819-2.3029175,2.3029785-3.4789429
			C111.2310181,91.9993286,111.1462402,91.6348267,110.8705444,91.4628906z M105.3186646,98.312439
			c-0.8620605,1.0491333-1.7710571,2.0805664-2.701355,3.0657349c-0.2235107,0.2376099-0.2143555,0.6113281,0.0206909,0.8372803
			c0.1134033,0.1087646,0.2590942,0.1627197,0.404541,0.1627197c0.1548462,0,0.3101807-0.0616455,0.425415-0.1836548
			c0.9486084-1.005249,1.8754272-2.0576172,2.7540283-3.1269531c0.2070312-0.251709,0.1725464-0.6242676-0.0772705-0.833252
			C105.8953247,98.0256348,105.5250244,98.0615234,105.3186646,98.312439z M93.3588257,109.3537598
			c-1.1113281,0.7736816-2.2628784,1.5167847-3.4223633,2.2086792c-0.2785645,0.166748-0.3709106,0.5300293-0.2057495,0.81073
			c0.1094971,0.1864624,0.3048706,0.289978,0.5054321,0.289978c0.1015625,0,0.2046509-0.0261841,0.2987061-0.0821533
			c1.1824341-0.7064209,2.3569336-1.4643555,3.4911499-2.2533569c0.2665405-0.1853027,0.3336182-0.553772,0.1495972-0.8232422
			C93.9916382,109.2357788,93.6259155,109.1669312,93.3588257,109.3537598z M108.9783936,25.5418091
			c-0.1867676-0.2666016-0.5531006-0.3294678-0.8179321-0.140564c-0.2647705,0.18927-0.3267212,0.5582275-0.1392822,0.8252563
			c0.781311,1.1115723,1.5333252,2.2626343,2.2348022,3.4221191c0.1107178,0.1828613,0.303894,0.2839355,0.5016479,0.2839355
			c0.104248,0,0.2097168-0.0281982,0.3048706-0.0866089c0.2767944-0.1703491,0.364563-0.5344238,0.1954346-0.8135376
			C110.5426636,27.8495483,109.7756958,26.6751099,108.9783936,25.5418091z M117.3312988,76.2772217
			c-0.3112793-0.0877686-0.6368408,0.0930786-0.7244873,0.40802c-0.3685303,1.312561-0.7869263,2.6254883-1.2431641,3.9030151
			c-0.1101074,0.307312,0.0481567,0.6464233,0.3530273,0.7572021c0.0653687,0.0237427,0.1329956,0.0354004,0.1989136,0.0354004
			c0.2400513,0,0.4660034-0.1506348,0.5519409-0.3918457c0.4660034-1.3032837,0.8929443-2.6424561,1.2684326-3.9815674
			C117.8242188,76.6928711,117.6430664,76.3658447,117.3312988,76.2772217z M119.8814087,56.6686401
			c-0.0201416-0.3258667-0.2907104-0.5771484-0.6225586-0.553772c-0.3231812,0.0201416-0.5690918,0.3008423-0.5490723,0.6270752
			c0.0769043,1.2440796,0.1157837,2.5058594,0.1157837,3.7511597c0,1.3625488-0.0464478,2.7407227-0.1381226,4.0963745
			c-0.0217285,0.3258057,0.2223511,0.6085815,0.5456543,0.6303101c0.0137329,0.0007935,0.0275879,0.0012207,0.0406494,0.0012207
			c0.3060913,0,0.5640869-0.2384644,0.5852051-0.5505981c0.0929565-1.3826294,0.1404419-2.788208,0.1404419-4.1773071
			C119.9993896,59.2236938,119.9598999,57.9364624,119.8814087,56.6686401z M46.8023071,118.3153076
			c-1.3171997-0.3044434-2.6395874-0.6588745-3.9298096-1.0535889c-0.3099976-0.0953979-0.6378784,0.0813599-0.7318115,0.3943481
			c-0.0941162,0.3125,0.0807495,0.6431885,0.3913574,0.737793c1.315979,0.4031372,2.6640625,0.7644043,4.0077515,1.0745239
			c0.0440063,0.0100708,0.0881958,0.0149536,0.1317139,0.0149536c0.2676392,0,0.5095825-0.1856689,0.5714722-0.4595337
			C47.3152466,118.7052002,47.118042,118.3878174,46.8023071,118.3153076z M113.2927246,32.6724854
			c-0.1490479-0.2911987-0.5043945-0.402771-0.7909546-0.2533569c-0.2883911,0.1506348-0.4000854,0.5078735-0.2510376,0.7978516
			c0.6229858,1.2114868,1.2098389,2.4559326,1.7434692,3.6980591c0.0963745,0.2230835,0.312439,0.3568115,0.5394897,0.3568115
			c0.0773926,0,0.1570435-0.0161133,0.232666-0.0491333c0.2974243-0.1296997,0.4338379-0.4784546,0.305542-0.7781372
			C114.5267334,35.177124,113.9282837,33.9080811,113.2927246,32.6724854z M118.9333496,68.161438
			c-0.3312988-0.0446777-0.617981,0.1824951-0.661438,0.5054932c-0.1845703,1.3467407-0.4178467,2.704834-0.6940918,4.0379639
			c-0.0665894,0.3201294,0.1369629,0.6334839,0.4538574,0.7007446c0.0407715,0.0080566,0.0813599,0.012085,0.1209717,0.012085
			c0.2722778,0,0.5159302-0.1912842,0.5737305-0.4708252c0.2820435-1.3592529,0.5204468-2.7451172,0.7078857-4.118103
			C119.4789429,68.5042114,119.2542725,68.2061768,118.9333496,68.161438z M106.6868286,68.1497803
			c-0.3248901-0.0531616-0.6230469,0.1599121-0.6791992,0.4812622c-0.2321167,1.34198-0.524353,2.6851196-0.8694458,3.9928589
			c-0.0830688,0.3157959,0.1031494,0.6399536,0.416687,0.7237549c0.0504761,0.0136719,0.1014404,0.0201416,0.1513062,0.0201416
			c0.2596436,0,0.4968872-0.1748047,0.5668335-0.4398193c0.3537598-1.3411255,0.6534424-2.7185669,0.8913574-4.0935059
			C107.2199097,68.5130615,107.0061035,68.2061768,106.6868286,68.1497803z M106.1842041,50.1755371
			c-0.3174438,0.0664062-0.5216064,0.3797607-0.4556885,0.6995239c0.2729492,1.324646,0.4918213,2.6819458,0.6505737,4.03479
			c0.0355835,0.300415,0.2888794,0.5219116,0.5823975,0.5219116c0.0228882,0,0.0463257-0.0015869,0.0693359-0.0043945
			c0.3220215-0.0378418,0.5519409-0.3322754,0.5140991-0.6572876c-0.1627808-1.3862915-0.3873901-2.777771-0.666626-4.1358643
			C106.8117676,50.3144531,106.500061,50.1086426,106.1842041,50.1755371z M58.8670044,13.40979
			c1.3441162-0.0314331,2.7094116-0.0056152,4.0546265,0.0777588c0.0120239,0.0007935,0.0245972,0.0012207,0.0366211,0.0012207
			c0.3078613,0,0.5657959-0.2416992,0.5852661-0.5554199c0.0200195-0.3262329-0.2258911-0.6065674-0.5496826-0.6270752
			c-1.3779907-0.0858154-2.7781372-0.1123657-4.1544189-0.0797729c-0.3237305,0.0080566-0.5805664,0.2787476-0.5731201,0.6057739
			C58.2737427,13.1585083,58.5511475,13.4122314,58.8670044,13.40979z M50.6986694,14.3151855
			c0.0379028,0,0.0762329-0.0032349,0.1152344-0.0108643c1.3199463-0.2646484,2.6686401-0.4748535,4.0076294-0.6234741
			c0.3221436-0.0358276,0.5548096-0.3278198,0.5192871-0.652832c-0.0355835-0.3242188-0.3272705-0.559021-0.6477051-0.5236206
			c-1.3727417,0.1526489-2.7546997,0.3673096-4.1085205,0.6387939c-0.3180542,0.0635986-0.5245361,0.374939-0.4608765,0.6959229
			C50.1793213,14.1206665,50.4241333,14.3151855,50.6986694,14.3151855z M42.8243408,16.6329956
			c0.071167,0,0.1432495-0.0128784,0.2133179-0.0402832c1.2563477-0.4941406,2.5476685-0.9367676,3.8384399-1.3157959
			c0.3112793-0.0917969,0.489563-0.4204102,0.3989258-0.7333984c-0.0905151-0.3137207-0.4138184-0.4961548-0.7278442-0.4031372
			c-1.322937,0.3894653-2.647583,0.84375-3.9360352,1.3492432c-0.302002,0.1187744-0.4510498,0.4619141-0.3334961,0.7664185
			C42.3681641,16.4900513,42.5893555,16.6329956,42.8243408,16.6329956z M39.5939941,17.4481812
			c-0.1428223-0.2932129-0.49646-0.413269-0.7858276-0.2682495c-1.2368774,0.6157837-2.4623413,1.2940063-3.6431274,2.0169678
			c-0.2768555,0.1695557-0.3650513,0.5332642-0.1965942,0.8127441c0.1100464,0.1832275,0.303833,0.284729,0.5021362,0.284729
			c0.1038208,0,0.2086182-0.027771,0.3044434-0.0857544c1.1508179-0.704834,2.3464966-1.3677368,3.5530396-1.9678345
			C39.6185913,18.0957642,39.737854,17.7409668,39.5939941,17.4481812z M102.6654663,81.0916748
			c0.0796509,0.0374756,0.1640015,0.0548096,0.246521,0.0548096c0.2218018,0,0.4332886-0.1264648,0.5330811-0.3419189
			c0.5811157-1.2618408,1.1141968-2.565918,1.5853271-3.8768921c0.1101074-0.307312-0.0476074-0.6464233-0.3518677-0.7579346
			c-0.303894-0.1112061-0.6414795,0.0474854-0.7520142,0.3552246c-0.4591675,1.2783203-0.9796143,2.5501709-1.5464478,3.7809448
			C102.2436523,80.602356,102.37146,80.9539795,102.6654663,81.0916748z M102.7796021,38.7946167
			c-0.6201782-1.2400513-1.3027954-2.470459-2.0302124-3.6565552c-0.1708374-0.2782593-0.5324707-0.362854-0.8081665-0.1920776
			c-0.2756958,0.171936-0.3605957,0.536438-0.1903076,0.8143311c0.7095337,1.1575317,1.3755493,2.3572998,1.9796753,3.5667725
			c0.1032715,0.206604,0.3101807,0.3258057,0.5250854,0.3258057c0.0888062,0,0.178894-0.0201416,0.2636719-0.0635986
			C102.8087769,39.4422607,102.9251709,39.0866089,102.7796021,38.7946167z M66.9544067,13.9160767
			c1.3327026,0.2009277,2.6716309,0.4631348,3.9796143,0.7797241c0.0458374,0.0112305,0.0922241,0.0161133,0.1375122,0.0161133
			c0.2648315,0,0.5056152-0.1820679,0.5702515-0.453125c0.0756836-0.317749-0.1185303-0.637146-0.4338379-0.7128296
			c-1.3406372-0.3250732-2.7133789-0.5944824-4.0803833-0.8007202c-0.3215942-0.0462646-0.6191406,0.1748047-0.6671753,0.49823
			C66.4127808,13.5668945,66.6334229,13.868103,66.9544067,13.9160767z M93.5658569,94.6732178
			c0.1506958,0,0.302002-0.0588379,0.416626-0.1748047c0.9714966-0.9871216,1.913269-2.0302734,2.7982178-3.1004028
			c0.2080688-0.2509155,0.1743164-0.6234131-0.0745239-0.8328857c-0.2498169-0.2102051-0.6195679-0.1755371-0.8264771,0.0753174
			c-0.8637695,1.0435181-1.7826538,2.0612793-2.7306519,3.0238647c-0.2280884,0.2319946-0.2269287,0.6069336,0.00354,0.8369141
			C93.2665405,94.6156006,93.4162598,94.6732178,93.5658569,94.6732178z M97.4707642,32.3800659
			c0.1152344,0.1558838,0.291748,0.2380371,0.4711914,0.2380371c0.121521,0,0.244751-0.0378418,0.3501587-0.116394
			c0.2597046-0.196167,0.3135986-0.5658569,0.119812-0.8284912c-0.8224487-1.1135864-1.7057495-2.206665-2.6251221-3.2493286
			c-0.2155151-0.2453003-0.5863037-0.2662354-0.8282471-0.0491333c-0.2424927,0.217041-0.2642212,0.5908203-0.0487061,0.8352661
			C95.8062134,30.2269897,96.6677246,31.2938232,97.4707642,32.3800659z M82.2639771,19.0845337
			c1.1835327,0.6484375,2.3533936,1.3580933,3.4762573,2.107605c0.0997925,0.0664062,0.2120972,0.0982666,0.3233032,0.0982666
			c0.1901855,0,0.3770752-0.0930786,0.4900513-0.2650146c0.178833-0.2722778,0.1047974-0.6395874-0.1655884-0.8204346
			c-1.151062-0.7684326-2.3500366-1.4945679-3.5634766-2.1599121c-0.2849731-0.15625-0.6408691-0.0495605-0.7961426,0.2371826
			C81.8736572,18.5698242,81.9790039,18.9286499,82.2639771,19.0845337z M92.0863647,26.2747803
			c0.1135254,0.1075439,0.258606,0.161499,0.4035034,0.161499c0.1553955,0,0.3106689-0.0623779,0.4265137-0.1852417
			c0.2229004-0.2368164,0.2126465-0.6121826-0.0230103-0.8364868c-1.0029297-0.9561768-2.0593872-1.8804321-3.1409302-2.7467651
			c-0.2538452-0.2033691-0.6235962-0.1599121-0.8247681,0.0950317c-0.2017822,0.2565918-0.1593018,0.6290894,0.0944824,0.8320923
			C90.0774536,24.4394531,91.1085815,25.3412476,92.0863647,26.2747803z M107.8521729,58.9489746
			c-0.0097046-0.3265991-0.2699585-0.5916138-0.6052856-0.5731201c-0.3238525,0.0100708-0.5783691,0.2839355-0.5675049,0.6101685
			c0.015564,0.5010376,0.0235596,1.0028687,0.0235596,1.5070801c0,1.3637085-0.0584717,2.7374878-0.1731567,4.0842896
			c-0.0280151,0.3254395,0.2114868,0.6117554,0.5342407,0.6399536c0.0171509,0.0016479,0.0344238,0.0020142,0.0510254,0.0020142
			c0.3014526,0,0.5576782-0.2319336,0.5839844-0.5404663c0.118103-1.380249,0.1777344-2.788208,0.1777344-4.185791
			C107.87677,59.9763794,107.8687744,59.4613037,107.8521729,58.9489746z M74.831604,15.8238525
			c1.2786865,0.430542,2.5523071,0.9247437,3.786438,1.4664307c0.0761719,0.0338135,0.1558228,0.0495605,0.2337646,0.0495605
			c0.2269287,0,0.4424438-0.1329346,0.5388184-0.3556519c0.1295166-0.2996216-0.006897-0.6484375-0.303833-0.7792969
			c-1.2649536-0.5554199-2.571167-1.0612793-3.8826904-1.5039062c-0.3059692-0.1022949-0.6395874,0.0636597-0.7427979,0.3737793
			C74.3581543,15.3840942,74.524353,15.7195435,74.831604,15.8238525z M104.4853516,42.6143188
			c-0.1204224-0.3040771-0.4637451-0.4519043-0.7623291-0.3302612c-0.3015137,0.1212158-0.4482422,0.4651489-0.3278809,0.7688599
			c0.4980469,1.2597656,0.9474487,2.5586548,1.3355713,3.8599243c0.0767822,0.2553711,0.3094482,0.4208984,0.5621948,0.4208984
			c0.0556641,0,0.1129761-0.0080566,0.1690674-0.0253906c0.3101196-0.0930176,0.4860229-0.4237061,0.3931885-0.7366333
			C105.4573975,45.237793,104.996521,43.906311,104.4853516,42.6143188z M12.8444824,56.5280762
			c-0.3256226-0.0205688-0.6034546,0.2231445-0.6259155,0.5497437c-0.0790405,1.1309204-0.1185303,2.2803345-0.1185303,3.4169312
			c0.0004272,0.256958,0.0022583,0.5142822,0.0061646,0.770874c0.005249,0.322998,0.2672119,0.5827637,0.5869751,0.5827637
			c0.0028687,0,0.0062866,0,0.0091553,0c0.3244629-0.0060425,0.5829468-0.2750854,0.5778198-0.6017456
			c-0.0040283-0.2504883-0.0057373-0.5026245-0.0062866-0.75354c0-1.1079102,0.0390015-2.2287598,0.1151123-3.3331299
			C13.4119873,56.8341675,13.168335,56.5510254,12.8444824,56.5280762z M90.9979858,96.5093384
			c-0.2086182-0.2493286-0.5795288-0.2807617-0.8270264-0.0689087c-1.0266724,0.8764038-2.1047974,1.7205811-3.2041626,2.5059204
			c-0.2647705,0.1884766-0.3267212,0.5585938-0.1392212,0.8248291c0.1140747,0.1630859,0.295105,0.2496948,0.479126,0.2496948
			c0.1175537,0,0.2356567-0.0354614,0.3387451-0.1091309c1.1268921-0.805481,2.2319336-1.6697998,3.2842407-2.5687256
			C91.1767578,97.131958,91.2077637,96.758606,90.9979858,96.5093384z M76.996521,105.0097656
			c-0.1124268-0.3060913-0.4517212-0.4616089-0.7543945-0.3488159c-1.2614746,0.4724121-2.5596924,0.8936768-3.8591919,1.2533569
			c-0.3123169,0.0861816-0.4963379,0.4119873-0.4104004,0.727356c0.071106,0.262207,0.3078613,0.4353638,0.5652466,0.4353638
			c0.0515747,0,0.1036987-0.0068359,0.1558838-0.0213013c1.3320923-0.3689575,2.6634521-0.8015137,3.956543-1.2855835
			C76.9545898,105.6561279,77.109314,105.3162231,76.996521,105.0097656z M36.7711182,102.6427612
			c0.2045898,0,0.4040527-0.1079102,0.5118408-0.3008423c0.1593018-0.284729,0.0596313-0.6456299-0.2230225-0.8059082
			c-1.1721191-0.6673584-2.3304443-1.3950806-3.4423828-2.163147c-0.2682495-0.1844482-0.6328735-0.1156006-0.8161621,0.1538696
			c-0.1830444,0.2698364-0.1148071,0.6375122,0.1522827,0.8223877c1.1400757,0.7873535,2.3277588,1.5328369,3.5297241,2.2171631
			C36.5744629,102.6182251,36.6737061,102.6427612,36.7711182,102.6427612z M21.2443237,87.8643188
			c-0.2630005,0.190918-0.3220215,0.5614624-0.1328735,0.8260498c0.8087769,1.1309204,1.6747437,2.2376709,2.5740967,3.2904663
			c0.116394,0.1365356,0.2802734,0.2058105,0.4447632,0.2058105c0.1358032,0,0.2722168-0.0467529,0.3828735-0.1434326
			c0.2458496-0.2130127,0.2734375-0.5859985,0.0619507-0.8340454c-0.8775635-1.027832-1.7223511-2.107605-2.5110474-3.2107544
			C21.8743286,87.7333984,21.5079956,87.6734009,21.2443237,87.8643188z M18.2982788,37.9364014
			c0.0899658,0.0507202,0.187439,0.0740967,0.2836914,0.0740967c0.2063599,0,0.4069214-0.1103516,0.5141602-0.3048706
			c0.6516724-1.18573,1.3641357-2.359314,2.1173096-3.487793c0.1811523-0.2710571,0.1100464-0.6383667-0.1587524-0.821228
			c-0.2694092-0.1816406-0.6339722-0.1103516-0.8144531,0.1602783c-0.7727051,1.1567383-1.5029907,2.359314-2.1712036,3.5751953
			C17.9119263,37.4180298,18.0145874,37.7785034,18.2982788,37.9364014z M22.7976074,31.0167847
			c0.1083984,0.0881958,0.2385254,0.1316528,0.368042,0.1316528c0.1714478,0,0.3410645-0.0753174,0.4574585-0.2202759
			c0.8447876-1.0551758,1.7469482-2.0878296,2.6817627-3.0681152c0.2241211-0.2360229,0.2166748-0.6101685-0.0171509-0.8365479
			c-0.2333374-0.2263184-0.6046753-0.2191162-0.829895,0.0165405c-0.9572144,1.005249-1.8817749,2.062439-2.7484131,3.1442261
			C22.5059204,30.4388428,22.5455322,30.8113403,22.7976074,31.0167847z M15.0552368,45.539856
			c0.0630493,0.0217896,0.1278076,0.0322266,0.190918,0.0322266c0.2435303,0,0.4711304-0.1546631,0.5548096-0.3999023
			c0.4372559-1.2823486,0.9371338-2.5623169,1.4862061-3.805603c0.1312866-0.2991943-0.001709-0.6483765-0.2980957-0.781311
			c-0.295166-0.1329346-0.6430664,0.0024414-0.7749023,0.3000488c-0.5622559,1.274292-1.074707,2.5872803-1.5228271,3.9026489
			C14.5858154,45.0968628,14.7485352,45.4335327,15.0552368,45.539856z M14.1032104,69.3733521
			c-0.2510986-1.3294678-0.4481812-2.6903687-0.5858154-4.0460205c-0.0332031-0.3250122-0.3290405-0.5650635-0.6436157-0.5280151
			c-0.3227539,0.03302-0.5571289,0.3237915-0.5244751,0.649231c0.1409912,1.3886719,0.3433228,2.7833862,0.600708,4.1455078
			c0.053894,0.2839355,0.2996826,0.480835,0.5759277,0.480835c0.0361938,0,0.0733643-0.0036011,0.1107178-0.0100708
			C13.9547729,70.0036621,14.1640015,69.6939087,14.1032104,69.3733521z M60.3709717,108.7714233
			c0.3243408-0.0024414,0.5852661-0.2694702,0.5829468-0.5960693c-0.0022583-0.3250122-0.2647705-0.5876465-0.5869141-0.5876465
			c-0.0011597,0-0.0028687,0-0.0040283,0l-0.3743286,0.0020142c-1.2260132,0-2.4634399-0.0487061-3.6785889-0.144165
			c-0.3393555-0.0245972-0.605835,0.2178955-0.6310425,0.5444946c-0.0252686,0.3258667,0.2166138,0.6101685,0.5392456,0.6355591
			c1.2461548,0.0974731,2.5145874,0.1473999,3.7715454,0.1473999L60.3709717,108.7714233z M101.3150635,83.7180176
			c-0.2813721-0.1622925-0.6397095-0.0652466-0.8018799,0.2183228c-0.6717529,1.1780396-1.4031372,2.3391113-2.1728516,3.4535522
			c-0.1851807,0.2678223-0.119873,0.6367188,0.1455688,0.8236084c0.1026001,0.0720825,0.2196045,0.1067505,0.3352661,0.1067505
			c0.18573,0,0.368042-0.0890503,0.4820557-0.2537231c0.7893066-1.1418457,1.5390015-2.3327637,2.2279053-3.5401611
			C101.6928711,84.2432251,101.5959473,83.8815308,101.3150635,83.7180176z M31.7099609,21.5255737
			c-1.1141968,0.8232422-2.2055054,1.704834-3.2435913,2.6210938c-0.2441406,0.2150879-0.2688599,0.5888062-0.055542,0.8353271
			c0.116272,0.1328735,0.2785645,0.201355,0.4418945,0.201355c0.1375122,0,0.2750854-0.0479126,0.3863525-0.1461792
			c1.0133667-0.894104,2.0777588-1.7539673,3.1643677-2.5574951c0.2614136-0.1928711,0.3181763-0.5626221,0.126709-0.8268433
			C32.3381958,21.3894653,31.9701538,21.3327026,31.7099609,21.5255737z M44.2436523,106.0673218
			c0.2417603,0,0.4681396-0.1517944,0.5536499-0.3954468c0.107666-0.3081055-0.0527954-0.6456299-0.3583374-0.7547607
			c-1.2700806-0.4519043-2.5356445-0.9658203-3.7628174-1.5280151c-0.2975464-0.1361694-0.6437378-0.0028687-0.7772827,0.2940063
			c-0.1340942,0.2971802-0.0039673,0.647583,0.2911377,0.7828979c1.2581787,0.5767822,2.5563965,1.1043701,3.8581543,1.5675049
			C44.112793,106.0564575,44.1787109,106.0673218,44.2436523,106.0673218z M13.512207,48.8061523
			c-0.3323975,1.3508301-0.6104126,2.732666-0.8253174,4.107666c-0.0510254,0.3225708,0.1679688,0.6254272,0.4877319,0.6765747
			c0.0310059,0.0048828,0.0619507,0.0072632,0.0922241,0.0072632c0.2838135,0,0.5336914-0.2081909,0.5789795-0.4998169
			c0.2103271-1.3407593,0.4814453-2.6887207,0.8059082-4.0061035c0.0779419-0.3169556-0.1135254-0.6380005-0.4281616-0.7172852
			C13.9071655,48.2958984,13.5901489,48.4888306,13.512207,48.8061523z M15.7613525,78.0340576
			c0.069458,0,0.1398315-0.0125122,0.2087402-0.0390625c0.3031616-0.1164551,0.4550171-0.4579468,0.3399048-0.7636108
			c-0.4786377-1.269104-0.9074097-2.5747681-1.274231-3.8804932c-0.0883179-0.3145752-0.4172363-0.4942017-0.7244873-0.4083862
			c-0.3117676,0.0889893-0.4929199,0.4164429-0.4046631,0.7305908c0.3760376,1.3386841,0.8156128,2.6778564,1.3063354,3.9787598
			C15.3017578,77.8882446,15.5246582,78.0340576,15.7613525,78.0340576z M84.3634033,101.374939
			c-0.1644287-0.2823486-0.524353-0.3769531-0.8029175-0.2114868c-1.1647949,0.6867065-2.3706665,1.3291016-3.5846558,1.9098511
			c-0.2929688,0.1401978-0.4179077,0.4925537-0.2786255,0.7877808c0.1003418,0.2138672,0.3106689,0.3387451,0.5307617,0.3387451
			c0.0843506,0,0.1697388-0.0185547,0.2510986-0.0571899c1.2444458-0.5949097,2.4807129-1.2533569,3.6740112-1.9581909
			C84.4328613,102.0189209,84.5268555,101.6572266,84.3634033,101.374939z M17.9154663,80.9837646
			c-0.140564-0.2935791-0.4918823-0.4168701-0.7841797-0.274292c-0.2918091,0.1422119-0.4138794,0.4957886-0.2728271,0.7897949
			c0.6018677,1.2529907,1.2655029,2.4938354,1.9717407,3.6884155c0.1099854,0.1856079,0.3048706,0.2887573,0.5048828,0.2887573
			c0.1021118,0,0.2058105-0.0269775,0.2998657-0.0838013c0.2785645-0.1671143,0.3696289-0.5300293,0.2040405-0.81073
			C19.1494751,83.4163818,18.5023193,82.2053223,17.9154663,80.9837646z M52.1895142,108.1273804
			c0.2819824,0,0.5307617-0.2053833,0.5782471-0.4945679c0.0533447-0.3225708-0.1633301-0.6274414-0.482605-0.680603
			c-1.3314209-0.2227173-2.6657715-0.5070801-3.9668579-0.8441772c-0.3078613-0.0801392-0.6333008,0.1087646-0.7147827,0.425293
			c-0.0808105,0.3165894,0.1083374,0.6387329,0.4223633,0.7209473c1.3338013,0.3459473,2.7019653,0.637146,4.0666504,0.8646851
			C52.1253052,108.125,52.15802,108.1273804,52.1895142,108.1273804z M69.1118774,107.2981567
			c-0.0579224-0.3209839-0.3622437-0.5320435-0.6826782-0.475647c-1.321167,0.2432251-2.6726074,0.4313354-4.0167236,0.559021
			c-0.3227539,0.0305786-0.5595093,0.3189697-0.5296631,0.6444092c0.0286255,0.3060913,0.2843018,0.5356445,0.5839844,0.5356445
			c0.0184326,0,0.0367432-0.0007935,0.0556641-0.0024414c1.3772583-0.1304932,2.7626953-0.322998,4.1176758-0.5718994
			C68.9588623,107.9280396,69.1703491,107.6199341,69.1118774,107.2981567z M30.0007935,97.9668579
			c0.1695557,0,0.3381348-0.0736694,0.4545288-0.2166748c0.2052002-0.2525024,0.1690063-0.625061-0.0814819-0.8324585
			c-1.0431519-0.8623047-2.0593872-1.7805786-3.0211182-2.7286377c-0.232666-0.2279663-0.6035767-0.2235107-0.8299561,0.0100708
			c-0.2270508,0.2335815-0.2224731,0.6085205,0.0091553,0.8369141c0.9863892,0.9710083,2.0278931,1.9122314,3.0969238,2.7966919
			C29.7382202,97.9229736,29.8700562,97.9668579,30.0007935,97.9668579z M94.0960083,50.59198
			c-0.3129883,0.0845337-0.4987183,0.4091797-0.4144897,0.7253418c0.3490601,1.3060913,0.6254272,2.6464233,0.8218994,3.984375
			c0.0430298,0.2935791,0.2935791,0.5046387,0.5801392,0.5046387c0.0286255,0,0.057312-0.0020142,0.0866089-0.0060425
			c0.3203125-0.0483398,0.5421143-0.3487549,0.4945068-0.6717529c-0.2028809-1.3830566-0.4888916-2.7689209-0.8493652-4.119751
			C94.7310791,50.6938477,94.4083252,50.5053711,94.0960083,50.59198z M92.951416,47.8286743
			c0.0727539,0,0.1461182-0.0136719,0.2177734-0.0426636c0.3008423-0.1208496,0.4475708-0.46521,0.3272705-0.7688599
			c-0.5130005-1.2964478-1.1085815-2.5780029-1.7689209-3.8084106c-0.1547241-0.2871094-0.5123291-0.3942871-0.7954712-0.2379761
			c-0.2855225,0.1550293-0.3914795,0.5142822-0.2373047,0.8018799c0.6390381,1.1901245,1.2150879,2.4289551,1.7115479,3.6831055
			C92.4979858,47.6877441,92.7186279,47.8286743,92.951416,47.8286743z M95.166626,65.2125244
			c0.0230103,0.0024414,0.0453491,0.0036011,0.067627,0.0036011c0.2946777,0,0.5479736-0.22229,0.5823975-0.524353
			c0.1575928-1.3866577,0.237793-2.7999268,0.237793-4.1978149c0.0007324-0.3939209-0.0056763-0.7854004-0.0183105-1.1756592
			c-0.0097046-0.3270264-0.2928467-0.5924072-0.6046753-0.5731201c-0.3244629,0.010498-0.5783081,0.2831421-0.5679932,0.6105957
			c0.0114746,0.3765259,0.0177612,0.7563477,0.0171509,1.1373291c0,1.3544922-0.0773315,2.7218018-0.2297974,4.0645752
			C94.6135254,64.881897,94.8450317,65.1754761,95.166626,65.2125244z M89.0526123,40.5639038
			c0.116272,0,0.2338257-0.0342407,0.3364868-0.1075439c0.2653809-0.1872559,0.3295898-0.5570068,0.1432495-0.8236084
			c-0.7967529-1.145813-1.6679688-2.2550049-2.5889893-3.2988892c-0.2155151-0.244873-0.5875244-0.2658081-0.8289185-0.0483398
			c-0.2417603,0.2166748-0.2636719,0.5908203-0.0480347,0.8348999c0.8912354,1.0100708,1.7337646,2.0838013,2.5053101,3.1913452
			C88.68573,40.4761353,88.8674316,40.5639038,89.0526123,40.5639038z M35.5507812,87.234436
			c0.1129761,0.1046753,0.2556763,0.1570435,0.3978271,0.1570435c0.1581421,0,0.3157349-0.0643921,0.4315796-0.1912842
			c0.2194824-0.2400513,0.2045898-0.6141968-0.0338135-0.8356934c-0.9876099-0.9187012-1.9321899-1.9033813-2.8062744-2.9259644
			c-0.2126465-0.2493286-0.5834351-0.2758789-0.8276367-0.0628662c-0.2459717,0.2130737-0.2734375,0.586792-0.0619507,0.8341064
			C33.5539551,85.2681885,34.5299683,86.2851562,35.5507812,87.234436z M26.8167725,73.8011475
			c0.069397,0,0.1398926-0.0125122,0.2086182-0.0386963c0.3031616-0.1159668,0.4551392-0.458313,0.3399048-0.7631836
			c-0.4763184-1.262207-0.8843994-2.5679321-1.2133789-3.8820801c-0.0791016-0.3169556-0.3972778-0.5083008-0.7131348-0.4289551
			c-0.3140259,0.0797729-0.5043335,0.4019775-0.4252319,0.7185059c0.3404541,1.3585205,0.7622681,2.7084961,1.2546997,4.0130005
			C26.3570557,73.656189,26.5800171,73.8011475,26.8167725,73.8011475z M93.1575928,73.2268066
			c0.065918,0.0238037,0.133667,0.0354614,0.2001953,0.0354614c0.2401123,0,0.465332-0.1498413,0.5519409-0.3902588
			c0.4728394-1.3157959,0.8735352-2.6738281,1.1904297-4.0351562c0.0739136-0.3185425-0.12146-0.6367188-0.4373169-0.7112427
			c-0.3158569-0.0736694-0.6311035,0.1216431-0.7056274,0.44104c-0.3065796,1.3161621-0.6940918,2.6295166-1.1514893,3.9022217
			C92.6957397,72.776123,92.8527222,73.1156616,93.1575928,73.2268066z M89.3695068,80.5592651
			c0.0992432,0.0652466,0.2110596,0.0966797,0.3209839,0.0966797c0.1914673,0,0.3789673-0.0942383,0.4918823-0.2682495
			c0.7594604-1.1699829,1.4598389-2.3971558,2.0805664-3.6477051c0.1449585-0.2927856,0.0275879-0.647583-0.2624512-0.7941895
			c-0.2901001-0.1466064-0.6425781-0.027832-0.7875366,0.2641602c-0.6001587,1.2102661-1.2776489,2.3980103-2.0130615,3.5297241
			C89.0227661,80.0131226,89.0983887,80.3800659,89.3695068,80.5592651z M86.7966309,83.0111694
			c-0.8603516,1.0395508-1.7889404,2.0391235-2.7609863,2.9707031c-0.2350464,0.2255249-0.2442017,0.5996704-0.0206909,0.8364868
			c0.1152344,0.1228638,0.2700806,0.184082,0.425354,0.184082c0.1455688,0,0.2911377-0.0539551,0.4046631-0.1627197
			c1.0042114-0.9633789,1.9642944-1.9963989,2.8526611-3.0705566c0.2080688-0.2512817,0.1741943-0.6238403-0.0744629-0.833252
			C87.37323,82.7264404,87.0028687,82.7606812,86.7966309,83.0111694z M49.041687,27.0512695
			c0.0595093,0,0.1208496-0.0096436,0.1810303-0.0293579c1.2753296-0.4168701,2.5895996-0.7620239,3.9056396-1.0266113
			c0.3181763-0.0640259,0.524353-0.3753662,0.4608765-0.6955566c-0.0636597-0.3201904-0.3737793-0.5280151-0.6901855-0.4651489
			c-1.3607178,0.2734375-2.7197266,0.6306763-4.0385132,1.0616455c-0.3084106,0.1002808-0.4768677,0.4345703-0.3771973,0.7450562
			C48.5635376,26.8917847,48.7940063,27.0512695,49.041687,27.0512695z M24.8898315,65.7840576
			c0.3209229-0.0427246,0.5473633-0.340332,0.5049438-0.6641846c-0.1748657-1.3386841-0.2734375-2.7040405-0.2941284-4.0580444
			c-0.0050659-0.3242188-0.2665405-0.5828247-0.586853-0.5828247c-0.0028687,0-0.0057373,0-0.0091553,0
			c-0.3238525,0.005249-0.5829468,0.2738647-0.5778198,0.6009521c0.0213013,1.3991089,0.1238403,2.8103638,0.3043823,4.1942139
			c0.0389404,0.2980347,0.2911377,0.5142822,0.5811768,0.5142822
			C24.8376465,65.7884521,24.8634033,65.7868652,24.8898315,65.7840576z M41.5932617,30.4927979
			c0.1036987,0,0.2091064-0.0274048,0.3043213-0.0858154c1.1469116-0.7027588,2.3466187-1.3447876,3.5640259-1.9074097
			c0.2945557-0.1361084,0.4241333-0.4877319,0.2888794-0.7845459c-0.1353149-0.2960205-0.4832153-0.4273071-0.7784424-0.2915649
			c-1.258606,0.5827637-2.4979248,1.2456665-3.6843262,1.972229c-0.2767944,0.1691895-0.3650513,0.5340576-0.1965942,0.8123779
			C41.2017822,30.3925171,41.3949585,30.4927979,41.5932617,30.4927979z M80.0509033,31.7074585
			c1.0964966,0.7785034,2.1603394,1.6303711,3.1628418,2.5324707c0.1122437,0.100708,0.2515259,0.1502686,0.3908081,0.1502686
			c0.1611328,0,0.3221436-0.0664673,0.4379883-0.1977539c0.2160645-0.2440796,0.1948853-0.6177979-0.0470581-0.8356934
			c-1.0362549-0.9315796-2.1356812-1.8120117-3.2681885-2.616272c-0.2659912-0.1884766-0.6315918-0.1240234-0.8179321,0.1433716
			C79.7224731,31.1508789,79.7861328,31.5197754,80.0509033,31.7074585z M46.4921875,92.9413452
			c-0.2987061-0.1264648-0.6431885,0.0145264-0.7686157,0.3165894c-0.1255493,0.3012695,0.0148926,0.6480103,0.3134766,0.7749023
			c1.2792969,0.541687,2.6039429,1.0128784,3.9370728,1.4007568c0.0545044,0.015686,0.1095581,0.0233154,0.1628418,0.0233154
			c0.255127,0,0.4900513-0.1687012,0.5639648-0.4281006c0.0899658-0.3141479-0.0899048-0.6416016-0.4011841-0.7329712
			C49.0100708,93.9212646,47.7290649,93.465332,46.4921875,92.9413452z M28.2268066,76.4605103
			c-0.2871094,0.1514282-0.3989258,0.5082397-0.2493286,0.7982178c0.6385498,1.2376709,1.3577881,2.4527588,2.1367188,3.6118774
			c0.1135254,0.1687622,0.298645,0.2597656,0.4866943,0.2597656c0.1135254,0,0.2275391-0.03302,0.3284302-0.1019287
			c0.2688599-0.1828003,0.3387451-0.5517578,0.1570435-0.8215942c-0.7542725-1.1220703-1.4495239-2.2980957-2.0680542-3.4946289
			C28.8692627,76.4230347,28.5150757,76.3102417,28.2268066,76.4605103z M31.9099731,37.6705933
			c-0.8706665,1.0878296-1.6885376,2.2384644-2.4302368,3.4213257c-0.1730347,0.2763062-0.0911255,0.6419678,0.1828613,0.8163452
			c0.0974121,0.0620728,0.2057495,0.0914307,0.3129883,0.0914307c0.1947632,0,0.3851929-0.0970459,0.4968872-0.2758789
			c0.7171021-1.1437988,1.5079956-2.2573853,2.3510742-3.3093872c0.2036133-0.2545166,0.1640015-0.6274414-0.0880737-0.8320312
			C32.4837036,37.3769531,32.114624,37.4164429,31.9099731,37.6705933z M38.7766724,89.9034424
			c1.1233521,0.8244019,2.3047485,1.5904541,3.5106812,2.2767334c0.0911255,0.0519409,0.1902466,0.0769043,0.2877197,0.0769043
			c0.2046509,0,0.4041138-0.1083374,0.5119019-0.3008423c0.1593018-0.284729,0.0595093-0.6452026-0.2230225-0.8067017
			c-1.1663818-0.6641235-2.3093262-1.4047852-3.3960571-2.2030029c-0.2625122-0.1921387-0.6287231-0.1341553-0.8201904,0.1304321
			C38.4567871,89.3411865,38.5147095,89.7113037,38.7766724,89.9034424z M35.1248779,35.5678101
			c0.1484985,0,0.296936-0.0563965,0.4116211-0.1695557c0.9577637-0.9492798,1.9802856-1.8514404,3.0378418-2.6815186
			c0.2555542-0.2005615,0.3014526-0.5722656,0.1025391-0.8304443c-0.1994629-0.2581787-0.5679932-0.3040771-0.8236084-0.1030884
			c-1.0930786,0.8578491-2.1494751,1.7902222-3.1398315,2.7705078c-0.2310791,0.2295532-0.2344971,0.6036987-0.0068359,0.8369141
			C34.821106,35.5082397,34.9730835,35.5678101,35.1248779,35.5678101z M26.2366943,49.4199829
			c0.0630493,0.0217285,0.1278076,0.0321655,0.1908569,0.0321655c0.2436523,0,0.4711914-0.1550293,0.5548096-0.3994751
			c0.43573-1.2775269,0.9514771-2.5449829,1.5333252-3.7669067c0.1403809-0.2952271,0.0171509-0.6484375-0.2751465-0.7897949
			c-0.293396-0.1433716-0.6431274-0.0165405-0.7828979,0.2774658c-0.6018066,1.263855-1.1348877,2.5744019-1.5848999,3.894165
			C25.7672729,48.9765015,25.9301147,49.3135986,26.2366943,49.4199829z M72.965332,27.8286133
			c1.2443237,0.5026245,2.473877,1.0853882,3.654541,1.7318115c0.0893555,0.0491333,0.1851807,0.0720825,0.2797241,0.0720825
			c0.2080078,0,0.40979-0.1119385,0.5164185-0.3093262c0.1547241-0.2875366,0.0493774-0.6467896-0.2354736-0.8026733
			c-1.2210083-0.6677246-2.4917603-1.2706299-3.7783813-1.7905884c-0.3015747-0.1216431-0.6431885,0.0249634-0.7630005,0.3290405
			C72.5181885,27.3618164,72.6643677,27.706543,72.965332,27.8286133z M74.0015869,92.7186279
			c-1.2277222,0.5429077-2.5013428,1.0197754-3.7839966,1.4160767c-0.3101196,0.0958862-0.484436,0.4269409-0.3892212,0.7390747
			c0.0773926,0.2553101,0.3094482,0.418457,0.5610962,0.418457c0.0567627,0,0.1146851-0.0084839,0.171936-0.0258179
			c1.326355-0.4099731,2.642395-0.9025269,3.9124756-1.4643555c0.2963867-0.1313477,0.4317017-0.4804688,0.3015747-0.7793579
			C74.6447144,92.7235107,74.3008423,92.5869751,74.0015869,92.7186279z M80.9553833,88.6138306
			c-1.0723267,0.8139648-2.2026978,1.5731201-3.359314,2.2557983c-0.2798462,0.1651001-0.37323,0.5272217-0.2098999,0.8095093
			c0.1094971,0.1881104,0.305542,0.2928467,0.5073242,0.2928467c0.1008301,0,0.2028809-0.0261841,0.2957153-0.0817871
			c1.1956787-0.704834,2.3637695-1.4897461,3.472229-2.3311157c0.2590942-0.1965332,0.31073-0.5678711,0.1158447-0.8284302
			C81.5829468,88.4700317,81.2155762,88.4165039,80.9553833,88.6138306z M65.1845093,25.7025146
			c1.3286133,0.2001343,2.6583252,0.4804688,3.9508057,0.833252c0.0516357,0.0145264,0.1032104,0.0209351,0.1542969,0.0209351
			c0.2584839,0,0.4951782-0.173584,0.5656738-0.4365845c0.0847778-0.3157349-0.0996704-0.6407471-0.4126587-0.7261353
			c-1.3366699-0.3652954-2.7111206-0.6552734-4.085022-0.8623047c-0.3204346-0.0466919-0.6190796,0.1748047-0.6671753,0.4978027
			C64.6428223,25.3529053,64.8634644,25.6541748,65.1845093,25.7025146z M54.2374268,95.1943359
			c-0.3250122-0.0559692-0.6224365,0.1639404-0.6752319,0.4865112c-0.0533447,0.322998,0.1628418,0.6275024,0.482605,0.6802368
			c1.3641357,0.2287598,2.7598877,0.3793945,4.1487427,0.4483032c0.0097046,0.0003662,0.0194092,0.0007935,0.0291748,0.0007935
			c0.3106689,0,0.5702515-0.246521,0.5858154-0.5630493c0.0159912-0.3262329-0.2338257-0.604126-0.5576782-0.6202393
			C56.9072266,95.5608521,55.5568848,95.4154663,54.2374268,95.1943359z M25.4463501,52.2702026
			c-0.3164062-0.0700684-0.6293945,0.1329346-0.6987915,0.4519043c-0.2939453,1.3624878-0.5128784,2.760437-0.649292,4.1555176
			c-0.0321655,0.3254395,0.2040405,0.6150513,0.526062,0.6472168c0.0201416,0.0016479,0.0396118,0.0028687,0.0584717,0.0028687
			c0.2981567,0,0.553772-0.2283936,0.5835571-0.5340576c0.1323853-1.3496094,0.3433228-2.7020264,0.6288452-4.0198364
			C25.9638672,52.6548462,25.7632446,52.3399048,25.4463501,52.2702026z M57.078064,25.4338379
			c0.0159912,0,0.0321655-0.0007935,0.0481567-0.0020142c0.9440308-0.0773315,1.9035034-0.1167603,2.8521118-0.1167603
			c0.414978,0.012085,0.7915649,0.0068359,1.1853638,0.0197144c0.3261719,0.0136719,0.595459-0.2444458,0.6057739-0.571106
			c0.0109863-0.3270264-0.242981-0.6000977-0.5668335-0.6113892c-0.4063721-0.0144653-0.8001709-0.0293579-1.2243042-0.0205078
			c-0.9801636,0-1.9716797,0.0407104-2.9472046,0.1208496c-0.3233032,0.026123-0.5634766,0.3117065-0.5376587,0.6375122
			C56.5186768,25.1994629,56.7754517,25.4338379,57.078064,25.4338379z M62.2887573,95.5950928
			c-0.3232422,0.0209351-0.5685425,0.3032837-0.5473633,0.6295166c0.0201416,0.3125,0.2785645,0.5529175,0.5852661,0.5529175
			c0.0125732,0,0.0257568-0.0003662,0.0390015-0.0011597c1.3870239-0.0914307,2.7804565-0.2642212,4.1405029-0.5147095
			c0.3187256-0.0584106,0.5303345-0.3669434,0.4718628-0.6882935c-0.0579224-0.3214111-0.362915-0.5332642-0.6826782-0.4760742
			C64.9793091,95.3393555,63.6311646,95.5064697,62.2887573,95.5950928z"/>
	</g>
</g>
</svg>
