<?xml version="1.0" encoding="utf-8"?>
<svg version="1.1" id="Layer_1" xmlns="http://www.w3.org/2000/svg" xmlns:xlink="http://www.w3.org/1999/xlink" x="0px" y="0px"
	 viewBox="0 0 209.2011719 34.4013672" style="enable-background:new 0 0 209.2011719 34.4013672;" xml:space="preserve"
	 width="183px" height="30px">
<style type="text/css">
	.st0{fill:#1A1A1A;}
	.st1{fill:#FE3E57;}
</style>
<path class="st0" d="M0,34.4013672V0.1000977h0.5493164l16.2265625,18.9731445L32.8535156,0.1000977h0.5488281v34.3012695
	h-5.0424805v-17.625l0.199707-4.8930664c-1.0986328,1.6977539-2.1142578,3.0629883-3.0458984,4.0942383l-8.5375977,10.2851562
	h-0.5996094L7.8388672,15.9775391l-2.9956055-4.0942383c0.1323242,1.9970703,0.199707,3.628418,0.199707,4.8930664v17.625H0z"/>
<path class="st0" d="M90.8203125,23.9160156l7.1899414,10.4853516h-6.0913086l-6.0913086-8.9375
	c-1.265625,0.1337891-2.2143555,0.199707-2.8461914,0.199707h-3.1953125v8.737793h-5.2924805V0.449707h8.487793
	c4.659668,0,8.2631836,1.1318359,10.8095703,3.3950195c2.5463867,2.2641602,3.8198242,5.359375,3.8198242,9.2866211
	C97.6108398,18.3242188,95.3466797,21.9189453,90.8203125,23.9160156z M79.7861328,21.1201172h2.9956055
	c6.2910156,0,9.4365234-2.6625977,9.4365234-7.9887695c0-5.3583984-3.1455078-8.0385742-9.4365234-8.0385742h-2.9956055V21.1201172z
	"/>
<path class="st1" d="M120.578125,34.8505859c-4.8930664,0-9.0209961-1.6474609-12.3823242-4.9428711
	c-3.3623047-3.2954102-5.0429688-7.4555664-5.0429688-12.4824219c0-4.9926758,1.6806641-9.1367188,5.0429688-12.4321289
	c3.3613281-3.2954102,7.4892578-4.9428711,12.3823242-4.9428711c6.0581055,0,10.5854492,2.246582,13.581543,6.7402344
	l-4.0449219,2.8959961c-2.0976562-3.2617188-5.2753906-4.8930664-9.5366211-4.8930664
	c-3.4951172,0-6.3745117,1.1982422-8.6376953,3.5947266c-2.2641602,2.3964844-3.3950195,5.409668-3.3950195,9.0371094
	c0,3.628418,1.1308594,6.6494141,3.3950195,9.0625c2.2631836,2.4135742,5.1425781,3.6196289,8.6376953,3.6196289
	c4.2944336,0,7.6381836-1.7802734,10.0366211-5.3422852l4.0429688,2.8457031
	C131.4956055,32.4379883,126.8022461,34.8505859,120.578125,34.8505859z"/>
<path class="st1" d="M140.6479492,34.4013672V0.449707h5.2929688v15.2739258h16.3271484V0.449707h5.2919922v33.9516602h-5.2919922
	v-13.984375H145.940918v13.984375H140.6479492z"/>
<path class="st1" d="M191.7250977,34.8505859c-4.9267578,0-9.0791016-1.6474609-12.4570312-4.9428711
	c-3.3789062-3.2954102-5.0683594-7.4555664-5.0683594-12.4824219c0-5.0253906,1.6894531-9.1870117,5.0683594-12.4819336
	C182.6459961,1.6479492,186.7983398,0,191.7250977,0c4.894043,0,9.0288086,1.6479492,12.4077148,4.9433594
	c3.3779297,3.2949219,5.0683594,7.456543,5.0683594,12.4819336c0,5.0268555-1.6904297,9.1870117-5.0683594,12.4824219
	C200.7539062,33.203125,196.6191406,34.8505859,191.7250977,34.8505859z M183.012207,26.487793
	c2.2802734,2.4135742,5.1845703,3.6196289,8.7128906,3.6196289c3.5288086,0,6.4243164-1.2060547,8.6879883-3.6196289
	c2.2636719-2.4130859,3.3955078-5.434082,3.3955078-9.0625c0-3.6274414-1.1318359-6.6479492-3.3955078-9.0620117
	c-2.2636719-2.4130859-5.1591797-3.6196289-8.6879883-3.6196289c-3.5283203,0-6.4326172,1.206543-8.7128906,3.6196289
	c-2.2802734,2.4140625-3.4199219,5.4345703-3.4199219,9.0620117C179.5922852,21.0537109,180.7319336,24.074707,183.012207,26.487793
	z"/>
<polygon class="st0" points="54.0727539,0.1000977 53.4736328,0.1000977 38.9438477,34.4013672 44.0366211,34.4013672 
	53.6733398,9.5366211 63.4589844,34.4013672 68.9516602,34.4013672 "/>
</svg>
