<?xml version="1.0" encoding="utf-8"?>
<!-- Generator: Adobe Illustrator 27.2.0, SVG Export Plug-In . SVG Version: 6.00 Build 0)  -->
<svg version="1.1" id="angle_x5F_right_00000021818490119989693460000007044842537275676606_"
	 xmlns="http://www.w3.org/2000/svg" xmlns:xlink="http://www.w3.org/1999/xlink" x="0px" y="0px" viewBox="0 0 9 10"
	 style="enable-background:new 0 0 9 10;" xml:space="preserve">
<style type="text/css">
	.st0{fill:#727272;}
</style>
<g id="angle_x5F_right">
	<g>
		<path class="st0" d="M8.9067383,4.7679443L4.5691528,0.1078491C4.5071411,0.041687,4.4358521,0.0081177,4.3549194,0.0081177
			c-0.0803223,0-0.1517334,0.0335693-0.213623,0.0997314L3.6754761,0.6082153
			C3.6134644,0.6746826,3.5828247,0.7514038,3.5828247,0.8381348c0,0.086792,0.0306396,0.1639404,0.0926514,0.2301636
			l3.6582642,3.9301758L3.6754761,8.9287109C3.6134644,8.9954834,3.5828247,9.0720825,3.5828247,9.1589355
			c0,0.0861206,0.0306396,0.163147,0.0926514,0.2304688L4.1412964,9.888916
			c0.0618896,0.0667114,0.1333008,0.1000366,0.213623,0.1000366c0.0809326,0,0.1522217-0.0333252,0.2142334-0.1000366
			l4.3375854-4.6608276C8.96875,5.1621094,8.9995117,5.0855103,8.9995117,4.9984741
			C8.9995117,4.9121704,8.96875,4.835022,8.9067383,4.7679443z M5.425415,4.9984741
			c0-0.0863037-0.0306396-0.1634521-0.0932617-0.2305298L0.9950562,0.1078491
			c-0.0625-0.0661621-0.1339111-0.0997314-0.2142334-0.0997314c-0.0808105,0-0.1522217,0.0335693-0.2142334,0.0997314
			l-0.46521,0.5003662C0.0396118,0.6746826,0.0082397,0.7514038,0.0082397,0.8381348
			c0,0.086792,0.0313721,0.1639404,0.0931396,0.2301636l3.6577759,3.9301758L0.1013794,8.9287109
			C0.0396118,8.9954834,0.0082397,9.0720825,0.0082397,9.1589355c0,0.0861206,0.0313721,0.163147,0.0931396,0.2304688
			l0.46521,0.4995117c0.0620117,0.0667114,0.1334229,0.1000366,0.2142334,0.1000366
			c0.0803223,0,0.1517334-0.0333252,0.2142334-0.1000366l4.3370972-4.6608276
			C5.3947754,5.1621094,5.425415,5.0855103,5.425415,4.9984741z"/>
	</g>
</g>
</svg>
