<?xml version="1.0" encoding="utf-8"?>
<!-- Generator: Adobe Illustrator 27.2.0, SVG Export Plug-In . SVG Version: 6.00 Build 0)  -->
<svg version="1.1" id="arrow_00000180359184685940697440000015595637543342391960_"
	 xmlns="http://www.w3.org/2000/svg" xmlns:xlink="http://www.w3.org/1999/xlink" x="0px" y="0px" viewBox="0 0 10 8"
	 style="enable-background:new 0 0 10 8;" xml:space="preserve">
<style type="text/css">
	.st0{fill:#8D8D8D;}
</style>
<g id="arrow">
	<g>
		<path class="st0" d="M9.8363037,3.6244507l-3.609375-3.4729004C6.1239624,0.0524902,5.9866333-0.0026855,5.840271-0.0026855
			c-0.1466064,0-0.2839355,0.0551758-0.3869629,0.1542358L5.1256714,0.4669189
			c-0.1029663,0.0986328-0.159668,0.2311401-0.159668,0.3721313c0,0.1413574,0.0567017,0.2778931,0.159668,0.3765869
			l2.1055908,2.0310669H0.5415039c-0.3015137,0-0.539917,0.2263184-0.539917,0.5167236v0.446228
			c0,0.289978,0.2384033,0.5404663,0.539917,0.5404663H7.255188L5.1256714,6.7920532
			c-0.1029053,0.0986938-0.159668,0.2276001-0.159668,0.3685303c0,0.1401367,0.0567627,0.2710571,0.159668,0.3701172
			l0.3277588,0.3145752C5.5564575,7.9443359,5.6936646,7.998291,5.840271,7.998291
			c0.1464844,0,0.2838135-0.0547485,0.3867798-0.1538086l3.609375-3.4729004
			C9.9396362,4.2724609,9.9963989,4.1395874,9.9960327,3.99823C9.9963989,3.8568726,9.9396362,3.723938,9.8363037,3.6244507z"/>
	</g>
</g>
</svg>
