<?xml version="1.0" encoding="utf-8"?>
<!-- Generator: Adobe Illustrator 27.2.0, SVG Export Plug-In . SVG Version: 6.00 Build 0)  -->
<svg version="1.1" id="Shape_1_00000004520635172038942550000016706746843026012549_"
	 xmlns="http://www.w3.org/2000/svg" xmlns:xlink="http://www.w3.org/1999/xlink" x="0px" y="0px" viewBox="0 0 16 16"
	 style="enable-background:new 0 0 16 16;" xml:space="preserve">
<style type="text/css">
	.st0{fill:#FE3E57;}
</style>
<g id="Shape_1">
	<g>
		<path class="st0" d="M14.1,1.2h-0.7V0h-1.3v1.3H3.9V0H2.6v1.3H1.9C0.8,1.2,0,2.1,0,3.1v11c0,1,0.8,1.9,1.9,1.9h12.2
			c1,0,1.9-0.8,1.9-1.9v-11C16,2.1,15.2,1.2,14.1,1.2z M14.8,14.1c0,0.3-0.3,0.6-0.6,0.6H1.9c-0.3,0-0.6-0.3-0.6-0.6V5.9h13.5V14.1z
			 M14.8,4.6H1.2V3.1c0-0.3,0.3-0.6,0.6-0.6h0.8v1.2h1.3V2.5h8.2v1.2h1.3V2.5h0.7c0.3,0,0.6,0.3,0.6,0.6V4.6z M3.6,7.2H2.4v1.3h1.2
			V7.2z M6.1,7.2H4.9v1.3h1.2V7.2z M8.6,7.2H7.4v1.3h1.3V7.2z M11.1,7.2H9.9v1.3h1.2V7.2z M13.6,7.2h-1.2v1.3h1.2V7.2z M3.6,9.7H2.4
			v1.2h1.2V9.7z M6.1,9.7H4.9v1.2h1.2V9.7z M8.6,9.7H7.4v1.2h1.3V9.7z M11.1,9.7H9.9v1.2h1.2V9.7z M3.6,12.2H2.4v1.2h1.2V12.2z
			 M6.1,12.2H4.9v1.2h1.2V12.2z M8.6,12.2H7.4v1.2h1.3V12.2z M11.1,12.2H9.9v1.2h1.2V12.2z M13.6,9.7h-1.2v1.2h1.2V9.7z"/>
	</g>
</g>
</svg>
