<?xml version="1.0" encoding="utf-8"?>
<!-- Generator: Adobe Illustrator 27.2.0, SVG Export Plug-In . SVG Version: 6.00 Build 0)  -->
<svg version="1.1" id="checkmark_00000077296394414773623690000012857321622321179816_"
	 xmlns="http://www.w3.org/2000/svg" xmlns:xlink="http://www.w3.org/1999/xlink" x="0px" y="0px" viewBox="0 0 20 20"
	 style="enable-background:new 0 0 20 20;" xml:space="preserve">
<style type="text/css">
	.st0{fill:#FE3E57;}
</style>
<g id="checkmark">
	<g>
		<path class="st0" d="M17.1,2.9C15.2,1,12.7,0,10,0C7.3,0,4.8,1,2.9,2.9C1,4.8,0,7.3,0,10c0,2.7,1,5.2,2.9,7.1C4.8,19,7.3,20,10,20
			c2.7,0,5.2-1,7.1-2.9C19,15.2,20,12.7,20,10C20,7.3,19,4.8,17.1,2.9z M10,18.8c-4.9,0-8.8-4-8.8-8.8c0-4.9,4-8.8,8.8-8.8
			c4.9,0,8.8,4,8.8,8.8C18.8,14.9,14.9,18.8,10,18.8z M13.9,6.8L8.8,12L6.1,9.2C5.8,9,5.5,9,5.2,9.2C5,9.5,5,9.8,5.2,10.1l3.1,3.1
			c0.1,0.1,0.3,0.2,0.4,0.2s0.3-0.1,0.4-0.2l5.6-5.6C15,7.4,15,7,14.8,6.8C14.5,6.6,14.2,6.6,13.9,6.8z"/>
	</g>
</g>
</svg>
