<?xml version="1.0" encoding="utf-8"?>
<!-- Generator: Adobe Illustrator 27.2.0, SVG Export Plug-In . SVG Version: 6.00 Build 0)  -->
<svg version="1.1" id="Слой_1" xmlns="http://www.w3.org/2000/svg" xmlns:xlink="http://www.w3.org/1999/xlink" x="0px" y="0px"
	 viewBox="0 0 50 50" style="enable-background:new 0 0 50 50;" xml:space="preserve">
<style type="text/css">
	.st0{fill:#FFFFFF;}
</style>
<path class="st0" d="M47.3,0c-1.1,0-1.7,0.7-2.3,1.2L20.5,42.5l-16-15c-0.6-0.7-1.7-1.2-2.8-0.7C0.6,27.4,0,28,0,29.3
	c0,1.2,0,1.9,1.1,2.5l18.2,17.5c0.6,0.7,1.1,0.7,2.3,0.7c0.6,0,1.1-0.7,1.7-1.2L49.6,4.4c0.6-0.7,0.6-1.9,0-3.1
	C49,0.7,47.9,0,47.3,0z"/>
</svg>
