<?xml version="1.0" encoding="utf-8"?>
<!-- Generator: Adobe Illustrator 27.2.0, SVG Export Plug-In . SVG Version: 6.00 Build 0)  -->
<svg version="1.1" id="Shape_16_00000128449876856404468730000007544039856158086023_"
	 xmlns="http://www.w3.org/2000/svg" xmlns:xlink="http://www.w3.org/1999/xlink" x="0px" y="0px" viewBox="0 0 20 20"
	 style="enable-background:new 0 0 20 20;" xml:space="preserve">
<style type="text/css">
	.st0{fill:#8D8D8D;}
</style>
<g id="Shape_16">
	<g>
		<path class="st0" d="M19.0083618,5.6484985c-0.2000732-0.414856-0.7001343-0.5875854-1.112915-0.3870239
			c-0.4141846,0.2001343-0.5875854,0.6983643-0.387207,1.1131592c0.5474854,1.1309204,0.8250122,2.3496704,0.8250122,3.6247559
			c0,4.5945435-3.7382812,8.3328857-8.333313,8.3328857c-4.5949707,0-8.333252-3.7383423-8.333252-8.3328857
			c0-4.5953369,3.7382812-8.333252,8.333252-8.333252c1.9041748,0,3.692749,0.6213989,5.1732788,1.7970581
			c0.3592529,0.2871704,0.8842773,0.2271118,1.1709595-0.133728c0.2865601-0.3600464,0.2265625-0.8844604-0.1339111-1.1704102
			c-1.7527466-1.3930664-3.958252-2.1603394-6.2103271-2.1603394c-5.5136719,0-10,4.4866333-10,10.0006714
			c0,5.5132446,4.4863281,9.9994507,10,9.9994507C15.5136719,19.9988403,20,15.5126343,20,9.9993896
			C20,8.4709473,19.6663818,7.0073853,19.0083618,5.6484985z M9.999939,3.3319092
			c-0.4599609,0-0.833252,0.3737183-0.833252,0.8336792v5.8338013c0,0.4591064,0.373291,0.8328857,0.833252,0.8328857h4.166626
			c0.460083,0,0.833374-0.3737793,0.833374-0.8328857c0-0.4603271-0.373291-0.8336792-0.833374-0.8336792h-3.333313V4.1655884
			C10.833252,3.7056274,10.4599609,3.3319092,9.999939,3.3319092z"/>
	</g>
</g>
</svg>
