<?xml version="1.0" encoding="utf-8"?>
<!-- Generator: Adobe Illustrator 27.2.0, SVG Export Plug-In . SVG Version: 6.00 Build 0)  -->
<svg version="1.1" id="Comment_00000132779674912221571130000012267627514837122958_"
	 xmlns="http://www.w3.org/2000/svg" xmlns:xlink="http://www.w3.org/1999/xlink" x="0px" y="0px" viewBox="0 0 16 16"
	 style="enable-background:new 0 0 16 16;" xml:space="preserve">
<style type="text/css">
	.st0{fill:#FE3E57;}
</style>
<g id="Comment">
	<g>
		<path class="st0" d="M8,7.6c0.4,0,0.8-0.3,0.8-0.8C8.8,6.4,8.4,6,8,6S7.2,6.4,7.2,6.8C7.2,7.2,7.6,7.6,8,7.6z M11.1,7.6
			c0.4,0,0.8-0.3,0.8-0.8c0-0.4-0.3-0.8-0.8-0.8s-0.8,0.3-0.8,0.8C10.3,7.2,10.7,7.6,11.1,7.6z M15.4,0H0.6C0.3,0,0,0.3,0,0.6V13
			c0,0.3,0.3,0.6,0.6,0.6h5.5l1.3,2.1C7.6,15.9,7.8,16,8,16c0.2,0,0.4-0.1,0.5-0.3l1.3-2.1h5.5c0.3,0,0.6-0.3,0.6-0.6V0.6
			C16,0.3,15.7,0,15.4,0z M14.7,12.4H9.5c-0.2,0-0.4,0.1-0.5,0.3l-1,1.5l-1-1.5c-0.1-0.2-0.3-0.3-0.5-0.3H1.2V1.2h13.5V12.4z
			 M4.9,7.6c0.4,0,0.8-0.3,0.8-0.8C5.7,6.4,5.3,6,4.9,6C4.4,6,4.1,6.4,4.1,6.8C4.1,7.2,4.4,7.6,4.9,7.6z"/>
	</g>
</g>
</svg>
