<?xml version="1.0" encoding="utf-8"?>
<!-- Generator: Adobe Illustrator 27.2.0, SVG Export Plug-In . SVG Version: 6.00 Build 0)  -->
<svg version="1.1" id="home_x5F_icon_00000100357834859544927300000017591882639413601700_"
	 xmlns="http://www.w3.org/2000/svg" xmlns:xlink="http://www.w3.org/1999/xlink" x="0px" y="0px" viewBox="0 0 16 16"
	 style="enable-background:new 0 0 16 16;" xml:space="preserve">
<style type="text/css">
	.st0{fill:#727272;}
</style>
<g id="home_x5F_icon">
	<g>
		<path class="st0" d="M15.7694092,6.8572998L7.9988403-0.0009155L0.2284546,6.8571167
			c-0.2688599,0.2377319-0.2975464,0.651123-0.0640869,0.9245605c0.2334595,0.2730103,0.6405029,0.302002,0.9091797,0.0649414
			l0.286499-0.2528076v6.4398804c0,1.0855713,0.8657227,1.965332,1.9335938,1.965332h3.6095581v-5.2736816
			c0-0.6327515,0.5050049-1.1460571,1.1279297-1.1460571c0.6229858,0,1.1279297,0.5133057,1.1279297,1.1460571v5.2736816h3.5450439
			c1.0679321,0,1.9337158-0.8797607,1.9337158-1.965332V7.593811l0.2863159,0.2528076
			c0.2687988,0.2373657,0.6759033,0.2080688,0.9093628-0.0649414C16.0668335,7.5082397,16.038208,7.0948486,15.7694092,6.8572998z
			 M13.3486328,14.0336914c0,0.3619385-0.2885132,0.6555176-0.6445312,0.6555176h-2.2558594v-3.9638672
			c0-1.3565063-1.0821533-2.4563599-2.4171143-2.4563599s-2.4171143,1.0998535-2.4171143,2.4563599v3.9638672H3.2936401
			c-0.355957,0-0.6445312-0.2935791-0.6445312-0.6555176V6.4557495l5.3497314-4.7216187l5.3497925,4.7216187V14.0336914z"/>
	</g>
</g>
</svg>
