<?xml version="1.0" encoding="utf-8"?>
<!-- Generator: Adobe Illustrator 27.2.0, SVG Export Plug-In . SVG Version: 6.00 Build 0)  -->
<svg version="1.1" xmlns="http://www.w3.org/2000/svg" xmlns:xlink="http://www.w3.org/1999/xlink" x="0px" y="0px"
	 viewBox="0 0 60 60" style="enable-background:new 0 0 60 60;" xml:space="preserve">
<style type="text/css">
	.st0{enable-background:new    ;}
	.st1{fill:#FE3E57;}
	.st2{fill:#FFFFFF;}
</style>
<g id="Icon_x5F_bg_00000008125817481907146280000002718239933284444298_" class="st0">
	<g id="Icon_x5F_bg">
		<g>
			<rect class="st1" width="60" height="60"/>
		</g>
	</g>
</g>
<g id="Icon_00000096750392860990945310000013895421829627270576_" class="st0">
	<g id="Icon">
		<g>
			<path class="st2" d="M42.3839111,29.6764526c-0.3890991-0.3504028-0.9185181-0.5670776-1.4523926-0.5944824
				c-0.6063232-0.0297852-1.1742554,0.180481-1.5973511,0.5940552l-2.8903198,2.7922974
				c-0.057251-0.0958862-0.1223755-0.1868896-0.1956177-0.2714844c-0.3556519-0.4127808-0.8756714-0.6395264-1.4640503-0.6395264
				H30.737915c-0.7630615,0-1.5073242-0.0966797-2.2121582-0.2868042c-1.8376465-0.496582-3.5934448-0.133667-5.0773926,1.0487671
				c-0.6037598,0.4813232-1.0439453,1.0040894-1.3222656,1.3862915l-0.7255249-0.6879272
				c-0.095459-0.0910034-0.2247925-0.1417847-0.3578491-0.1417847c-0.0012817,0-0.0021973,0-0.003418,0
				c-0.1376953,0.0008545-0.2709961,0.0568237-0.3665771,0.1535034l-3.5269775,3.5755615
				C17.0514526,36.7000122,17,36.8292847,17.0029297,36.9621582c0.0029907,0.1325073,0.0598755,0.2589722,0.1583862,0.3504028
				l5.9653931,5.5462646c0.098877,0.0925903,0.225647,0.1381226,0.352478,0.1381226
				c0.1330566,0,0.2662964-0.0507202,0.366394-0.151001l3.4937744-3.5003052
				c0.095459-0.0950317,0.1484375-0.2263794,0.1459351-0.3600464c-0.0025024-0.1312866-0.0592041-0.258606-0.1560059-0.3499756
				l-0.3041992-0.2883911l0.6962891-0.0761108c0.4212646-0.0487671,0.8497314-0.0725098,1.2737427-0.0725098h6.156311
				c1.0003662,0,1.8499756-0.2138672,2.5253906-0.6351318c0.0056152-0.0036011,0.0112305-0.0072632,0.0168457-0.0108643
				c0.2418823-0.1639404,0.4614868-0.3584595,0.6522827-0.5783691l4.1487427-4.765686
				C43.2046509,31.3929443,43.1601562,30.3760376,42.3839111,29.6764526z M23.4658813,41.7955322l-5.2267456-4.8595581
				l2.8156128-2.854248l5.1962891,4.9240112L23.4658813,41.7955322z M41.7154541,31.5617065l-4.1487427,4.7665405
				c-0.1315918,0.151001-0.2826538,0.2855225-0.4490356,0.3995361c-0.5070801,0.3133545-1.1685791,0.4719849-1.9662476,0.4719849
				h-6.1564331c-0.4632568,0-0.9314575,0.0266113-1.3896484,0.078186l-1.5307617,0.168335l-3.2050781-3.0371704
				c0.2227173-0.3221436,0.6323242-0.8433228,1.2254639-1.3161621c1.2332153-0.9827271,2.6321411-1.2727051,4.157959-0.8602905
				c0.7936401,0.2142944,1.6296387,0.3230591,2.4849854,0.3230591h4.0462646c0.7267456,0,0.9207153,0.6149902,0.9207153,0.977417
				c0,0.2658691-0.0873413,0.5187378-0.239563,0.6931763c-0.164856,0.1896973-0.3995972,0.2859497-0.6972656,0.2859497h-3.5222778
				c-0.2822876,0-0.5112915,0.223938-0.5112915,0.4989624c0,0.2763062,0.2290039,0.4998169,0.5112915,0.4998169h3.5222778
				c0.5945435,0,1.1190186-0.2271118,1.4768677-0.6379395c0.2976685-0.3423462,0.4673462-0.7918091,0.4816895-1.2718506
				l3.3289795-3.2171631c0.475708-0.4639893,1.2189941-0.3483887,1.6350098,0.0269775
				C41.9055176,30.6040039,42.1947021,31.0115356,41.7154541,31.5617065z M29.6509399,34.8787231
				c-0.0643921-0.2681885-0.3394165-0.4349365-0.6144409-0.3717041c-0.2749634,0.062439-0.4457397,0.3310547-0.3811646,0.5993042
				l0.0048218,0.0205078c0.0553589,0.2304077,0.2655029,0.3858643,0.4973145,0.3858643
				c0.0386963,0,0.078186-0.0044556,0.1171875-0.0137329c0.2751465-0.0628052,0.4457397-0.3314209,0.3812256-0.6000977
				L29.6509399,34.8787231z M20.4591675,28.5326538h4.9829102c0.2713013,0,0.5223999-0.0849609,0.7266846-0.2312012
				c0.2042847,0.1462402,0.4552612,0.2312012,0.7268066,0.2312012H31.87854c0.2712402,0,0.5222168-0.0849609,0.7265015-0.2312012
				c0.2042847,0.1462402,0.4554443,0.2312012,0.7266846,0.2312012h4.9828491c0.6826782,0,1.2380371-0.5421143,1.2380371-1.2086792
				v-2.2686768c0-1.0189209-0.5841064-1.9046021-1.4584351-2.3411865c0.423645-0.4985962,0.678894-1.1381226,0.678894-1.8356934
				c0-1.5876465-1.3233032-2.8808594-2.9498291-2.8808594c-1.6264648,0-2.9497681,1.2932129-2.9497681,2.8808594
				c0,0.6975708,0.2550049,1.3375244,0.6786499,1.8356934c-0.3777466,0.1893311-0.7012939,0.4619751-0.9470825,0.7926025
				c-0.2456055-0.3306274-0.5691528-0.6036987-0.9471436-0.7926025c0.423645-0.4981689,0.6786499-1.1381226,0.6786499-1.8356934
				c0-1.5876465-1.3233032-2.8808594-2.949707-2.8808594c-1.6265869,0-2.9498291,1.2932129-2.9498291,2.8808594
				c0,0.6975708,0.2554321,1.3375244,0.678833,1.8361206c-0.3779907,0.1889038-0.701416,0.4615479-0.9470825,0.7926025
				c-0.2458496-0.3310547-0.5693359-0.6036987-0.9472656-0.7930298c0.4237061-0.4981689,0.6786499-1.1381226,0.6786499-1.8356934
				c0-1.5876465-1.3232422-2.8808594-2.9498291-2.8808594c-1.6262817,0-2.9494629,1.2932129-2.9494629,2.8808594
				c0,0.6975708,0.2550659,1.3375244,0.6787109,1.8361206c-0.8743286,0.4361572-1.4584961,1.3222046-1.4584961,2.3411865v2.2682495
				C19.2210693,27.9905396,19.7766724,28.5326538,20.4591675,28.5326538z M35.8234253,18.9967651
				c1.0623779,0,1.927002,0.8441772,1.927002,1.8816528s-0.864624,1.8816528-1.927002,1.8816528
				c-1.0626831,0-1.9269409-0.8441772-1.9269409-1.8816528C33.8962402,19.8409424,34.7607422,18.9967651,35.8234253,18.9967651z
				 M33.1165771,25.0552979c-0.0002441-0.8022461,0.5837402-1.4712524,1.3782959-1.6065674
				c0.3995361,0.1973877,0.850647,0.3101196,1.3283691,0.3101196c0.4777832,0,0.9290161-0.1127319,1.3284302-0.3101196
				c0.7946777,0.1353149,1.3782959,0.803894,1.3782959,1.6065674v2.2686768c0,0.1160278-0.0965576,0.2106323-0.2153931,0.2106323
				h-4.9828491c-0.1186523,0-0.2151489-0.0946045-0.2151489-0.2106323V25.0552979z M29.3869629,18.9967651
				c1.062561,0,1.9269409,0.8441772,1.9269409,1.8816528s-0.8643799,1.8816528-1.9269409,1.8816528
				c-1.0625,0-1.927002-0.8441772-1.927002-1.8816528S28.3244629,18.9967651,29.3869629,18.9967651z M26.6802979,25.0552979
				c0-0.8022461,0.5837402-1.4712524,1.3782349-1.6065674c0.3994751,0.1973877,0.850708,0.3101196,1.3284302,0.3101196
				c0.4777832,0,0.928772-0.1127319,1.3285522-0.3101196c0.7944336,0.1353149,1.3781738,0.803894,1.3781738,1.6065674v2.2686768
				c0,0.1160278-0.0965576,0.2106323-0.2151489,0.2106323h-4.9828491c-0.1187744,0-0.2153931-0.0946045-0.2153931-0.2106323
				V25.0552979z M22.9505615,18.9967651c1.062561,0,1.9269409,0.8441772,1.9269409,1.8816528
				s-0.8643799,1.8816528-1.9269409,1.8816528c-1.0623779,0-1.9269409-0.8441772-1.9269409-1.8816528
				S21.8881836,18.9967651,22.9505615,18.9967651z M20.2437744,25.0552979c0-0.8022461,0.5839233-1.4712524,1.3786011-1.6065674
				c0.3995972,0.1973877,0.8504028,0.3101196,1.328186,0.3101196c0.4779053,0,0.928772-0.1127319,1.3284302-0.3101196
				c0.7947998,0.1353149,1.37854,0.803894,1.37854,1.6065674v2.2686768c0,0.1160278-0.0966797,0.2106323-0.2154541,0.2106323
				h-4.9829102c-0.1187744,0-0.2153931-0.0946045-0.2153931-0.2106323V25.0552979z"/>
		</g>
	</g>
</g>
</svg>
