<?xml version="1.0" encoding="utf-8"?>
<!-- Generator: Adobe Illustrator 27.2.0, SVG Export Plug-In . SVG Version: 6.00 Build 0)  -->
<svg version="1.1" xmlns="http://www.w3.org/2000/svg" xmlns:xlink="http://www.w3.org/1999/xlink" x="0px" y="0px"
	 viewBox="0 0 60 60" style="enable-background:new 0 0 60 60;" xml:space="preserve">
<style type="text/css">
	.st0{enable-background:new    ;}
	.st1{fill:#34C3FF;}
	.st2{fill:#FFFFFF;}
</style>
<g id="Icon_x5F_bg_00000139253804022838389690000014309896871799393469_" class="st0">
	<g id="Icon_x5F_bg">
		<g>
			<rect class="st1" width="60" height="60"/>
		</g>
	</g>
</g>
<g id="Icon_00000177448691129111025670000010396791224970300084_" class="st0">
	<g id="Icon">
		<g>
			<path class="st2" d="M41.999939,20.4378052l-1.4506226-0.1071167l-0.1213379,1.6850586
				c-2.3237915-2.543335-5.5960083-4.017395-9.0697632-4.017395c-6.8143921,0-12.3583374,5.6078491-12.3583374,12.5001221
				c0,6.8934326,5.5439453,12.5001221,12.3583374,12.5001221c4.1206665,0,7.9578857-2.072998,10.2646484-5.5458984
				l-1.2073364-0.8203735c-2.0361328,3.0653076-5.4219971,4.8953857-9.057312,4.8953857
				c-6.0123901,0-10.9038086-4.9473267-10.9038086-11.0292358c0-6.0811157,4.8914185-11.0280762,10.9038086-11.0280762
				c3.09198,0,6.0029907,1.3242188,8.0571289,3.6062012l-1.8511353-0.1361084l-0.1057129,1.4667969l4.2331543,0.3121338
				L41.999939,20.4378052z M24.0142212,31.0200195c-0.3944092,0-0.7998657-0.1723633-0.9476929-0.2440796l-0.2136841,0.7704468
				c0.2410278,0.1546631,0.6956787,0.2875977,1.2435303,0.2875977c0.9533081,0,1.6106567-0.4100342,1.6106567-1.1135864
				c0-0.46521-0.3724976-0.7869873-0.8163452-0.8425903v-0.0108643c0.4821777-0.1550293,0.6958008-0.4539185,0.6958008-0.8417358
				c0-0.5376587-0.5094604-0.9251099-1.3311768-0.9251099c-0.5587769,0-1.057312,0.1437988-1.3093262,0.2984009l0.2191772,0.743103
				c0.142395-0.0777588,0.5148926-0.2327881,0.8600464-0.2327881c0.3341675,0,0.5094604,0.116394,0.5094604,0.2879639
				c0,0.2323608-0.3123169,0.3101196-0.5532837,0.3101196h-0.4437256v0.7369995h0.4602051
				c0.3231812,0,0.6244507,0.1442261,0.6244507,0.4100342C24.6223145,30.9144897,24.3703613,31.0200195,24.0142212,31.0200195z
				 M26.1889038,29.9668579c0,0.9863281,0.4273682,1.8671265,1.4955444,1.8671265h0.0054932
				c1.0736694,0,1.5009766-0.8807983,1.5009766-1.8671265c0-0.9811401-0.4273071-1.8667603-1.5009766-1.8667603
				S26.1889038,28.9857178,26.1889038,29.9668579z M28.1610718,29.9668579c0,0.7644043-0.1862793,1.1135864-0.4656372,1.1135864
				h-0.0054932c-0.2848511,0-0.4711914-0.3491821-0.4711914-1.1135864c0-0.7644653,0.1863403-1.107605,0.4711914-1.107605
				S28.1610718,29.2023926,28.1610718,29.9668579z M32.1762695,27.9998169c-0.4766846,0-0.9423218,0.027771-1.2983398,0.083374
				v3.6625977c0.2026367,0.03302,0.5477905,0.06604,1.0956421,0.06604c0.777832,0,1.4626465-0.1494141,1.9173584-0.49823
				c0.3615112-0.2774658,0.6793213-0.748291,0.6793213-1.5239868c0-0.6818237-0.3013306-1.1361694-0.7341309-1.4128418
				C33.4307251,28.1162109,32.9541016,27.9998169,32.1762695,27.9998169z M32.1542969,31.008728
				c-0.0767212,0-0.1807251,0-0.2410278-0.0112915v-2.1776123c0.0548096-0.0109253,0.1697998-0.0274048,0.3616333-0.0274048
				c0.668335,0,1.1886597,0.3101196,1.1886597,1.0527954C33.463562,30.6599731,32.9102783,31.0200195,32.1542969,31.008728z
				 M34.9423828,30.975708c0,0.4434204,0.350647,0.8582764,0.9423218,0.8582764
				c0.3067017,0,0.5915527-0.0773315,0.7888184-0.2988281h0.0218506l0.0548706,0.2323608h0.9312744
				c-0.0273438-0.1220093-0.0438232-0.3878174-0.0438232-0.6757812V30.177063c0-0.7305908-0.3944702-1.2022095-1.3203125-1.2022095
				c-0.6025391,0-1.0025024,0.1607056-1.1777954,0.2553711l0.1807861,0.6532593
				c0.175354-0.0994873,0.5150146-0.2155151,0.8162231-0.2155151c0.4054565,0,0.4711304,0.1216431,0.4711304,0.2211304v0.017334
				C35.5888672,29.9064331,34.9423828,30.2438965,34.9423828,30.975708z M36.640686,30.5375366v0.1494141
				c0,0.050354,0,0.1051025-0.0109863,0.1502075c-0.0438232,0.1602783-0.2081299,0.2827148-0.3670044,0.2827148
				c-0.1917725,0-0.2958374-0.0889893-0.2958374-0.2444458C35.9668579,30.6539307,36.1859131,30.5375366,36.640686,30.5375366z
				 M38.6235962,32.0454102c-0.1259766,0.0438843-0.2410889,0.0712891-0.3341675,0.0773315l0.1917114,0.8751831
				c0.2903442-0.0221558,0.6409912-0.1107788,0.9696655-0.3822021c0.2958374-0.2440796,0.5916748-0.6379395,1.0901489-2.017395
				l0.5697021-1.5570068h-1.12854l-0.2684326,1.1804199c-0.0328369,0.1442261-0.0765991,0.3657227-0.1150513,0.5095215h-0.0218506
				c-0.0383301-0.1329346-0.0931396-0.3540039-0.1369629-0.5095215l-0.3560181-1.1804199h-1.1560059l1.057312,2.4716797
				c0.0383911,0.083374,0.0438843,0.1272583,0.0438843,0.1602783c0,0.0390625-0.0219727,0.0894165-0.0548706,0.1280518
				C38.9084473,31.8790894,38.760498,31.9998779,38.6235962,32.0454102z"/>
		</g>
	</g>
</g>
</svg>
