<svg xmlns="http://www.w3.org/2000/svg" width="16px" height="16px" viewBox="0 0 16 16" version="1.1">
<g>
<path d="M 8.003906 3.898438 C 5.734375 3.898438 3.902344 5.730469 3.902344 8 C 3.902344 10.273438 5.734375 12.105469 8.003906 12.105469 C 10.273438 12.105469 12.105469 10.273438 12.105469 8 C 12.105469 5.730469 10.273438 3.898438 8.003906 3.898438 Z M 8.003906 10.667969 C 6.535156 10.667969 5.335938 9.472656 5.335938 8 C 5.335938 6.53125 6.53125 5.335938 8.003906 5.335938 C 9.476562 5.335938 10.671875 6.53125 10.671875 8 C 10.671875 9.472656 9.472656 10.667969 8.003906 10.667969 Z M 13.230469 3.730469 C 13.230469 4.261719 12.800781 4.6875 12.273438 4.6875 C 11.742188 4.6875 11.316406 4.257812 11.316406 3.730469 C 11.316406 3.203125 11.746094 2.773438 12.273438 2.773438 C 12.800781 2.773438 13.230469 3.203125 13.230469 3.730469 Z M 15.949219 4.703125 C 15.886719 3.421875 15.59375 2.285156 14.65625 1.351562 C 13.71875 0.414062 12.585938 0.121094 11.304688 0.0585938 C 9.980469 -0.0195312 6.023438 -0.0195312 4.699219 0.0585938 C 3.421875 0.117188 2.285156 0.410156 1.347656 1.347656 C 0.410156 2.28125 0.121094 3.417969 0.0546875 4.699219 C -0.0195312 6.019531 -0.0195312 9.980469 0.0546875 11.300781 C 0.117188 12.582031 0.410156 13.71875 1.347656 14.652344 C 2.285156 15.589844 3.417969 15.882812 4.699219 15.945312 C 6.023438 16.019531 9.980469 16.019531 11.304688 15.945312 C 12.585938 15.886719 13.71875 15.59375 14.65625 14.652344 C 15.589844 13.71875 15.882812 12.582031 15.949219 11.300781 C 16.023438 9.980469 16.023438 6.023438 15.949219 4.703125 Z M 14.242188 12.71875 C 13.964844 13.417969 13.421875 13.957031 12.71875 14.238281 C 11.667969 14.65625 9.167969 14.5625 8.003906 14.5625 C 6.839844 14.5625 4.335938 14.652344 3.285156 14.238281 C 2.585938 13.960938 2.046875 13.421875 1.765625 12.71875 C 1.347656 11.664062 1.445312 9.164062 1.445312 8 C 1.445312 6.835938 1.351562 4.335938 1.765625 3.285156 C 2.042969 2.585938 2.582031 2.046875 3.285156 1.765625 C 4.339844 1.347656 6.839844 1.441406 8.003906 1.441406 C 9.167969 1.441406 11.671875 1.351562 12.71875 1.765625 C 13.421875 2.042969 13.960938 2.582031 14.242188 3.285156 C 14.660156 4.339844 14.5625 6.835938 14.5625 8 C 14.5625 9.164062 14.660156 11.667969 14.242188 12.71875 Z M 14.242188 12.71875 "/>
</g></svg>
