<?xml version="1.0" encoding="utf-8"?>
<!-- Generator: Adobe Illustrator 27.2.0, SVG Export Plug-In . SVG Version: 6.00 Build 0)  -->
<svg version="1.1" id="Shape_1_00000090280453316163927260000010232689133194414473_"
	 xmlns="http://www.w3.org/2000/svg" xmlns:xlink="http://www.w3.org/1999/xlink" x="0px" y="0px" viewBox="0 0 18 20"
	 style="enable-background:new 0 0 18 20;" xml:space="preserve">
<style type="text/css">
	.st0{fill:#FE3E57;}
</style>
<g id="Shape_1">
	<g>
		<path class="st0" d="M0,7.9v10.3c0,0.3,0.1,0.5,0.2,0.8l5.6-5.4C3.6,11.5,2.2,10.1,0,7.9z M12.2,13.6l5.6,5.4
			c0.1-0.2,0.2-0.5,0.2-0.8V7.9C15.9,10,14.4,11.4,12.2,13.6z M9,5.9c-0.3,0-0.6,0.3-0.6,0.6S8.7,7.1,9,7.1c0.4,0,0.5-0.3,0.6-0.6
			C9.6,6.2,9.3,5.9,9,5.9z M6.8,14.1L1,19.8C1.3,19.9,1.5,20,1.8,20h14.4c0.3,0,0.5-0.1,0.8-0.2l-5.8-5.7H6.8z M2.4,5.1L0.6,6.9
			l1.8,1.8V5.1z M15.6,5.1v3.5l1.8-1.8L15.6,5.1z M11.2,13l3.2-3.2v-9c0-0.4-0.3-0.8-0.8-0.8H4.3C3.9,0,3.6,0.3,3.6,0.6v9.2L6.8,13
			H11.2z M4.8,6.5c0-2.3,1.9-4.1,4.2-4.1c2.3,0,4.2,1.8,4.2,4.1c0,1.5-1.8,2.3-3,1.3C9.9,8.1,9.5,8.3,9,8.3c-1,0-1.8-0.8-1.8-1.8
			S8,4.8,9,4.8c1,0,1.8,0.8,1.8,1.8c0,0.8,1.2,0.8,1.2,0c0-1.6-1.3-2.9-3-2.9c-1.7,0-3,1.3-3,2.9c0,1,0.5,1.9,1.4,2.5
			c0.9,0.6,2,0.6,3,0.1c0.7-0.3,1.2,0.7,0.5,1.1C9.5,10.8,8,10.8,6.7,10C5.5,9.2,4.8,7.9,4.8,6.5z"/>
	</g>
</g>
</svg>
