<?xml version="1.0" encoding="utf-8"?>
<!-- Generator: Adobe Illustrator 27.2.0, SVG Export Plug-In . SVG Version: 6.00 Build 0)  -->
<svg version="1.1" id="phone_x5F_icon_00000083803357810661117300000017572503077923474564_"
	 xmlns="http://www.w3.org/2000/svg" xmlns:xlink="http://www.w3.org/1999/xlink" x="0px" y="0px" viewBox="0 0 20 20"
	 style="enable-background:new 0 0 20 20;" xml:space="preserve">
<style type="text/css">
	.st0{fill:#FE3E57;}
</style>
<g id="phone_x5F_icon">
	<g>
		<path class="st0" d="M19.5,14.8L17,12.3c-0.7-0.7-1.8-0.7-2.5,0l-0.4,0.4l5,5l0.4-0.4C20.2,16.6,20.2,15.4,19.5,14.8z M11.5,13.4
			L6.6,8.5C6.1,8,6.1,7.3,6.5,6.7l-5-5c-2.1,2.5-2,6.2,0.3,8.6l7.8,7.8c2.3,2.3,6,2.6,8.6,0.3l-5-5C12.7,13.9,12,13.9,11.5,13.4z
			 M7.7,5.5c0.7-0.7,0.7-1.8,0-2.5L5.2,0.5c-0.7-0.7-1.8-0.7-2.5,0L2.3,0.9l5,5L7.7,5.5z"/>
	</g>
</g>
</svg>
