<?xml version="1.0" encoding="utf-8"?>
<!-- Generator: Adobe Illustrator 27.2.0, SVG Export Plug-In . SVG Version: 6.00 Build 0)  -->
<svg version="1.1" xmlns="http://www.w3.org/2000/svg" xmlns:xlink="http://www.w3.org/1999/xlink" x="0px" y="0px"
	 viewBox="0 0 130 130" style="enable-background:new 0 0 130 130;" xml:space="preserve">
<style type="text/css">
	.st0{opacity:0.2;enable-background:new    ;}
	.st1{fill:#FE3E57;}
	.st2{opacity:0.6;enable-background:new    ;}
	.st3{enable-background:new    ;}
	.st4{fill:#FFFFFF;}
</style>
<g id="Ellipse_7_copy_2_00000013888171521334534810000003616014365116411266_" class="st0">
	<g id="Ellipse_7_copy_2">
		<g>
			
				<ellipse transform="matrix(0.7071068 -0.7071068 0.7071068 0.7071068 -26.9238033 64.999939)" class="st1" cx="64.9999695" cy="64.9998779" rx="64.9999695" ry="65"/>
		</g>
	</g>
</g>
<g id="Ellipse_7_copy_00000081633574138375337300000010983986618179565237_" class="st2">
	<g id="Ellipse_7_copy">
		<g>
			
				<ellipse transform="matrix(0.0498134 -0.9987586 0.9987586 0.0498134 -3.1569912 126.6811676)" class="st1" cx="64.9999542" cy="64.9997711" rx="54.9998627" ry="55.0000153"/>
		</g>
	</g>
</g>
<g id="Ellipse_7_00000011710687591377075490000016371871332351339691_" class="st3">
	<g id="Ellipse_7">
		<g>
			<circle class="st1" cx="64.999939" cy="64.9998627" r="44.9999466"/>
		</g>
	</g>
</g>
<g id="Shape_23_00000133489215963259367580000015877233888663807420_" class="st3">
	<g id="Shape_23">
		<g>
			<path class="st4" d="M71.8157959,63.1416016L59.9918823,55.536499c-0.5460205-0.3516235-1.0961304-0.5372925-1.5534668-0.5372925
				c-0.8841553,0-1.4310303,0.6669312-1.4310303,1.7825317V73.21875c0,1.1148071,0.5462036,1.7801514,1.4282227,1.7801514
				c0.4580688,0,0.9993896-0.1860962,1.5466309-0.5385132l11.8294067-7.6050415
				c0.7606812-0.4897461,1.1819458-1.1494751,1.1819458-1.8571167
				C72.9938354,64.2905884,72.5773926,63.6313477,71.8157959,63.1416016z"/>
		</g>
	</g>
</g>
</svg>
