<?xml version="1.0" encoding="utf-8"?>
<!-- Generator: Adobe Illustrator 27.2.0, SVG Export Plug-In . SVG Version: 6.00 Build 0)  -->
<svg version="1.1" id="User_00000070817868498601463440000010010560297513933501_"
	 xmlns="http://www.w3.org/2000/svg" xmlns:xlink="http://www.w3.org/1999/xlink" x="0px" y="0px" viewBox="0 0 16 16"
	 style="enable-background:new 0 0 16 16;" xml:space="preserve">
<style type="text/css">
	.st0{fill:#FE3E57;}
</style>
<g id="User">
	<g>
		<path class="st0" d="M13.7,10.3c-0.9-0.9-1.9-1.5-3-1.9c1.2-0.8,2-2.2,2-3.8C12.6,2.1,10.6,0,8,0C5.4,0,3.4,2.1,3.4,4.6
			c0,1.6,0.8,3,2,3.8c-1.1,0.4-2.2,1-3,1.9C0.8,11.9,0,13.9,0,16h1.2c0-3.7,3-6.7,6.8-6.7c3.7,0,6.7,3,6.7,6.7H16
			C16,13.9,15.2,11.9,13.7,10.3z M8,8C6.1,8,4.6,6.5,4.6,4.6c0-1.9,1.5-3.4,3.4-3.4c1.9,0,3.4,1.5,3.4,3.4C11.4,6.5,9.9,8,8,8z"/>
	</g>
</g>
</svg>
