<?xml version="1.0" encoding="utf-8"?>
<!-- Generator: Adobe Illustrator 27.2.0, SVG Export Plug-In . SVG Version: 6.00 Build 0)  -->
<svg version="1.1" id="Shape_15_00000001624860408427026360000008912311771330724992_"
	 xmlns="http://www.w3.org/2000/svg" xmlns:xlink="http://www.w3.org/1999/xlink" x="0px" y="0px" viewBox="0 0 20 20"
	 style="enable-background:new 0 0 20 20;" xml:space="preserve">
<style type="text/css">
	.st0{fill:#8D8D8D;}
</style>
<g id="Shape_15">
	<g>
		<path class="st0" d="M17.071106,12.9281616c-1.0892944-1.0894165-2.3856812-1.8956909-3.8001709-2.3834229
			c1.5150146-1.0435181,2.5102539-2.789856,2.5102539-4.7645264c0-3.1873779-2.5934448-5.7814941-5.781189-5.7814941
			c-3.1878662,0-5.781311,2.5941162-5.781311,5.7814941c0,1.9746704,0.9953003,3.7210083,2.5102539,4.7645264
			c-1.4144897,0.4877319-2.7108765,1.2940063-3.7999878,2.3834229c-1.8887329,1.8884888-2.9290161,4.399231-2.9290161,7.0706787
			H1.5625c0-4.6521606,3.7850342-8.4371948,8.4375-8.4371948c4.6523438,0,8.4375,3.7850342,8.4375,8.4371948h1.562439
			C19.999939,17.3273926,18.9597168,14.8166504,17.071106,12.9281616z M10,9.9993896
			c-2.3262329,0-4.2188721-1.8933105-4.2188721-4.2191772c0-2.3262939,1.8926392-4.2183838,4.2188721-4.2183838
			c2.3261108,0,4.21875,1.8920898,4.21875,4.2183838C14.21875,8.1060791,12.3261108,9.9993896,10,9.9993896z"/>
	</g>
</g>
</svg>
